<mxfile host="app.diagrams.net" modified="2022-10-26T08:29:34.764Z" agent="5.0 (Windows NT 10.0; Win64; x64) AppleWebKit/537.36 (KHTML, like Gecko) Chrome/106.0.0.0 Safari/537.36" etag="j5rUEEPJ12knsVX5YOSz" version="20.3.2" type="github">
  <diagram id="g5mVpR7l8XFOexhLUSuS" name="第 1 页">
    <mxGraphModel dx="1422" dy="706" grid="1" gridSize="10" guides="1" tooltips="1" connect="1" arrows="1" fold="1" page="1" pageScale="1" pageWidth="827" pageHeight="1169" math="0" shadow="0">
      <root>
        <mxCell id="0" />
        <mxCell id="1" parent="0" />
        <mxCell id="II6r7IeaM3WeVrsNKnXq-2" value="" style="shape=image;verticalLabelPosition=bottom;labelBackgroundColor=default;verticalAlign=top;aspect=fixed;imageAspect=0;image=data:image/jpeg,/9j/4AAQSkZJRgABAQEAYABgAAD/4QAiRXhpZgAATU0AKgAAAAgAAQESAAMAAAABAAEAAAAAAAD/2wBDAAIBAQIBAQICAgICAgICAwUDAwMDAwYEBAMFBwYHBwcGBwcICQsJCAgKCAcHCg0KCgsMDAwMBwkODw0MDgsMDAz/2wBDAQICAgMDAwYDAwYMCAcIDAwMDAwMDAwMDAwMDAwMDAwMDAwMDAwMDAwMDAwMDAwMDAwMDAwMDAwMDAwMDAwMDAz/wAARCAN4AkYDASIAAhEBAxEB/8QAHwAAAQUBAQEBAQEAAAAAAAAAAAECAwQFBgcICQoL/8QAtRAAAgEDAwIEAwUFBAQAAAF9AQIDAAQRBRIhMUEGE1FhByJxFDKBkaEII0KxwRVS0fAkM2JyggkKFhcYGRolJicoKSo0NTY3ODk6Q0RFRkdISUpTVFVWV1hZWmNkZWZnaGlqc3R1dnd4eXqDhIWGh4iJipKTlJWWl5iZmqKjpKWmp6ipqrKztLW2t7i5usLDxMXGx8jJytLT1NXW19jZ2uHi4+Tl5ufo6erx8vP09fb3+Pn6/8QAHwEAAwEBAQEBAQEBAQAAAAAAAAECAwQFBgcICQoL/8QAtREAAgECBAQDBAcFBAQAAQJ3AAECAxEEBSExBhJBUQdhcRMiMoEIFEKRobHBCSMzUvAVYnLRChYkNOEl8RcYGRomJygpKjU2Nzg5OkNERUZHSElKU1RVVldYWVpjZGVmZ2hpanN0dXZ3eHl6goOEhYaHiImKkpOUlZaXmJmaoqOkpaanqKmqsrO0tba3uLm6wsPExcbHyMnK0tPU1dbX2Nna4uPk5ebn6Onq8vP09fb3+Pn6/9oADAMBAAIRAxEAPwD6J/aN/bZ+InhP9orx/pVp4q8UW9lp3iXUbW3ii1WdI4o0upFVVUNgKFAAA4AFevfsrfHzxf4/8KtfX3izxRcTxzBSsmqTuoBHu1fM37VeiPP+0f8AFS6K/LH4p1LH/gXLXtH7BN7Dq3gnVLeN9lxHOrFfUYrglTlfc9LCxT3PobxP8VPEVr4LutniDWkuFTiRb6UMD8vfdn1rzgfGnxiyq3/CWeJvmGf+QpP/APFV03jWy/4p+4b/AKZk/wAq82s4v9Ej+leDmFSa2bPcwtOD3SOif40+Mh/zNnib/wAGk/8A8VTofjR4xOf+Ks8Tf+DSf/4quali4pbddteV7So38T+86lSh2X3HVL8ZvGG3/ka/En/gzn/+KqQfGTxfj/kavEn/AIM5v/iq5lOlSr92tFVqJ/E/vD2UOy+46OP4x+Lzn/iqvEn/AIM5v/iqcnxe8Xkf8jV4k/8ABnN/8VXNjJPapFi+Q1t7afd/eHsodl9x0i/F3xduH/FU+JOv/QTm/wDiql/4W/4u/wChn8Rf+DKb/wCKrl4o6l8uj20+7+8PZQ7L7jo/+Fv+Lv8AoZ/EX/gym/8AiqUfF/xZ/wBDR4i/8GU3/wAVXOxxVMsXy96PbT7v7w9lDsvuNwfFzxcW/wCRo8Rf+DKb/wCKqSP4ueLAf+Ro8Rf+DGb/AOKrBSLmpkio9tNdX94eyh2X3G4Pi14sPTxN4g/8GM3/AMVT4/iv4sbr4m8Qf+DGb/4qsUR/WjyvrR9Ym+rD2UOy+43x8VfFR/5mbxB/4MZv/iqkX4qeKgP+Rl8Qf+DGb/4qudCbfWnp92j20+7+8PZQ7L7joP8Aha3ij/oZNf8A/BhL/wDFUH4reKMf8jJr/wD4MJv/AIqsDrTli+YfWj20+7+8PZQ7L7jcHxU8VZ/5GXX/APwYzf8AxVL/AMLW8Uf9DJr/AP4MJf8A4qsgRc96d5dHtp9395h7OHZGx/wtDxR/0MniD/wYy/8AxVOHxP8AFK8/8JJr/wD4MJf/AIqsjyvpR5X0o9tPu/vM/Zw7I2h8UfFBH/Iya9/4MJf/AIqnJ8T/ABQT/wAjJr3/AIMJf/iqxlh+WnJFzXVGpO27NJU4W2RvR/E7xMAP+Ki13/wPl/8Aiqk/4Wd4k/6GHXP/AAPl/wDiqwki5qUQ8U/aT7s53TjfZGwPid4kz/yMOuf+B8v/AMVUn/CzPEm3/kYNc6/8/wBL/wDFVhtHsx9aX+D8ah1J33YvZx7I31+JfiPd/wAjBrf/AIHS/wDxVPHxK8RZ/wCQ/rX/AIHS/wDxVYKfep460KpO+7H7OPZG9/wsjxF/0Hta/wDA6X/4qpP+Fj+Iv+g9rX/gbL/8VWDUlbRqStuyo04dkbX/AAsfxF/0Hta/8DZf/iqP+Fj+Iv8AoPa1/wCBsv8A8VWLRR7SV92X7OHZG1/wsfxF/wBB7Wv/AANl/wDiq85/ay/bjP7HP7PviD4keKdU8XX2g+Ghbm6g026Z7pxPcxWybQ7ovEkyEkuDgHg11lfIf/Bd3/lFL8WP+4R/6eLCvQoyfc5pU49jzy4/4OtfhKspX7H8dvl4O2Gy/wDlj/ImvmD/AIKL/wDBw9eftFv4N/4VH40+O/gM6Sb1dULau2lretL9nMGfst62/Z5U3DZx5nTnn8rW+831NSwfc/GujmZzOKvsfW8P/BX/AOOiJ/yXL49Hdh/m8Z6jkL6f67g/T3rB17/gpn+014h1SS90/wDaI+OVrYz4MUR8d6ohXACnIE/qpP4mvmhuv4H+RrqvDX/IGh/3f6tS5mieVdj2E/8ABRr9qZioX9pD435JA58f6t6/9d63JP29v2qIF3t+0d8aipTJH/Cf6t07/wDLevDZP613EXVf+A/yrKdV3OmjCNtj6o/YS/4K9fFj9mf4s6lr3xc+L3xs8b+HbjR5LCGxj8U3mpeVdPNbyRzeXcXCxqBHHIocMG+cjnJB+q3/AODmvwbF/wAvXxyP/bSD/wCTq/I74g/8gi3/AOuy/wDoDVyNTzS7hOEex/Rv+xp/wWf8O/tG/DK/1myuPigsdrq81kwv54/P3CKJxgLduNo39Oleu/8ADyHTv+fzxv8A9/U/+P1+R3/BHr/k2jWv+xom/wDSW1r6to5pdzLlj2P0k8M/FfVvFHhvT9Tt9X1pbfUbaO6jEl04cK6hhnDEZwecE/WrR8ea5n/kM6t/4Fyf41xPwd/5JF4V/wCwPaf+iUroD1rPnl3Dlj2NNvHuubv+Q1q3/gXJ/jSr481zb/yGtW/8C5P8ayH+9Tk+7Uc8u4csexr/APCea5/0GdW/8C5P8aVPHeuE/wDIZ1b/AMC5P8ayKcnWnGcr7lRhHsa//Cda5/0GNV/8C5P8aVfHWubv+Qxqv/gXJ/jWSBk04Jg1tzS7kTjG+xrf8Jzrf/QY1T/wLk/xqVfG+tf9BjVOn/P1J/jWMBk1NHH0o5pdyOVdjTXxvrW4f8TjVOv/AD9Sf41N/wAJrrP/AEFtT/8AAp/8ayhHzQ8NTKo0HKuxqf8ACa61/wBBbU//AAKf/Gl/4TXWf+gtqf8A4FP/AI1jLF81SOPLXNT7Zhyrsa6eNNYI/wCQtqX/AIFP/jT/APhM9Y3/APIW1L/wKf8AxrGhOWqX+I/hVRqNhyrsSa0f+Ek1bSL/AFD/AE++8P3L3ul3Nz+9m02d4ZLdpYGbJjdoZpoiyEEpK652sQdD/hM9Y3f8hbUuv/P0/wDjWeOlM/j/ABquaXcOVdjXTxjrB/5iupf+BL/407/hMdX/AOgpqX/gS/8AjWUrbacrZNHNLuHKuxpjxjq+f+QpqX/gS/8AjUieL9W3D/iaaj1/5+X/AMayR1qVPvj60c0u4csex658INRuNT8O3UlzPNcOt2yhpXLkDanGT25NFQ/BP/kWLr/r9f8A9ASivWo/Ajya3xs/LX47eH1uv2pviLDJ/qrrxHqQ/FrqSn/sjafefC74y61oMxaFbiIXFruGBJGD1B7jFQ/tD3S2n7TvjyXzMbfFGo8f9vUleufDXw3J4/uvBPiTT1hkl08y6bfqPvBCPkJPU8djU1IHRhZ6ntkrWvifwteJlV3xE8n1Gf6V4akPlLsAPy5HT3NewWOkXfhaGSO4X5XU49xgivJNQLLqk3GBvP8AOvm8dT1PpMJsRHIp0H36SR95+X8aWD79eXKGp2IsD79SD7lRj79SJ0qbWAEGKlTpTAMmp44qqICKvzDnvU1NVPmFS+V9a0iAkdWIot0YqOOKrEY2oKJACRc1J5dIn3qfUgCxcVNDEu35vWm1JERt/GgUtg8tR93rSqDmlyO1L83tQQHze1KMk9qTn2pR1oAXyvpT0ixQOtSVoA3ZTgOKKcM47UAAjyP/AK1SRRUqfdp6da6o7GYCHmpkh+XpSJ92p06U/Z3Od3uR/Z933qPsqj1qaij2YakBhVBnFKh+WpJG2ITkrjuDiuf1r4h6foe/zjdsyAnCspzj8aap3diea25vKN3Tn6VYw1efH9oLR7b/AJddQ/79x/8AxdJ/w0Xo/wDz66h/37T/AOLrb6u1qio1KfQ77HP4Z/CisnwV4wtfG2lSXljHNEkcnk/vRitap9m09R+0VtD+YD/hvP47f9Fo+LH/AIV2o/8Ax+qmrfta/FX4pWUmg+KPiZ8QfE2h3hButM1TxJeXVpc7fnQNHJMwO10V844KLXnn9gyf9O3/AHw3+FbXgHwVcat4otY42s1Ztxy0bf3G9q69Iq7MleT5UXbfRrR4gfsts2eQTAnOefTr6++a0tD8O2MjyFtPs5OU5MCccmumT4Fas6jF1p6jA4DOv/spq7pHwh1HTXkjkuLJ2IDZDv8A/Ee1cdTGRlonY7sPgZp6K5zknhjT8P8A8S2zHJP+pQVtaJoNkthGG0+024OMRIa1rj4ZX3zfvrX7v99//iK1NI+GV59gi3TWg4P8b/8AxFYe3/vnZ9RqfyHOS6Dpzgj+z7Xof+WCV6H/AMI7Y7MNZWm3PINunoKyh8KrxwSLi06H+N//AIivS1+D99Io/wBIs/mOOXfuB/sVn7b++H1Sf8pxMvhHR5+JtN09v9l7RMGmf8ILoP8A0BdG/wDAKOvU/An7NGt+NdTNrZ3mmwv9n89jPLIo4YL2jJ/Sur/4YU8V/wDQU8Pf+BE//wAZrpo1lb4jnlgZ3+E+bPEHjvXPhVKmn+F9Y1Xw7YyD7S9tpV09rBI2NnmbE/jwiH/tnWP/AMNEeP8A/oevGH/g4n/+Lr6a1T/gll8QviQVurPVvAy28aeTi+urgv8ApAf79UP+HNfxO/6GLwH/AODC7/8Akauym+aB5df3J8h+y/7E+sXGsfsZ/CS4u7ia6urrwXo0080zl5JXaxhLMzHksSSST1Jr0o/LXwj8Hf8Agqt8Pf2a/hP4b+HOuaP40vNb8A6NZ+G9QnsLa1ktZrizhS3leJnuEdoy8bFSyKxBGVB4HuP7K3/BRvwP+178Q73wz4Z0jxTp2oWOnSalJNqVrbRxPEksMRAMc7nO6ZO1IxPfaKDwf6+tFABTo/vU0yCPk0C6UnigCUfI1PWTnvUDXGWpVk5qokyLHmVIJflqqJMd6kSWqJJFlfdUvnketQCTmh5amUbgTebmjzfeoI5afnNT7MCxDPgdRTw+6qg61NF1qoxsBapD94Uo6UVQDlPy07ftqOigCZZuKkjkqqDg09XywoA9f+Bp/wCKQm/6+m/9ASim/Ar/AJE+b/r7b/0BKK9in8KPHrfGz8o/2lIFvv2hPiZMvP2TxVqQk7bM3cuPzrrf2avho/jWXSbiPVtW0260XVVvUNneSW+cB1aGQKQJI3D8q2RWN+01FGfj74/uI/l3+KNSinA6Pi6lAzXefsiTpp97J8/EzqzH6GrlT5twjPl2PozU9Q1PSi1tqEUM0m0qrOATxkV4frEUn9qTEt/GT9Oa+nvijoi6xoFvexrulW2DNt9Tg/1r5r8RQNDq02V25bmvAzGlY+jy/EuSsZ6xsF5NOTrUjjYnNNgXJrxZRsz1Sxbdfwqwgy1Nt02n0qYAZrKW4AFwakjOaYFGamjjxQiuhPH2qSo4o2qXYa1ZiPHSnIvNNCHFSIMYqQ5rbC7DUkQxSUqH5qqKdw03H0U9EyOlKVx2roWwEdOi/wBYKXA/yKVPvf8A1qQEg61IBk1GOtTQRG4fav8AdLkkcBQMkn/CrDoNzxnBOQSPfHpVfVNZsvDlt59/N9ms9pZ5NhdgBzwi8sfbFfJv7f37bepfDzxv4d8C+BtW0+PWtWKz3V7byi4mt489FUfLg/Xiupn8U6jf6Pb29xfTXgWNJDKw+aU4BOR26mijTU5XOf20jrb39uXwVpE9xbap/a9hcQuWjglsz50lvnCSbeeCSBgZI7gVBon/AAUP+GXiL4Sap420nUr3WvDegxeffT2Fmbu5t03OmZLWP/SEG5HBLxgDbk4zk/HH7X+g3U3xM8J6hYwzR3lxBcQXFwAX8pEHy/u+xbuTXmPi39oX4Y/Dy01LXvCusW/w7+PXw8k3GwiEj23jpMmOa2vLdkEUqNEsbHD9ZCR1r1IYWJwVMVI++PH/APwUn8P+DPg0vxGtfBvifWvA5tftz65HqOmx2vl4B2Lid2MvI/d+WG9RnNZujf8ABT2XxPJ4Z0ew+FmtSePPFUQ1W18KXOr2VvqFtoe0P/ac0rsltECCAIZWWQ8fLzmviv4cfA7Q/wBobT/CeoeHodQ8K/Cnx9rK+JPiH4N+0H+z9DvLYl4xbiUJIsM7j7sasoUgZIwa5/WbP4hfEX4i/FzXNU8SQ+E5PilcQWGoTWljDJdafo9symO0tn3loo2VVDED5gAK6Fg4EfWKh9beIP8Agqd4zb9sC1+Fei6H4RvLnUpUim84z6bq2lxsNzfuLxY7a5aNVGDbyuJCcx7sHGZ8RP8AgpH4w8WjxJ8Pfh1458M+L/jw17Nb6X4dtPCd1o8en2qcvc381+kSoEjV3kDNht6Ebs18geNPgF/wtHVtNvPHXivxx46lsRD9g1DUC9oNNhiz5ToVRSoiG8DLdGr6c8Dpr/xL1iOZrPwXa6h4utjo8WqO9r/aXiG3KBPKabzlkYSLEcjo3l45rSOEiYyxD6lX4lf8FSNO8Rav4N0HS/jxZ6d4Z0S0lufiD4ti0xYbj7f5axLZ2VpIPOux5qvLuijdAvcEiuFt/wBvbxp8Z9B1rwvpnxT8af8ACYeDTFN4T8V6To2oLoPjje37u11G18nNs4XALsAgxyRWPB8Rfh/8NtevdB8H6VFqfjLTQwbR9H8NrZ3yCIsGK+XaF8KY3U/e+vGa4XS/2svHHj3VvA1vpHwxkg0v4ia02maZqN7q88jXLrIBceVCTGTsUNlsYHPNdCwsTKWKlfQ940/47fGLxb8X/wDhMPiJrWseBNL8I20EFv4J0rxStxB4mvFifzZJ3t5DEI2nMOFnIOwMMV6l8Fvj9dXPhia88YeIra68Sa3dPPdpJrEYgsFb7sEShyNqc8Dg5r5lt/jhZ3Xxd8UeG5PDum2fgmTUJdN0rxFCrsLdolKvtYDDFptqEsTjd171m6VZ3WntdWt9IWktpjDE7OD5q9nyDg/hR9ViZyxUj7auPi34Xt4mlm8SaHGq4yWvou5wP4qh/wCF1+Df+ht8M/8Ag0g/+Kr4h8cs0XhieMfvMbM/N0+cf4iuC+ySf7X/AHwP8KTwq6E/W2tz9g/2bPjB4Sl8F3Tr4p8OMpvnGRqUJ/gT/ar0L/ha/hf/AKGTQf8AwYRf/FV+ZH7IU2/4WahGVK41aTHToETPavTvLHotclSio7HbRrOXQ/GH+xrzH/Hndf8Aflv8K6T4QWNxb+PrFpLe4jUeZktGw/5Zt7V04lmjbCKxX8f8a2fCUzJ4gtv9YEG4k54Hyt2/EV5tap7tj2aFP34t9zrc4So3j3npT23A/N9OmKfCu5fxrwW027H1sKdtSu0OCOK1tKJ+yke1U5I8D9a0NPA+x8d6TOiOw+M/P/n0r1RryLyvvr8nJ9hgV5WI87t33cH+Vdkv/HxIrFtjHBz6YGamwLc9l/ZlP27x/dJDmZ105sqg3H78Ne5PpF2f+XW4/wC/Zrwz9gdG/wCFz6ovHzaLKCTztxPb4/Svrr7J/wBNE/74P+Nd9CndGdaCI/hVoN8/htiLO6P+kOOIm67E9q6f/hGtR/587v8A78t/hXU/BWBYfC103mZZbpsZz3RMd67Hcf738/8AGvcoRSjY+XxWD/e3ufi/8erOWD47eOleNlYeIb8EEYIP2mSvpP8A4IqapbeG/wBp3XrjULiGyhbwrcIHncRqW+2WXGTXif7Sny/tE/EDKjnxLqJ/8mpK7/8AYBk2/GTVGVTIf7GlO1Ru586D2PoKJbHj1LJ2P1qHxG8PAf8AIe0b8b2P/GpofHGi3MZePV9MkVTglbpCP518lrHvG5g6s3JBG0jPtgfyrsPAsWNGkxNg+Zjbzx+tEYpnHKs07H0QPF2k99U03/wJT/GmN4u0cn/kJaf+Fyn+NeISovP71sg+jf41D5I/56fqf8ar2KYvbs9x/wCEs0nf8upWJPb/AElD/WrKeJ9Nlxt1Cy/7/r/jXgqReXJu3hvYn/E1o6c6x3Ee7y1X1IWj2Ivatnt/9oQTx/u5oZP9xw38qsJchl615n4c+Imj2EiRyalaR8bj+9UADBOSMdOOvSt23+L3hg3TW7a/pMNzGAWhmuVikXOMZViDk5HGM8ij2bWwe0Ozjn4p/m/WsDS/HGj6mkbQ6tpsiyEhSLlPmx1xz2rVivreaHzEmiaLOBIHGw/Ruh/Dpg+ho5JdiozXUuCfil8+qiTLLgxyI6nB3KwKgHoSegz70CZdm4sF4zhjtYcZHB5yQcgdTS5WEpIuibinLPx1qukqnCqysf8AZO7+VSxQtI3yruwcfLz/AJ6j86QuZE6S1JHcbPWq6qyNykgycA7DtP0PTjv6ULIJT8rLx1Gcbfr6fjRZhzItfa6RrnIqsVYBThsSDKnHUUeXIT92T8jitIwlfYOZlxJ6lSbIrPWTC598VPGSrYbjDbT7H0rbla3Ge0fAU58IXX/X43/oEdFM+AEiyeDrrawb/TWz7fJHRXoR2PLrfGz8rvj0JLz4+fFW3LKTH4t1N1wegN3LXWfs3F49SkjjycQ8H3rzz4szNaftl/FSNnZop/E+qnB7f6XLXdfs230q+JjHGM7lNbGZ9s/Dzxl/bfh23W4h+7GkQz3wg5/WvGfi1oi2HjC5jTG3IZc+h5r1D4Pumo6Kf4TayhHB6k7QOK4X46WrQfEC4jYYKxrz2PFeLmfwnt5W0eeyJ81LFHk0shy33SOe9OiG018/KSex9CWYYs1KsPzU2Bs1NGMvXO0FxohwasRAMKYU4p9v0pxTC5NGuBTqIxuWnbKqzFdDh0pVGTSDgVJGmRmnFMwndA3ympYo8UxoWc54qZRgVtCLWpnzNkgGBSFc0m+nA5rQ1jJWG7KULg0tBOBQVzIRzhD9K8M/4Ka/ELUvhN+wn8QtY0ia4t7+O1FqjwsVZVkcIxBHIwr9ua9yLgivLf22/h5J8XP2SfH2hQbftV5pUsltuPHmRgSL2PPyce+KajcyqVGtj8af2RPjDJN8WdDsdVa4vLnUJ0to7m9VS0UYG4KjZ3Abuctgn0r7W+LXxm1q20Ka30u+ksGjPk+bGgZhgdj+Br8x/BOpf8IprkOpaffKPEFncA3trc/duwrbD5Z7MPQV99XF1Lr/AIehlZmWO6hEzREeq5xn8a66UVHZHmzrSPJvEnxI1rRtbfVrzULzVppnAczSNt+ZSeMdK63wr4nvL/UPHmpJYTLong6wOtXupS38WnWUCD5jEk/lSTSyMzFFTaMspGQAK8/8bXS6feS7o5GhVuhOfYV1HgPwFd/tGXXhLwQJrmHwffXS+IvF0PmKv2y3sj9pS3jJxzI7EY969KOm5xzkzqvhx8Xdc1FfBdrJ8NZfFHjz4hW413Q/Cy37vdWWhx/flu3woVpAD5aAN2zisLxl4rt/GWpeI/iPpfiTx3/wpHRN0HijwppFraQ+MfA1x90/aIWfy3tRJ1ZJWcgElRmqnhz4s/GCT4u/Frx9ovg3w5oPiz4gypZ6Br2t65DbjwfpEDBIbdLdSedi8lckk9KvQp8QLz472/xauNf8G+G/FC2YtdctPCvhieSw8UJtEb/bGmREPmKDlhuwTkc1smmc/tpHlvjT4Q/Dv4mDQ/hb4P1/W/G3izVTD4k8S/ES4vp20/TdJ+aW53qvG5IRGu0LgF8Z716g/wAIPAvx51WT4veNPGVr8NfgjpcI0PwLpWlahHDrcE9uohtNSMYYhVeXz3J3Z2kZArrvDf7PPhfw38LPGmleD/hneaPpni4XV3rMsmrILyKylMbzwoijzhCRGmAoPyk4ryD4IL8F9L0y4vtI8H3etWOiwy+ZeaV4autaS1jjxktJPwoQbQVwMZBx8xNbR2CUro9e8S/F+bVPGHg/T/Gnjr4c6X8etHk87wB8RfBM5fS76IBVez8QFAsiGdlaTeiyDe5B4Oa6L41al8Unvde+LHij4brF4rsNM/4Qv4baNpiRPDobSY+26xK3yqkcpLmMozMcruC845j4Z+ItUTxT4HtvC/w18faD/wALR1BLPRZ4bOy0eG9QRrcNcP5W5xGkLK53eo+UkZHTa/8AF7Rfjf4o8aeE/BFybfxpmWXwNeeIr6R7XxutqdlzGmTjzQ5YLjg4+7ySvRDY5pVLOxj6Vq2j+H/hzoPgOz8Lx/8ACPaVpoimfU7u3a/lvpMvcXGIXdQHlCsOScDnFcLYeIUito4z5kzQfu4yxViqZ4/lWp4MsNY+JWmabqkniMWs1qrQa/pRs47aTTpkJHljC5wT0JPIFcbBdq771e427sIZJFG5OvIH1okClfUs/Ezx1Z6b4GvL1o7xgpQbVCg/6yMeteTf8Lv0v/n31D/vhP8A4qum+M5aH4W37HJC+X0YH/lqp9fY14H9rT+8v/fQ/wAazdRI2hS5lc+7/wBjD4n6Zqvwu1CVVv126tMMGGP/AJ5RH+9/tCvW/wDhP7P/AJ43X5rXzF+wtMq/CXUhuRT/AGxKQGcISDBByAxHFe2+YvrXl16l27Hq0KU3FKx8KL8P7sf8vEP6/wCFWdN8K3OmX6SySwui54Gc8iujlbypNvU+1RXTqse7cOteHWk3ofVQpR0ZX+1RsT95eT3qa3nBU7e1ZwkUk/N3qe1kUI3zDn1NcPseVaHdHEPRM0ZjtRv92rumvtso/wATWZLdJg/Mv3fWr+nsJbKMqy9+9Rys2jWu7FpmBU9eldA3ia3ZmZY5u/Uj0ArnETLfeX8TU4IUH5lPHrRys6FJXPev2M/iBY+Fvidf3E0N3IsmmyRHYFJ/1kB6E19NL8edGb/l01H/AL9x/wDxVfGX7NkyP44usMp/0OQfeHXzIuMdc/KT9K9wR9p6N+VdVKUo7EzqR7n1L8Hv2gtDTw7dL9j1PDXJI/dR9kT/AGq6/wD4aP0P/nx1L/v1H/8AFV82fCc+V4dm3Ky4uJFO4bcEInBz3rqPMX1rrjjKq3sc/sac+p8M/tFeMbXU/j544uo4ZljuPEF/IobAIBuZDzz71037H/xf0v4d/Eu+vtQtb24gm0x4FSFUchjLEwPzEdhXm3xqjaX4w+LAqn/kNXnPb/XvS/Ck48RTfKeICuf+BJXqUY8+58NiFaT9WfbSftneE0Xb/Z+vDHGBbxf/AB2lH/BRzwT4MDW1xpniiR3AlBjs7c7O3UzivmTyuTyvU/xCuG+JJCa0vOS0aoNvzckn0+ld1PDwPObVz7Yf/gqf8Pwvy6P4y3dz9ltlz/5HrT8P/wDBSTwX4isTcR6X4qVQ23D28HoD2n96/PEOz8+XIobuR0zXafDS4WPQmVmUN5mcEgEjYgzjrW/sYCPuj/h4P4NPXTPE34W8P/x6tTUf23fCM+n7f7L8TTFsBY1ghUux5UZ809TgGvieJxcSKisu5jxlhXZRXvkqrKokdACqLIu5zjAA56k0eziFyb9oP4+eFb661bTbhdbhs9RuRd6+NPhZ76a0TBj0yw2nCzFwpLsVUDPJFee6V8XNW8bta6beeG/GeuadbzLJ4b8VzWEKeK/DsinNvBOskqxXkUZLpIrsN6SMAflU1peL7y8uJfN02O4urNGZtQFpAs2oacQpLO0ZZS0YxyyFjjPFQ6X4KSfQrXXbnxPrcfwb0SQXuveNpJ3i1bxlPyRpel2rDcTO8kEMbr02Sn+E0vZq+hEpPoeu+LbGfRG8L69qnhDQby10lv7TTw94Bvrj7V4x1hk2+dePLtNrpyNsd4Yt7lshVYHNZq/tBahc6/caxrHij4geEvGN4/kWfhn+xbk+BtJ09cBLS9yv2iX5EZZLqNCS7hgCATWl400r4o+KtG02HxNb6D4Y1T4mRmbwVpsdkiXHhXV44z9i0O9JIDPeR4JLjG8Y5rG0rTvGnhzwLNrWveMPBenT/Du6m0/xtp2tac632h6hArFkggt5FNxA5ktmjYMFb7VnGFrTlXYnmbLnw8+Kfh/W/D9prmjt8TNU0HxB4nk0zw1Z6Lqsn9qabqOw50S9L4j+yFszQ3Jb/VgBgrcV1Hwe+JXxIa01zwzovi7RvEXiS11aOXXte17UnXRbMlmeHRLJwPNkuJF+/KyKoYcEiuf0f9oG48Faz4atPGtjrHgrX/FlrHc6lDpjyXlj4Xsrn5bebVC6fuXnyPlYFl3cmvJtd8G+GdV1TXNNuPgb4wFz4f8AEj6Vf28Fopkj1R0823kZIHD7Jl/eJNgrg43ClyxfQXOz1XXv2kfiRpNzrXiaTxBr+j+BZL9rR4rOwhuJvBt+rrDNBf5kBFsszwlZYS5MPmOVDLtPQ6H+2b8VNHsR4vl8d+GNS+FPhG9GmahrCwSxXfiedDGjxaDEGJuQZJYo1llWMM0yk4AYjyr4C3PhO6/4T/V9EWPTPDehzNa+M9R1e6um0+GZYXDwtuYq7BW8tlXPzMBnnNZ/xT1f4Y6z4/8Ahz/amoXen3S2SDwCdBS9j0yG1zuT7GFVowwY4OcsJMAjIFL2cewe0a2Ps/Vv2vPiZoltpEN9pN94R1jxTMYtAttd1GF4rqXa0i2Ny8S4tbuRdojzuRnVwWXAJo6l/wAFKfiF4O+CcXjy7gs9W0m5uY9KtrGzvBPqsmptL5bWK2jKrG6VwAwJ2Yw2cEE/Elxr3g/xDB428OyfGX4gXFmjpNrn9qXFw32CSKUlJXkmhAjkDllVgQcvXv1z4Ik/ti8+K2itDa/EL/hHovs+vatdx3FjZPIBFHrotGCFb6SFfKEjKAcbs5Ay1Tj2MnWknc+gtA/4KV6hqfxavPAMuoaHB4yjt455rS4tFjhS8kZUGmicMY3vQzIGjU4XcOa5LSv+Cu+v3Nl5lzor6T5l9c6XCLzQ7tfMvLc/v4A0auPMjAbKnHQn0z8328e/4fw+BL/wH4M8b+DLWV5zdLfSWmsf2xJkSaxLdYx54V2UKGwMI2Tjjv8A4ZXHxo1Dw615oeuaH4S8Va0yWPi26ubuGaFJrYN5WtW8bMVW4ulVLefaAGL7snHPRGnG2iBYmR9FfB7/AIKg3XxU8SatpaW2k3FxpNp9oultf3clmu/ZvlEm0Bd3y8nOeMd66CX/AIKVy6Z4w1TS28OaG62MipHbyas9tdAsvzeeu0jnoApJ5H1r8/4Ln4NWNvrvgG8/4Tu18E6PcLqHi66Sxmi1z4mX6yeQg8/GbexDo1yccM0hXBqO11/w/wCM/Hd8uq6Za/EbxF4dtG0vU0Omlbrxp4eZd8d0jbQE1CzHVgCHCcknilLD82rK+tSP3m/YN+N8fx6+EOparHpk2ktY6zLYS28h3MJFhgd+cDvIRxnp1orxj/ghTosuj/sleImfw7p3g23vPFk09l4ctlbzdDtf7PsEgiuGbl7h4kSd29bjHais7W0MeZy1Z8NftDajNB+2V8SNo4/4SrVV/D7ZLXafs4eKRpPjSzV8Hc7A/wBK8/8A2mNQWH9sf4kfe+XxZqo/8nJa0fhZqq2fjeydidu8Lx61oB96fCP4mSC/ms47O12+aOfKOW4PPX2rC/aL+0N4ptpiUja4QZwmM8/X3qb4NaRdf8JEs6xu8EhB3KOmVb/EVoftLaQ0Nzo8kmNzKR79a48yppwuevlz1PJYoGWPczHLknntUwSmg7246dOakxhRXxso66H0T1JLd8N+FWo+tU061NA/zilZiLQIz0qZV8vI9RmoVXJqZuv4Yq4xYDoXwPrUi4J6VFGcD8Kej1XKwJFGTU0YwlQocmplPy04xZE9iVPu0tCcrSFsGtehkLRTfMFI7cZoAfSNwKi38U15dq96AHtJiop9Pj1u2ksZvmhvAYXAOCVbg/zqMyhjU9iP9Oh5VfnXknpzWlMipsfz1ftDeBtP+Hv7SXiTRrOaKaO31m4ghacDzIAJG+YD+EDGa+nv2efGT+LfhWslxPFLcafEisEPzEb3XP5KK+ZfjN4f1r4gftffEC30vQNT1zUL3xLLKptoPMYR+a3y/jnHpX1B+zp+x18Uvgv4R1Lxd468OzeH/D+pRpBZRSyq00bs77d6KML0z1PWuxeR50zB8caHcW+vuYYzMswIGcbuO+DxXG+FI9e07xFFdf2HF4x1bTbgy2uhSXLxtfwgtvgXymXbK0YGzryBkHJr2Dxvokmr+GJJo7OS8uLOYK+z/WYY8H0x+NeI2Xi6PwlHqTaDbzWPjHRZYtQguw21knSQMCX52439SMV3Unfc4JSZ6B48+JmlS/2P8StD1rxPZfBHUWk0nxB/YGmWFv4o8E3wwqxagskEm+NZMgPtUkADryY9d+H3gxfipfnVvGnjj4g/DH4P6CPGPjbWm1lsa5cPzYaYioAiqZCgkVQWIBwR1pIPGfjD/htZfiBpC+HfCOn63bW1h4r8PWFxHer4mdVAmuZEWARF5FOD8uc/xE812vxq+B/w18O/s9N4b0fQNS8K+DtQ8UNr+p3V9C1nDfyE4itXBnLbUxgbmC/KCEraStsZanO+HLDwjpV14e+J3xC+KmqfDf46eKhFfaRNp11DLo/h23mB+zWU8DK5EKwqUfexbDA5GRjM/Zn8caN46/aD1i+8A6pqnw/+P1xc3aINMdrr4aeLAsa74zE4Lx/alGC3mgKyg8ZxSweOfgr4QtpNbt7Lw3ZLK5tpNTGlyX0k2flCo7QneeFUBWz8oArtP2efjToXjX9pLw/8MbzS/GVvLHGdUv1ubB9Ot9N0lI2la6nVZBsjCYfDYOHXPOBVQB6bne/G69+Oln8P7jx14k8GW0XxY8aRN4M0LQ9FeOLT/A+jzr597fQs5IS5Ib7NG7EqqxdCa8x+Lejaz468EaF4Ht/Dfwx8D6V4CtbeLwM0V7c33ibw9OnMk0txbL5bPKwLsGUKWIHGRXb/ABZ/aA8N/tD/AAo8aax+z74PvNP8Z/DdptRuNL1O2KXnibR0+9e2qTLIsix43bACSJCc8HPj+sfDLxLrvwCk+N2v/HOTWPha+lR3EMOlxSWrzaw5GLAxRPHiRSQPm44+7XXDY55pN3O6OiyeL4BqWvnUtS8RMsNtqOp2MItI70x4VDcoc/vMZGVxnOSK8P1ORvtDfJ5fk/ugoOdoAHH/ANf9K9Ig0nUvh3ofhn4VwX97deJNStE1nxNOzvJ/Zss+LiOKViWbeEjwRlQM9DXkN3q7Wci284lW6jzG24feUHbnPvjI9qUhqOlkGpRrPbNGVyrbchjuzhs1nbT/AH5P++zS3+vRx2ZlO/aoBxxnrisgeM7U/wDLO4/75H+NcNeVj0cLsdboEhWL5CUXeeAfUAfToAOlWmi27v8AZrB8OeJ7d7RmCTcP6D/Grj+I4W3fLLz7D/GvLc2z7ChyumrIzVlZm3E5zVPUZGMLc96sLMAO9U9YuFt7NpGztXHT64rllT6j5H0ZnJL/ALTVFcTEchqrrrscX8EhBGeAP8ao6p4ohhlXck3zA44Hb8an2a6iV0y8LqSR+vb1rqPD6t/ZUZ3Lznqa88bxhaxv8yXH3c8KP8a29J+K+m2VhHG0V9uXPKxqf/ZqiVC70OinUs9TtJA2z7y/gTUL7inzcr3Getcy/wAYNNcY8vUOeOY0A/8AQqtR+PbSb5ds/Tuo/wAaXsGuh0OurbkPxGmdtCHzMN067scbsKf/AKx/CuHT5j1Nd1Jan4kI1hYskc0Z88mc7VKgKO2Tn5h29abH8A9YB/4+dN/7+P8A/EVtGmcNWUpO6Z9gf8ErpTJ8Atab7rDxBMMqAp/49rU9R7kmvpnzfr+dfJP7D3jyz/Z9+FWpaPrMdzdXV1q0l6jWSq8YRoYIwCXKnOY27YwRz6ey/wDDV3h3/nx1r/v1F/8AHKzlRbO+hWp+z1ep83/FWFf+Fr+JOP8AWatdk/8Af56y9MXypW2YXchU+vVT/T9a9A8RfCPUvHHirUNatJrGO11S6mvIlmdhIqSsXUMApGcMM4JGe5rPn+Cuq6KvmS3GnsvT5Hc/+y17GHWiPmMbRfK2jm1VgPvfrXr3wAY/8IncZLH/AEtxnPQbEwB6csTXAf8ACBXiD/WWx/4Ef8K6Pwb4+s/hbaNp2oRXU01xKZ1NuqsoUhVGdxBzlD29K9CKZ89zI9WVFVEbaMcHFeK/tLOy+MLNckL9hjbaCQM75RnGcdAPyrrG/aN0NLdR9l1T5QP+WUf/AMXXmfxl+I1j458SW9xaR3UaRWqxETKqkkO57E/3h+taDucxu+v/AH0f8amtWmluQIfN8452BHIYnHQVSe9jRc81i2fxG07UbhYTDfjzPlBRBuUnIBGGzkHn8KAPY/2bGsvDfxFuvGmtXFvBoPhK2U3erCQtdi5kO2GxtQW2zXLOVG0oQucHI5r0P4qePf8AhcXwMuNa1bwjcSa94BvEi1Twfq96lve6NEsoAv0WONf3Sfa43Loowry4IK5rg/C/hO+udZ8B6ra68uj2Ph0Pe6dbX1mPs11ft96YN8ytNjoCrN34rvE8QeOfE9/4c1LWrDwj4o+IWgakLybxImtW5l1zTw8rSabKBCCVaOV4ysisPlGQBjbURSWhy/xQ+DWl+DPB0moeJ9D+MXgHSJNX003Wo2+p+ZBrGqsWNrLaSP5r3EhADRlB8u7ac16FZfs/eAfHnxP8A6nql9o+p+NG0i1utI0bxHrxt9V8QJFE/wBnmvrLaPPm2pkBigfyIvlHGeo0vwrffCC01T4iWds3xD0Dwdo1zF8LdGa7ka18IXV9Ll78ySCSGMQuSI5cSjI+RozxWf8ADbWbE/CO8vvF3wk0fxh428carNqmseMrjxHZ/a4BO4YWsMrnzB5OyNVCNEPk4Ccg0Yc1ij4O+Ken2Xw+8eRx+JvDPiCPxfrNzaeMLrxN4ckkm8RXpGw2V20bptEagGNF8shlGM4rQ+G9lren2ms32m+Nbu38ZW2hp4ZvtV0q2/f3eg/88rhXZx9vgGBDcfKwXIMb9a1vAmv+PYI9R1jSG8Pp40haTTYmv761jsPFBRisNzJK0bxfbLWEgEvG7PjiZmNcn40+HtjpVtb+D9D8cWHgaz8C3o1LWte1My2b/EfxRP8APAY1+aR7dWLxid3MXI/dj7o6OSNjNSdzz6bwd4ut5NK8PWPh/wAMXnhnwfIreG/C15qk507UDvEzXWrCOLddzyyqsr4kTJjUYAJq9b6Z4uGuLoGueG9E0/4carqS6jeWFhq7teeFLuSRJJrnRZmX/RY/NSGURSiUBoWHRsVYl8MQ3HirX/iMug61deG4Zxp3jmysrtzd/DTWAPJlmkgST97bs80E6y2+FMcTttG3BitPhhoeg/FTRPiZN4svpvgn8OJFisdPWW4aT4vaihPmNYwGXdKpuXtIQ0hKliTjaDmeRGsW2dR+0pd+MG+H/ka9D4R+Ikem6lBc6D4e0m1W1/4SmdHIivdffczXCxBhKIkaIPJKxwQoA5/xKU0q61vXb3w38QfEnjHUdLkbWL3V7eOWx8VwSAJc6VHbwgeTaQJhrZgPMjfqZAdo6fxV4b+NWl+EtQ8O/EtD4S1T4iXa3HgvxBO0c1rod5ueeHTL6SOMfZXlSaOBXbcge3I6c1mXmk+LvBXhhvEOo+NprjUElTww3giUSReIW8Rv0tRCoYmLkN9o3eWV5xR7MzmjFuvgI2rS6B/wiPhTVtZin0iB9K8S6hqN3p2k2mmg43anFGYy2owOUEjAxq8UZOwHkeifBe0vb7wDfXnwrns/Hvh2zm+z6PH4n1iO/wDEXxFZGCXt1A+cWlrbylDGnlksgfLEnI1vDPjLQ7e/b4e6hrU1hrTKllq2tNPJPot7r5+RtIWbdte4USjI2hCA2eleUWOoeCdYj0zUJPAnijR9YmlurKO7sdDkikFzbuY7mAi3YGIpggqQAQwOORnSKMju4vH2k69eWmtf8JxJa+CNeVtOsNQ1C1Kw+HtViX7RJp18YpY2wtq42yEqGkQjANZOh+M/FRt7fUPDvh2a/wBX8ZT7PhzZXEM1re3VrH/x8a5fM0pa305SDtU7GkAPJzWX8FrX4S+Z48XS9L0PUNDaOKXxZFqFyYbCKUTnZJMZCyeaJCcKBvbpyOKd8cYPDuu/HvWLfVr7WLHxz4002KFNKsPOuLqXToQGCWxjkRJoxGDlIyu3PQmtbAfrh/wRdl1df2ZfE1r4j0+80/xNY+LrmDVhNJ50dzP9jsmE0MvWSF42jZSckZK5IUGis3/ghZbxw/sc6o1pHriaTJ4lm/s1tWtpLeeW3WyskUhJGZwoZGUbjn5TRXFU+I0PgH9q6x8v9rX4lzAnJ8W6qf8AyclqHwXefZp7e4PWOVe9an7V8TH9qb4mBY3bPizVDnb/ANPktZXhi232PlsrBjgjiqKUWz6F+B37TfjW5+N1vpMvge603w3bqqReIZtRU2cxxOAGiHzZOyLnP/LdeOOfob46xTSaPpMs25XUsSh+8uRnB/z0xXzz8BroXOlpHM3lyQzK6JhSWO1eenYr79K+kPi5LHrXhDSnhdZBHHlmA6nbz39QT+NYYy3JZnZg5OMtTyNFx+DGnE8UN8kjA8c5oHPevkKkLSdj6WnNOI5OtOBxTVwD1pwbNZNNGiaexNBIwI9M1Y3Zqmj7T+NTo+T1q6bRFS6ZZjHvUitgVDE+T9akY7a0KUroej80/wC0barElTmkMvFBM3oW/tdPS6G2s9rsL3qvNqkaP979KDM2xdqF6D8ahudQUD0+lYx1uMD71VbnW1Y/Ke1G4G4NRUDg0yXVAylawH1jahxUT6uz9elVysDf+3LSrqvkuG3bWU5HPQ1zZ1ZfU+1Ib7c3LVcU0BpeH/D2ieE724vNN0rTLO7uSWlnhtkWWUnrlsZ5rF/aC06Hxz8FvE2nTRtMZLdpkYN8wlTJUjOcc54q4uoqvv8AjUc96lzbyRONySKysM9Q2f8AGtozaMZUUz82PEVw1xoknmTT26SSjzo7dzHvYe/OAPTmvNdd+Hmj3/xFm1DSLhvM1KJrZ7S5ffvcxKF2tx91kzhgwIxXuPxR8KppHjHVbPy/lhunITGOD0/KvG9Q0xfDXiSzvby++wWmm30btdNCZAFBwRtHrnGa9GizyakLGFqOj2Fx8Z9auNa+InjTxB4D+EvhiDUfFd9BJBbx6vqhANpptukUP7lSxRW5d25AK9a6+bQ/E3hn4R6j4m8Qa94N1P4jeNNPXWtd+Fnie43aL/Y7qqQrEvmebBdImDu8wnPOK5+/+FHh3Sv2X7fSdeutQ8I+Fx4outR1K7uteFlb65eEu0JlI+baoVtqYyCoIzmvPLTw98KZvF9vDp2gr4+8Sa/ceXbWs2k3WsXt7wQWV7p9nlquG3KAOOldBhyn0b8I/ibf/Dn9l3Sda+DVlofxa8A+F76O/vfhd4jtftGu6HdowLyWkkIjeWGGZoDGx3ZWRiwbHG18RLvxL4K0a68K6h4L8VeLPGPxelj1n4qeKNJ0wT3sNtdsrT6Tp8krBIlSOCyhw28L++4ORjkv2W/i1HeeE/GHjH+z/EXgjwP8OYLy0m1qzigs2FxAYkFnbLGPnd3mWPOT1fg7a734g/Ee68X/AAVm+JHwl0e01TUtHgil8VeG/ES3c+t6GFCm6lEOAGSNJIJAOCd5+tVEipsO/ae8dfGb45+K/BniHTfhj4d+C/iD4Zp9j8Ia5H4litbr7H91oNQt40kN0jRhVeMBTky4IzxW8Lfs6aDrfiDTfFOr2V5ea6uoyeJ9X8H+HbCX/hDm1VVKx3ipcYeNMtuMRcgkA5GKrfF3wHrmifs7al8ULT44aP4o8JXf2bSvCFr4D0qKz1bUvEl4QbaynE0RkQCJo5GKt0DDqMmheeCvipepc+BPAPjS8vpP2f7SN/Et9qF8Jrbxd4rutr3Omk7szRxIxAUE4YYroizl5WcNL4zk8O6h4qjvPF7Nq3jTUHvNbvIxZpNJMWwVBQM0aKvyqoyQM5JrxG6u4xArLcNPHuCxu0m8OoHGDgZ69f0r2e9+Hrajdap8RvAnh/S9J1CM48e+Ab62T7Xpd5GNkxg3ANtdGeQAAYCfxV4Hrms6b4tm/tTTIzpvhtmNrpqMA3myKqkjAORySOemKG1Y0ih+rKP7KZBzkYzn3zXOqm0VqSDdbbSTzVfyl9a4ase5005NaI1PDB26S7t8vz9D/wAB/wDiv0q79oj/AL6f99Ctf4dHdozhfl/e44A/2f8A4n9a6bc+7HmP/wB9H/GvNcddD7PC6YdPqcLn/d/76FUfEZ/4lEv/AAHsfWvct/8AtH/vo1m+K22aHO21GwFPIBJ+YDr+NdMcvs7tnnyzX3rON0fOwJCD5W6D+A+n0rH8VKxWEgN/HztPoPaveDkPt2JwMZCj/CsDxy5RIMBerDG0d/wqpYFR3I+v8z+A8Qlj8ldzNJ/q/wCFD/hSwfPArYn28jlcD+VenTMz7D/skcKPb2rvPBEX/FPwt8u5s87QKdPBxbumOWMUd4nzym0Ov3+o610STqU+q174I+Rnnn0rWjQLD/vcfSrqYJLW4oYxT+GJ4z8Fo1h8U3Dtgf6OygevKD+lenm4X+8Pzru/hnKza1cN0zAT9MsP8K7XzG/vGsPq8V1O6nJtanlfhiFGsZCf724DBB/Wtfz/APaX8hUvxEUw6xDtbG633Hjj7zDt/u/rXPLcyMv3z1qvZIuWmx7/AOEyv/CNWB/6do//AEEVW8WgtZLj+9TfB7MPCml/Nndaxj/xwVY1QedbhT2Oa66FNHj4vGQ5JJo5fbg/MrflXAfFeTHiW1ZVYDylU8dPmY160q7FwAv5VveGTi0L4XKvtHHTGT/WuvlfQ+bUk0fLm4rAsm5SGXOPTjNVdSxJKuNobaDg9cH2+oIr6/SP9wvzN0HWvCv2pCrePLXC7SbFWODxzLMen5D8KPZyKjJ30PK7gN5DfL054HpXlc5NsqfPKokIVnjhLtEOSxxjqB0464r1wxbg3GeD+Hv+FU9dsLnULd49PjhutQILW9tKQjSk42hTleR6Z59+hkuUmZfwV+Luo+Fpri0trPQ4NDtZGmNp4lV9QtHeJRIs0UUTxSRTkjcJEmTDKBggkV9eaJ8bPBHxi0Dw3pHijW9r+IvJu49P1W8sLeHXZMkxefNbW8N3KrMoGyS5AIjUSMwB3fA/inwVp/xGul0z+3LjWde1q7j0/wCzT/8AEvuPD1nC2+6lkQBQwIDICSQeDkdjwr468L+JbrVNeXwbN4s1a4vmtLbTWxappulqyQoVlb92j4UHI3czk880EOo0fon4dnv/ABH458VvDa+I9U8VaQ8dprKTaZerfWVuGCRRWtrFOkS2a5BUCCQH7xc1q/Cnwlp837RZ8OTXmj3/AIk1CxbU/wDhHY9FuU1HZ5ayb7+zkkMMsS7cvtEEhAQ7wQd/zD+zT+0PrsmvXGg+JNU1m60mGC4TwjcwavLBrnhZUXJ2aqdpuIkGflKyqCB06V9JeCPHFn45/Z71S18N6+1xYLfyp4tl8Paj/a3jDXmikD3X2y42rP5bhYhIsRACxqAoBariTJ3Ovn8PXfhP4teINS0me417wx4909LjVda0Nrc6peGF8rbaLbuHsrGyV8hnaOWY42tJmsaH4zabqnijxJb6hJr32XTY11G4stQ0TzY4NNmbZNKIjuDTWhIe5tUYqVJliCdKv6XPp/jfR9Jew8P6DZwqftulxacJbPTrO3zjejAlBKvVkYkOc5XPNbOr31x8E/Fmn+KJv7b/AOEL+yLBY6RY3KXupePNWlGCq5XFnZxBiHkZmYKAp4FdJJw3h668L+G/EeoeOLCPwSvhPVJXtvh79hsmsfEvxTKq0O+0sWdh5LzSxxq00b5SSTjCVh/HD4Z3/iPxXod1qXgPRrPx/wCBot+n+Fm1M2+owW2RIZtBEY8iVIwtwzxgb1ktpVzkrjvfjv4C1TW/Een+Kta8D6PqXj7R9PiWd/D3iCOS+0GEZ2PpzhgrJGhkLJB8yGGX+8mfMfiFoPhv4R+DoF8SWfxA8M2Om3S3uk6kb2a5jSaSaJ/tGl3SGRyZJfKJCZDMyAqcsWcTmlUmnoYXxG/Z+tfDXwT8S+Kr7QPEPiPwX4tjhimvbTxe99a+MHeT93DbWrHzvN83IOQrI6tjjp6fp/ijR/Anjxo01TUrP4y+GfAT6VJqFna/btb0q28vfJYxXhLR/wBpRwEks0cjhEwASOLl/wDDDwvpfxYm1PTtW03T/jLqFtLeafpIummutIuPKUyXMFhkhbzy380RnazF5CORiuH8AXWqeHvgVH4R8J+LPCOq2tzN/bGkXR32OrDWklcx6qJ2VpGk8wsskbKRtZgxAXm9zSNR21IdI+IHhix+FWm/DuHVPDN94d1DT472z0/VdGcy3aSrIq6vG4aM/bD50imXdnc3IBA2+g+HU1T4n+EtVFn4+8QLqXiIwLrmreEbaNJNea1CpFdwli4gvmUKt2VG2VUBCoQSYNd8FfED4h+GVsdP8ReAPh/4f1RPP8RTX0aahqnhad023umafKEw1vKzSXcRwmJA44ABPn/hzSdDjsI4dZ8G/EnQ/DOhytp/g3w54aYWVxolmufM1G7m3bZri6YAEbm2iU49qsxczMzUotJltYdJuYPhjDoXhu6+2R6RfxzzQ6leoNi3OtgOkl0VVeY12DzN7Bs/LVPwpbR69q6+EbzxFpet6drV9HL4c0zSZ5Lq4029dwRLo92ziaxQtg+WZJU4wRitvV38QfEH4m6aLiEXPiSyjb+w/iJd6Elo8UIbL6dqsCs4ljlX5zMoyskj9sU3U/Cvji326vqWm+FX8beID/ZrQ6XKulQ+D9HB2yW1iPKYSSzxlt8gw6B8jkCmUfr1/wAEYbBrT9mrxVNc+Lta8bavdeMbs6pqeqazFqkxuY7SzgMQaKKJI1RIo18sL1DNk7+Cqn/BD7TRo/7IWrWsPhHw34PsbfxPcxWMGkXRumvbdbW0VLi6kwN10QNkhHXy1JwSQCuKW5ofMn7Q3wth1P8AaL8eTfvFabxDqEnU9TcyH+tczp/wXjE27z2VsZ6mvd/jR4dM3xt8WyZ+9rV4f/I71j2/hpvMDbeRxnFY8x0RjY4zwl4Ck0fUbeUSv8pUk7jzX0fd+Va+BYUXBDREjnp8przK38PMvO3Pc4rq/wC0ZJNBW3H8IPB+lZ4h3jqd2HSuch5m4fMcsOPwpQ+O9MeNopG3Y3Zx1o3qPvED8a+crfGz2I7Enme9SIw/yartLGB95fzqGS8WJf8AWLxWEpLZlq+5oGSlWdVH3uaxptcVAf3kf5is+XxBiT/WVmrF83c6h7/yl69qrTa3j/lpXLXfiRSp+den96s+XxCHHDUNhzLodo/iEBfv1Uutfbd8rcH3rkG8QNnqPzpP7W80fe/Wqg3cls6eXWpCev61C2sEnlq506ix/io/tLb3X8TWhJ0D6px94/nUL6tsX7zfnWI2pZX7w/A1XutQ/dcNQBuSeIMD75pX1fenDVysl98vJzT21YiPAo5mBuyaqwbqevrTW1fB/wBZXMNqzFuSaZJqgH8S+v3qOZgdV/a3+3+tH9qt/eP/AH1XHvrq/wB5R+NRtrij/lsPzFHMwPOf2nPBFw+v/wDCQ6fbrcQ3WEuk2nKv614ndeIrfToZpLm3hu44mjDwzvhZckAce3BxX1Xc+JVYbWZGU8YYhgfwNclrnhrw/qUkhvNL02Tzcgny8ZLdM8j26V6FCpc5q8Io+Tf2qvEnh34KTTa14b1ey8P/ABNtFjn1PwzqUMtzo3xI01kAW2liRWSWVFJVWcZGMZxWP8O/DWqfH/wzHp/wj8ReIvhx8PfH0sOneNPC/iG9aOXwrDkmdtNVmBSFwPujjDgY7V0Hi/4h6trHxavrXT7PTbiTSbeRdQv7vVl0ay0S1hKgzyXLAhcAhQNwLM2OTXO/Cjxx4yl8I3kY8F+GNY+JeuzhfCnh6/SS4urfTlYPJqV75mHSBwoCSyAIwIwT1PqQjzK55ErXJLnRvG3gz9paPXofDPh1fA/glPs/gnw1qOsedpmmxwIUttS+xxZiabc0s2dhbdISSTzXqOr+Fvip+0guj6p4s8a+H4fF1vLHJB4t0fwYbXxYkiszJs1SZkuGiAkJ2M5jIGMYGBjfHDwX4l+IPhGx8caP4h8QeDBdG3i1T4R6jcReHtU1ZQSlwuizuitKsuPMhETMZAsu3PONb4o/sj/Ce08HSeEfCGreKPEnxA8deU08/jHVbs3Xw10yXBuH1GG4KmD7NHCx8yVVA+0xnPzKTpCmzGWp65o2g2fi/V9L8VeHfhzosPix1l0BfFbzwaPe6lO0e+a4EVuFVrx0Z3WYK0m6UqDg8fIOveOfh5a6PeaPonhXXvFFn4GuJFvBH4f1HU49JuzI255GvZCkczscF/KBZj1wBXs8OrfCv9sjxjL4f8L62nw9+HXwesf7L8Ezxakkeoa9rQcxQ6xGm8yNALWCE+YQUG9iMHNc83jLxR4O8T+JvHk0Fh4e+M3guAW3jDTRZSx+Evi/pyqBBJGzKsX2zoWfIOeQec1rytaEpLqeP+D47jVP2ndH0BfhvdaNqkMFvq+raq8NhZyaBbPHJOJZzBCrRSGGKQj5t3A9a4/4g/FGx+KEzfZJLy0M11JJo99fzyTprVhuZA0bueG3gDA65yc12HjXx14z8E/CGbwvoun6prHir9oVjrvjbWtNu45JdKgklUR2COHI3RWqyx43ALvzg855/wCKfim88aRx6KPh/Z6P4Z8OwLaaBazatDcXlhGqbQ7yJ1bILFRyCfWkHoeZ+JdQvNF0m6k8uISW+wgMfvZZB/ImuP8A+Fnah/zxh/78v/jXWeLdDvm8H3jNZzErsIKlpB98d8H0Fed/8I/e/wDPndf9+2/+JrOauaUz034cfE/Uv7Hf/R7Rf3zfwt22f7Xua6NPipqBP+pt/wDv23+Neb+CIEstJeO6RIZvNJ2Sr5RwcfNhu3ArYjvrP/nrbf8AfxP8az+rwlJXXU3+t1oJpSPoGLXJmhjPyZYc+9Z3izX3/siZWWNvug/99f8A1hTYS3kJ/s9OKp+J4t2kTMw/u/zr7ejg8P7t4Hx9TMq6vaTOdXxNM0h+5+FQ3cn9shd/VDniqUciI/boP5Vb0yXe77WUDFdsssoS+wjhedYr+dif2DFnO9gMHhfoT/Sur8Kwrb6NCqtI20d/qf8AAVz6PtX747/+gmum0HDaJDtbPHb6tWuHynD/AMiMsRnGJcfjZaLdPm28gZJxiverf4B6JKikXF+24ZC+ag28np8uTXgi7lkX2NfWy7Yo0Y9g3JPof/r16+ByXDVG06d/keZW4gxlH3VUtfzOS0f4LaT4elaa3ub8sV2ne8ZGPpitD/hCbT/nvcfpWtq1+qW8bblXJ5JPFUl1OM/8tIP++hXRU4ewy/5cL7jowvFGKS96r+JHafs+6L40tjcXlxqiSpujVo5Y48KCTjDKe5NTp+yN4Z2f8fWuf9/Yv/ia67wHrNnHok269ghcTEf6xV69f4q3B4isQP8Aj+sf+/y//FV8ni8sw0azioLQ+2wOZ16lBTdS9zlLX4Y2ek2dvaxPqDR2yCNCShJAGOePasrx34Zh8P6THMjXOWlC/PtPG1j2HsK7md45z5kbLIp5ypyDXLfFw58LQ9v9KUf+OPXzFWlFSaR6PM5RszgxOWGQ36Vz3ij4s6l4J1MW0Edm1uyK/wC8jdmZiSDkg+2OPStmOX5OvtXnfxcnQ+JIVaRB/owOD6hjj+dZR0OPbQ0Yf2ldccKFttPPHH7mTj/x6uP+Jnja78caxFeXkUMckcQhHlKQpUEkdSe5P51Wd4Eix5sSjGPvAZqjqVk13IrRoHCrjKD/AAqnIcXYovOQvp7nt71z8WvXOswPG0E15b+Ubi4gUbLVYVDFy5PyDgEkn0rovsEqr/qJGZjtA2nvx6e9UdJ8M29tpobxBcXmm+DriWN9WtLmKUNKy5K2wZF+5I21CDyRu+tc8osvmuS+Cptc13VtLh8O+Dxrt9c6e+s32mT3bxrpejg7UY4YBZJv4I3zk7SoGa4bwl4ft/GGu3ep6frj+Lo4RMLvwfql4+j+ItMVMmRYVUhWaNfuY5bf1rovEVnrGm6lr2l65qHiAa14u1GHUJtO8P2Pl3N35UZWGIrGv2lrdE8tUTapB+YcjNcto2v2918QrG5tvCep2Nmt15GqeJ7tEinspV3B4p7jLvFPwq+TKFfLoCFLCpJkRTeB9a8P6fYax/whdvYQ+LNQF/cWZtUszpuk2x221u+0giSVwZJenmYyxPWr+qeItZ1/UoZfE39h6b4ftwttpHlaXbzyabGufKNu8gaUTA7yCjcMzEc5p/irx3Z+LNVj8Pa/JfeB9UupXk0+7ivDeXajOIoNSjZjNA23qSo2hgcVC003w+vl06Hw94e/4SfVtlhaeOrZ/Ogt7WTaDNNI+BHKEWQHOMEr61cST3r4QftRaP8ADzwZo3iPW7vVvH0V1q66baLq2nLrl9feQMyzIbksVFsOB8oCkcAEV9meE/iy/wAUNIfVNHuJdZ0XXFVrfXp9WkurvVJD8ht7qRnMq3CAAKjEbQCFNfmnpPxi1P4e+KdTuvCqaNoSWNgvhbw5qfiW6hjh0q3jbdPdeWWyJZmBJZuSpHavVv2fvHmr/DH40WXjKTULK9uPFFsBeW9tGsOialboMG8lEW7ciZJNz/yzKkbh0rpA+3tS+AMvxI8OXZ03TNH8RePLOX7OV1S+WSx06cOCtzKJVkfKDMmwspzAB1Oan+H8f/Cwtd1y70PT9O1aDw8x0/U/iLsg0vxPq98EdZ5tLhZRc+THISoKSLIQ0hDHKgc/4S+LvhTTPgU2taD8QrHwD4Vh1DztYsbS+Ed342maWEm6S5vMSXysWVVMZcEZUcuAe38ReFrjxjq188lkt/ayeXNb2l/YS2c1nuAkjKTqMREHY2JMMrL0BagzcGebeDPhvqumWmoeF7Twn4r03S22Xc+jW+px6rbeK7YSeY7yWzq0d6gMqzOsqsyGTkbskavwi+Gg+Kvw/wBctF8feNvEWn6Lrt1aeIXiPk3WqQvgtpE8wOfMjKiMSZYx2xkRiVcKrvDvwwXw58QdY8Hyat8VfDOoapdx3djfTXLWtrYXxcyM2jX0ygXEk3nyiSFCxk8w5HyVl65Hp3g7xnaw3Vve+DfDfgaSWbwXZ+GdStm+wSZZZ9d1KGRyNQlWUgPGh2lXkQEMTio7k8jOdsLi68OHUf7Q8OfEzw2J2/4lUXw/1ltM0fwNYhT5Mdvah9lwrDE0hYN5jxIM4JFUfB2g6r4it77WP+EB8P634gVliu9I11jp2geK4BxDf6e4YNp2oYJe6t0KxyAE47FmpeCPCvxAstSmvI/Gl/pczvfTxeEtZa1vtGvSCZRZQysFvNNuN5mjhU+ZBIPJ6MKpL4J8a+CrpG0eOPQvE3jiNb+CHX7eXVdG8B6MqgxrPuV0k1K7kCbgGwiepFaaBylfx78L/FHw+uV1GLTdPuPiPr8wiiTRlFlafDa1JZpJ4VYf6VdhmeBJju2+UjAg81HqGianeQ2NpoPg3w7o9rot4klh/aeux39j4sg4ab+0rRtyXNxJhsT7RLETw3FU/ih4Mj8NfDa80+/8W/FT4ieF7HUo0ubi4sZ7bxPocxO1LvSnjjj+1Wn7vD2shb5csOTmpPE3wrtfFl/feFtQ8E2egjVbW3v9c8b6ZqEy22oaPEAVWws2kL2mryH5GjePIcgjAp6FH7Af8Eb9Bt9D/Zj11rG8+1abfeJ57q0iciSbT1NpZq1o833pvJkWSNHYsREkSZwgAKz/APgiF4h1LxP+x5f3d3osXhnTD4imj0PRfJkjudK09LS0SGO58wB2uWIeWQnPzTEZ4wCuKp8Rocf8XLbd8YPFB9dXu/8A0c9ZdvDg1tfFuTy/i14o+bH/ABN7v/0c9c/HP5kv3q832mp6Hs7IvPLFGOW5709dZggX7/NUryzkn28Z49aw9XjaF/m3rz2aivflOrDU9R3iC7Vrourbt2axLvVMVBrWrJArbZGzjnNcrPrmXbbJu/Cvn607TaPXjHQ6OXXzGflrPvvETtkdKwZdULNy36VBcagHUjP6Vzyldlxias2usX+93qrPrP7xvWsmS596ia5+ap5i7GnJq7H+tNS/5rONxmk836UcwzVS7y1DXOTWfFc4HWnNLuPWqjKzJlG5oLc/LTjdfLWW0+0/epj3PvWntCfZmi8+41DPcbTWc95g1FPfYH3sUpTuHsy/Jd4Wq02q7QVrPa+z/HVK7uvm+9UXD2Zo3GqferOuNVcf41QmugDVG9vQc/NRcPZl641ph/FVWTX6yLnUPLB+ftVCfU29aLkxjc17jXn8z79Z2o+IfLcyHlYVLMrdW6dKybu++T/WVmXuohlxu/Su6hUsY143PnD4kaJ4Xvf2vF8NeJLrW7XwjrGtafe6ybUbri6j3B1twveN3RQffNdd4m8F6h4j+NvxG8Y33xA8QeG4/H0v9mXttZWtnpTC12P5VqZ52Dqixxop8ockHvXM/te+H5Lm7jvtJuprHxQIcabdI5jjtpVKmNmbGB83BPPy4zgc1Xv/AApN8Qvi54F8UL4H0mT9oaCRP+E38H6zY7LDxhYJGIzeaYJW+ySzGDy2/d3EbsxJ2EmvocPK8LniVI8rNzxWfhR4Z8MLY+KfGF94os/CVsoNvdeKLu7jtY4l+VY1gBQsu7jD9XOcHgfWFj8YfD63nhDwhrnjbR/D2sfEDRLcadZX1sI2vLeWNjbwXcszMArmEAmQY4TNeZ/FD4h/DPxfr/hv4cfC3wvYeG/2dfh7eW/i74nXV5pJsZbOS0Z5r2zkkm+dm817JPKRTuyArEZNUv2a/jX8Bf2hfAfj7X/jobzXPHnxn1LULW2sNM0LUL668OaTIYksphHBDILZoo7ZSCC5XzVO07+N46anNcq+Gvi98WPHfxA1/wAD6D8J5tN8aeH4XYaH4n17+z59diSRoibGBUSK4UMjEFWOAOARgjlLbxl40+DXj/4jeK/Fmq+EfEWj/CXToNPvLLQ9HEcWoeJrxdttpEZnYm4kt95eUoMAkV0Hh+b4g/FT4Y67pvj/AFi/i8afCORdR+DHxGvA1head5A8qO1vZJUSYxyxIrFWtsGRzlkOQOD+IXgvxt4V0r4P22hXGk/avAn2vxXrjTxST2+oeILpj5l64eMiZUQ4VsBFz3rXcDmPjH4P1I39l4P/AGgP7V8O+JJLVX0fxx4fWZdMspLlQ/2e5jj4XZMY4Xx0EpPauXSx8N/A6BNP8WeC9Ps/Hmhp9htIrHzJrHXYvvx38btyd7hQR71a1Oe50vw/rmjeLfi3qF1pviqeS91WzbW4olvpZWy+3EafLu24CkAYqto3j2HR/hVay2B03V/DPh3VJbDTNW1G6+0mxJUSeWksknLLs3YXONtRJagVfG2nzaV4Aul1RYBqj7Gl2fu/IjL7VH4kZ/GvO/8AlpW18cPEmqWi3TSzQSSXixHzAinKLIgO18Y/WvKv+Ew1j/n+j/75X/Cs5RLiaviz/kIr/wBc/wD4usuuq8CaXD4p0ia51BfOuI59h2/L8mz8K3f+EA03/n2h/wC/0v8AjRTj7yCVmj2WsfxxDnwzeN833V6f7617BJ4F0T+Gyf8A76b/ABrnfij4N02D4f6gy2cg2+WPvt/z0X3r7LC5jTbjGx8xi8snGnKaZ87D/WDr36/U1oaQ+1G/3jW/F4fsWQH7M3Pq3+JpJNEt4f8AVxbR6Zr6inaR8nq1qZUs+3+795ev+8K7bwoPM0KH7v8AF0/3mrm/sCnCtHkEj+tem+CvDtm/hCyaSEk5foSO49K68NTW5jOdkY3lba+p7j7y/Rv514KnhyxWRSsLK2Rglm4/WvdN4WVU9Bx+Qr6fJbKTufM5xUU5qRT8V/6n/toP/Qawq6W7tBcRMGGVPWqn9jxf3K9yWIiebGmypZy+VHsqxF/Wn/ZViHy0CL95X43n1Tlx0klofr2R2/s+Ntz0DQJVGiWf/XMfyrnfjDKn/CMW/wD19J/6A9eheFdMs38N2LNH8zQR5+u0Vh/GbRrP/hHbf93/AMvadv8AYevj6sNbn08ajsjxEXO0fK2BXmPxlff4wtz1/wBFH/tWvdP7Gs/+eX6VNbfB3w74yR7jUNPM03/HuD9olTKj5jwrAd/SsPZsXMfKoxuOTitrw7O32UqDuG7pX0fd/s3eDpIudEkdJM7dt5cDqDjo4rgvif8ADvR/BmqxW+mWogimjFwy+bI5+Z5B/ET/AHaTplI87iUlJPLh8yY8IuSMsemSOcZpuqX+iwao0OsaPquuaX4f3xppdnAcaxeS4DvJI3ARAxIPqoxzius0/So2nQLbyTc/MkZwxX+LHI7Z71yfia+13XG164S7tbXwzpkJjGoG0aZre4yAkV5GY3lWPkAuYxHg8vjJrPyKicFq/wBu8S3lh4YvtP1S68I6WUm8M6jqNysniPQLhc/uLWRP+WQYjAk4x05xWb8WvCtx8OvhZpw1CPWtN8DaDqAuJ2F0Zri+1HdKzzXHlEYYs7FskY2DNW9eh07weYfEuka9NrjeH9IbT7S9gu9tjr3i24KhYYFxGskECgsXVUjQ4+Zulc/qnhiP4ZCxufh74oudZ8SCyT/hJNOlW4vNN1K6cFrzy90PlOC2xQwcLlTzgE1jKOo2rkT6ff8Ag7wprXiq18Jw6fa6Xpp1aXVbub93eOW2RQKyhmkeQkKMkYJ61W0jxdrWseHNEsbXUV0/4iePVj1SGNLMsnh3THyy3LO/ZUgBP/XWuk0T4axaV4t8IxaDJqGmeBoL1da1XwtqTNMqXyJ+58qFVdSnnYPDlVHLFRmud8STzP8AG/xVcXHiZrPVNekexaxtS6yR2R8sJbrGkRIHkxoMDPHenElqw1dV/sj4xqtxdW+i/FhkaOHV3xdaL4jt/uMhQcJI6KCcdCa2PFFt4p8YaXqlpqFppNn4u8ey21nqdvHet5GhaFaYPkDZyiyuoJXuDiuZ06y0uzj02Hwxpdwza3cy2VnPJA1spMPNwSZdh2RoNzMQRk9zxWtp/iqTxp4d1v8AtrS54/h3qLsNJ17Tox9pjWP5RLKVYyiMnByYznPQVrGXQiUrHeal8adeSbxBpuufEdtNHiCKG1vfB+gLBDpM9qsYjS1ePa06Yj4zkEg5wMGvqP8AZO/aV+HUn7Nwh8UaTceKPBPh3UjaaRp94s1zfanKjxA29uwkVpIRMIVAJPVxwOK+LPBN9rWk/DeOG08K6HfeN7iOTTfB/jDSYINs9r/q2mnn8xSsqpJIHMkasB1X167Q9ZuPB/xB0/VdM0GTWB8P9OisfA8+f+Jcs6Ryia8uU81CzPO3mbyoJ2Kdoxg6FH6U+HvFFn8RLnUNebxteeKtSsSt5ZafqMBs7n4ey/MBEI1zJArKDHkE/wCpQntTNQ8Vx2NroWoeJNUkU6rq0en2a7lvLq71F2GydB1aQofLkDfK8f3uVWvi7wP+1T4wi0bTb7xZ8RtFtfE2g/6fJqmnxQw3DfvAXjuJkgEkkJQqpEhP3VAPr98WHxT03xVq9ndeG7u1utR1qyhu/D1iY4I77S1eNhPfxhgrqeQVG5n7iPrQCPK/ir4B8bfDPxfc2uiNBJ4l+IF5OfF3jTTrKCKaytwywxWGnWTcIkSO7sw/eCaJR0YVwfxMtPD7weH7Nb74n6Tpvh8zWnh3xBd6Zc6hqmjR4ImstUgH/H1aSFS9vInzxSYDcE17bc/Cjwr4V8Hp4ZbS9c1DTrWR757w3cr3V3O+7N4ZvMH73l/mO0fdyPl4xfiH8H/F2t/Bhbn4av4yvviDf6gXt7a61OKDQbSwXAa7k8x08qSThAjsCzvkRgHfVcxjPc8u8Z/s9XOt2djpz+FZfBfijxKGuL/xhpXiCbUfDWj6JEvm3F5ZA/NDcSEsq27/AHYzAeoNZPhT43WmrzaT4h0vx94a0DS7NG0z4deBPEmovb2niLR4kIu31Kbtc3JH7l/4GVT2r1X4W/EfSPiPf6FZ+GIT430aztJrT4g6zp7x2sdvq6QKY0sobl4JbpFmEkpjtoJiybMK33R5Hc6l8SPEWlnfpPge91K1sbnxFcPNJFZxy6TEzB9St2mkjWSEIp8yKPM8TKRJDHkA6XDmP1Q/4IFa54d8T/sY69qXhLxNd+JPDV94yvprBb+4M+paKpt7TzNOu3P3pbeUSIrfxxCF/wCOij/ggTr194v/AGK9Y1u60WTRrPW/Fl1e6YXhEP8AaNo1pZiO6VdzELJhiNwUkAHaAQSVx1PiNY7HMfGO4aL4w+Lfnb/kM3n/AKPeuaN+6MDW98b75Y/jD4sGG41m8H3f+m71xl9qyleDjFeQ3Znqv4Ua0viGSJDjsKwtX8XTEfMuajN83l568Vh32omdmFFaqnE6MPKxkeI9eaaZtvy+vvWNFdEfMzZ9PajXp1a4YdSOtZ5k3AV4FaXvs9aErovTaq27Hb61G2o71x/WqUjcUzca5zVF5bn5hSy3GRVHe3qfzp8bEnqaBlqKbFTfav8AOap5xR5vvQBZNxzTGl3Gqxm5pkk+KaAtPJxULy1XN3hetQS3vPWnzAWXn2iq9xc1VlveepqvLeZXvRzAWDc1Wu7rAaoHvQO9U7q+DDFHMAlzfYc1nX2o7gR7Ul3dD5qyru8w1HMA65usD8Kzp76kvLreeDVGeajmM6Yt5e81SmusqabcS1Vlcn866qMtTGsYPxIMrWNpJDHY7lkki82dSGXzI2XCsO+ARn/arzmX4beANBj8LaprXiSM3+i6dHd6Zban4wnub7SwrrvggheRAnQ4TpjBNd58UruHS/DCX0/ms1ndxPCic+Y5YBRj/eOT7Vw/hXxV4At7Lw54v17QNHsfA/wZurm+v3vbJDf/ABC8XXO9ksUO3zHhjAGSQUAzz1Fe3g6nQ8nEH2cmnf8ACcwal4PXxxoV34os9A/4Sj/hHoIoLW51ZY40cWzorSStI64b/Vtkqp6V80fDX41fEj9oT4E+IPGXgPwfcPpuj6hLY3el6jr9/cX8MiSRRSk29tbqiqvmq20kYGc4zT/hn4H+EfxQ+D8et6h4g8c6R+0V4m1N/E0njvw7oWoXkfh+6aQummgRQqZVjCpC2zcvzd8HE3hjUfFV78R3+MOhTah8Gf2jNHnIvRdtEnhrxWkaBJfPtlYyRSXCEMd0QAaEZ+Y8+mpHlyi1qdD8RL27+CX7UOuWfibxJ4b8UeCfhV4FuPF+v2+iaXb2tve3YuZLO002WUszLiZWYhnViCBtJrzvW/Dnij9oPw14P+FPxl1w6V8QNd0lfEfgPxRBLJY2Lhy0j6RdQvs8+MLHsXZucb+lbvij4O/8It8L9D8M+C9N0vxU2reIV8aePdU1+4kjTW71YVRbKZgolktlmMk4U/LvbIIOc+c/tEeJ/EHxNsbrSvH/AMYPBEcVxrh1zTE0e0g+16IQAI4LN5XEkMS4KsTjr71pF6BGWhzms/EPwN4K8Ktovhv4W6To/wAcPGlzJ4aZPswnt9Ku43S2+0wQN++UmOd33FN25FbHy1L4r8HeFtL8Sa54YW6hm+HfwNt08OW8EMqeXrup+X9pu7iQ5K7ywdCytvAOCBXd6l8SPCuh+IPAvjjxFP4Rg8ca9Zi30fxNrM8q3WpKpNuJ9kUeIv8AWFRJuG772cLmvHvFXwO8O+E/iXP4LbwrJJ4qjLagba7so5TMs8mRJFNcXnlyB3YFTEGbn7vas6m5pG7PP/ic2h2XhyRdFuWuNGvJFNtbNKJ57eXo5UhvunZk/WvOvso9f0FfRn7O/wAP9d0D9o3w00vhmbTbN1nI+0Lb2yjbBMxysZztzznPWvtT7G0fVVP4VipGlOLZ+cvwjlU6LMpZd3n/AMT7f6V1Hnf9M5/++P8A69fbviY7LlVXhWXcQO59azUVvU/nRKpbY2+r31ZkgEwDarrXN/FgSL4Bv9+cYj5Pf94td8K4/wCP52/CjViOCvkYI7fvlrWjiEqkZW2ZGJw3PSlB9Tw4bT92VV9cmoLr/WfeD8dRXPqxdQSSTgcn6Ve0l8Ryfe9eBX6Fg8x55qMV0PgMVk6oU3VvqmX42xMvT6ntXqngBSfCNriSH7z8AAnqK8mf5lb73A/u1ctZ/LsIlUso5OMYFfR4apyq7Pn5Weh7JJEzxsOG46BQP6V65cwNE6t5e7aScNyDyfavkHzt7Kuc5YAj8a9Yidm8sknIc4P4ivRwmOVKVzjxGXxqrf8AA9k+0sW3bPvDgs+Mn+6MDt1o+1P/AM8//H2r5A/bZOz4V2JHH/E2TJ+sUxP54H5CvlzzfevGzTjB4er7JRf4H0GU8EwxNH2qkvxP1fujJGm7yZJvLfZuWMt/WkF02/7sf5//AFq+Hf2WUWX4f3jMoZhqDqCRkgeShx+ZJ/GvSix8vPevjaleeJm8Q+p9ZRwMcJBUF0Pv7wuN/hnTztOTbxnhf9ke9ZHxfjb/AIR6ALkt9qQ/KATjY/bFfB0sjA/ebr61reBmMusyq3zKIS4B5w3Iz9cHrXFUidXMfRssrLIw/eLz0Kgf0rd8IzeZZOvmbWE/PT+6K+fYxktXpnwfdl8KXHJ+W5bHt8i1k0kUemebGiLtbccjjNeU/HCQjxLb/ex9mXoP+mktds0nkuxX5eeMfWuX8ap52ro0hJby9oJ648x+Kh6opM87a8eBd0ct1DI3yq8S/OpPHHI9f/19K52y1TQ/DPxA0u8kutSuvEmpTLo1ov2hHW6WVxGUkjG0Sqdx+VlevTpogyNERaruU/NOm6McZ+YDtXheh6fqml6HqGpaPpcFjrcMD6Zodpaywn+yJJgBc3zsXGW8tn2jqN3pmsZRsXGR0XxK8f6Xqfhfxtb+F/Cen+LNT+D93cWs2i6daJGunwEgzXlskIkbCsSGaRVC8jcOlY97ovii48IN40bWvDcHw+XRTqN9q2nwGa4hkERb7KjyEwpIW2IcyAgucDJAK+LEXw34d0PQdN8IReDbjwNbQxaF4pOoRx3OrSk7pzqMcAPnJISxeMli5X5galufB/h3x54Vh8Y6ncTJ4dt9VQ63Y6RexQ+GNZvkcfwM8Swq8hiyqZC7BkH5sYStctHC/D3Qda8YR+FfCev6/qGg32p6OvjnxLrEOIP7MiZiLK2+YDy2JZWfftDLnBNcj8c5NL8KeP7bR/E0ml6xNqTxpo3jfR2EerQqNwtvMkLbGwIiGwTkEYrsviJ8P7e/+IOraRrx1rWPEXji8XU9Q02S4SxtNQJUeTEkjmGKeOJQqoqNIM8CsvxF8NtU+Ct7pOhab4F06z1zXJUg0rS5763k1BhLuIl2Rl9kIVHYSMwAC84yM5tBy3MXxb4S8ZzeFda1jXNbs7zWrqyTwvokzxuJU084e5u1XgNLIoClxkEZya5HWZbW1v8AT5tW1S41BhbppsFmJRa20MMaABY4EIUnAwSa9bv7TWfGVxdrpel6Pqngtm/s+S+tLyG21bVbi3GLmWweZ1LxQsCGCHa2OMjFeceCtHkt11G08K6ba+OrjSTcQaH4jkmjt9S0ueYAML6OUqMJ8xDqSCMYJBqoxMpRItA8b26fB7+3NIt4NNglu5bPR9Kku3SK+ZJER8xqcSbmf+HcfxrS8H+b8cLa41jwxfXOmavoQH9oeCNaBmsL+UJuZIkVvNVXVWONmd2PTNZHiHwhrfhfxlo8dn4bk1SHwDaLBot59vhjgN8QzT3RBYl8zFXB64RfQVyvi5o/HGtw634i1qObWtKDPLPpFq0U2eW3v5atJ1zgtyQCRwa0v0GeqfDn9oDwL4rW88M6N8NbrwPp9ig1jx3aRrldUitGMsVmpc5WN5WyQ4XIAr6R/Y5/bY1nV11Rm8F6Dcaj421AXms3eu+Z5jW8AP2OysWUA26xIikFcnk9q+ZZ/EOraLYaVa6lNfbdet/OgSytPtOpypHGHL3G0GQqAyk7ucN0rgPD8Or+KrjVLzUNc1aTwhb7B/anh1SwtNuZGE8O37Sg2jGQuBzQB+zuua1qHh74SWvjDS9OuPEmuR6nHZyaLZO0nnJ5ckvnKVVpCNyCNsgjLrzk4Ovr2jRWera54d0PxpcaI1hqaat431izSHUNQur25hJhtofOYpCkPCuhCk8HAIFflJ8Lf25vHX7Pei6prng2TUNM1LxfL/Z2jbYri5kt9PiUqLsq3R3mKNubDfIPWvefCf8AwUi/snw5No9j4d0rSdF2xXM2s6vdySTavfkYmu5IYyQ7SENjf8wAJ7UGc43R9deO9X8O/Ey6jvGs7P8Asi1vEtvNmtIUmEgYtFOWU7Y5idvK984BAArF134Z+EtVtfHXhTxR4UNx8O/DNnF4xv7yeeSSGbUHkH+jWRkwqtcs0SyqZMMqkBGzg8f+z7+2D4G8a+FdavLXxZplrrHh+2jvdQudQ0mZdPtopCsR+RUJMjOzLGoLEtgbT39a8F+Gf7Z0/QtH0++vP+EU8M6jPBY6PdTNcT+JZ2Ale41BHRZ4p41ZdtvKquAEJUqBVcxhys+9v+CL0N3dfs3eLNZum123XxJ4um1K20vU4xH/AGBbnT7COKxgUAbYI1iBUEZy7UV0P/BKC8Opfs661dGSab7R4luWEslyJ2cCC2Uc5JBG3BVuQQc9aK56nxHTHY8N+N+jTXPxk8Wt5WVbWrwg7+o8965B/B9xLP8AJC/Su4+OHjXxdb/F/wAVR2/hHVL6CHWLtIZE02Z1lQTOFYELggjByK4258W/EC+QrD4R1u1Ddc6NPx/5DryJRlfY9hJOK1Ks/hO8C7Whk2jisHxFpTaJEGaGTLZNe+fsneFNU1/xHN/wlNjJDuOYlvbWSHjy5DgblHfFeRfHzW8X0dtGu1bC6k3xjnAB6e3Hr61lUhJrYqlUV7Hlr6Dqfia+k/svSr/UJsZaOCFpMD1IFYs8psrxrWZhHdxnEkDlo5EPoVPSvsP9kT9oaTxtb+JLjRdLtra68N6W1x5Ez71nVM7gNmSGOOOOa8d8X/tmaL8RNakl1f4W+D7qyvnAmEkRW6Q5+Y+YPusMcE8rn3rz61HTU7qdS7sjx8uxO1lZe+NvH50V2HxH8H6B4m8Ox+JPh/b6nHpa3H2W60y5czXVg+3hyASTG+PvHGCQBnNcDb3mY+SD9K8+UbOx3Rl0ZepMkelVDeCmNcAnrUmhZkmxTftVVZLimef70AW5Lriq8l189QSTZqB5sNQDLT3XFQvdVXmnyKrmWgnmLb3VV7i6+Sonm5qGd91A0xstzuFU7mWpX+7VSc8mgZXuJM5rNva0JW+WqczYB/OgDOlOPyqpPLVy4HmFvpVN4M0ExjYpyVBL/Wp5Kqy9W+tb0ZanPU1MX4haRDrfgXWI5o55FhtjMfIO2QFeflP97+lef/s0eMJ/EXhvxD4b0W51bXfHWiY1jRfB4vY7UaxbSRgzSWsu0u10uGLID0jr07UU+1Wk1v8AMwmjZWQ/cYbT1xz+leM+EvA+i/EPwg2i6XptxZ61pJ/tfQPEGmXqxat4Z1KI+WVdwpLW7lQSnzNkkAcV7WFkrnl4iLPVv2d734tftb6Lpt54Hm+F0cF1fNbanoesapd32p+HUjl8uaaaKRowyxDaxCngNgZ5rW+GPxF8afCTwJ44+MWpa3F4q8D2OtXXgnwXYR2FtbQ+MdVkeK1t5ViaN38kSPOwJfP+iiuf8Z/sp+Jvihat4h1LT9Y8B/tAXVoljqHizwlBcJpmswuoWV57aW3gjWWWB2DS787o4zySceifEX9l/wAaT/G7wXqng3x1a+EvAvwv0+1svB+h3Wlw6pHYSRQyqLuaF5PJe6MlzcOW5A3j5tw2j1IyTOJxuc1+1n8CPGmieDPD3w7+P+tpJaa1It94S+Jdgu6y0/VtojTSdSVOFikCK24jAabHevONB8NWfj7X774Zt8K9P8B/EzXZ4NB+IF3p1gG0q00O3w8t5BMfl3XKDaFX5vmz0Br2PSf2M9G0nwxfaX4y+IHxE+Jukazdpe6ho+rX4h0+/nUH946RnOASSFPA3ng449Rt/FX9kaRBp+n28djY2sS28EEQwscajCqfXA4B9KcpWJhSfOeNyfsgaD4q+JniXxF48s9L1yGeNdL8NaTFvFvoukwwtDBFg8+awZmYjowU12mh+B9B8LeF9N0az0u1+w6Db/YtPlnjE00EJ+YqJW+fhuRu4GK1rqZppGdmyxqEvt/u1z1K2p2SppHI618M9N07XoPEkMlxJeafv2I7p5fzp5dZv/Cd3X92H/x+uu18+bZsK8/1G2P2x/k+lY8zYowNnT799Z/fXFPkiqPQNPlFn0/StA2LiP8A1Z/KrjrubGfXnv7U+pvovwL1q6Ty8x+R97/r4iH/ALNXok0Lb/8AV15/+1P4fv8AxL8DtcstNsbvULyb7P5dvbQtNI+LiMnCqCTgAn6A05XSvEqCTdmfHY+JN8vyrHZMFO3JLduO30ra8KeNrvUUn3R2oOAPlzj9azE+BXjcoP8AijfFXT/oE3H/AMRWjoPgPXPBkzf2xouraT9oIMX2y0kg83afm27gM4yM46ZFc8cyxdP3oto6ll+GqrlmrnQDxJckMPLg4WnJ4luVgX5LfvWXAjAyHaeW64oZ9rV0UuIMb/z8M/8AV3BJa0zTfxJNKu11hCnrt617rJd/c/2j/U187rOqupb7uRXsy/EXw+qJnWtJXbjJN5GMcD39jTqcRZjZpVDajw7gN3A8+/bhv2h+Eensm3cNWjxnp/qp6+VP7euf+mNfTf7Vzr8S/hxY6f4dZdfvo9SSd7fTT9qlSMRyguVjyQoLKM4xlh6ivn6D4FeNC3/In+KPw0qf/wCIrqw+IrV7VKruzT6rh8NFwpKyP1V/4IJ/8E3fA37a/wCyH4k8VeKtV8VWOoaf4yutLRNKuoI7fyUsrF/44X+f989fbJ/4INfCLy/+Rk+JX/gxsv8A5FrzL/g168P3vgn9gXxba6zYXuk3Unj+8lSG9ha3kdTp+mAMFcAkEqwz04PpX6Qz6pbFj+8j6f3hX2eDjfDp23Pkcc17ZrsfmX4o/wCCSHw30jxFfWkeueN2jtbiSFS13aliFYgZ/cdeKz/+HZvw/wDCQa6ttX8WTTA7SHuoOh/7Y19aeN7GS58Zaq0cLOrXkxBAzkb2rmdf0G9vrTbBbXErbs7UjLHH4Cuh4eD6HPofN5/YD8Fv839oeJl3c4F1B3/7Y14h+0qifsq+OrTQfD5kurS604ak0l8TJMkjPLGcbSq7NsQzhR+PWvvNfBurbF/4lt790f8ALBvT6V8bf8FD/gb408U/GrSbnSvCHijVLePRoUaWz0qedFYT3BIJVSMgEHHuK46mHj2NNEjxWX9pDWgnlra6btBCqTA6r6dd9dl8OdSf4m+HpNR1BY42hlNqfs4ZUGEjfuW/56en41wn/DNPxFurRYm+H/jT7ozu0S5GP/HK9X+Cnwp8XeDPAt1BqnhLxBpccl7JLJJe6dNBHDGI4/3jllACZHU4GfeueVO2yJUrlC78LwrHJdyXk1vp+lqZL2YONwUfNtXKgbmA2rz94ivLb3wTDD8Kbi8167h1DSdWQ6lqHhy11BYNT0awjYql9byqQWddwZos87SO9eza0P7U8PzQ3ui65p+kXC7ob680yW10m42nJkluVBWOMsBh5igORzjJHiUsGi+HvC95r2sWvgLw7JFBLKkfiS4a3vpokVQpsY2gZtQV2ACG3eRCSCWABNclanc1RQ0n4bab4n0Wz0rw34Q0vxdr3jK0/sbwr8QrYGaxjsZf+Pm9vbdmIt72GPcNxHLADvXP2cOk6lrFto40fxVefDX4bRtZeGfCFxZmGz8Szwhiuo3Mg4PmTTzyYPB2R1654J+I0elaR/wi97Z+EPD/AIpnt7XXr631PXG0rQ/DOnEZFtq00SCaO8mGGWJVO0suSeQeOuPFd14z+Pl5Z6f4zmstKe3a6fw7NNYLCyhQWOnavH50Mzkcobgwlh5gcxkAnhlTsax2OLTwpJb6dZ6LceEdSvPhndSC7msPE14s9/4Uui2W/syaLlUMmCEbjpXSaN8D7DSF8QX2k2/iqXXL7RpYbDxBeLFJd6HppRB5UCH53VI1ZQ3XEjelV/EfhbS9A1PSdcuNF+KfiKz8P3kkjQeIvObVPF2snP2dEghYwx6TA3zyXJIDvjYrVjDQdH8Ra5q3iXxR4b+JUfxK1NzJY3WjOLLTfCFkNn2a3jNxMgleJEUE7dreacE4qErlbHnen/Dzw/468IaS/hPwn4q+IFro8yaPp1yC81vaSliY4gJJPLiYkEuxQ85rR0+718eEtTWHQdKuHk1weFNA0yO4FzDqmqhf37L5YEZgtkHzvgAnnArsfDlpdeJdR1jXF1jT/DPjj+zJ/tGs+H75GOqWCja8uoWJZbeFlUYadZASy5Oc1T1/wxp+ieKfC954PvvEN94a0TTTY2E3hqKK+tdIWUk3k9xexP5UE0pJ3SO/yqe45qZRM+U4741+FE1Lxjb6Z4putW+H/jOOERRWkkhuvBGtyAnndH8scZIKlT0Lp6VT0r4UeJtb8Q2Ph+88I2fgfwvpN2dQ8RrYTJcW+vkFZVjgkHVSsCIB287HauhvfA3h9vBujvpn9leIzZ3DQ6Nos/iKPVrzURvjBaGK3e4gWDJ3MZChVY5Dt+QVpnxbp8WnXV7oGsfC3+y/CrLDqseq6k90t/cHBeDToYx5s0CbgnmKq/MWYDC5pbag1Y4bSLTxbd+LfFHixdPh8MeIvEWfL1i+uP33h6zBIIjVeDIYhEuW4AU+tVvDvg/S7z4w6PqVj4htptb1YMWvrSyjsdPNtEoa4ml2fuWjjX94S/32wOuK3tQOj6f4/mvrG08WDVg28xK417w4I325VVuVhcwlSFLbiy7iMHApnxu1u48T6Pf6ZcTWc+uXyw6feaT4dsI457PSYzvgsrO08zzVEkjM0xK/MoAHGcVGd3Yk6rW/Cduvw6jvNa0vxNb2t4ZZdJu7fV7Y3VxakMUn/s9mEsKSgiRVbk5HYiq/we+GXh29jtb6S+t7baGBvNe8Phbq0BBGIFdjbAtwCW+faWxwTXF6lYiTU7jxHqTWWm6jNCkd1DeRXEmvOUX90gtBCSoVE2KWIA2RrnGCdD4VwNq81r4X8fabr2reHbhpdU1d2wsE14Btt4BOWG2KOORmKoCGlCc/KcWFr6H1tftpngbxF4Q1G8+06P4T0u6jvtKWPTRrWk3d822NLnVLk8NMIyhUN8gPmMOXr6e8Aal4g8WeOP7J1zVYfEWpW6yaVr/9sWf9meIfs4Zri3ke4/1dwEjEkMU0f7zy5srzEK+G/h98N2+GF9b+Ivhzp+sfDW6vbvbc2GmTTeJPDPiBJFybWWwu1QTzNlQsUG/KYC7gTj7a0qw/tTw34JuI7ww+IvAlp9t0rwPq84s9N8F6tdvt/tHUYSTf21moRiLOWEcN2U5oMpRsfor/AMEotG1rSv2btUm17R7fw3ean4jur6HRvtiXV7pNtJFAYIbx0+U3HlbHOOqPGTyTRWn/AME2rG2tfhT4tmt7G3snvvFdxc3Jh+Zbm4a1tPNmVurI7hihIB8soCARiisqnxMuOxc8b/t1fB/wP4r1TS9T+MHgTTdU028ltLmxk1qD7RayxuVeJ4wxZWVgVIIyCCKzfCX7ffwn+I2r3VjonxS0HWriyGbhLKVpRF9Sq4/Wvlj/AIKU/tDfBDw/p3i3T49D8Lr4rj1a7guLqTRBHNLcqzrJmQ23zsZQctvOTzk9a+Sf+Ce/gu18IfBnwbrUlnaafrfjTX7uPXzCqHeu8sqfJ0xntitZqMUZc0u5+sfi39pv4dwWkjnxppctwqnAmDbo+e3y/Xr6V8l/GTXPDeqa/qF5pXiLw/e+cpPy6iiFshj0zjPT3rW+L3gLVNFvo49F0+zuNLjszLqU00KsIEG7OS7Y+6rdP8K83Txf8BIp/L/4V/4b1GRU3yS+bcxBuBluBjnnpXBUmuh34eLauz66/Y0+H2lfD3wBpT6bHDLJrERmupg28Op5257jPXGa8H/4KefBrR/hx4v0PxJotktjJ4omdr6GNgInnUJlkTqMhhnjtXq3wG+Lljq/gHT/APhHtHXTNMt0CW0EfmFdp/ullBx09etO/beaz1X9mSbUPEOjrqkmn3IFlPl1l0mVukgMfLZxghgQcVxzo86bZ24ety1NT4U0Txff6HLPJZXDWgugEmEbcOBgge/ODx0wKqvebt/zKWZt2V4/OsyKZlAjYhdmSBtx17/jj9KkM+P4q8DEQtOx9DHllqi4J2z1/WnfaV/vVQFwxP3qUycda52rG3Ki09yD3pv2qqZkyKbkepqSZJLYvG4UVDLcBm4qBpPl60K3FBnIVnJPems5zS5H+TTW60CQwPmmzHigjFNlOFoKsRSuoSqc7gtU8zDbVOVxuz70DIZz81U52AVvpVmY1Tum4NAFaTrVO5l2dKnkLCqtyuTQBWlbAquwGc1auECoM/hVV+BW1Hc5Zle5aNdxYZ8sq3OcN7HHNbH7O37MGkeFdSk8R6xY2d1dfbprzSLWFAqWQkUBnfIHmuWDEKx2gEY54rQ+FXhePxF4q8y7jLWVmvmMP4WbtnvXrMcSpI0zfJx8qjoB2r18LFXOOtsW9S1aaWPY00hjjAXaWIQ49qybjVJCGX5fvdB0FS2GqJq1tNA+0yKTjse1ZmoMyyNxt28V6EdzkshbqbzmAPpWfep5a5PrRNeYmX5vappU+0Rf3u9VK1xrTYyncOuBTXHFWJ4PK3fLzVdmAH/1qwlHsEpO5m6wwaPjmuV1Ybbzdt+X1rrNTQEVi3Vkbtvl+b9KqmrBGRqaIuNLDZXae+asXNvIq7f4s4xjnPpj19utQWelpFp6xyhlx2U4/lXIa/8AEfUPAHi+zh1NXuPDlwPLlvGQmSwH94bAWf6EE+9dUYItM3rmNwetTaPFI17n5vudRXQTaHb3NjFdW8i3FvMNySxMJEYeuVyKpRQLBd7SrKu3huQD+PSt8PRbloKUuVXZNbQtPH8oZucV4B+3ZbPZ3nhXzF2blusbj15h/wAK+9v2ffhBpHiPSre4ltmmmaQqQZCAeAfX3rov2x/2CfCfxY+BV9erotxJrnhqB7+w8maQOTmPzEwGAKsq85z04q8bgasqLsVgsTF11Fn4yqha3GOc/MMelULp/Lk5OPxr6T1j4C+GtJtbf/QJt0gDMBeSYhOOV5Y9K8f+JHg6x0vxJPBbQssCgFQXLfrXx9TDuLakfayinFM4aSXdET97GCcmuEmAEjqdp3MMj8/8RXp0mi26I42kcetcnfeHbeOfcqncGBP51MaaXQ5paHbfsavFb/E3UN23b/ZchUH3lgr6gs4Gux+7j3Z/uk182/sX2Gmy/HC1tb63877XbmDmRlzl4yB8uP7pr9b/AIC/sn+AfFt3HHJ4e2uz4DJeTjPDH+/7V9jldNyhY+bzGpaR2/8AwSYs2tP2ctZVvlI8TTNg8cfZbWvqYHchrn/hH8HtI+CXw3ksdBtZLOGe7luJA80kmWKRoD8zHsg/Kuh8NwteTbWXdX3mDTjRUX0PicTUcqjfc8w1K4B8S6hDtbzPPcY2n1NWvCCtNcyYjYlUbPHTmvC/jL8TdY8M/tGeIdPt7mOOCG6DIphQ4G455Ir1n4dW+oavq1neW8ubTW7JxJtij2+YFySOODn6VpcpbHcwXkdxN5S/NIowVweMcVxvxP1htE1iHdhfMhwox83WvCvin8TPE3wu+M+qWq3TJFHLlA8MZ+U49q9V1KWT4h/CbT/EW5bi/sZRFMUwu0Enqox2x0FYVYrcrmZtWuow2u2aVmMbrnLdF75PpW/rmk6Tqfgz7dNBp+uaRIn7+KWITxup4IK5GeCev1riJ7db/Qry3aTm6tWiHPQkcYrz39hb4k3msaF448GardK8dtBKbTdxICjqOMdep71z8qa1CLsXfin/AME3f+F62Ooa/wCA/GPiLQL7UrJrYaO2oM9myKhVYUyv7tWQuuNpGWHPevgRNK0/9mHTdU03xR4J8UaZa+BNdt7ay0/WLD+1JzqbSL+80xWw0hAJc4IQgEH0r9dP2c57jR/gwusSTMtxvfYrAfOAdvPp1p/xw+E/hD45aT4f8S6zoFrrOqeG7wXWm3rSuk+mzsPLM8LAjDgMfvBh7Vy1qa3RrGtbQ/EDxv4s8My+JbrW7Cz8JTeDfEV7K8XjTUp2+ypf9Wj1GJkM1pMTlMSAKpwMheadLBqnhXxxo3g4+IPC2k+LpLYaxrEGig3kPg/SQJJJLsyKAsh8pEYKjE/6UnTnH01+3T+ypqX7IfxN8QeK5bnVNY8N+JCltqN+2k2cNtqKucwR3kEMPlzMzNjzZI95OMtnFeKzfDbwN4ci8cfCvSl8O2viq4tHvNR8N2sUqajrFw6wM9oLlpWm5TZ+5jkK/usBOCteNWjK5upJnEeMPizb33gXWtaW98KjRPGxDWPgi8vl0jWbuwiKj+1obzjyppCu5YnBGWHBORVLwBonhTxN4cttP0fQ9L8XW14hu9R8N+J7qdtcTaN7JbaorLBKqlY/LJGGGQelc/4M+Ex+I1tbSaP4V8L6LcaPcrZ+IE1dkuL/AMJ2kO5mn8u4mQqoVQwVoyAR3PFaHhHxPrvgHTPiL4qvNUs/Efwz8Pxz6H4dg+xRxx+LtZBtkitEKZl2GVpBiJRHi3YbgNxrC1i4yLPiX4d6roup29vdaBp8ereOLyHWvHQsL6Ozh07S1ANj4ej2/KMlUeYj5SSRntWR8RrzUl8e3ni7xF4q8K/D3WtPJuo5vDFsVuYLVEAS2mzhHiC4XLpz65NaHxc0Vfh+ujQ6hqFv8Tfs6LHrekaYg0fUvC1+6jzAFs2xPFH0CzwTKMYLE5qLxFb2/wAN/DuqG3hsfFWrakLXU00RdJtrCa5WF90E149vEnmRxE4EbKiMw3MrjAEyLudLFq2haH4la6vNB1htW8XadBqGvTeGvCRuruzjkicRzXqRt/o7SxZkCRrkoxJUZxX5/wD7WCWf/C8dSTSm03+z0RLe1fTYmhhCBeGKNhlfDAMDyGDDtX1Z40+OnxS0PSdefQPh9cQ2F/cvf6jdQ+IJvtmrTyMC01xcRSo7YAXanCIoKqoUlafB+x74T8dWlnq+t6VqM2qalElzcR/2nMu12UMRkPz169+ves5MD5y/ZZj1JvGSx6fHcXF3JJAltbtu2S3BkxDu5OQG7dOea+24/wBnfR7LRZtD1zR9T1q/UTXutqNGK6tc3zndI6THayxL8oRUJxhvUZ+pP+Cbn/BK74B/Evw18Qm8SeENSuG0vwo+pQTDxJqML2c8bB0kUxTIcghTk5Ax7mvIf2SPjfrkfxr034e33xGt9Q0TWbyGOa+8Q6Zb3sum28oYR7HkVXbDLtJZ2LbhnGKqFifdvY888KeBvG2maJNoOg/C/XtcttNXes+va4kUsUbj5NjuQTwDwCfu+1c/451j4y/AS/0/xK3wlltLeVn09pYNS+1NbyBAds0ShhuZWBAI756iv1K8VfBfwXYeJ5/BI+KHw4k8QLbPpx8KRwRwyySkqEw32z93JIZdoxjG/I6cfOtx8X7r9nL9mHw/451rwdf3Gr+MJXj1tYXuZYNPubd/IQMFWUbtke0k43FgckgVoRNpbHzP8IP+ClHgt/Gba9J4E8P+A/Hlzpk9jH4l0n5JtJEoBmu0iZjCs6sWIJwRnA4HH1/+zZomg2Hw30Ow8NaXo7eJNLgm1K51qS6Kt4xhQebJc39y7HYzRmQOhbGBt4JAr8fPi/8AB6407xL4mn0rS9Y1a412Npha28LyPl7glgoVSeFJ7entX3x/wSh8LeJfHFj4m0nVfhv4i8AeG760tWuNW8QSXL6fbypIvlypaXKxwyv0Gza6yH76PyCGD1P28/4JT6FD4d/ZfaCzumudOl1RrqyV93mW8E1tbSrGxYBiRvJGecMo7UVY/wCCZF/dXvwU8RLezPdXFp4lntmuZPL827KW1qplcxKsZZyC37tVQZCqoAAorKp8TNo7H5d/8FV/j5r37Snxf8UfDXSfAfj6+utH8W6hZQObZWtrox3UiBkZm/1bbcrwOCKb8B/2bviF+zFeeHtI8ZeHZNFn1qddWsLBpUkljPAOArEDOelfWWt/CWbQP2pvG2uQx+F4JpvEl/eRXepajI4gY3Eh3mNWAyM/dPHtXXa/40+G/h/xDZ+Irq//AOFm/FxYGTTXtQyi1U9oreL92VX+9IM8d6itPQqNNs9R1+Gxhs9W0a+uLeCPXNIaCeGbq7Mky7sfVu3pX522nwAl8LfHDTfDPiaxv9LsbyJYopvLxa3I89I8LL9z7pzgnjk9jX6MfDXwzNCmn61qe291TWNjXjXUa7rYuoLKoAAxulfqK+Evix+2B8Rfhl4xuPCcWqR2mnab4imgmtb6wttQWSJnyArTRsY/lJGUKnn1Arz1KN9T06cbRPsv4e6Va+A7CHT9PjWGxs4FgiU/M20YAPpng/pXY+LtPs/iR4D1LRb6OSTT9YiNrJt+9gj7w9GGDg/WuT1G4jN3HLGcfaESb8CinFdNoFz5vhiQhjvjcOpB+71HSvSoU4ypnjYjETp1dD8//wBqL9mCb9mrV9PNrfyan4f1JGFnNIP3kcg/1it368jtivLDOVFfZP8AwUpju4/groGqQbZbBdQaFodoJjkwcHdjPIzx0r4mjmZdvzblxyPfjn9a+Wzak6dW8T6rLMQ501c0ROcZoF1nvWeLlt33uPSnLLmvKb1setq9zQM4x2pnnCqwm5p3m/5zQHKWPMpyv8tVfPp6zZXrSd+gpRLBlxTGl5qEy89aikkbefmqbyI2LEk4WkeTclVWZmHWlB+XrReQcws33KpTdKsu2F61VlO4mi8g5ivKw/Sqdyc5+lXJouGO7tVG5OAfpTvIorzfcFVrhsLVi4bC49s1Supsnbj8aoCO7bei47VXCb5I15JkfYoAzk1LKwAz26V3vwm8Ew3U0d/dRs7KokiB4CnJ5rqw9GTOadjpPAfhX/hH/CaQ3MPk3ExMkwyCScnaMj/ZxWgVMi/MeR0+lWJ7ppJG3etU7u58ha9zD0eXc4KsjN1aAeH9bh1Bm8uzmdY2bsGIx069utTa9p7OWZV5x61K9vD4m0uSzul3wzAgYOCh7dPf+dL4MuJNb8J/6Z895ZFrdz03BTwcD2I/Kuq1mc5y9wvkJ833s1paHItzHjqah8XWn2bKjsc5x9ah8JXeZgpoAuajZkO2BzWdJZyGutOlrPLuKkinSeHE8nfsYDqKqNNvUzk9Tz/UwsQ2twaz7eyWSUc4zWx4thUTEIu3aB361n2ELGRW6be1P2bTHBnT+GvDRvYiVO7H9/muV+OWiR6doUlw3zFCfMUrlGx14r2n4H6DBc+FNWvrhfMjt0Z1J+XGO1eUSp/wsi3QXn7y1SbzmRTjIHTkY6frWygaXOe+Avwo1DwZ4Wkvbq+nt4r5QbfTg/7qFNznA9ONv/fVexfCT4FzfGjXbuxsbiKG4hhEsYlzsPzc5/CsHWr/AO1pGdq7VGFUcBeB/hXefs3/ABNtvhF45h1a4VpLRoWilA6ElTj8uPzrswtufUmbujvtW8On4OfDrwbbRTM2stcSG+kiO1HYccA9BhRxX0V8NPHi6p4Os72NPObZsmVhnd2ZTnjBDCvB/wBq9Y5PHcf2Vt1tIn9oWoU8bHUEV0/7K+uyPousaXcS+ZHB5csRPHJAOP8AJr6OnZ07WPJlNwqcyPjD/goZ8AZP2dfG5+x/vNG143F3bSf3JPNbKfgnlmvivxxdPJdOzJlmOSe/cD+Rr9jP2svhXb/tAfBfWNDuI/M1CzhlvtJlJO62uIwDwRjcGUY2ng9e1fj78ULC58N+MNX0e+3LfaTey2U4ZNpJQ4DY9D1r4nOMHyScon2mXY51YbnD3RyW3DG6sS9sSys397pXQamPk9TXMa1ctDAyx7lkbhfc9h+JrwoRbO+dRWuz0n9gPwM3jT9qGwmDMkGlwrIyAffLEgfqa/e39mD4URW+gQ6hIvlyRyuMH/gQH86/K3/gh18BF8b+Or7XrqFZIzOkSqxIbbHwRwe5Ofwr9qNJsYdAtmtraMRw53bQ2ea/QcjwzVNOR8dmmJipFjxFOLTw5IqpkRvlsDOKr+B42DfMvLAlfcDrWL8TtTmvvB2oabY3kOn6hqUflWVxMgZIpPdf4vxIrz39le48eWniq4tvFviq41gxwN5cEVhb28PPOSVXf/4/ivqIpqGh8xpe58+/th6K+h/tC69fRq3+kkMeOmetehfsUfFbz7y18PXUhZVYtGT1QnrWh+1N4Rh1ptSujFuuvm/eA9gTjivmf4feMbzwN4ttbqKZoZYbgZbA9eaxlJpGh7r/AMFCPAf2TxZb6tAv7q+gVS4H8QwP6Vwn7N/xdbwLqDWd8/n2N43lyQvnH+9+FfSttFY/tIfs4xyXka3moWacODtYEE/3cV8oeKvBI0vT7yRI9k1mzZ56YNYyrXjqVTjzPU9d8aWwsrCS+sbxZljlEvlq38HJ/wAK+VvhP49u/CnxV1TULRsXDXbc5+XYScj+Vai/EvVtGtppBeN/qygDAEc/hXC/DgtPrF1KclpZGkz6HrXHCum7GsoKOx+mkl/IvwE0uaNUiWa3LEL/ABMWXP8AOub+HnxSaw0uTS5mWRXfKhvUHcP1FXDrDW/7MOi72xI1qzqf+BR14d4D1Ca/8Xwq0jMzPuX0+lbTjfcwcbu57H+1j4lm0PW/Dclxtl0jUAYrmJgJI5lTBbCsCNwXO0kcHBHSvyV+Kfwek+C3iTxH8Mrjwfoevabp95Nc6v4j1HUbk+ItYuZQZV1GC6jQtGG8yBhyFCq4yM1+lv7RHjW68SfDnQdQkupGXTfEgt4ni+VvLCHzFyMZz0I/DvXxj/wVW/Zls/F/w+8L/FiEXMOu/bYNJ1D7PLHHaSpD9sCPIrxuqgJHApAAQhR8vJzx16aSNobHyxrehaP8UPDs/wDwm2paL4w1bw6EguNe0dmg1aa2JylldyQndc+ZwApXLDOSOtO8X3fhGbQNHvT9otbPwbYRLpVneGa2ttJWMMA7RBXUy/vZDvfDEyjODXD/AAh+G3jH9onxNdWvhPWNF0fwXHONR8T6rZ25jg0DzThykcg+e4cYVQ7MvzcAV6i37M/hrwD+1DH4bupb3xxoHh7wFJ41juL28ktP7SvYoXlDMsLKAhYEhckcjrivFk9TSJFr7eEvg14Jj8UeLtSsNBW5spbvSrS4lEN9rjqobaUUAqjseGYjivNviBpWo/FfxRq2o6XGsOpeKPhZb3qxJcGOKBjOuf3nDY6jPTivfvEPxCm/aS+FMeveLvCviDwbZX2nRPpb30Om6l/awdSxW2SaJnwABktyPUmvnbU9S1SZWWS8muLm4sItEinWzhs4zYxPuWARQoqn5sZwOT0wOKnU0jKzOOnfwr4E8KXWn+G9T0mzmaNY9TZpLm7F3cABZGU8qATu64619HeDNXtYNI0bTrXe1x9jRliMZViCmc4/A9+grN+H/wCxrr3xA8OX11qU0mm3WpIfsNpGqqsZYNtaQ7cjJKnAwBjFeTXH7T/hD4WeIJPD+sDxzf694blOm6lPZ6nKlvJJH8p8v98CB14HGc/jyyjrqbXXQ/V79hqbWrD4R/GhrCxuGubj4Vat9mQLjz5VhUqqk8Z3V+Svxe+H/iXwD8ZfDWvXWkSaDpU1uNOudU1SNxp0CgD5Z3TJi+bAEjAKD3r1j9k39pCz8aeOLfw54ab4kW954v3aSb658QyCK3ilD7j5SyAMMDGD9c+v6JeDP2ctK1LSF0PULOPUI0tBbT+ePOS8GMN5gfIcHJJBHpzW0Y2V0ZShZ8x86/CP406X+0jqnw98P+OdQs9N1z4Z69BrGn6nHp0TS6tbK9uAj3aDMoVlGHychge1e1aP+2A3g/4efDOa60vVNX8GeLPEXimbVrKw0t9RMjRzs1qQqqSAMg5IHFeZftif8Eyo/CPwKtW+DOhf2drGkzT/AGyzQz3EJtjE7kohciNi6qPk2jpgcV5l+zV+2xrXwP8ABlt4Xt9XlTwtbxuNIuILyWGO3mDL58O6ExybgQ24Oc5CjJFVqQ9TX+J/wn0P41a9H4i8IaD4m0CSx1GWO4F1Zy2E15DJnDoCoKMpkEgyMApg+ld3+wV4U2/C2SbUNQ8XeIvGmjmfTtX1jxBqragLZopXjZYLfJEDPsDbGBlIcZODivE5fiJ4q+MH7Rvgfwr8StP0VvDfiK4u7tb238W67JLHbRRNKr/LcouWbYMMSMnrXo//AATm+LbW3gTRbDUb5rHxN42+3eKbUwhVmnTznSOTb8oeRSAd7Al+hyMYonlP2J/4JUeJ9P8AFv7PGsXenw3lr/xUdwlzbXOPMtphb225OOmARx1BJB5FFO/4JZ6PqGk/A3xI2pWNrDNe+JpbkX9u4ZNazZWYa6x/CxdXjKnnMJPeisZu8rmq2Pif4w/8E8PGXxY/aj+IWo6p8RPEkHhzVPE+pXaWNrbeT5UT3UrJGrg5IVSBnHOK7TQvB2n/ALFngprfwvDcWcl7KsN9qsiifU9Sbb8sYkbBVe5Cjjpk19Yah8bLHwt8RdcRprOSa21G4j2G2O4ESMMZzz9a474n/DT4fftT6s3izXtBtr7XvCcG23mlZlWGFjhmCqQN2eM+nauOUm9zanNHz3+xP+0ZfP8AGHxJa+OPElxbySSgWMN6cW8CgXWQzfw4IUdP4RXzh+3PPZXn7QPi25066ivLeW8F1BNCd0b/ACHlT3Ge/HSvor/gob8H/DnhD4X2OsaF4bt7BrC3YvfWoZEDCSHk5Y7vvdf9qvlb9pPUll8WaHqTJH5etaFFlo8Ydwdu4jscD9K4Ky5ZaHfH4T7/APh94lk1r4f+H7xm3G6sICTn1QfyxXWaBqckMU0aysm4MvXg4INeR/sq6ymu/s1eDbjcrNHZeRJjsyHH8sV6Z4cj+1Xzc/Kqkfn/APqr3cJ/DseDi1eeovxe0Ox8efsza3Feqri1v7eSIYztYuAT+RP51+aRm2swXlctz6c4x+lfqR4Y0t9c+GXiewihNxJmCQIDzgSx8/rX5a6xc7dSuI2j8llmfKHt8xBH6V4OeJWTPoMmqJKzHCXNSI+FqisvGakiuc1869z6KM7xTRcR91Sb6rxy07zqB3ZNvpQ/HWoPOpfte3ijXoKV+hOGOOtBOag+0BuaUSA96IxZnr1JqbIcVEZce9MlkyOlVysGOLVFIajaZsdKheZs9KOVkczHy9DzVG55B+lSyTE5qpP8zfWnyMfMyK53Ht2xVS4h+fOf0q46kLioZYt1dEKKe4czJvDHh5/EOoiFfd8dflxxXtGm2Eel6asMbDEaAAgdcVxPwc037NYXV6y7ZJGCD2FddDIyxKv92vTpRS2OKcmJPNiXp979KrarDuifnhU3Zp27N01amm2i3VvIp9Rj8a9CMnY5JSbOO8I+IlOoxl1/drJyu7qa2vDhGk+JL61Y7ln3y7unJx2/CuCnl/sfxvJY+s5Bz257fkK7pCG1OOTuy7a0siSH4iwRw28civu3KcjHSuT8Jy51Ref85Fdd4gjF9pBzjIBJ/L/69cLok/2bxJDD/ebBqoxTlYzlJpntnhTRG1mNVUfeO3pmtzxr4W/4RvQV3nc2xv4dueDXR/s86N/aNrG5XKxy4BH0NJ+1MfsusQwrwGU8fhXo06HucyMJSdz5p1aT7beSMV28AY654ohgCrnFbmoaWqSg4PXNUhZbVxuFc05Xdi4yaPUfh2mPgfrqj5SVY4HvXkPwsXZ4GgYsm5rhkY7uoH8J9K9p+GFj9r+GOsRruzInyivmDTNWb4aeP1e4Mn2G4Z4rhB0b3+tUzeJ6dcwhpPRc9KuWUCvbbeTxkqDjIz/+qoZhFMBLCxeCTmKTPEg9qarNEpU9c5+lVT0lcJK6PoS5u1+IHwS8K6vjzLnQ92kXZC9E+9GzH2D7ffbVj4M6oujeKbiEttW4Xdn2Tj9a5H9kfxeYvGOo6DeSkaX4mtTZzKT8qufuN9Qe9aUdtN4N+IV1Z3Sss1kTA+R+AP4jBr6bBVYSpnmVoNO53viPxXLa6xFNDL5WxiwzypyT1H0z+dfnR/wVH8A2uk/G+28Q2ce2PxJAZr0jkfaF43D03DPHtX2l418WSWDKWZcZIx7c18y/traV/wALR8IfY41VptkjJ6hgCeK8TMqftE0zpwNd0tT4Z1G7t90isyx7ehJ614X8SfjtJceLF0Pw+n2i+mlW1hmJ+USuwUADByefWsP9qb4h6tp/ifU/CDQtbx6PcGGVud0hzle/Q/Svcf8Agh1+y837QH7Wen6xeo0mjeC/9NEbL+7luWyI1z7AliOuQORXiYfA3nY9epmDcdD9wf8Agk9+zLY/An9nXw/Eqs+ofZVFzNJ/rJ5Cu55Pb5jjHt1r7AKiz05pC/zDJ5rmfh7oLaL4et7TnEaYX270vi/URY2LxyMy5X1+lfoOBounSSZ8ZjKzqVWmecfFzxzfadY3FxaNu1JLrzIEJ+QfpxW1+z7r9tq/iyO+t5JGWRWhIzxu7CvKf2hrqRZrdoWKxzDLsOjCqP7NHxGm0v4n2dm8cn2W4O3aDyrZ+9Xf0sLkXY9s+LmhrPJqELfMWDbeOua+I/ivojeE/GNxGybW37gPXJr7y+KUbQeJrhpOjLkYr5g/a18DNqVj/atvGN0Q+YisZRRF2dX+wf8AFFbG4bSbiT9zdcbSeBml/a78BN4Kvby4iXNpdAsfLGRyM185fBzxrceDfFMVyrbRBMN2e/Nfd+pX9l8WfAFlvRZTcqAxHI54rgrRaWhvTPzA8ReJDIskW14x5hAJ79a2vhRa70kYn5mVu1b/AO0h8KdL+H0V1dW7MZP7TaHHoP3h9P8AZrK+DsyyiT/dIH44rkp0bS5jeWp9vfEbXBpnwJ8G2vT7RpZkJzjHK8fpXl/hrVLfwr8Ldc1m5YR3cMLm0Yn7z9AB+dd18XLlbr4WfD+z2r5k2mGNif4fnXFeFftFX/n3/gfwvGf3drE2pXeO4+YAH2ziu5arU5zp/GGuFP2dvAvnN+8vNfa8AP8AEQhz9fmwfwxWb+2p4S0v4g/8E6fGlrqGozafpWn39jc3koRpI47X7TaNKCi/O2VkZWA7Fuap/HK2kj0L4b6P902cc12ye0jcfl2ruorO4174X+MtJj1rUtF87w5ct9v04YurFgiM80ZwTuUBjjp2xWNaF0XE+KfiXbWPxF8N6Z4T+FvxN+CcfgHVrywn1m0nkks9ZuBbypJJtLBQY9i7V3dx1rnxq2j6t+0N4qlm02bWdP0vwjD4JsEibbaX5hhtYnKy45QsJjldwODyeSNrx58V9a+IXgu20WLXNc1zTiUV7+9mWW+vmXrPLJtAV8FQAgX8+azfCH7O2ka3qFvqWqWbX0uwRlLm3hSOUDGNz7d8hPqzEn8K+ZqScZtM2R5f8S/FM3ibVFsQst9eaHbLbXU9rGPsejxrlVgjxkKBu27gc4XvXtPwC/Y80Tw1qEetak1zq+qxYihS5k8y3tIx/Ci45I/vd8dK2vjJ4SXTfgxcafY28cE2sXtno0EKBY1Mk02AoCkkkBc89q+nfDWiafazWemtqGl2N7IfslnDdXkdrJqU6j7sKyYLkgZ4HHTJqlLsByXgf4aNc+MNNjbzpI7i4QyZ/j54yfT2r8JP2rGitP2rPikV6R+LL6JQAAOJiPT/ADiv6X/hto8MGmWtzO0cbW7sZHfChdpOSxz8mMc59DX8zn7QzWuv/tN/Em4W6iktZfF2pSpJCQwlU3TkMrZIIIwR7Gpkiotn0t/wR90aHVf20fhyk0bMv2xmG1V5IV/9n6/lX7keCdHjtnuJmUs91qBto3IwSSePb8q/Fn/gjfY3eofts/DW30C0jvNTtnurm2F2/l27bIJSwkK/NypOMDqPz/XT4l/tBW/wW8MM/jbwnruj6fHfiRNbsZY77T16cSICsqY+XnBzk9MVpTiiZSZ9BWGoz+FL+6ijs5DJuCyEA9R/+vvXxn+1j/wSi0D4y65qHjD4bar4f8K69rFz5mq6NrJaDR9SmJ5mSRAfs0wGScqyycj5SRX09oX7Ungr4ieELfVNN1jQViaPImOobVPHynkDg4Jx1GOtV/A/7W/gHwfqV7b6h4k8Nx2twVkfyLn7R+8A6ggcD9fet3FWJuz8XfjRovxE/ZN1C88N+L9I1fwfL4ltZdH06XV2E0Q3MY/9GlXlkfARXGP4SQAateD5Lr/hMdF8XeGG8d6TB4N0qPw3Ztp9hb6h9mCt8ytGZVc72ORtyfpX66+Kf2pfhRr0epaHqGsaJrHhfVUcXdtMuYZOoBMZGNwB4bqPWvg74+/szfBHRtQvNY+GfxOt/DcizSXAsNahOp6fOGO54n3ZYIfu8k7QeKwkrbFH6sf8EO/iVefE79kHVrnUrfWIdV0/xRc2V9LqWnvYT3cotrRzN5TdNwkXleCQfeivL/8Ag2U0rQ9J/Yb8dJoTWLQzfEfUJrn7FM8tqJ2sNOLCLfyqbduFHA/OiueW5ob3xjmYfF7xV7axd49v3z1s/AS4a+13WNPkZ2XUtIuIVXPBbaSAT6k9KxvjHt/4W94q/wCwxd/+jnq18DtUOj/EjT5G+ZJJfKKgdQVrlirhTPmf4gfBP4seN/gZc6xq2oX39i+H3IuNHuW/fPH+4ICrxkDHofuGvnr4qaXqEWi6NcXStcWci+RDOvARupBHsMflX6t+N9LW+8NaxayBdrQsDgfeC5PP5V8c/tBHw3F8FZdSTTpsXl1K8K7VHkyrC4PGcbcgHj1PFc+Kp3aaPSo1oyVjqP2FL5D+y1psCtI0tndTRzblIwxbt7YFe26BqH2J927HBxk9f85r4N/Zx/a2uPgnDfWd7p51LR5nDGKOTy3jk55GeOd36dK9E8Zf8FMNF8GaG2oTeGdVkjjQyFVuI2JHXp8v866MLiLLlPNxdNOV0fd/7OWpR23xEu7Qr5zXFuWEXXfjHbvjGfwr8w/2gPC8nh347+MtOS3ki+y6pMFjddrKC5OCO3WuN8Y/8HGeg+GL2S40PwHr39ohVjFxcXUce0HkgBGPbjNfFvxT/wCCtHjv4meNdS1pY7Wxku5C5xEsjEE/xFsljXNjqSxEbLc6MLL2ep9qG0uEX5o9vvnpUtrp7Pjkn6V+el9/wUn+ITbiupRrxx/oMLD8Riu0+Fv/AAVD8UaOw/tvSrLXISMsVItWA742qea8r+zZ22PapYxWsfcX2No1H3qPssh5/hrx/wCB/wC3j4X+PUrwWej69p91DIsMqT+VJEWYgfKysDjnqR+FezC43wxsnyxzAEA9RXPLAzT1Oj61cZ9jbap9alXS2YVYRB5a+wp/n+WuPSpVCxt7ZNFZNPK8U9bZQduKWS4Z6dAMqKap2JlVBLZcNxUcsShenarOMA1BMcLVqKJ9qVzbqR0qOS1XNT7sqaif52xRyrsJ1NCFrNT6VVuLNc1alDKfvVCybmBz3pcqMudmWVyzZ7HFNS38+VUXJMhwuPWpZTkyN6HirvgnTv7V8SWa9Fgfe+f4hXTCKD6wd9pFh/ZFvHZ42jG4+uavSLt3EdzTbhzJf+b/ABYxTpOa7lTMpzRVMWZt3NaWiSrFdJubAyC3sAao45qxprYuo/8AZOa0g3scjlqcD8aPDc3gz4kprEn73Srto2WdR8iswIwT06qRWzf+IViaKaPaVjCkE9DXpfjnwlD8UvhHquhNtjmeF7mCVhgRSJ8wPHPY+3NeBeH9b+2fD1ZZFYy4MRPoVO0kfiCfxra5R3rXiXejSSRsGb0B9a4m3RT4vt+xzkVa+EuunXbHVFYMq2joo98nFZ+nSfavEUMnePcp9/m4/lWlHWRjUPuD9kjS1uPCvnH5tsv9DXJ/tUSi78ZbVC/ux2ruP2MIcfDyR2O797kfka85+Pd+Lnxvebg2UYgGvoKa/c2OOUnc8h1aRUfHG6s3bu+6oq54giP2xTu4x0qKygMlyq5+WvDnH39DSMmerfBBgvh6a3b+MYwe9fPnxY8K/Z/El9BcQ/dkLjcOx9K9/wDhKRBqKwiuE/aL8MNF4ijuWkUpOu0ADkV1Rpto6U2eP+B/G83gUrp+pCS608ARwOBlrfnqT04B9P4a9DbnDBlkjkAaORDlZAe4/r75rgtQ0xVXa2DtqXwt4x/4RGb7BdCSaxlBaEphpIj1I57E571nKEomp6P4b1htD1KO4jZo5o849zxjHuMZH1r2j4jeKE8faXpPiyOWNZJI00/VQD/qJgMxsw6jeDjJ6la8LtdpijbkqwyM9a7X4ZeXrMOreHJDJ/xUVo6Qvn5YpYxvVzz2244z1rrw+IcPdRnOmmjE8f8AigySZ+0JIV3H5TwvPAPuOc/hXkPxC1ma5mVlb5YznI9yM1teLvEkk8+3aEKghwOhOTzXFa/qjPG24dePzrWUuc5XRtoj81/+Cl/haXTf2oZLiGFt2vWEM0aoDmV8snHq2QPxr9e/+CD37JE3wH+EWnpqNm0esag39oajEybZIXkUFY2yM/IowR2LV802P7K9r8ef2pPBvibUfsLaf4Sgl3W0m5mnuN+6A4xgqhbccnkgDBFfrX+y54Rbw94YwWjN5McySKOGH5f0rXL6KdUxqS5Y2Pd9E2wBvl3bWxx0ArzH46eLIra+aON13LFnBP0rp9V8QyaLGu1mKR/eGBzXif7UWtrZ6Y2oSqyr5B4j+9wVHevqZS5YHkU6bnO5mDzfivr6aDawySTwr5SBRyx9a3PCnwmb4R+LbaO9XzL5nV956Ba8v/Y5+Ll54x/aLtJVRYYVXao/ir6U/aKtcfELS5M/I20YFY0q19zWtpsdB8YSJ7jTbpf9Rc265btkAcfWvKfHGmDXvDNzasqbZkOOOc16d47vV1D4dLDJuWTS2EmVAw4bp/niuEtrGa7tmmLRhV9snmtZGcdT4u+J2gf8Il8QLq1KtGrncM8A9DxX1R+yZ8RobzwlDp/nRie1IkALZZ1B9Pxrw39uK2t/DviLTb753llTDgKACPzrH/ZQ+Jy3Hi/7PCk6uHQOWAAKlgMDkmuCpJtm0D0r/gpD8Ml0H4QzasrK27XYjjbjAcyA/o35182fBdPLtI23bhIynI7A19P/APBTHx3/AMJP8HLXR4Y3hZvEduhZvukIsx+vYV84/C1Gi0a3j+VRujB2jrkjH9axg/esby2PvXU/hlb+L/hf4c/0jZfW1jtgBIVecHnI9vUV8h+OFuNZ+L+tS4WX7PJDpsLICVIXrj8etfXXi/VJLf4G2N9C7ItlY4f+85yoGPpXzH8CtFbxB41020mkDPLeG4kcj7xYk/y4rujFWOKpJp6C/tE3Rb40WOn/APPjY20Q9VJwSK9n/ZotbfxB8VW0e4dI7PVNOubSbJwNskRQ5P0NfPHxR8Qtq/7QWuTHdtivxAgIGdqDFe4fswXBl+PmnbeN0TgA+u2qlTTjYmNRpnynpv7Cvxb8FCTSY/D/AIdlXT7ucRXM135RlXzXKEjJz8pTt6V0ukfsqfGeNY1/sbwfHt7vctL+mMfliv038yG41o7Y8JdQebGCORh1Xn6YHrnvWgkMcY5jQn12ivj8ZQlGpqd0ZXR+W3jj9ib43fELQ47BU+HukG3vo9StLu2huvtVrcR/clUgFdwz3BFT+Ff+CcPxqOm6kmreI/h14guvEMa2+qXOseGZNRvZkXlGWeT7jIeV8tUK4A9q/Ub5gPvH6DtURiXzC21d3QnHJrnjGRR+fjfsY/tQSeEG8Pt+0A66b9jOnCSPwijTy2+zywsjMCWbZwWI3HLEnPNfGek/8GqHiXzpm/4WtGsTSl1Efhxt7Z5Oct1zX7pMzArhmAAwADwB9KmtisC/d96rXqB+PXwb/wCDcLxP8NPENnf23xj8WaTcWORHc6Xon2a6TcGVtkgyV4Yjj1r1v/iH/wBJ1y9a41fx98QNcuH5kn1G5YvLnruz9BX6WmVGbcqKrdyAOaDcYP8AF+HFUpNbEy2Pz4sf+CEnhS3itY317xE0dmQYk+0YVenGOmOBXqXgj/glP4P8JWTwLY2N9vYyMbq28w7j364/TvX1wk+Pu5pxvNg+Ybvxp+0l3Mrs8J0D9hTwrpG3HhXwkzLgb20oFiPz706f/gnZ4C1O5klk8N6DbtIc4jswqKfXHNe6pq20/dqT+23RDhVHHpU8zY+Zm3+yJ8F9H+Bfw51DSdDtLKzs7nVJLwx2sIij3NFEh4A9EHJ54orqPg9P5/hu46/LdsBn/dSis5bnUfFvxmnZPi74q+Vf+Qzdj73/AE3es/w1qDWniHTplXCw3Ubsc9+BUnxqDS/GLxYq7j/xOrz+A/8APd6wtPhmjiaTy5flkVvunqDXJF6lpH0j4r0tk1NVbaqXm4r6FG6Z/Ovg7xN4HupZfGng3UI2nOl3EtzbKTkqro4G3HHcfpX3j4i1O1tfC2nanfTrZwLZpJJNMcQoMKfmOcjr29RX5S/8FVv+Cp+h/s4/Ea8/4QWNdS8Ta7bvBLPIq+VAoDhG2kH+PB6dB9auS5tBxvDU+b/2gv2tPC37PEF5FeTfb9cibbBp0SE57bnfG1SMDIJGe3Q18J/F/wDak8SfGTxBJNqmpSyW25jDbRsViiU44x3PA9q8r8dePNW8beIL681K+a8nvrh5rhwfkeQsScd8DPToO1ZtpdPvXLGlGgkEpKW52Fxr8mNxbHoRx/Ks+91vexZny3r93P1xiqHmb1+Y1napMVO0VpGilqg5kb1prO9sb2Xnsx/xrSW+W4C7m6enWuT0ZWdxzxmty0iaQ8V0U1rZj9q09D2z9mvxZeeDdP1K7t1ZIbphsAzkOPukYPrjrmv0a/Z612fXvgr4fvLxpPtU0QaXzOy88/yr4Y/Ze+Glx4tv9BsVhxDdXalj/dCEM36V9/6DpI8OeG7PTYceXa26wAAdxXl4x2kd+Hm5I1BebQq7u1O/tBQMFhWfJdbju2Uzz9zZZo1/3v8A9deO3zOx6EXY14rtdud1Tw36etYi3SIv+shYsflAOeO/Q1yviP4kyaVdvHBGrFTjG3/69UqbY5SVj0prxMcGoJZfMryC4+N+rW8wVbGNuM/dOTUlv8dNYlfb/Zcmf9w/4VXsWZ86PWGbaKrtdAHLcYrzxfixrU4KjSp29hBJ/wDE0qeOPEF6dsei3zs38KWcrMf/AB2j2LDnR3FzeKc4aoFvNn8WfrXOWmn+OtUK/Z/CutyBzxjTZef0rWtPhL8VdXH+j+BfE0in+5prj+YqvZBzofNPkSYxkgnmup+Clk1xqN/eFf3awEoT0JyR/SsW1/ZR+NeswsbbwB4iXIIHm2wj/nXongPwjd+DPCK2uoR+RfIojnj/AOeLAtndWsKZkWJv3L0u4MB1pdUXElVVkwa7THmZKww1T6eQs9VwcipLXiZfeqUUOx23h/U/7M08zjbJtBZx7dCPp/jXzj8bNHbwhca1NaN5ek3EhnjYH5Yiw6D05H617hFqJt/DeoKzfM8bKv44/wDr15rqVrZ+K9Jm0W+Mnl3SFGcYOD0Xg+hxW1lYZ5X+yn4+k8V3viaxZFim08RswHO/52Gc/Vf1rvtAs2Gvyjb8uTg+5Oa8V/ZpEvgb9qfxFoN4pja/0u4aMt8pufKnI3gDjgkHj+9XvNmy2t9H/C8jDJ9TiiGmpz1Nz7L/AGTNSFt8OVVWG5pPmFeRftC6kY/Hl0q/Luc5Ndr+y3rB07wuY2b/AJa8H04Nec/H28W88b3Ddcua9r2lqVjnkveOIuZfMl+Y7lrQ8O6f9pmEh+6vpWfZQeeAoHJbFb8tn/Y9kskn7sn0NeTzXmbcqS0Oj+FWswnx/a28m6NZWwTXR/tDeB21HQGXy/31udykEc15H4L8TeR44s5Fy2JsBjX0h8YovP8ACdvdLzuXJ969OlsVdnx/d6W0e/zo/u1z+v8AhuHUoQrD5eDx1U16trPhL7c7eWD8x5rk/FegvpBSFl+ZhuDe1ZVA5pGB8PvHUej3cei6tdbY5JFjtbt+mTwEc9unBwBzXqtrZXXhHxBa3Tbl+xu2HHVScfzH6GvC/H9vG+hs6qu63KyA4+8QeD+FeyaP4wL+BLe2ulaa6MQaOVz8suVHBPXIrFLUfMzzH473beHfFjzDaLe93yLgdDvY4HtgiuDtrqbxTdR2tqrPcTSBUGOB7muj/aD1hr/w59qLbp7d8LgffBPKj9Pzrpf2LPhZceMZF1i4jZY2GFVhjAyua6qd9hX6npH7NPwfm0sQy3cP75ts7txgsBgH8jivtX4azLp2nkySlCwGWx0rzTwL4Pj0Wyh2r8sYHGM100/xC0zRriOwNwrXsh+aNR91a9jA07O5wYiSZvfFbxvb6ZZzRy7kmKb4kjG4y/l09ea+RP2ivH+tfEJobVJDDarGVbc2epUngH2r6V8ZKutabJNHu85U2h8dB6V83+M9CmutUaPy9vyjcw7131pvY4o+7sV/2SIpvDfxa0u6Vx9nt5MzMpxkV93fHDR28SatoVxZ/MZp9oVjgjB5JNfInw70ez8F+Fb7X79mjtrODzcRryfavdfBX7TOkvovh6PUbO+hm1S4l+yM/IJVsHOegrDDSbNKkU9zttQtZPHC+OPB63HkTTWCtCykffTgjPuBXkOheDZ/BtnLZwaleQ7Qqhi25mI4PUGu6sdbksP2h9TlidTv4Ygf7OTjtjOa2viF4VjS6+2QLuguFZxhTlWz/KvR5kcqi46s+Qf26fg7qXjLwP8A8JBaakZZtJg8meKT5TcKf4s8AEdPwrxj9jnwJP8AD/x/Z3El75i3phUxLn5MyA9T3r6+/aQsBb/B/XhIMJJakMSe/wBK8C/ZR+Geu+MvE2jtpemXV1DbXMLzzshSGFFOfmY8Hp2rnqU1uaJs3v2vvEc3iDVPsrJDtg8Ru+FOT8qzjnn3rmvhn4fWbxBpNvsxHLNBCffnGa95+J37GfiPxH4ouL3VtQsLXTptSkuUdI8ct5m0Zx6Ma4nwJ4Tj0PVbFltZJLixvIlWQv8ALJhyh4+jZ/CuZU/eNk21qepftDeObfS/2eNas4Lpbe4ZzaWsPO6XbNEpI/OuB/ZzEOla/fatcFVg0WxeeZyPuhIzk/XJrhfir4ubxN4vmtRIzWOn3k0cZ7SkOCx/MD8q2p/ESeEv2YPHeqFtjXVumnIfVpWXcPxrshojOcVueT+EtWk8UeN3mkYtNeSvcufTdJkfpivqL9k+ymu/i/ZXC/8ALFZFz9AK+Tvgzceb4pWT7zbVz7bQK+u/2Qrnb8Q4W/h85yPplM/1qlucdRW1R9NW92I9WTb/AK/Ttysnba5zxV5/Eqy7toXcpxiszVbFrPx6rKd63SOjH1+XiuU8R+If7E1+4t2bbyeK8HMoq9zsw7bjqd5N4iAf5SuO9R/8JXDvI49O9eZyeMisajP3veo28XBXPzY59TXh3Z0HpzeK4Sf/ANf+FTL4uh8v/wDX/hXlf/CYD/np+ppw8XZT/WN+BpczFI9O/wCEsiJ+9TG8WRsf9YFxXmDeLV/56fnzULeLA3RwfwNF2QerDxbGP+Wy0f8ACWxHrMPwryj/AISr1kC/gaB4rH/PQH8KLsLHqjeLoR/y1ph8Yw5wJF54715W3ivn71NXxV8+d3I5FFwsfYH7PWppqvgu6kjbcPtrqfrsjP8AWiuf/Yxvft/wuv3zn/iayD/yFDRRLc6D8y/2gPi14ol/ag+JFlb6k4t7TxTqcMaCJsoq3coAG0E8AVw/iD4qa9Ddtatrt9GwUMyxsVIzyRhgCPxrpfjLpr6d+118UJJrditx4t1VkYREtj7ZKcrkjPv8rY7Zrzv4g3Pl6zcSbo2iRDtc5+6Bu5JAJwPXmvJUndnUkrGB+01+08/w2+F13r3izxR4km0/TbVpoLBbof6UAUwuwEA/MU61+Mvxs+OV/wDGT4jal4i1CWY3OoSl1DkZiQ8qvHAwOw716l/wUT/a8uPj58Qf7N0+byNA0Hz7NljbatyVnJBwODnYlfMs2oNcTMznLNgn8Rmu+nfcynsWpJd53VYsBvYZrPjuQRWppw+QmtjIsTzeRHmsm6uWmm61c1G4+QD3rPhG+bNVEDZ0f5Yxt6mux0LRxMY93Ctjcc1yemDEa7VGcjAr3z9jP4Rr8cv2n/AXhC4LJpur6vbrqsm3K29n5heZz6BYgx+gquazHGN5H3B+z9+zHqnwLk8Jx6w8X9qXGix+Iru35Daet8M2sL8DEgiUsw6DcOTXtGn2UuvX0dpb5kuJrjbEqj5i5OB+HNVfF/xSX4v/ABH8UeMo0MMPii+ae0hP/LLToQLSxTHb9zEHx0y+e9dB+zneL/wvPwt0/wCQjGPw3V42JvOVj1oJQhc+r/gV/wAEkr/VrK01b4geJNM0vTpIA62OlFnm3MNwE0kyqFIHGEDcjqetei3X7LP7Nvwat2/tqe21K6gyrrcXuZGIPdf8j8Krf8FoPjfqfwc+Afgaz0vWp9Hk8RX8nmLAMSTLFCHPI7c1+Vvjn9oc63Eyy317e6tuz5k5PzfWuLHYqnhpqEkjehRnVV0z9K/Ef7Rv7NvgC0aLS/BNveeWfuizjcE+zFq4eX9u/wCCbTs//Cs9LTnHz6ZCT/Ovifwl4ivPEPhqDUPLHl3Dm2H+8OSayta1OSJwCzKe+DiiniYTV4hUjy+6z7xX/goX8JFO2z+G+iqR0P8AY8J/rViH/go54P087rPwLpMfcbdGtwa+CbC6e7bAkYbVBzuwx5BJyf7oGfxqn4a13wvo1ncL4yvviNcas1zLJFNod/B9maAtlPkbG1hyMdMAetd1P2clvqefjMZHDLmqRdj9CJP+Cpml20ZaHwjZxN/eXTLUY/8AHazLv/grCVf934dCr6pbwx4/IV8Lv8Rvhao/5CnxwhHdt1tLj/gIOTSxfEf4cjBg8bfFq2X+FbnQbaYj6k1Xs4nkw4mwbdua3qn/AJH27L/wVp1YAi30u4j9P3iKB+QrB1b/AIKy+MJJdsLCIdADcn/CvkhPGHgG86fFrxXbs3RJ/C0TNn0wo5+ma6LSPg/D46SNdB+IniCbz8APceEhEhz77+B71nOmelg8zo4mXLTZ9E6H/wAFFPHHjvW4LNrqONrmRl3rcNuRfUcdRVXWLptSeRphuaV97nOS59/WvPvht+zrrfw28S/btS8VWfiG3WIiOKPTFtnhOOpIau+kFTA9Ix9WUNuKjnNY6TEXADdM81s6h95vrWBcP5chPvXQc5oCYY4qSGbBz3rPt7rNXIZQTVak8zLVxcmSzkU/dKk147418Vf8Il42mMu5YkKnGM/KcdPfNetSz7t0fr1z6e1eMftKQt/wj095GpLxyRvnvtBPU1V2VdjNTns9c+KfgjxI0MKXWnSz6ZK0agNJbzorMGx3Lxoc9eDz1rr9Vt5E121VSVxKVPvj/Irw/wAPeKVc2p3BVa5imyODuyB/7NXty3gu9djOWO6ViP0raGxjPc+k/gNcta+D5vlxtbOfoK85+JGpNrHiO4kGR8x5Pc103w+8eW+jeHZoGyvmAj6cVzF5Gt/qUhPRhkGtlJ23JKnh7S90qtuCqpy1SeMtSEu5Q/yr0FXLt49FtQy4ZienrXJ6zefa5H5JqZaK5SuHh8Y1W19pMj619PePL9bj4dbFb95DDnJFfLOiz+XqMPPv1r3q78Qm98OGM/NugTIPOa7sPK0dR6nN+H83MyKduGx2965r44aWtuFmG0bGEZx+ddfo8H2SWPj0/nXJfHG88/Ttv/TUU6sk4hqeFeL7bzLOZV+7t2D9TW34E199Y+HEEbSM0i5iYkdCv/1iKzddi/0Zi3TePx4ql8IZmGiXVr/y0W92ooG4ndgdK5qK5hO5qeEvhzc/F/xhb2aqi2lk/mStITtPPHT6V9f/AAh+HNp8MvCNqk2y3t9gDSKPkAHU5PPX+dZP7Kn7OFx4b0e+u9SgkWO6G47vvnbHuGPxJ/OuS+L/AMRtQ1XxLJoazXVro+hXctqINu37RyCCxH3gMEYPHNezh6Ssc8pM9yu/Fttpvh28msblJlMRSJ0HRumea+ZrLxHeWnjCXUJriaS434LFs559OldjH40jh8J2trEdojXkDvXGakqyOZFVQzHPAraVb2exja+5734H+J8Op6Y0chZm2c5A64rhtXuvtfiKRkXKkKOntXIeGPFrabKsYyC2Rx34rrtGuQz+cyjr1xVxrc5jKmSfFvWoNF+EmoWKttmuVVggHGC2D+leS+Ivi7qWu6/bXC3EiQ6fHshjwAE3HLYA9T3rY+N2rTalraxru8vyOVzx9/0rgBpcoP8AqR+dTKpbY1jTvuewTftVywaJc3U9zLHffZ/JmdVHmliu1SuOP5VQ/YHvvHXif9qH+0NT8WXV94VbRrkS6fczlikw2qjgbePmbOAce1eQz+GdTlldlt8o7Ej97HyPxb+detfsh+MofhN43vLzXpmsbWSweONynnZfzY2C/uyx6ITjFTSxEnO1zGoj7SuvDuiXrxR6lEl5DfvLBtZdypIMlWYf3T0rovAgjl0NYY4bXTYxC8clvboFXevAwoGMEc5968Ztf2jvCGuzx7Nc3CTlh9lmTB+hTNeq/DTVrHxBYLf2E32iLc8AbaRn5V7EA17VF8+hyTbWxt/HLX7Gw+H8MNy9wqrcwxpsQMAwzjJPbAPNfL+hadJbePLgLDGtvNdb4gJQx53EnivqDxlo6+KNAvLCbbhlO3ceAw6V8i6T9o8PfFRdNaS3bdOQu0dBg85q6lKw6dR9Ty3VkS3laFvvvdSkkf8AXQ5rG+P3ixtF/Z10XQXO2bX9SbUZgO8MXCk+nTHHrWvZ6hY654jktYFMl1DcSR5zujBLNkn8MmvH/wBp7x9H4w+KF1Z2LL/Z3huBNIt8dJJF+aQj2J4PrWGqN5O6Om+Atq80kt8zDYMxD/ePP8hX1/8AsejPjC03D+Nvx5Wvlb4WaA/h3w1bxsTvmZZ2HodvSvq79jjEviSzlP3Vdj+qU+pxy3Pobxfq50zxtbqMnbLu2+pFch8cdFmtr+31iPb5N2kbSAHlCd2f5Crfxg1dtN8UwTKTnIIPvWncwr43+GjLJtaVYt+MZ6f/AK6wxlFShexVOTWx48188u0sx46UGd3Odz889ahXhR29qkHSvjamkrHoLYXzW/vP/wB9UhupBxuNFMf71TEB/wBokP8AE1N89x/E3502iqAm81h/E351MrNj7zfiar1OhwtAAS3rSpz+NBahX5/+tQB9bfsJ/wDJJNS9tYl/9EwUUfsJ/wDJJdT/AOwzL/6JgooND8z/ANp29ltv2lfiFJZXDPv8W6pFuZTJa3pF1LvtGfB+zzqclS6kOo4YCvjv/go18erj4Efs2XmrRMkesa5nTbNXJKRlh80gAOchT1BOK+tv2p7N4v2nPiZcRlluJPE+piUQnYk8a3Uu0yA8FkGANvOK/J3/AILW/FqTxF8SfC/gvzG/4k9p9pukX7plmPGR2wK8xU/3h1R+A+I9VuvPm2qzMqEgMep56n3qqgLt0zzRvMnzHq3NSQcV3o5SeGJW7fpWnanyID7is+3GXNW5pNsP4flVrYClfXG+XhvyNEH3qpmT99z+tXbT5pKuIHT+DFSa8j8xfMjVgWGM8d6+0P2FPC114Q1+XX7GQQ6lrP8AxJbcsOYIZVKzyADByI9wznADkHIOK+O/AVptuFz1Yjg1+gH7Imktb6dDeYVlsbbanp5zcE1NX4Tqwsbyue+RR2+nCO3hVo1t41gjUdFiRQiD67cZ9x2q94F8fyeC/iNod3EFJj1CEBiPu5cAnNU/DGi6j4ivWAMYY+p6e5rU+JXwc1bwz8Mr7xA1xZj+zQl0Arjd99f/AIqvKo/Hc7pe8rH11/wcHRzeJ/hJ8E9TjXf5Mt3hIvmJLQW46c9ifwzX5iaL4F1zXtYeO20+SWHb5oJPl7euRz1Oewr9ofj/APCCH9qr9lT4LqunyanqDyo1oigsoZ4VEkjEfw/KD+IrpPgZ/wAEwfDPhbQre48SbvtygeZaWiIqqh5Kl+pIz9R0rmxuUfWqnMyaOYOiuVH50/CT9k7xBb/Bbw/YzX1nbXE8kl8s9zIIP4SzIqsQZGHQ7c4xzXzd+0n4uuvhL4kXR99vdte26zrdBGxs3dUYHC/MpU5HTiv3z+I/7I3w78TT6LeXngvRr6bwyjrpU1xuke1DD5iMkAE57968L8ZeB9N8N3EsNn4f8M2scu1GafTo7mTAJIALcgc10wypYeFkjGWYOUj8a/gJ8SJfFXi2WO4uY2aHS7h44gwjkabyyUQl1YMCcD5cHOa4rxv4a+IvxB11tSu/h9rd9cMvluthIixIFJwF3I7dMHr3r9tB4ml8PhmtNP8ADdqzsR+50iAEDp1A9s1lan8YdZ0olo5NOUd9llF/hXbhalClrVpKXkaKtXa5oSsz8SY/hV44Zvm+Evjoe6LK5H4LBXReGfhBayXNt/wluhePtAiumDizmu2t55lU5LKHVSVyPT2r9fL79pvxBp8O+O8s1bqCLWMdOfSvmr9rvT7X9qLRbaPxLd3UmpaaW+xX9r8k8BJyQAoxt7c9j61pj8Xh6kLU6aj6HVQxGIemJkpL/Cv8jnvgbqPwrSzsrPTdJ0v7UBti+2nMxxjnk4Zv6ivorRtZ03TNNXzJIbWFfkVSwVdx4CjPck4x6mvzK8WfBrxt8Ib2e+/0fxDp+lt5iTwStDdPH1PC/NkDPK8+lejfsnftu+ML7xlpul+HPFVtp15rkq2cX9oWS3V5E787Y5SNnH/XJGHdj1r56UmdsKeHXvQil6I+1/F+o+ZdlYcquMMCKwyata1f3Gp6tPJcXDXUzEmWVwBJK+RuY44APYVUkHy110bnLW3My6ZWduhrPmtEYfdU/hVydGD9D+VV3Pzt83euo8/UyLsfZ7g7RjpxU9reZI6VPd2onB7t61SELW77T271WojRP710k+X5elcV8VdFh1bSNQtG2hbqEgZx8jnOK7iwGFTcMhjgV478TfFNxpPjO6t5JG+WTOwjjb/kVRofM9v4zk0EXlrcGHfp91HGSDhgBJtz1/2TX1r4Pm/tC8sZgg/eHdwOgIHP418XftXacvhnxNYXlv8Au49YYtNtPGfN3c/99GvsD4F3n9p6VbzZY+XbRc/gK2hsYz3PUYZPJOz7y55Bq/HceSN3Dcd6xmlIlz/e5NPbUCF2/hVXJHa9qrXXyj5fcVhysfN7+9aEp81+orPmU+fJwaLlRuGnnFyPUdPavUPBmrTapZbJCNoGCcnpXltow+0V33gm68gbF53dcdq2pSHqdU8htwXyOOleV/FHxK2q3xgG0LGQeD14Fdh4y8TJpls0Yb5uR19q8a1nUDd6izM5OTzWjlcNTN8Wv/o4HYc13f8AwTQ8Lad49/aX1Cx1a3W6tbDTpdRRSAd8qcKDxkqCc4rzTxpd+RYZVt1ep/8ABKKDf+1Vq0vmFNvh6Ylf7wLV0YeN5ImV7H354Z1iOKyks5QrwsPLVwNpBxg/hjHNeL/tTfAmwtvDd54k0zzvPil824i4Ky5B+YYGc5x37160CBd4H3cg9PrVnxTo8fiPwZd2MgVluomj+hIOK+i9muQ5JM+DrLWmbcrKFeP5Sp6p7H3q8t0txGWZkUxj1p3xS8Mt4J+ImpWPCrHMx/38nII9cDisUTGdMr8u4YPvXmV4ko6DRLZTqPmSKvK8AAcGuqstTkiZQvzJnnPIrxv4hXm3Rdy7g3mBeTwRj0/CvO/tck5YMGx6jI/rWdN6Gh7v8RnxryszfL5KrknjO5iR+RU/iK54SF3+Vd30FT/AGPHhW42qEWO7dAFyv8Cd+a71beJOuP8AgIFLUmczi7dx5XOMqOQe1UvEI8zT1C/MQ+7A9fWrupFf7WvtvTzDj86bpf764ZWUHnvXRTocupy1KhztnqF1p8pMYkVlIPPQ19kfsMfEG5k+GFw17tdY9TkQYzuH7uHHf3P5mvm9IsLxGuPbFdt8NtMmk8N3EkB2N9sPmKF4K7Iuc568H8q7cNWcWc9R8ysfcV7eveafMwWJd0ZYHoTn3/GvlXV9PWf4oXEjR7Xht7l8kcDCMM/gfyIrrPh1rrWV4sfmMvmWxjznkYAPPP8As153438SNY+NdaffsW30O5lZiccsJf8A61ehKtzK5lCNtD5N8TfE6H4B6Euj6G013quoCSaea6JkcO7HuMEfKTjNcP8AC3QpPG3ijNzIzR27m5nbOS8h5OSfXiuS1bXZvEGpLPIWkluVUIzdsV7B8NtC/wCEX8Or937RdjLN6d64qlZpnTqekadrf2i/WOIHaCP8K+mv2ML/AH6/Hb/LuUyHaPvcbK+TfCFznXFG4HbtA56nNfTv7EUzXHxdMfSPbMM9uiVdGblqY1Nj3j43oZdTiaML8oGOOlHwo8TyRzrbOqsrhoWX+HBwM4o+KMoLsTztbArnfCd8dM1u3ZejNk49/wD9VdslzQ5TjjUcZGf438OroPinULBfMCW8pVD/ABFWJIJ/DvWWP3vzAqN3OB2r0P47aLsvtJ1iNTt1K1KyYH8acfnXnx0xFc4duvbpXxeNo+zqWPTo1OZB5C45aSo3Ko2Nw/HrVoWEYHzMxp32GM9B+dcZuUXlUEDcuT70RyRuuTKqjjB65z0/lWjAiWr/AHVbdxgr7Hv2rndP+HW/x3a+IrzWtU82xgeGGxinMduA+MkhRhiNoxnpk+tAGsnlhc+YzDOMqvenrLH6zH6JVpk3AMoLZ7sOT9f/AK9N2H+7QBXJBPC3B9iMZpyBiw/csOepbpU+w+jflRt9m/KgD6x/YT/5JLqf/YZl/wDRMFFH7Cgx8JdT/wCwzL/6JgooND80/wBpZFm/ag+IiSfdk8ValET6brmXP6DNfgz/AMFE/iO/xL/a+8YX37s/YLr7DEV+6FhJH8+K/cv9ufxVb+CPi78YdUmkMa6bqutXZbB+VhNKAa/nS8Sa/ceJvEWpaheSeZc6hM8srdcszEn9TXLFO50Iz3wMAdqeo/d1Fnmp4/mWtjB7lmyHFF7P5aEetOg+SHJrPv5971pHYRGy+a3P51taBp32oDdmsaCJpe3vXS+HAylVXr6Z9quIXO08BaOsurRqd21cEkelfoZ+zToEmg/Cy1n5Zr0CUbuyjpXwv8DtCk1rxVawqm43Dqi8jnkCv0Y8P266B4fsrNVCRWcKwqB/Fxn+dcmMqWjY7MNFnRaH4im0q48yG6W3mkG35/uD3PfHrX09+wJ4Il/a08Q3HhfxV4TF34btzP8Aa78teRQ3sUflkFJCxikzvGEVQfl7YNfJF3qUI+Vlbc64yp2kfQ9q6HQ/+Cqnx0/ZjtLPRfCHxB/4kOl4jt9Lv9MSeK3Q9U3lQzYx1J7muPDVI31OicmlY/dz4ZfD7Qvh74T0XR9JjebT/D6bdMF0wkltlxjGfp68+5rppJ97s207mJJ471+Pfwc/4LifGjxI0R1E+F7ppMZUWRj6/SvdPC3/AAVI+J/iS1WRdJ0FiRlio2j8jXqfWknoebUp31PvrxLchdLk5UDB4zzXzR8WPLkvGyqhg3c15Vd/8FCPiXqqbW0zRVX6Vi6r+1f4015902h+HpHPUvEGz+tc+KxXOrXJhCzLnivxALDcoaPg+teZ+KvHcg8xfMjQY6Z610l18XPFWqu27w74TVWPJFmjfzNQ/wDCX+IXhZYrfw/b9yqadH+fWuK/NodlN2PLNU8XvNb48z8hmuS1PUWmlZvMbPptr3geLfEshx5ml/RbGLJqGbXNYnT97NZ8jnZZRZH19PxqJUzqhUPmnVomv96zWvnQsMOrplXHcEHjFcP8Gf2YfCuj/tJeH/EFjZX+nSaXK18sMNwI7PeFKoDG6/eyc/KQfSvqzVojO5aaO3ky20sLZOT9RVOExO6sscatjgqg6e/pU+xNlULE7bpppf4mJNQySkpxTi2M56GoYmwWLceldMIcopzctyneJIKz5DtPzcVsXK+amKw9Yt2SNsHvWpnzIkTldysD+NV57dpRubisn+2Xs5SrHhauR+JY3RVcfpS1MXuaGkzs7KjdjkH0rzf9pT4dl7GbxFZuxaPasqDncfmz/SvQIr6GU8SbW703W7qzu9HuLW4/eQTREYI/iPQ09RH55/tYifxH8KLy8hb/AImWkx/aIAvZVI3AjrzX1R+xtrR8T/Cq1vuvnWNs/ByPmTOPwx+tfMH7Ro/4VxdajbakGW0vIJsEjI27iMf1/CvoH/gmlejVv2ZLG6WQsqOLbkY+4uP0raOwH0A4+f8AAVC/epmbIqB3ANRPckZUNx/y0qYnFV7lsb6gepUg/wCPiu/+H0Xmz89q4CDidfevRvAEWImb1roohqct8UL7y711/wBs/wAhXnV0MuW9a7X4l3Hmaq6/xBzkfgK4u4PBroDU53xhJusDXqn/AAS/1IaZ+1HMNyhr7RJ4ACfvYIPH515L4vcG1avSP+Cc4WL9qLSJTx/ol0g+uwV1Yf4kRLY++tQv5La/J2/u8dSOOprb8O6pHqFkYm2s2c4z+H9a5/UA2oRbU5ZQM1Us7ltIuY9xKj1FfSU4vlPPqM8L/bc+Hc3hzx/Z61GGaz1NPLxjhXHXmvG0m8qcRj7oI5r7P/aW8D/8LA+CCzRqJZ7EeehzyORn9M18TW84kXcW/wBWSrfUV5+MhbcqmZfxDffo8a/9NU/9AauKig2oc11/jJvtWmRj+6yk+wAI/qK5p0AX/wCtXnwNj1P4BjHg+6/6/X/9ASu2xXF/AdwfB10RyPtzc/WOPFdxiuozkczc+F7ifUbhxJAvmOzAHrgn6VXl02XQUEsmx9x28V0so23O4/drI8YjOnRtg4a4UA4/2Sf6Guym7+6zjqL7Rnrr8ajoy+w7V33ws8aQWnh+4jZJDvmbJwP7q15j9nYk/K3U9q6rwGhj02YMGGZCeR6KK29mo7HEqnvanrnhbxxCdcXbHJ8wYAkcHivO/jb4i+y3Hiy5UAY8PyDJ6csw/qK3/CNtI2qw4U7kUtzx0FedftYX39nfDnWrqDJkurSGy6Yyxckjn2Fac1oXOmjrK58reB/C0epRWk0mf9HwcH3Fel3OrrbrDGrYCLgYNcn4Ztv7Mh2564H4AcVcuN0zbtwGPeuX2nMdckdx4AnM+sxNubO8YyeK+0P2GPDUaX95qjLIJI/tG0kcZATFfD/w0nZdRgVcs28YwOa/R79m3w7F4O+C8N1J+7mvA7bj33Y/+JraizmqxuaXi521DUHjkZdrHIrJtrf7DdBgq/u+QT3p2t63Hbt5sjqNuTmvM/iH8Y1s2ubeznY3DDbwvAzXa6ltjhjQbep61dfELT/H9nH4fuLqKO8t2Z7Nw+AG7qfr2rl2Ro22su1h1A7V5Z8CPAsnj34kWfm3dwot5Bdlg3XBJOfavWdSkE2pTOo2qzMQPTk181mOs+Y9KjT5UNWNSvWjG2kX7o+lLXj9TYbJTak47/yoC7j8v41QDoulOoUYFOVM0ANoPSnbKGj4oA+qv2F/+ST6l/2GJf8A0TBRTv2GuPhNqP8A2F5f/RMNFBofjr/wV0vvsul/tISr9+OXWkXPZjeSf0r+f0ScV+8v/BXvUW1C1/aStYY5TIL7WgTjji9kr8GCuzr2rM6k9AV/mqaOTAqBBncanjTcBQc0ty15uIaz5jvdj6VexmM1QlUhz9a2jsItWEe810Ph6DypQ392sTTE+Wup0ONRMpONpHOfpVx3Iknc9u/ZhV7LWYblgCtuc/j2r7oh1TztPhJPzSBX/Aivh34BXscJsLZWX7ReX0aLHn5nTcNxA9MV9uW0sMUa5VvkiUYx3ryMb8R6+F0sH21TceY27avFcv8AF5rfUNL3Ko3IqsT6kZrobkCSNv8AarnvH+lr/wAI1My/MyqGIHYVy4fcdTcP2d9W339tuP8ArG/Kvsb4Q6iwtUUfd2ivif4NTi21qJY8YjcCvr74S30hsrVl7qM13dTkkrHtFpKylVIGCOK0YwNvArEtrt2dD6AVqW85Kj734CuGpuSXYhwf6VlXrqlyWkRplUfcD7QM9DWnA/ydG/Kqlxp0lxL93cvcDvWlIqG5534+1Hxlp1xpT6THaKrXOy6LMzqEPHI2/wCTWTe+KvFdp8c7qzaxu5vC4tAYpGQN5dxjqDnO0tgfj0r1ibR5in7uGRSPYkGo/wCxLy4O1kmO7qACP6V0XNNTyPw1pHjy31DWrnUP3zTWUi2cbxg2/m4TZ8wO4dG52961Phn4e1LRNFvF1G5vLqVbguHuECsoZUGwYJyoYNye2K9Oi8P3iQbfJnCnghFKgCq+oaJNDE26N1VhySKC4SfU5KZiKoXU7ZwM1vz6PLcZaNdyjuKo3fhS+RfMNvJt/wB01qot7GvMjOgufI60XTJex7fWobqzmjkKyRsuO+DUI3QHdtaptYxMnXtFaLcyrxXM3t01oc7T7g13/wBt+0RbWVsfSsLXvC8epozRsFY9jQFjkW19YXDblX1BqceJE1GdV3Dy8fkaxPFXh26srplWJ2VcfMAcGuJ1nV7vSbptqyLt56VpEfKziP8AgoT8L5viz8MXhs086+t5A8Sr1blgf5muv/4JYxuv7IluGVk8vWLuLB6goVUj8DWXrPime92iRyq5HI6jnj9a9Y/ZH8L2vhL4DQwWkflx3WoXF4f96Rst+oqmTLY9EU7qrv8AM9TK2xc1CT8/1rOW5nEa/Sq8377dj9asSttFV1GN3+1TiWiuq7ZYxXpHgpDb2YLdxmvPbe0e61GOJBlj+VenGNbKw4+XanOa6qcWguu55P47ufO16f8A2XP9K5m7kCKT6nNaniS483Vpm67mOMVz98zFiKqTQ7HPeKLhWRvvV3v7DpFt+0h4fmDbf9bEfcsvH8jXAavAJX+au9/ZoC6R8YvDsybuLkkkem0j+tbUZWehFT4T7y0zxPE2p+XuPdT71089hHq2kqwx8oya+etM8XFPFZzIwWOUqxJ6cmvXfDvi3ztJUxyKyhQCc19JRr3irHmVNzvfA2jfatLurV/mVwy47YIr4E+N2iJ4S+JusWMO3yo7liuK+8/hX44g/tFoZN3XDEgYIx9a+Tf28PhxJ4S+L898sLCx1JfNhkAO1j356fkTU4uPNEdOSueGXY82Ha341AlnGasFlnWpIbHeK8bqdHMjy34zQg+JLdVHK2uOPm3fMecLgfd2/lXG5/2l/P8A+yr6W0n9kpvjtbyao3iCPSVtybRYTYi44AB6ll9RVof8E3mJ/wCR1H/gn/8At9dVzPmR6B8KEaX4V+GQo/5hNrzt/wCmKVgfH+BofCFqzKP+P1R1I42P6CvdPA/7NLaN4D0WxbWkmNnZQQ7/ALEF3hY1XON5xnHTJrP+Kf7Ky+LNDjt11zyfLnWT/jzBGArD+97iu2nTkc9Q+PyVb+Fj/wB9GvrP9hWUD4O3igsrf24/TLYXyI+3bk5riZP2DlyGbxJ94/8AQMDY/HzBXZfDO2X9m/TH0NZBqjNdNepc7fsuxiqKVwC2Rhe5610LzOf2ab0Pf0WO2tVuGVlEgHz8MGz7E/jXxJ/wUcvfJ0bR7OHaPtmos+QfvKgbt+Ne6SfGmS4/dqqqDkKBJu7H/wDX+FfGf/BSr4pqvxR8N6Qs4X+zdN+0yqDkqZDxn8qVS3LobUocrPPn8QKn3mxyadb64Z7mOKMbpJDhVHXNeeeG9Q1jxxcxjSbG8vYXfYZ44WaJD7t0/LNfTXwc+Atr4ftkuNRi+0ahKA2c58uuKKbZ2Teh1n7Onw4ksrqO+v4WMikOVJ6CvqfT/jxFpXhGPSZIFMUGdvPIHOK8WjvY9HsI4YHXzcYdge1VpdRLZb7x9664Jcupw2Ot8d/EGXxFM7LJshQEhQetcet415drsHzSHGaiRpLqT5V3FjjaO9eg/C74dSa1e2skluoVm7A+3tRC99Skev8A7N3hH/hH/h3q2rMo+0+UEUj0IpkGWiTPXAzXeS2J8K/Caa3jXaZZVjGBXE+URJ6d8V5GYtcx0IBwKM804RkmjyirGvI6gCpTgMUDgUUwHbKcOBRQBmgAoAyadsoVMMPrQB9U/sOrt+E2of8AYXl/9Ew0Uv7EH/JKNQ/7C8v/AKKhooND8n/28/hlD4p+KfxztJgvl6rqOuRseuCZpWBx9fev507uA20rRt96MlW+o4Nf07/tGeFru9/aZ8fRyf8ACMyWt14j1IO8usxxyIjXMwO5WxggEAgng5Ffzo/th/CO6+Cf7S3jfwxd/ZRJpesT4NvJ5sLxuxdGRwMMpUjB71mdB5lAco1WoF+VaqxjYH+p6HNWbd9yLQYS3Jj8qVQl/wBbV6c+VHuPc44qhLJzu7ZIraOwjT0sblroNMGXXOdvtXP6K3mnA9K6LR4/Mulj71aC59hfsm/CLRtd0TTdfuWuH1TS5j5ODtXHXmvoCS4kJzuIHTGa8n/ZA1FR4EaJo/njbkqMjBGPvdPwzmvUp7nJx7142K+I9Oh0CSSSXhWqv4mt/wDilLpjnzHTbTZbqSBty0txctqFhIrO2Nh4xXHG6FNXZU+G/g3ULewj1BfLEMjrtweea9++Hfxa0X4eaVHHrFzPHNDEGKxwGTOTxz9CK4f4WRi7+Dka7md7adXfjoM1z/xrtRp2sadPHuZb62jyDjaMAD09q6ozJ9m2fQx/be8D2q436o23ji14/nUGo/8ABRfwL4fs1b7Nrtwf9iBVHX3avkTUL3MjYWNeem0Vz3iWPzbbft5zyQCKLIzcUtz7BT/gq94IkkaOPw74imZehLxp/U1HJ/wVe8PxRt5Pg7V2XPR79Rn8hXw3a3gtrOSdpWVdx/iOax7jxXcOzeTLIFbu2TQrIFZH3Zc/8FcNNRP3fgK5kfsDqAH9KoXf/BXWZIma38Bxxt2M1/uQfXbzXwrPq+oTLhbxV/4Du/Q8VCNQvwfmmDe5iAH8qq5V0fcEn/BYPxMMrb+DvD6+haeVsVkXP/BXLxtrGtWtm2ieHre2upkhm2Ruz7GIDbScYOCcHBwe1fGcmq3jhl+0AbuP9XxWdqpvGtJFW4ZZmQhHQbSrY4P4Vpcdj9q/C2sG2k2SL5h3KpO3G4kA59utemrpKa5oarBt8wqDgrivmL9lj4jv8S/2e/CuvSTNLcXWnxx3B3ZInTMUmfcYH5ivUfDXja+8O33mLOzRjgKTXVRaL5WxPFEH9nTNFNGvmKfmx2rktUWIQtIM9c9Oter6zHpPxNtVkFxDb3y9QWC7h715z4t+HOuaW0nl2huLcMQGgy+V7HpVShfYk55p7d0z844qKOeMRNt3H61z2uPeaSzK0Lrz0YbcfnisV/EN1ayEMHG7ocHb+dTy2Lub+tTiTqvy8Vx3ijw3a3sErMvzH2qa88SSum5mXHsaztQ1oSRNht2ecClYrc838UeFvJ3eX/CC35HNe1fAuxbRfhTpto7bmUGQEdwxJ/SvLvEl8rQNu+XcCvv3r2XwM4PgnSjtXP2dQNtIi3c1GX5CKgdOanaTPFRP96s5ESWuhE3y0MuEzSyLmmM4KYpx3J2Rt+BLAXOsLI3/ACz7etdL47uhaaBcOOMrtHtUPw80jFg1wQAD0qH4tMsGgBFzubrXox0iZR3PHZpfOuGbrWTdtukb61olwkjYrOuQWZj71z9To6GFqgxJXZ/BNXXxrpskZ+aOXI/KuP1KFnmru/gQPs/j7SlkHyGQ7jjjpW1H4iZR0PQ9P8SSnX7ljkKzsDznuf8AGu+8FfGCHR7J7SYSd8Edz+Vc94X8MWusrdTRbWP2ko3qvfnFZXxK8HNpM9u1piRmYb9pPAwfavVoyktjjqR0PVLD42LYo1xEsnySDAzjdyPavXPGHw2g/az+Af8AZ8Uix67Zg3NjJIvBbglCcjAKgjPbOcV84+EvA93c+Ahcrayzbm+YqpOz616l+z/8W5PA99DbXEk1v/DuA+4OhzXpUU5Ix5T43u7K58P6zcWN0qxz2srwyorblV1OCAe/1q9Z3GV6d692/b/+B66Z4vh+IXh2FT4d8RALfxQnfHp92MAEkcASDceSOQa8CsopAi/K2WPTHI+tedWoyjK9gPYvgZra6bol1Hhm3XTPx7qo/wDZf1r1XS9Vi1MZTOc9CK+WbbULrTwFhmmiVjk7GK810Xg3xjqr6nHH/aeoKGb/AJ+pP8aOVszem59qaQfK0Wz+X/lig/8AHRT9R077dana4XHtU/w3RdS+H+kyOfOf7LEruTuZmCDJJrqtKtYXhZfKjyB3Wvew8LpXOSpM4G30ZgPmYMFPpXJ+PvhhDq2oCdsMSp9q9ovtKQxNtiX8BxWLdaOl243Rlj93gd62qUUiKM9T5v1H4UG3kjEcm1pJQgIPQHOf0zX5/wDxP8Eal+0b+0f4t8RahetFoFnqTadYRDmSaKHaqknjbnDcYNfpp8ePEmm+Dfh/ql1Bd2ov4w8duolBYSkMBx+dfGPhDwNDolqmFZpJBubPTJO4n6kk1yzirWO6EtdTU+H3h2PSdHtbO1ght4IxtCRqFXp6etdpBNJocJWMKzSDqe1UdIAsQirG27rnHFdFpugT65IoW3mbjIKoa5oQNJyRl2cTSHdIx39c1aR9o+ldpovwd1jVV2RWEyx95GQqB+YrqbD4D6ZZW4Oo3irIB8yCRevp1rWUb7HOc98JfC0Wv6qrSQ7lbAzu6e9fRPgHwrb6BDbqq/MprhfDrWfhm3SGxWFVUY3Lya63w3qslxMhaT8jRZrcDt/iPL5Xg6xXd/rb8547CuAMnmys+Mbu1df8TXJ8FeH+fmkeZz9c8Vx0Y2jHpXz+YSXMdMR6feof71CfepWGTXn3HIbRQRjuKPy/Oi5JJTk600c+n5047YhuZlUdOWouA6lXlh9ajFxH/wA9I/8AvoU4Txhv9YjfQ5pXQH1T+xCMfCnUP+wvL/6Khoo/YgYP8KNQI/6C8vbH/LGGimaH4IftH/tE+L/iD+29+0Ba+HdP8HQWvhf4ja9o0rX11cC4k2ajcrv2qCOdhPXvX5//APBSb4d+Jrnx3Y+NtdbR5hrgSxc6Z5nlRSRLgLl+ckDPQCvp/wCIHh28b/goj+1tfPG0FpN8X/EaQzA/KzDVLwHjPbIqn46+Huk+O/DN5pOveVPp98NrNKdpifHyyLngOPryKy5kdB+ZmSVZmOS/OfWprUYGK9d8dfsT+LPD2rXC6XJoutaeruYZodTgjkZAx25SRlbcVwcKCOeteU3Wm3Gjag9rcwyR3EZ2vGeqkHGKdzGSYX3/AB7r/vVnOu6L/gRq/fSAx4/iVuR3FU/LOzb75raOxk9zQ0D5X/Ouo8MWy6rriw/3gf0BPbNclp9yts3zZ/Cuz+F0El14shaM/eDYG7afuGple40fan7LRli0a+juPnks9kaupUKwx2AJP4nFemyXmJa8p/ZklijbWvLWNpGfaPK+/GAvzeZ3X2yBmvSZJvnzmvIrO8j0qWsS1PdbxtpyXccVrJlv4SOKz5Js8VXYKu75iVI7VkFS6PYP2bY/7Q+H2uW2RvjTcv4HNZfxyg83QtBk6NHK8DZ9Qxq/+yLJ52o6pZ54miZQD344q1+0XpTWHglW8ts2eqMHI/hVicGqiTCo7nhmrzbLqT61jeI7pv7DLZ2qGC9PetO8ffcSbgc7jWbr4EulGP8AecEYAA9aoU9dTzVnkRGgkk+VmLD5abHfRmDaqyMRx92r1lf7ILjzNkklvJtBI7f5NTnxcsMmxbIMuM7ljyBQZGMZm/55P74FTJc/J8yvjvxWr/wmcAPzKq/9sm5/Sg+J4Jvu7Rnv5R/woFzW1MZbiMN/qpif92qepSK0isyuqqcnI7V0X/CSLDn5o+P9isHxDrEd7Jneq46jbwa0ujNVmffX/BLnxdHq37OuraLIVE3hvWnjfH92eNZkP0LKQK+jBIrdjX56/wDBKb4tWukfHvWvCt1dPH/wlGlB7SJlJ+0XNq24AkcAiJn69cAV+ha2rp94YrphJHbTk2SWqSRSbh+eK6/wr4tuLKSNf3bIFCnPBrk40aL724VMJtifKzbvpW8JMDsPGXw50vx5ZlrjzEkblWVzwa8f+I/wKuvD9p5kcnn2qdGHWvQNO8Sy2sihpGI9MGtDxRe/8JV4LvbNSsd3IMwuxIU+xPagD5b1fwy0avt3fL2rk7mZ9OkZdvvzXoHxEt/FHg6CV20reUxx5iNu/EMeuK8J8WftS6Do149r4gtJ9HuM7WkMDOoHODlM98/lQVFlzxRq32hdvyhsnj8DXvHw/mx4K0tT1WBc18i+Jfj54QSNpI9cjkjByW8iXjJ/3c19RfD/AMVWd74bsvJkZlFvH/CRj5Qf1zSYS3OyB3NQy5NVrO8juMYbj3FTl1rHlZI1+lQgZH47amkbAqzo1kb28gQj7zZNOMXcmex6T4Vsmt/C1uuPmYbjXLfF0lrPjovWvS9PsWs9MRCq8JxiuF+J9lu0eY91GTXpyi+Q5ObU8MZMzNVaSLIP1q9cRkOxqjITF979K4ranRGRmz2++eu5+CsMf/CxNFWVS0f2pM4Pr1rkAVaboa6bwJq40XxZpVyGVPs93G+SCcjPIOPauii1ctn1t8Mfgx4b1zxJqDQz3e5GZ8K2Vzk9Seah+Nnwn/sKwWSFt8PJU5JIxnrR4C+IFt4b8cNI02Le7BKhYzyST7e4r07xAbf4i+GHSF1ZnTKrgjH6V7WFs9Dlkcf+yS1trOj6pot0yhs8DOKu+OPgPLoGrG8tXLxtnhs9a5j4a6VL8OPi5eGQbIXQcZzmvoqz1rT/ABppvlwtu45BBBHFevTjZWRx1qjWx5a3hf8A4WD+z14w8IyRsGl0uSa3KsdzTQ5mT82DLj3FfDGlCWRGSRdsjFBg9QNx/pzX6O6X4fuPB/jC1vPL/wBFWQCUAg/KeDkemDXyT+2d8EX+E3xna60+H/in9ThjktZkPy5CLG4I6g7/AMORUVoKUdSqE7rU8wu9LGxGGai0pGstUhb3rYiikuIVwtQzaXIGVgv3TXmxfLuFbXY+wP2XfEy6x4btbRmX5QF+mAK9yttHjtVVsMykbeDXwv8As/8AxFfwj4kWGaSSMSMNnynAr7I8KfECDU9IjPnfMoBYFT/nmvaw009jz5xZ0lxpkTR7V3bsZI9K85+OnxBsPgr4Qk1W5mj+2sDHZW+ctO59q6L4gfGHRfh34X/tHXNQh0+1kcxRMwJaZwu7YoUEscDOAOnXFfHHxY/aYtvH3iRr+TS5Lz7KStms4HloOz4yea6q2xnSTuea69JrXjK9uGltLjdcTNOUMQXaSSe31rpfBHwT1jXBGrWN1tbncEIAqnP+0BrHlsII7a3duN4QMcVV0347+LrGZmXXLryzx5eBtH4Vwyt1OyMZX0R7Ba/AGHQYkN87KR1Af14/ma9E0rRdH8LaZC3zbo0/vk5r5z8LfGC+vvGVjca1qFxJYq+bjgt8uDzgcnHXivqLRvCHhn4p2izeG9ctdT8xQ5jZ2hZB7rIFP6VEYoKnN2OJ8ZfFC5nCx2iKiLxkLuzXKx3t5qE26Qqdx6bcV9A6V+zZLFAu+zik9xKrD9DUt9+zU0kbNHZsHxkAMvJ/OrVkTGWmp4jpZaFlMmVwfSu28G3yySR/N61H4s+C+u6JL/x4uYuinevB+mc1z9tBqHhnV4vtUMkUcbDefQVMtdioyT6nr/xAmD+FfDrc7QJR+tcpGua6bxbfw6n4U8NvbsJIWheQt06tiudihx06dK+XzD4zriIkRLVJ9lZvSnx27A9qsJHha88ciqLP/OaPsAY1aZPSnRL7UEldLFQOn61NFbKDwufxqdY/wpQg780AQi3/AOma/nT1j8s/KgHvmpdi/wB2gouPu0AfTP7FbbvhbqH/AGFpf/RUNFJ+xUMfC3UP+wtL/wCioaK0ND8B/wBsHwlB4b/bM+NENr8kV78RvEV9ODjLSS6lcOx6jua8d+JPgeL4iWmhaLKzraXWuWaXMsbYwpIDA/8AAf1roP8AgoV8Zde0z9vb44W9u1qkNr4/16JN8KH5V1GcDv7V4nqXxi1zWLIxvqUMO2ZJkKbEMboQRjk+mOe1crjqdB0H7Qusx/DqL7N8OZrH7ZCrW1xpT+Grea3uXRwg3ytls7S+WJ52g+ueR+KHwF0f48fAxfG03hnTvDPirS2ePU7bTGVIJSsLOrhVGAx28j2qr4j8S6p4ov3u7i8so5nySybIwSSSSSOT16nmqo8X65N4YudDXxBpf9m3JJlhabbuJUoT8o/ukiqjoRLU+d/iJ8FtU8LwR3kmm6hFp86B45pIv9aSAcBsYPUen41wMsZXcVyy9M46H0r6yX4gav4G0iHSz468PWemkBfst60txE+OnBhbGM/rXP6x8KPBfxHu455NT8M2d9cEiaTQ7+WNZycYP2ea3C7uucSKDmuiMlYjlPmdZGJ5GK7r4QSrNr0XnMI0XdlvL8zHyn+HIz+dexR/sUeEdb8Kald6Z4p1iS808pvW4hhjjUMyjJAYnv2J5I6V5H4A0tdF8UxQzXFrax/OPMu0LRy4DfMoBGV+vejmQcup9pfCRbiya4tpI7yMSFbkw3FzHMVUrhWAi5XnnEmcV3BbJryf4IamIdWlWDVNIuY7pPMmGl2LQl8DgO4DZA9CwFenfa0HrXk1oNSuzuw+xNLKf6VHx61G92rCo/OaufmRtKNz1r9lK9js/iPbqzYWbOf5CvTP2h9H3+B/GPy7k8qG6TPUdOleK/s9XixfEGzVm+Z5VA9q+pviV4CbW/DMiszeTrGiOgwOrxjdVGHLqfCMr+a+/wD56Hd+dRTwh7NpG5G4JjOB60GUJH/E20ldiqS+QcdK0dH8K6tr90lrbeHdZvhNGXEkcBESgHuTj5vatObSxXs2eL3t8tnqWsW6xqzW5Dgj5s5+lQ2Hiho3AEJ+YZPBr2iL9gXVNSv7i6Oi6osl2fnD3nl478gCtjTv+Cd2pLL5jaTErdlm1Zl4/KgTw82tDwO514yqN0UmP8+1V5tXdiB9xf8Aa4/Wvpgf8E+dUcY/sfSW9n1iQr/6DTX/AGCdbtD8mm+FY8dn1CR/020uYz+rT6nzFLqMYRt1xCP+2n/1qydR1OEKw8wNxj5QT/SvrFP2Ltet3A2+CY2zwD5znP8A3zWnZfsgeKIsZ1XwtZ/9coJOPzjNHMP6q+x8gfAHxxefDr9orwn4ihhYf2TqSzHCP+9RztdOg6qxHbnFftlpMqXaxsPmEkYkVT1UFc818ORfsheI7iVTJ4r09l3A7UgLLx/2zB/X8q+x/AOqM9vaxykiRYlR5NmA5Axxk9K3ps6qVO2531vpdvJ1VadJpFupPC1s23g64R/uqy/3geKsyeCpJI/vLXdTjcycWjkdQhhhChNny9R3rJn1yOKT5V47g9DXVan4LaCTcDuY9cVyfiDwpdbt0RX6Yq+Rk7nO+J9Shv0kWYB19D2rwj9oH9k7Qvjh4RvrRZP7N1G4UeVdrGGEJGSC3H3cnnvXs+paNdQOxkQnnnNZss4g3clQO1JxaA/I/wCN37Lnjv8AZ81OGHxJYu2lTzhItStMzWjgOQNxH3SQNwB7Gvu/4Q+IMaLbR7sr9niw3r8o/wAK9Z8Y6XpniXw7daZfWyX1neDbNbyAeXKPpjj1yMHjrXzv440u6+B/iOFYpnuNKuBi1DnDQD+5xwQMHn2qLge+aNqhwMk9a3La/Vj9K8h8GfFO21WxjYnDdxnvXcaTr6XihlP3iB1pbgdYJxLXQeFRt1GDp8vTNcjp0+8/4c10Xhxmi1CHk/exWtGPvEy2PddOfzNOiYgHI21598UblYtHufrs/Cu+06UJpcOf7u6vLfjPdJDpkyq3Mj8Zr06kbQOHqePyz73IrPuX8xyKtTrskbnNUwm9t21ua8yXc6YkSJhqnglZLuFlbDK4PP1pfJz7VCJhZSliobjqe3NKG5Z9A+ILq406HTXWTduQMD3HSu8+EvxLuLODy5pdrAj8q8m8Q6n9r0axdXwyxrn8hVjw/r0lnao23fuHUHFeph6lpK5jKLPd/wC3o9T8SNdsVZmXGa1PDPxBk8OaxJsb5c/drxzwZ47Ya7BDNHhZm2g5re8dPJazyTKxVc4G3rXsQxByVKdz6d8KfEK38ZoF3qsnA24/Oofjp8J7T4r/ALP+rfaEMl/psbmAgcgFo39P9k18u+CPjVdeEtWt2ZWZFf5sHkivqX4PftDaX45kks5omhhvj5MqEjOCGGR/9fNbRxF9zDlcT4XXSm00lGf5ozjn1p8MrRnlt31r1T45fBe48C+PdQs9sc1v5vmwSAcuh+7kdjXnd7oTwJ/EPqKyqUebYlzaLOiRCS+gmUDdGVJr6A8EeJGaOC3j3FpAoA7nPFeDeBrKYahtZNyOcZHYV3GtfH/w/wDs7aja6nqzTapdwo1zFotiN15cKilF68IrNzubAAGRuzirwqdN+8Tyuex47/wWQ+Kq/Djxf8GdJk1SVr83MuptpwPyeXIrRCRh1yAxHp8o49cW1ePVNGDQ4ZMnaQc5B5r5a/a2+I95+0z+19rnjy+hu7VLqWG10yxkcSHSLSNuIweRvOPnI4yTgCvon4aeKrRtLtVaZdkqKSem04rapWb2Kp0mnqSfZJI5WznANWILdmODXWy6TodzCzf2vHG2N3IByfT9aW30DRA3z6tcFeP9TbLJ/NxXDUlK52R2Oet7VncKBn2rpvDdxeaI3nW81xC7cFkJGR6cVbs7Lwtb3Cb7jWLjB5URxx7v/HjXu/7PWmeBfHt5JYWum6pHe2q7z9pZWVvoQKqjzNhNXRx3gjxx4+URrp9xqFwjcDBY/wBa90+Hlh8UtWW3klvHgRjk7nwR07V32j+DY/DOlM1nZxRxxru4GOn4Vh+Bvi5rnjLXPJ0tbHybeYrKkmd21SN3T2NehKJ5849j2yz8KreJC12qzPHABIx/ibHNZut/B/RvE0NxDNaxxecCPNYAYq9pd9e3luz+U9rHCdrGRuXOOw/xrgvi5reuaW7Mt0TZybcFONgOeDWFSXIrtmNOSTscR4/8OWPg+5h0e0uPtNrpStGzehLE4B+tc6sJDfjVm+u2uJZPMYv5pywPc0xOtfKYqspz0PSi7oci8VJsoSIH8acwwa5SgC7aAcUUUASE5opqtmnZ5oAKDwKkSIMM8094hs70AfSf7Fox8LdQ/wCwrJ/6Khop37GK7fhZfe+qSH/yFFRWhofztftnfCfw3r//AAUC+PLXWjwzXDePtendmLfOW1G4JP4k1wlv8LfDvh+2DRaLYqFlBJa3LcZr2r9tF/Ddl/wUa+L9r/akh1q+8U69cf2aYgvnhNRnBYN14ri7h9L+zSL5MzLnj5+teVKUrnQYt/8ABnw5qEbztpVlGs+ZARAVGDzTvCnwD8M2btL/AGdpT5OfniOa3ra5j1bTR/osjRQARj5jyOKc1pZ2kpVLULjsXb/GqjWZpyo4v4q/CDwj410z+ybrw1o7R3TiATpEEkttxA81Wxn5Tjp1zX50+PPCEnw2+IOraRDIzXGj30tuJl+XeF3bTnrnGP0r9QNaubXT9JuLy6tY1tdPja6kwT0TkfrivzZ+IOozeLfHOratKzNJqN7LcsMcsT/9bFdMG2iZJI9g/YR1zUvGHjSbTrySe4WW1cgs4Zhht38WfSuA+JELeA/iXfRxzXsM1vcSK0qSp5xzuHGRg/j2r2//AIJ3fDWS2TUfEVwpRkY20eR93I5x6dD+ZrzX9sDTo9F+MuoOi7fNbzs8BRnj6d602Rluz0z4M+M9PuXtbWa7maSRVMEM/if7RhvVbZBtY57tyvavW1Py14X8A/iC03hGK1S40izjKI2IjczS4dtpAS3VQCfc49a9wgfFodvmbVC8zYWb/gWPlUegPzH61x4uVlc6qOisyQk46Uxnbb1P51H52f4qM1w72Z0XOq+DN8bT4jae24j9+nOfev0K0nRJPEHgfwXMyp9jmLW0rk7dhaNuvrmvzj8FXDWXiSzki2rIJVcOx+4B1PvX6T/skpD8dP2eWsdRsbqbS/Dd1FMdSjuDbLNdL83kqykEgA8jvgg5FbKIoQUpWZ8yfs/fs22/gd9U17xBp/nXEd9cpbJKB5ccQkfD7Tx6EH3qPxH8VNVv38rSY0tbPedhI+R8cZ29O3Wvf/2hpLW7luNPik3NcHdJ5S7cL2GB0XGOBxivGr7wbZ6VpclzNPDp1jbhfNuZQWhgBO1d3+8flHuDXHisR7JaH1mAyeFRXkaXg7xGviLTm87a93CAspxw3v8A59K2Ft1hfbtX6461wP7OVzH4k1rxNrkqyf2HcWTDQYM+XLclCPMndRxsI+76AZ6kmvQbO5W+s4pl2ssgJBByMZPeow+IdQvE5bGlsLmqeqSeXEavSnZGWrB1i9bLDca7Lnnyw6uZ97cAs1R29/8AZyPmIwc9ap3F3mM1W+2bTn0o5h/V0dG1/wCdDuLds5Ndd8MfELXq/ZWbMsS5Qk89TXlr60SNucK3BqGx8cXXhPWbW+hm/wBU/wC/XsV+laxqWOWdHsfYfg74tS6fEsF3hlxncea7a28e6TexLmRFZgCfavA9H1ODWNIhuIZEeOT7ki8o9Tg3DOQrbef4TXq05I8upTse8x3Ol6kuFlXd2YnrUtl4Otr4SFVSTjqMV4PHdX+ngMtxNx2zkCtzwz8Wta8Pt+7uGaPPzIyKcj8RXTzI5OVpmp8WvCLabbXD28bbRjH614PrDTtNICrLX09Y/FHSPE1qsWoWyqZBhgwOB+VY998GPCesXLXG5Qr9lmcfpmokrmvKfMLWj8sxPPHWuD+PHgb/AIS34dagqRLJdWERuLfj5lK9cfgT0r608Rfs96O8TNZzNGy/d3OWUn05NfNf7UF+fglFcWl0PMmmt2ZSpxhSCP6/rWUqb3JPBfhZ4T1bU9Dtruxjt5reRQ7M0mGUnPGK9Y8P6ZqFhBH50YVlIPByK+d/hf8AFmDSIYVW68hJJHIXHCjnivefCvxStrzTV/0oSFhjp1qUmB6L4Rnl8355Av4V3WgRZ1eH65rzfwx4hS6mjZeea9M8Ly+bqsNb0VqTLY9hWXbp64/5ZpzXjHxmvmklSP8AGvYnkxp/1TnivG/jFpzPIkwZh9DXZXleFkcsqdmecnk/doK4XpipHGKY/wB2vKlfY2ihlU78L9nk/vbePzq43+r/ABqrqEZNqzAD7p7UU9GWeh6hcPDpdjnO1ox/IVreHrxZIY1J7dKwC73Ok2m9i21Vxn6CrmlhoUZl6ggD2r0aXcT2OqtTDF4isbjdtWNsHHrivS9Re38RWDeW4aRe3rXh1xeTRurAsSDkYq1pPxD1HSph5dwy89Co5rrjVsYSszW8WWstheqz/IUbKj1rS+HXxPuPCXiWG6DtsjcMRu9Af8ayPEvi/wD4SO2XzoYzIB9/ofy6Vy1zqXktgce1dFOoZShc+2/jdcQ+PvDeh+IrVkkXU4RHK69I2HQH6V4h4h0JrVVjAZ2Y9+asfsu/HmzgH/CJeJWaTQ79sRMT/wAecn8Dj6+nQ19BL+zZDd6zazCePU9M3jdNbscZHY17GHszza3ubnkvwi+D+oa+sa+WtrJemT7M8wA3hVG7aO+K8X/b5hs/hpaSafY29v5urxiO8uXjHn3RUY5bGdvoDwBX3t4y+H2l3f8AZ/8Ao81nJoq506eCRkltWIwdmDyD/EDkV8M/8FL/AAXeT6rpN1dNHPJcNIHmRQkcnJweMYJ64GBU149iaMrH5/8AieSGLUJtu6No3zkH8f61No3xDuNPiVYpsKowBnpVj4leGJtLuJsxfKxOMDgivPYnnt7gKquWdtqDH3iT936+/WuDm1OyB654P8aah4j1yO1aVmVlJIFeyeDNLujDHteRtqgmuN+DPwZ1TQdatdR1e1NvZNbg575O04z16Zr3jQdOtYIV+yxgx5xnuRTNokOkWEkqhpAW29c16x8FfFw+H2vrfQqRvUA44yOhrhbVfsysywNJg/cUda07HVtRjRQNCnaP+8FxxV09wlsfor8MfE+l/E3wT5ltJGJGhKSjf8yEjAOPY4NeE/B/RtW+AHxpuBq1pPc6dcPM3nRqWVlfo/4bSce1eO/DT403Hg27VbeS90O4lO1QGJBP0Ne4eE/2mNXgaNNUMOoW8Z5JhQE+/A5PWu9JdThlroe/aV4+tPFC7reRXB6ggq1U/FejR+JdDnsdufMJk3dxjJxXNeFfjV4d8RukdvGtvdtjJCBefwr0PQbm3voowGT94p52jP51NWEJQaOb2bUj5jkRo5GEgwwOCD2NSRnJFdD8W/CzeHvHN5bL8scxMyn2JyKxILTCrznjrXxNelyVGj0afwjo+opzLk0xflY+1SKflrM0E2UBce9OWVUlCsw3MDtX+Jz6Co5NRtYIVme6tUiMiwiRnxEZWziLd/f44HfmgCQfSg9ahtbqK/1C/s4Zo5LnSlEl4ik7rZTnG8dvun64NV7Hxhotzp2n3iXc81jq7vHa3EVu0iSMgJbOPu42nnpnA6kUAakX3akTlaqrf/ZPEH9ktDM9wbX7ckixMYXUOE2eZ93cc8LnJyMVBomuyarDpEi6bqMMOrCdz9pRLeWyMWeJo2csu7Hy4+9xxQB9TfscDHwvvP8AsJyf+ioqKP2OP+SYX3/YUk/9FRUVoaH8v3/BRb9rbwz4d/4K7fE68ks9WWHwn438VaTqMmFkDltRuAWVRzgMD1p3g39rf4f+MLZY4/EVvZ3DHHlXcZt8/Univmf/AIKu27N/wVJ/aUP/AFVTxR/6drqvAfs+Tz1rHkR0Kx+s3gfxXpvijQruHTb6zvCr7QbW4Rt3AI54z0q1dJhjI24Nu6N16Cvyl0DxRq3hiQPp1/dWbKQ2YWdeR0zjg16x4H/bZ+JmgRpDJqi61bqQoju4k3KvHCvtDDv0Peuf2NncvnR9cftf+P4/D/wa1CEsBd6pttUTOC2a+OfCGinxFrsNvHGzPMyoAFzuY8f0rrPij8WNY+OOt2txfbY44o1WC2j/ANXDIcfmxx945PHWvYP2PPgvaXHiqXUrqNbiLSCHkU9I5TnaMe2D+daRInJWPcvhb4Ek8C/D+zs2jEcjzSSPnAI5bHSvlT9ubSGtPHljdPJtTy25zjvivtW+u/7QPmsBux6dK+Qf23I2vTY3al91vuB29Tlsf1rXdGcWcL8BtT1TWtJawjl12GCOUOI7IG3D89fMZwmffFfQmjTJBpX2dUWGSHAKrdJOyZ67ioALHvivlv4C2TXuvSRy2F5Nbuw3KoszF1+8WnBjU/UcV9VafdxvAbWOGBP7NjVDHFdW1wIQ39426rChP91Rk1wYpWeptGVxU++PrU9RBxnp+lMZ28zqfzrhUjovY2vBuo2ll4s003zNHZtdxfatozJ5IcB9o6HgtgHjiv1v+AHx6+E+o/su6PofhDxHax3Wj2Kmawvo1t7mS4KbnGFAU5csQepBBPNfjpDPi9YY/iUf5/M/nXr/AMM5pBBblQAqopUgdDW19C6dRRdz7Fg+Efi7xtfyahb+Hr6f7Q5bMBV0xnAwc1z/AMXv2PfG3xHv9H8P3fhnWIdG+e9vZ9iMHcKVjQAnBweeQcdqvfAHWLw2vlrfXkK4GQk7KP0Ne2Hw2+qxI015fSBhnm6k/wAaxnhfay1Z7uFz+dFWijx/4p/s2/EvTdIaTSPAGraldW6iFLW2eETRxhQqgZccbQDgcZJqb4VfsyfEy60C3W+8C69ptwyZaO5EGU9i3m4H0r14/Dy3YL+/vOBx/pEhx+tNPw3s2cszXEjN1LSuSf1rSjglS1uTic/nV+LY4K9/ZL8eNCc+G519zfWqY/EyYrA1T9ib4kX4Yw6VpsPp5+t2cePx804/KvYI/h5p8TZCMPq7f41I3gXTyv8Aq13diWNb8pwvM0z55uP2C/iXPKfNHgiEf9NvFFtuH5E/oDSL+wV4++7Nq3w3tl9ZPFKnH4CKvodfAlmTjC/makb4eWDDmOM0rB/aaPnUfsLeLIflk8bfCW2U8EvqM8zKPXKx1HL/AME99cv/AL3xU+EsWeeYb6b/ANBWvpS28E6fbjiKP8BVlPD1gn/LBafKZyzBM8T8OfAO++DPg5Y7jxx4a8aSeZs8jTLa7iFuP+2qkflVq2ILDaML2HpXs9x4W0++PlNbp5XrjmuC8Z+E4vBeom4Fv52nM5BwceWvGPyzXZBszlUTMBlBPQ1Xnsmdiy16BY+GdF1S1hljkZEkUEHJq6PhzpuN32obT05rfmMbo8uS1nB+VeauR390g2lZFI7DPNejR+BNPgk3G4g+hYg/zrQi8N2KbV/0bDej4zXRD3ieY81t9cuCfLaJlU9Sc81yH7V/wDj/AGoPgheaTNM2l6lbwN9juwgdUYKcZOMjr2Ir6p0n4BWOqac1y1vHIq4+7ISeRmuZ8e+AW0vwxdR2MLRAdgx+bg8V0qj7u5lL4rn4Y+K/gl4p+EviKTTdash95hHcx5eG6VWYb4j2HTOa9C+FFpcT2SqAy7WA7+tfYPxF8ICDVNQtb60h8m4bc8Mqh1c5yM59+frXhnxF0aD4a6jY3djDHHZ6hcCNox/AwPP/AOqsJU2i+ZM6bwLJcWdxCrE9T6171oEyWz20pPFeM+EHjvNRH4MPbmvVrAmOyjyc4TI9qcVZkyPcrAre6PDMp42VwHxL0Vrm3mrp/hlqTan4bhRudnBz3qbxjYLM7xrH+ddUo3iZSPnHUrJoH/GqrnK16Zr3w/hmZsR4OTwD7Vw2seGLqwkb923l54wK86pFlRMh/wDV/jUNxKRDtH1qxNEyNyrfjVHV5WW2HlqwZmAOO3XvWUU+axeh3mj2Mk3hqAqDwf8A2VatRwS26KSvetz9mdLrx58Mbxvssd/No91H9q8qINNHG6KgOO4DBjXoep/CVZdIaT7NIoZQVbb5bDIycr6jOK9OjTdjKUlY8mZvOA3D7tU5og02Pu+9ehaX8LGjvJFPnzLk434Gz6YFZur/AA5uFuZVjBb0+UfLW/smZXONV2iVh1H1rN1Es7dO1a2paLdaW7hg3y/7Irnb+8uEm/i6egrSOgXNbQbho5o2x/q+tfRX7M37X8nw31KOw1RWms7l8FxI+EJ9QTivl2LW5oBwy/8AfIqxB4laM/MeP516eHqW3OCpD2m5+qlj4j0/4gaCs+m3dvMrKOd4ymR0r5h/b8+Ht3qnghpBG032Ug7lGc4r5p8N/tHeI/h3L5mm6pdW8KkfLuyv5GtT4j/t4eKvFehXWnXF4JreVADuhQfriqqYhS6GUaDR4F8UdGV9N8qTKTQ5DKR0qL9mz4Z2tnqEnibUF8yGPMdoiorHeCRk5HAyDyKx/in45n1jUPM81VmmbL4Aw/BruvgL4t0+z+GdlI8g3LvSVCOpJJ/rmvOqSOqMWj1Gx+Iq6fMWa1jk3DafMUsv6fSt/wAOfFZp7pUh0O2lbGc/ZHkB/AD9a8v03xbJdahDHHDE4dscKBgetdM2u30Nx5cd1cxqvAWNvLAP4Uqc+hrE9s0T4h6tcPDGPBaS7mGHjsWjJ9tzcDPTmvp/4UaZb634WgfUNJXSJ5D80DBCE468DvXyJ8L/ABTrQ0D5NcuoZN42+ZcM5A78H2zX1PHoOuP8O9NGlz7tYjjW5be3y3KHHGDxkjP412Ye7djDEVOVHRfED9m3Q/iFpxt45o4bhh8jiJDg9f7ue2K88u/2bPEPgy1KyMt5DCNo2Ek4+leoWXj6bStT8lLd0mWGNp4ZFw0UncLnr61seHPjJp/iLWmsTIqXgzuVvUYr0raHAqp8/wBroOq6NIT9nuEKtnbtPNdt4G+LN54YvbJbq0uBDCw8xvm4Fe4QLYXm7zILeQnvtqrqVt4dgtpvtENu/B3oYq561RRResnocj8Yrq28YeJdN1a1nVotStlKL3jG0HJ+teR63NJY+HPFEd34ot7G3aRTHcxuVbRUOBsP7zO53yflxwckV2fiy9guteWTTl8i3RBFDGE6ovA/IVwl28r+DvEPka14XtVvNWFul6lubiKFs4WK6XGTOSChY56Y6V8nipKU7o7YRsh+p6DZ3fxb8J3C+Irm31DTLJJUs/tAWHWVaMhXOD+83BCe/XFUJovDdl8I9eivtYvLzQ9SnaWe8C/abiDEoEkEYA5VWHl47cjnBrpptk/xAhjh1m1hks7cJd6GbYeZcja7hw4HmLwS2Bx8h9TWPb+MoNO8E2sjeKLub+2LgvBqNppsZlK+aoVBFtKhV+5koeNxyCOOUs25bazf4p6TFNHdHVNPglNnOIh9gC+XHkLL/CWXZxxkgjtWVor6XL4Xt44/DuoC3vtSIlgktFhks5/MX/SShH3OuG6n1q9Dry2/jG+so59ZH2GBme0a2QWUh+UgQygfM5ySNrsMkg46VJoupzTjQf8ARdeWOSZzLJK4jlthniO4XGGQ4wBj37UAWNON5fXuqzf2atjdWjiIXU2CurFUGCCOcf7xPWpDqeuHTdL8nQtNs5roO2pWzyBf7Nx93Zjh95x06ZrNnsNQ1HwxqS/2FIs9xPKqwXF/JL5wAIRlYnMSyZ+VVxtAPoMT6T4WaHxFos7aXHAuk6abZAb+Vp7OV8F4dpbbIowfmcFhxzQBOLi6uNW1Fob2zh0WO2YW0yynfFcZO0yKD8q7dvPXORniqukXV/HqGjxXWpWdyf7NMd3bRys3nSBspcLk4ZenJyfeqFt4MubeDxddSf8ACP2lxrEbRwXUbSXCyRl3b/SVZiAMspIXHJYdK09P0RLXxLbMv9kgabpSWn2a3jCy2hzkvu/hif8AhiHyg8gZ5oA+rP2OP+SX3n/YTk/9FRUUfsdf8kxvv+wnJ/6KiorQ0P5Af+CqVlv/AOCn/wC0gcdfij4mPT/qLXVeC/YPb9K+hP8AgqYqt/wU8/aO7f8AF0fE3/p2uq8T07SpLqQHcu31zVeyJ1MeDRXnl/Guu8HeG/Igfd94tkfpWlo2grDJH5casxxnPrXouj+HoNIshc3IRIupLHHI5I/Kk4XDmZS8LaVD4e0Ce+vCqxxrlP7zH+6PrXWfAr9sCbwBe3mm61D9q0O+nBWaFdklljPLeoGa8h8f+Mm8UXzwQvts1OFGawYhKHz2xtwaydOxpzaWP0C034taf4n0n7Rpd6t9bFtplRsg47H3BxXzn+2fdxxaLpcMj+W007SBtobC4OODxXjnh3xJqHhKbFjdPbtJ94g8Eehqv8ZPHl3481HSbq4VVFjAYXc5ZQ3rgA9fp3oUWETY+Alj/aviKVpLO6uI0lQBI9PTUt3I58vIx+Y+tfVVhAdOuW09re4tFgjVlhl8PpoZ+bv9nw3/AH1kZ9a+XP2b9FvJzMkKy+ZfODLbxxWdxMVzwzW1wFST2AIyeK+ltEt/IjlJRk+6EU6NBo+cdSLWFiikd2J57VxYuLujeFzUkXyqheWoLi5ycevFRdf4v1rg9mb8zZYBUyV6d8Hb3ZbRxjoCf5mvKvL+teh/BVRK2FX5oHDE5960A+uvghrjWVygH99a+nPDd79vsgx9K+WfgzKpuFiVS0zkEAc4zX0p4c0m6MKbra5DBecRn/CtKcrMmV7HURPtAFSH95/Dmq8MMiIB5cn4qetWPs0ka7pEaNfVvlrbmT0M3FsPL/2KPL/2KR2gRfmmhX6yj/Govt1mkm1ruzVsZ5nTj8zS0J9mWkj4+7ThElZsvinRbdsSaxpKY5Ia8gH/ALNWfefGDwfpDYuPFPhq3b1k1WFcf+PVdkTynSCNQadXC3/7Tfw304N9o+IngmHaMndq8bEfkxrLn/bU+ENp/rPiZ4Lb/d1ZP/iarQrlR6dRc6VHrFnJazDzIrhNkie1eNXn/BRn4E2P+u+KXhEfS4Mn8lqnd/8ABT74D2UBZPiNpNwy9FhtZTn6Hv8AWqgVyvuQaxDJ4B8T32lea4WNh5ZHoQGH6EVTk12+mt2jkupmbnAFcr4z/bq+Dvx113TbPQ/FiN4iZ/Kt1ezZFuR/zz3Hueue1a0EioNq7V6/KDnHt+FaPcepG+v3St+8mkXnqWxU0Piu+DLtvJNuc4zmquozqY1TauWPU/jUNnpLXNx5bHvwRVQutS+Y9k8G/tDeJfBmnbo5N0LYT5l3c44/QV23hz48eJPE13FPdeHmvrKQhJJY/mIB747D3rw/R92kWzp5jSbgAFJr0T4IfESHwdr5t5mZbe6+9joDxXo4epzOzMql9z1TX/gp4d8e+JLEah4fj+y34CySiTa656cfXFfF/wDwVH/ZEvfht4RhuvC+kTXelNO9y7wruFqEhfLE+3Wv0C0O/iuYGkjmWSGQ7lANdlo9vb61oBFxGrrtI+ZN64x3Hce3evTlTjaxhd3ufgx8E/iLeWWvoLySRsgx5f8AgzzX1RoeqJqmlrtqL/gqx+wvp/7Pdzpfjfwpp6W3hu4YWOqWcYLf2fLtAhk3D+GUs6nPQqK87+C/iNvsKLn+Er17jgj8K4K1Jw942p1E9D6a+DETy2b7f79dzrGj/u33V4V4Y8TTaJfxXMLsu77ydjXXP8csf6yP8zVxqJxNHFs3rnQD5zbkrNvvDkM8m1krBuvjvI5+53/u1m6x8WRNHuXGTWMorcnkYzxx4JtraFpFT3rynW1EF0yKu32rrNb8evqq7TwK5W8kSKRpPvMT1FZ8qvcr2bO5/ZU+L8vwX+Mem3k00i6NqX+gahEvR1cgKx/3Tn86/Q+ys9L8WaDZX0MEM9lqFvHcwk/eZWGR+XNflJcyC7G1l3BjgDOOfr9M/jX2V/wTB+KX9ueBvEPge4upJJdCmOoWIdssIXx5iA/3UbHHYGvYwtrWOKrJo9u8VfBW1M39o20EcJHOxerVnH4dR+IYtwhjyvB/vV6v4X1gRx+QyLJtPOfT/Oadqnhu0h1Vri3bylk5KrXcqabtYw9seF63+zPZalG5ki61yVz+yTYy3PypX1I91HaRf62M/XFYOs+IbaJvmlVeOy10RwsHuZ/WH2PnKT9ji2lP+pqOf9k3SdIG6e24r1Hx78W7fQIJP9JRfL6MWGK+aPj5+25D4dsWRb6O5kdOFVxk1nVpqHUqlJsk+Nfgjw14K0H5YU8zDV8d/FP4hWWjyTLA0e7B2r6VlfGT9oLUviBqf2iSaWCFshI2bbvNeE+O/Ft5c3T29hayapqUvCQQPkQ56tKfQeleXKskdcY3N/xz8YDbWdxdXGI7eJsEjpIT0Qf7R7e1bHwF+JN/dalcQzcW98A8MK/ehboN3v3rzXQvhpe3Nyl9qy27apMQVgU/u4FPGzB6N7+ua9n+BXwqmT4t6LHdrujtZFvHCjOAueD9OK56lRWubxot6I+kfAHg19Cukvrq4hkDwD5Y/vBjtP8AjXRJKk9421ivlnHze9cl4g+Kek+Go3utU8RaJb2fmFUVp1kYNyQu0HOcA/lXMQftSeFZJ8WUt3qR3f8ALC2OM+uTxXNHGRi9Tojg5taI+kvhppf2q+tnwv8ArB8wr7Q+HGq/aLi1O/8A494lSvzy+HP7UWk6dYR+dpuuxruyXWwLKv5DNfQvwC/bD8B+MtWTTf8AhKtMsdU3BVtNSIsp5D6KJCMn+delg8dT5rHJjsDVUL2PuBUsdS1GCa+tVl8kbst0I7/pXk9/8O5PA+leJ9UtjFcSQrJcWzL1gQlCAPoM/nXoPgzWIbyy+z3LMkmwEKe47H6U7xa+n6TpV4s25o/IfzExyylTnj6V7NSUeW6Z4Ot7NHlPw18X3U/hO6uLiabzLqUCL6d6k1LWZJIpN0kj72x9+qkUi3tlHNEscUbRoPKH8IwcYH86jJxXy+JxfvWPRox01JEt43b5mxIeFG/0rLW61D+yFjh0rRUmutVfzo5J0ZJYQTtm/wBuRhglf4Scdq2rG3hkZfN3eWpGSp55JP55/SsXSLW6it9J8zS9AtbhdQmlvoN3NuCciaPP3mb5SwHTc1eTKom7m3Iy8jTP4i1CTdpsMdvAHS5SbEyqY2P+k/RtwH/TPFY93rhGq+GLiTxH4VhvLlZI7mxtYfMXWGIAxaP2ADY+m2tKS5urSPX5ZL7T7SNQEtr+Ir+6ITDfas/ew5Ix128VTM91Jqfh+1vNb0WGWS1RrnS44gv9pNyZHg7hMcrj+7T5tA5StpHiCO91nxRDH4wtNWTSo283SYbHy7rw6NrfvGP/AC2VsZA/uketWbJVu77w+66pqF+ZLKaaOeK026fqK+WnzXR/g3dVX1JrOOqW9h4V1jUbzxaZLCVpVW5t7YsdMIlZSAR947vl/wCA1fm1CwPiCOI6prFxPY6eZ5oVixDMvy7ZsdTLw3yjkUuYOUy/EFhDffDab/iWeNr5vtsxEE3+jalHw+d3pGOAp7hh6V09lD/Y/wAQFuo7O4imWwEcGrS3W9WUn5oyP74xy3sR3rmvEun6R4i8IaH5ml+KtWs5Lhp43iVvtcLZOXmx91eeAfQ10drA0HiDWbr+xppLiYRrFPKwFvqyDHzLyApTvzgkeuKoOUxNK8ERxeGPEEbeENF0u+1S482SylvPNttRAyxmlb+HJJH410Nnpc1vr+qXj2+mtDfQwrDcwRf6ZLsAysr90X+Gsyx0e5j8GrbzeEdPsWl1CKa40t5FCeUNpa5Vi0i7o+SMFW+UYI4NbFgbue81pm/s0RreOIZ4pD5t2OAWmX+CYDjY2CBzjFAcp9Nfsdf8kyvv+wnJ/wCioqKP2Ov+SY33/YTk59f3UVFaFH8hX/BUe2vL3/gqF+0csds6x/8AC0fE3zbT83/E2uua828JeFpsqshPzHpive/+Cm7Mn/BSv9obPT/hZniTt/1FbmvG9T11fA/h5dRbbM0zbY4gwyP9r8O9dAHS6RoFnp75mkjjCnkswUisfxx4xvtaf7HYxvHZw5Xdt++eRu/Ij8q8/ufihdahMzTMyq5Lcrgc89eaaPiK9t1k+mXH/wCup5SeU3rfwwYR8+5m6k4qwukqPr2rm08W3WqvmOG6mJ+7sRiP0FbWmaZ4hvlBTSr7b6mLGfzNHKUXk0ONhluT7VV1PwwJrR9kbTdPkUbiefStew8J60x/e2M0Q9WIrptC0+PSGRbq0W8kb/lkfunjv9Ov4VnLQC58JvDsK6ra6eJIV1LSIVkkt53ks76IE5zHfWvyTAf3LgBx0WvZLvVbW2Eaq9wsu3Dme6aYn/gb8mvAviF8VdS+D8EMNlZvP9sBkjeeXz/s47hWI3D6En8K4y8/aB8Q+IIvLaFo8/MpjQtlu3pXDXvLVI6aVToz6oe6WblWVu/BpEuq8m+HvxcaPw3D/wAJBJHp9w/Ee9uZB9McVtSfF/RIB/yEofwOa45RkzWVSKPQ/to/vNXpP7MF9a33jmayuLiJVkiVijtgnnrXzY3x40OM4N55uOOIzXffsw/GTR9c+Nmk2NuzCfUMxKxX0yRUcrW5PtIvRH1Z8Y/ihqvwqkvJtBuvsc9uEZJBHvAHHP515nq//BR74x2+VtfG0kK5xhbGIfq3NdB+0tqSiye4MfneZprvsDbdxjyfT1FfB+qftNR3QDf2DHuPUvdnn/x2kPnt8R9g2P7fXxk1V28zx9q2eT+7ijXn8KzvDP7aHxc8Sy6g2qfFDxUIbeXy1jjuApHQjgduTXzr8GPi7J451K+j/s9bCCCDkq5cZJ5PT6VeW08T2fxe1q5/si5bR9QgSNZY2BjjKjIPUc85NUmzajH2h9J3H7V3xAmt5E/4WF4nk3Ket2cjjtiuE+JP7U/xG07S5po/iB4xaSRkjXy9QkXqQOo571yCz3FlGzSttHHY8/54rM17UZNU02a1SzvJmbBVo484wQe5HpVKS6m7w0uiI7v9o7x/PIVuPHXjVpBw3/E4n5FZ938ZvEV9n7V4k8S3PqZ9Umb9d9YOo6TcKm3ydQeTPO2DnP1zRpnhfVr19qadefWQ7c/kDT9ogjg5voaUvjK9vv8AWXt9Nu4HmXc0gNQS6hI331Lf8Der8fgXU9Pcr/Yczy4/1kiSTIvvt+T8qvXvwR8WazZRta6ha2xl6JBoqqy/i0xo9rDuP+z6vY5WaC3dsyWVqw9SlNuNVs7SMKy6fBtGB0BFblv+xT4p8Vurar4q1SMD/p12fykrTi/4Jww3M8fn61rF6T32Dafflq0jiIIqOV12cZ4f+Kun+DfElrqVnrFja6hp0i3MLm4UbGQ5xjP8Q4r9U/gD+0DoPx++GFjrWg6lYahcXCqt3HbTLI9lMRl42AJIOcnB7YNfAll/wTH0VI1aS4vG7n5f/r19Kf8ABO79ma3/AGevGWstp1zM9nq8IWSKRT+7kHRhzjpx2q44qDdi5ZTVSufUdlo01xKjTswjU556mtm0S3t5t6np61KYMp+lUr6Pyfu87uMCunmtucMqLjoWoNSiku18xgqqc10FhLZtMsiSRq2eCWAryfxn8QtJ8E6O99qmo2um268B53C5PXAHUnAP5V4b4t/4KLHTrl7fwnojSsqkJqt442bvVI8HcPckULFKl7x0YbATr/Cfpd4D8UXlhpcO64VocE7mPy7cc816D4N/aS8E6LAbe68ZeF42Y7THPq1urA+mC3FfiFqP7T/jDxzqLza34g1G6Z2xsWUxxY9Nq4AH513ngf4jNp9huRYl3jOAo5PuetKpxFFbI9qlwzd+9I/W79o2P4V/tLfBTWvCuqeNPC1xHrEZgjdNShd7WYDMNxwf4H5r8o9KupPhJdNp2t3EVlfQyyQKJZI4xcOH2F0LY3KfvgjINakXxuuLCLc4Xb/dU7a6HQPisviux+z3UI1CCY7pbe52yxr7LuB2n6V59TiL2js0ejHheklo9TrPBurN4itd0B84x9o/m/lVfVrm6tZP3sM0f+8hFdP4R+Gek+GrRbrwusmiNct5mbRiFVm74Oenpmr02vHxHqNxYPLb3c0LFMABDkfnXpUMwpTVonnYjJK1PpoebyaxI3Y1RvNWkY43fLWxr2o6fpmpz217Jb6bNGxUC6mjjEh9FJbB7fnWLLpjXw3QNFJu5Co4k49crkfrXa5Jrc8WpTcdLDVvV2ct83vVG61EIrZZfzq1caPMUZV2lvY5rmdegutOYtMoVfrVxS3MH2J7nVcHCsR1PHqOler/ALCnxkT4Q/tOeHLq6k8vSNbl/szVAxwPLlwA3/fQUfjXhkV95jA53c49Otdv8FfAF18TfH+n2VozKsEqXE06DcLbYysM+/AFethea6OOtBNWP1q8Qappen6nHfaXdR/YdQiSeDLAfIy7hj65rI1j4lW1j/rLqFcDuwrwPUfHOpWnhvS9OdzMNBtIrDzRx5uwYBxXH+J/F+qa5G4jSZQoxuX5iPwr0rNanmW1sev+O/2mtK8NlvtWsabZqv8Az2uEjz+ZFeJ/En9vbR9NlP2fVLO6XZnMMyyenoa8l8b/AAH/AOEzSbULu6lupI/m8uZfmX8Ca8b8V/DK+Nw0NhY3EjBeFjt+prnqV5p6FciN745ftxax4qmljsrp7O3PRjXzp45+NTahMvmXVxqEmMLkZr1bUf2R/EWqWqz6gsekxt/z0Usw/DIH61mQfAfRfAzCea9S+mXld0e1f5mvNqYib3ZtTppHhsj+KPH1+kdnp99DDkAXEkTLFCO5BI6123hz4f6P8Ptyy3Euoa1fRM0YYbry628NsQfMVB6kDA711fjD4kQ+G4ttrZrPcMNkEMbYWRj0JGO361L8I/hNc6bc3PiDWrj+0Nf1VFDzlNq2kB58iNc8KT94gjJ5rnlUT6m0b9DP8E+BZL6WXUb61ePz2MVvbzqVeLaSdzj19B6YrF/aB8ZeI/AnhBv+ERm+x63qki2rXxb/AEiyQt87Infjv2r2K8nt/D+mzXtwyrDZK0jZGFAUcf5//XXz1Z+LpPi/42kvjbsEUEwDdwiZ4PuT1/GvNxWJcdEe5l9HnV2jI0X4d3d1eBda8RXurQAZ/wBI1fzAz/39nY4z9M4r2L4WeHNDtAsFvNYeYvP3UZvzNeC/EXxpDa2kkMEPkzQ3BVnByWA3A/rXL6B8Qb6wlE0Nw0Umcq2a8WtipPVH02Fw8eqP0X8HCOOyWPdayc/d8uL+vFdHo/hbwX4j1BZL7SNJhvY3DJqNifsd/EwOQd8fevif4b/tcap4ZjhjvrVbxd3zTGTbxjHoa+g/g3431LxXr3nTabDFZXm0xSxyHn9K56OKqqXNc9OWFoSjZo+9fhd+0JrXw7gs4brVG8TaUuFE145/tBF6AGUcOBx97+de4f8AC39I+I/hS5mg1S0guGidRazzL9oYAY4yec57V8Jv4lbQbGHe22GYEJlsdOKueBfF9xqtyMM6x7yu9W5xxXpf21XWjZ49XhzDTfMlY+xNIBXT7Ze/lLn24NSSR5evMPA3x1/sc2+nagv2iHhRMPleMe/rivS7TU7fV7WG6tZkmimG4Fe31pRxXtNT5THZbKhOyWhcwqW+1mb7rb1j++w29R/tjt71z+m21ja2PhgrH4svHORFNecTKSjqxvR+GR77K3hwob+LGad5xNNX3ONvQxbq2tbjQfFMMej6ndLeXUnn2lxceWLg7uXt37I3LAdsAUxdLt38ZaHJd+HZJmtrXybXV1vf3mkgI2EaP/lrnIUn3PpW75o/2q8r/bj+OWtfs3/smeNPG3h6xW+1jSLErYLLJtjhuHkSJZG+U7gvmq23gfu+vJ26qTM3qO8e/E3w78LvDGq2niaTwF4TuhJM8OmazrMEFnfFZSxyJGXlg6ygf7ddZ4A8daH8U2k1bwnq3hLxJ4fksmSTUNNmiu5EudzfKJI2ZTCOmM9MV/MF+0MfE3jTX5vEvizxJqXifUNSuHuLm4muGlaKVschSTsHYDGMKByBmvsX/g2n8feKtC/4KCR+G9NldfDOs6Fcya9bqreQqxKfLlcdAys+Oi53+1bR7k8p+5UtvrUmkaettqVrp95GSt15dptguF4wAn8OOee+farl1YSXcGoRtq195c5T7Mka7fsIBBZY/ZiAanlYlV3fe6nnOOBx/n1oh+9+FL2mtiSK78OCfQre1Osay0lrJFMblrjdNKEIzEx7xtj5l7gmpbTSodInvpLeSYtfXL3Uhlk3qXbAOF7ZHSpc02RSRVcwH0t+xz/yS+8/7Ccn/oqKij9jr/kmV9/2E5P/AEVFRWwH8n//AAU5uIR/wUp/aEXeu7/hZniQY9/7Uua8Z1Lw5oOuQ2v9p30ySW67RGiMVAbkk4denToa9s/4KXfD7VL/AP4KXftASQ2F1tm+J3iN0codrg6rc8ivkXxhqVxH4pnVWkUhyjKe3NXzsD1Cz0TwDpEu64sY7raclm3fN743Gup/4SjwToFpbzLo9jaQzj92TGr78d+RmvM/AmiLqdyI40jzIRuLnOSQa+kfB37Pfh3xr4BtbfWLMRtG7LFKhw6naOR+eceop+0A4WD4t6bdwbrWRPJXIVY4QmzHXPArPuPjXZsjbbi8facYAIApvxV/Zd8SfDy4kl0m3n1zTsZWWHDShe24ZHPXpmvILx5rS7a3mWS3uE5eKVSrL+FT7Qlt30PR9X+NcRiwqXHUc5FcjqXxIu5XkaGSaMseDuHH6VzuXmH49zj+dMlOwsD/AA9xWM6jbOerWlDod18Ktck8TeIZItSLXnkjKiT5gK9Xub3R9Mg84x2MYtwA+doKnsMV4R8KNRfT/HlsrNtW4R4iR/exwayNba407X9Qsbp2kmhuGjkcsfn3dDj27VK2NsPW59Wdd8atUi1PUbO5t2XyZNyq45ViOqiuNSdVPOKdbXxvPC99bN920lW9iB/g3fKwFY/2hjhu1S4JGdas27G0l2w+7I6/SvR/2UvEkejftF+C7qa4ZY4dTWORueNwOK8kju8f3q2/A2pyaV4s0u+XIW1vYJTjqcSKKxqxVgozfOj9Nf2hod1natu+Xyp4sHvuUn+tfmHr8Xkatc27/KYZnGP+BGv0m/aQ17yfC9nMp8wNLv8AorLwPrgivhm5+GS69fXEijfNcXEhlAPzINxx+fFceiep7FbCzqO8SL9ne61HS/Ek13b72tVt2TygR+/Y9MZ9K9zsbC4exi+0RyMZBlg0hxn04/CqPwZ+CV815CtnD5el6aeJXQ7pHIGf5ivcrb4aeZaeSFjlJOQ20jafQ8Vz1K1noe5k2XvmtM8lsPCH265VRaptH3sufw/Wup0/4etb6f50dujMp27Azcn61d+Jltqnw58P/bLXSZ7ySRghESFtgyMk9+ASeAelZ/w1utY8Y6ZN4khudO22OY5NNku2jkdQPvKpXlqxlUbPqqeXw6s1tN8D+I7uLcmjjyuitkf/ABNT23gnxNo84kuLdViYj5d6Aj8OtcVfWPxS1JW1XT9aaGG6lAt7CK53SxqTgAqR/nivYvg14e+LGo3Vrb+JINJ1fSgoa4u7lTDdRj+6gVSG49SKx9tI2qYCMI3TKOoaZrEsW6GE/MoGRKKu2+l68umwx2yK0nG4syrj8xXtcPw6t5rdcW6Rn6GtjTfh3FGvMJbj0rHmkeXKVjyDwZ4c8VIsjXHkHd91S6N/Sr//AArbxxrmsRtHAI7fzMnE0eCv0Fe66P4OhtkX/RU6f3a7vwr4TVFVlt1+6DzXRqc8Znm/h74S6odLjSWELtX5icVteEfDP/CN6uq5UO3p3r1DUraaCybaAisMcVxOtWMmkS+dnJbnJ7VnGTVVWKrQk6LaOilnW2t90jKoXkkmuQ8f/EvS9N8L32y6ElwqMYwisWDYOO1cvqvjH7HJtuLpmRjgjPIzmuY1bRUmkmuLd98L5J3Hivpfiirny3Nd2PnHxyNW8YP5+tbtS8lmKpM+VQdeBjGfw9ea89mu90rKvzJz5Y6bAO1e+eNba1itLrysMVidjjtjJr53a7HlIehYkj6HP+FeXiZOOiPbymNmXIUl3RSKNytyMMOa9G8O6w1npsbSAjHIGRzXk9vfxxsVkZsKeMGpNH8Qya3rbQrJIqqyqnzd84rx5VGz6uhLTU+ivDNzD4gi2tD82e9bWj6F/wAI34oZdPuY7yxYZaOJsFX9CG5/HpXmum6VrnhBQPKmaRkMqr3YA4OKz/Cfxsxr5vFZY7pSN8Z/iPcfh3rBx7HfSkk7s++vgO82vSWljHEzYmUHPYDrXzL8Qvjm3wg/a6+KOiyLcSQ6fq9uscUTDEasobjg9iOM5r2T9mr9oDT5NXtLhpjC26PeABliPvY5718U/tdatq3hP/goj8Wv7SsbyG11bVBfRTsn7oKwTynBz9zb3rajzJ3R1TlCfus+3LDxV4C/aI8L/wBm61p9nq8LITGkkQ821LBkyT8pzg44Y9K8/v8A/gkP418Z6pDefCHXlK+WUuLEXb2MkhB4YG4mVGCrgfKx6V87/D/4iTaNeLd6dcYlUruXnD4bPOPcfrX6U/sl+O7o6BZajfOsMcsZYkP8wyvvnjJA4HevawuObkonzeaZQuXnjsfFvib4Q/Hj9kPxJYaV8QPtlnHIcCe6aPyJ/mIwJgrRk8dN+e+MEE9xB8Sv7SVF1TTVeNlwJAyMrj1BAr9X/Cmo2vi611PQNctbXW9MZ2iltL6Hzot3QnaT3GOQFOO9eKfG/wD4JO/C7xFO+oeD3uPAeoSDc1oJpJtOmf8A2VYs0WcgfLkDFfX4bCynFS6H5/ipKnUsfE/w2+C0Hx48Y22i6Gtva3Ejb5HuGEYRO+Mtk/Qc19j/AAs/Z0t/gp4Rh0ex0+E6nIg+2XMURQ3LnuC3LAeo4rwf4m/sUeJ/2bbm3vtY09tPguHxb6ja3PnKrAnB3LyueCNwHX64j0z9tf4hfBa1t9PsdcXWbePKQQ30CzFF/u7s/dPHykj1zxg+zh4qGh51SrdaHvmraT9k1S402SFo7y3QXMiSIUBU8Ahm+VuvYmodDu7eC3mWSDH+0MHH414N4x/4K1+JfC+nD/hLtB8Lx2ZtJ7+Z4rU74beLAaaQZO3cxCgAnJz2rY+FP7d3h34r6OdS8OxeH/EOnyc+ZpWpKWQ8Z3RNhl+93A6GumVWKRwa3ueh+JYbNiZpEhkds7QByK4e/vbeKctu8kqOAg/qK0NT+Nei626xz22paa/czAeXz9OTWJfWOn6rN/outaOsLDBaW52Y/MV51SVzWOp5t8bfHEigxyvJKpOFwCefyrwTxYz6lMFQlgRjrX0p4z/Z5uPE8XmWesaNMyNn9yXmz/3yDXPP+zlb2h3Xl2r7RkbYj/hXmylc3jofPvhH4WXGq+IYLqSFWW2JZS3v+Nel/YZIAI/7oxx3rsI9CsPDbvHGpbAxkjGaxNZ1O1hfcI/mUVxy0Nqeh578d2/s/wCDfiSQoWP2ULgehYAn9RXn/wCxn8Pf+EoilgVU3MAiEjP4da6r9p/XZrz4MeIFtI2LNECQB/CGQk/+OmvCf2Zf2kpvhj4ms5PN8u1dlcE9jnvXl4qLPqcqlHZmF+1ppUngfS76aS3aFYdVaJ34H/PT/CvH/DPji2vYkUO7NnHCE8/lX2D+1daeHfjT8P5F81Wf7euoyKAMMMPkHnp89Ztr+zhZ+MfA2nx6DHa6TGxUtIkPJ455IrzVSuz2a2IjSPA9F8SWt48aiZZBuKlM85Ht7V9OfskfFz+xfEUOl3t4xgm+S3DH5VOD7Vmv+x54X0ayEEMcklxHljdEHfuPXgV5z4k0O7+F/jKDy2WNrd/MjLNgtjpx1q3hnuiqWYQlKyPrz9vjxLqGn/slWutaK03/ABKNVjTUZ4mCmzt5CAsjZ52liBwOprA/Zk/aqsbG603T9SvJEmjj8s7/ALshIXDbtuOc55Pauu+Bumaf+018MrzwzqsjSWPijT5NNu442+Y5Q7Gx/svhgfavhHwhdat8NjcaDr1vLb3Wizy2DSTpxKY2Krk+6jH1FZOL6nqcykrn64+JPHtjY+CP7aVWeC0i+0zsqnKxAZLYxyMA9BXS/s0ftYeFb26sVXWIXt7xmTaQwCMcfLyvUY6V8P8A7J3xz1yDVrfSdRvP7Q0u4cxotw24xDHyr3DJ/snAI4r2D4sfsi3GsMvjXwLDeT6zdItxdaXaIWhc8+ZLGg4V+FOB3zUq6ehxVqPtE4yP0VtruHV7Zbi1kWWCYbkZehB5FRsh3Gvj39ir9seeCKHRdchuytrN9mukkT9/ZueAsqEhkOeOQK+xgYXUMpVgwyNpzkV6VOV0fEZhlc6Eub7JFtNZXxC8GaZ8SPh5rHhfxDaR6h4f8RW7Wt7A4zmP2GVPXnhlPHWtS4vYox97pWB4h1tRA+1vmxxWqPJPyxl/4IRzeKfiLq2k3j6Tq+iictaXdsJkaKJc7VcGRGzjavLH7h57n7P/AOCdH7Anhf8A4J8eDNWig8Laha6xrkgmu9YjgN4Z4VyfI2xT3EgXpklVXkZJ5x9AeF4Y7MJcf8tGX5sAgn8RWlNqqiQ7RKvOMIDn657kdsg9T0q1OwDvDPiKx8c6XNqGj3VtqFpFIyySWzhliYckMOqkcjBAPymrSS7SpDD5lDDB7HpXNeJPCsOuXi6lYza34d1lR5banYuqvcL1CyJjEnIBAP8AdIyNxo8NeLNYfWLfRdc0y10/XHV0srgOlvpuuxr8xeMswWGdVBLxscH5irHGCXu7ktHVqZHHygmh5GCgEYrNTVL/AHTJJaPaywv5ckbqUdD06EdM8Z6HB9DTmubiUDctVzEn1N+x0c/DK+/7Ckn/AKKhoqH9i0k/C7UM4/5CsnQf9MoaK6VqgP57/wDgpZrq+Ev2sPjlrDQLcw6T4y1yd0X7+P7QuM47d/WvyZ1zUm8Q+KrjUFtpxDeXMkyrgZAZiQOvvX6tf8FG7VtZ/a9+P2n9VvvF3iC3YH1Oo3GD+HpX5Qi3m0y6a1kyrW0pifn7pU4/pSi7geufCvw1I8tvOqtDt2FvMIGfl7V79rvjS8ttK8MQ6Drdnp8lncmTUFli3meImPCpgHJ+VuDjqPWvm3wU6gRsJH+UrnDHnivafDt3s05dxLspAU7Rkcdj2qQPd9N13SfFF3MdJvrWba5zDFIFkRu+4difSs3xR8KfDfj+LydY0eCSQ5BlRAk6evz9/wD61fJPjnUrrTPiXqE1rdTWtwrqweI7dp9Tjqa9A8C/ta69oaR2+reTrUKDGWGyTA64PNY1L30KjbqbnxA/YJ03VLlZPCuqG02gb4b8bh9QwB/KvLfHX7GfjnwjZLN9ks9WgY4DafKXYc91IFfRngP9qbwn4pmaP7YNJkAO5LhvlP0OK9a8PXGneJ7FZYbqO6h6JJFIGyfYjH8qzjUfUitTTVj8ydV0zUvBerq11bTWVxbyF1SVSrcdqt/GJo7nWLHVo/lXWrBZifV0OGr6q/4KQ+G9P0rwJ4fvo0hjvJL50UrhWmQjBz9P19q+SPiPfQ3vh3RIYZF2WiyLtByV3HNbxkZUoKKM/QZ1k1CaHnF1byRAH+9tO39aryaZNAWjZfmjODiqdleGC/hkHGxw1akWq/a7yT/aJNKUmY1LX0Gw2DN6VftF+zQbdyrImXB7cYb+hqFZ2kf+7XX/AAc8AN8QvGPkTRO+n6fbvfXbgcLGgO7Ppu4UdeTWNSWmptg6fNVSPr74mfEfTNe+EPhmOS8hSbVrO3uY97YYr5S5z6c1i/BTwB4V03WLjU9e8Raa3nAiK2jO4oPVj+v41gWvwitfEJim85YfssMcdvBOpYwxABdmB3AHPvW7ofwE0W3GG8nzcnLbTgjJxxn0xXkVqj6H6lgcvpqCnJn0VoHivwXDZ28drf2UccQwCG610eieO/CI3LJrWk7pCFyzY2n8q8I8NfBbT4GTy7pUX+6oOPyrvPDfwc0Vpl8/yZF3DLFcYxXJ1uehTw1CL+I9o8O6r4J8S3rWS+IdEE00bbN78HAOe1c/o/jLwZ4PvLrS9TvPDu4OVDLEh8wdeGC5z9cVz0H7OGl6vqNu2nSQrNCxPyDJORx3HHrz0zVnS/g/4H+IujzR/Z5NL8R2t55EssSg212qnlhz8p4x3p8zNvY4brJnRaZ48+Gtlebo9W0aMjuV+df+BBc11Fr8ePh2AyR67YsMDISOQge/3ax7T9mvwjZXca/ZPOYAZcEYP+frXR2/7MHha6RWt9PkVs87ZFUH9am7CVPBtWdRktl+0B8Prf72t27jt+4f/wCJrVtf2hvAJT5dasxx3ik/+Jqtafs0aLD93TyPrIrf1q0vwE8P264lsV/FgP6mlqZungnu2acP7Tvw0tgvma7GuP8Ap3k/+Jrp9B/ae+Gvim0ks7DxRawXixjYs0Lx+YfRfl61x1p+z74ZvZdsmlu3v5orA+OnwU8F+D9c8ASeS9rDcX5S6dn4UCMe4zzRzTKhTwXc0rX9r/wdZ63cabda15kySmII0ZHP49veptZ+Jei+NJvK0+8aaRhwoAx/OsDwh+zR4S8Z+M9Q1pdLMbtlIiZNy7emeeOcZ6V3dr+zjb6NPHNpdt+9A278AKPrjH8qKb/eJyNsRh8N9Wkqb1PLtX8OLq7yRyL944JqvqulSaXoLW9uWbjFd3rXhi40PVJILiNlkVuTt455rNmsd5ZeDg19HRqxlGx+b1sNOEjwzxZ4TuoNC1B4ofm+zSk56n5Sa+U7i680JHzujjAb6/5Nfodqfhpb5SrlVjPD5H8Pf9M1+fXjnRpPC3jTWNPmwrWt3IoHcruJB9uCK83HHrZdK0rGLdK0swwTt71Y0W3OBcWrZMbZbB5GOajiVb+38xG3I2dp9TXL+N9QvvBF7BfWpb7PJzOnYbeT+grzvZJn0VOpZH1F8DfizeX+r2Gl6s3nq0pKzMMsFJ5U+1cH+3j8Lrj9lz4yWOqW8EjeDfFweexaP5vKkziSNum1h6ZI965/4WfEm38WWKahYybLq2Yqw/u89a+oPDlrY/tn/AHxF8O9eWae+itxfaPP1kguUOeDxwe4zTjSS3NPbHjHwE+NSzS2qrJcfK2UYIMn9a+odIv7X9sPSLax0qbS9P161VoWvdZi329xaNtRBcOoZ1jVgQGVWPtXwX4X+GeufDhWGy6SbT5Xt54WOJbaVPvqy9gOx719CfskfGp/Cfj+xu5sWrIducgK2G3LzyOG5wQRVKKizZVHa6Z5/wDHnxL4Z/ZR+K2reH5PE3hHxIbG8a0lPhe7mvI4CuCSxliiIXkjOOoP4/eP7Bf7Yvwl+IHwwsdD8RW9q12qygzs212XcHQq4bphMYri/wBtf9kP4e/FQN8StH8OWuu3l/vn8R29nb/voswqWnYKeQfJkOMD74r58+EH7IPw10DxFb6ho+paotssbSS20d7+4umZSoO0jK4HIx/9evfwOBjUalA8HMuIHRp8lRH7deHfil4B03xRcQ2er2FndTSI8kMs4BDOo+YljkgAKSfcYzzWn8TvF1w3wm1rVYte0vw+1vC0MV9quow2dhagjLSvISeq4wMZPGATmvx0+Mf7OOrL43m8VfDzxDdaFNqTxS6ppl3dSXFnfqAoDpvG6KRQuPlJU46da+Rf+CmHjT4uWHiHTdN8RanNN4PWTztKFk7/AGDzgSd0qMSDOMkDcSpBGAOa+4w/7qCiz83xGKjWqOcT9i/hl+1zqXjjwpqWjtqU1/oczpB593bxyJenrvj35JjZFyGIX7w45OPHvi5bWVl42ubyzs7K4Y77qC3uyltaF403M0jIuVhUqXdhnCrwCeK/PH9hz/gqBb+Erm38P+PF+w2IeNINUgYpHCVQKRLkE5O0Hjjk8Duv/BSD/gpfpvxO0KTwV8O7y5uNPv4yuuaxINj3K/KUt4GHPlcfOeN3TA5rmrYi0tAi9DmP+Ck37XEHi3WtU8I6HNDNJJdgeIbu1YvZytFlUtLSThnt4SSpZlUs+eCBmvk3QvGF94Y1H7Xpt3d6bclcGaylNvIfbKkDH1FUZJjPHtbccncSTnnufr/ifWoxDg9a5KuIuOx778Lf+Clvxe+F9lHaw+JG1izj+7Fqkf2g49Nx5FexeEv+C0mtRz2//CQ+DdMu40fMjWc3lsy/QrjPTvXw877DTGl3VxupJjtY/TLw/wD8FlPh7LcR/wDEp8YaLu6uYYmh/NJs/pXX23/BVT4a6hcfL4wuLdcf8t45B/Q1+Ucdyf7qj0IUZqZYlY8gVXOyuY/Wu0/bs+HfiYhl8caN8x3ZkcrkH6ithvjz4A1m1DR+KdMuC/zZjvIMHPplwf0r8gFtIz0X9B/hSLYLI/zRj8FA/pUNX3NI1LH61678c/A1npN3C2taW8ci7SJ7uDaykcjhz3r5j1Twt4V/4WjJDpeqafqVvfL59pBBMJCvA3KccD5t2ME8Y6dK+PLTQkuEZmVeBhcIOP8AGum8EWTeHtThu7WR4LmHpInyn9KwrUVJHoYPMPZvU+lvEPjTTfCOl3kk1xKqqpiZDg45zgc+1W/Dn/BQSfS/AUdjpOhyG4hUrHcXRARv+Agn868A1CaTXiVvJJJlL+YQW6n/ACaliACqu0bVGFA4wKinRjFHVisxVWOh3/if9rD4heLopFbXn0vzlKFLSIYAPoxwf0rhdF1y+0LxJHq11qOqao68TG6mMxK9yuenrTMD0oZQ4xWkopqx5tDFThJO5+g3/BPzxHeXXiSwuNHWS4jl2TRxZwXHcfU81wf/AAU7/Zs8a/B34q+IPEUbs3hfxVJHqKQMu9rW4uMlk6dnRsDPevD/ANmP9r/WP2btVjaJZJLfzg4CJlkA9K+4/wBoz/goV4Z/bU/Z/wDCumvo8un+ItKmg82eOLy4rxEMw+bI64nBzzkoOnbijg7z12Ppq2eRjTTi9T4m/Zt/aAbTdchs5mng1qy2lmX7kxDZynPzAY56V+hn7In7R+qeJ72zhkW7mt9rxthyuW45BUjb17V+e/7RXwVn8Pta+JfDNrhrF9wEa5IOckY7g+neux/ZT/bum+FcdnYag1ta3EczfaFmTy2LkrnrwOg71nUwzhLRaHVgs2p1oXk7M/UjxT4g8J+LoPJ16S58O+PtNP2W08RRwLLBeWWf9RfkYYKCABOFkdemD1r234OfEdNQEmjarJDHqen43yQN5ltNERxJE/8AHH7gDtkCvjbx58UNO/aN8C6L400FVs9ZtR9h1CCNl2XoVctcQgHHmDBDBsg12v7N3xRh+IOn6PpbX1vB++B0XUbb91/Z8pOHhcHPysOShPU9a7oYGUoc6PNx2M9o3Bu6PtB7eEHbgt71j6lYQtcqPL3e2DXyz+1V/wAFXdL/AGK/iDZ+EfE3gHxVeXV3b+baX9u8f2S9CkoxjfJzsZSHBwVI6HjPld7/AMF49O1Obbp/wx1c9kN1qKKPxAXj6Vw1JcjszxXRW0T9F9OgaGMeXbtGoHOVHNSy3HyZDAZ7Ywa/Nf8A4fXeKrq8WO18C+G7NWzzLeNI3t0rpdD/AOCpXjTxTEq+TodiO4t4S3X1JNT7Yh0Wff4uMriRZG5yvJ4Prn2/rVfxFouneKfD8umavp9rq2mTSLK9pdAmFpBz5gxyr+46gkd6+M9K/bD8X+IoMprSxnuETGM1JN8VvF2pRM0niLUGDdo5Avv6VXtCJUnY+qJdQ1D4eafDFq+q32seH7eRItP1G5w93pKtiPyJ248yEx7f3h+ZW3tt+Y1sanrFno8rJc3lvC0eNwaQDaTyFPvjn6V8a6p4g8QeJ7WSO91LULqGZPKlhM3yzJ3BHvWpq0TeNtCha4ma51jR7fy5ojMyte2SnG/H8UiHgt3UdBUyqWM+Q/VX9h3U7fVvhLqE1rcQ3Ef9rSgtG24KfJh4Pv0/OivNv+CPWjx6L+zTr0cfKv4ouH3ZOHzaWgyPTgDj2orupyvFMzZ+G/7f4Lfty/Gkrg7fHmuZ+bGP+Jhcdfbmvzd/aU+FyeDvHlw1pdxzW+qOZ12ncUYkkjI9M19If8FTPj/4hl/4KK/tBaRDdW9tb2vxG8RWylIyH2rqdyoyc46D0r5Z1C/uL8q1zcGZlHDNz+NLmsZ+0G+DdQfS9oY7hkH9K7yD43T6dbtDDbxnnOSp9Metef2xji/iWpDdMSdrLio5zKVUn8ReJLzX9ZuLyXaslwQTgY/rWdLeXC/8tG57g8ilklaSTvRt5FS5XOSpWle6Il81zksxPrjJrvPg78fvEXwQurySxuLSSK8URtDdq0ghYc5UbhjIFcTe27GyYq23GM/nX09qPwu+GsXgLQ/EXiaztbOG+so2lm8wgFxhf1z+dZ8qudlKpK1jxv4z/HrVPjv9h/tkWLQ6fuMKWykEMR1xk815ne+B5pn81re5tdyB1jlG0sM9cHtX0tp2sfCv4ZzR3VnZ2KvczJbo5jaRUZ0WRCSTx8rDn1rn/wBq22f/AIS3S7xtjQ3FqFjMYG0rjORjtWkZWNHdrRHgcfhTy2BZm45x61esdCjgfeqtk+tbphjkHaljt1TuPzzUymjkqU6jehmxacoP3a2vCGu33g/U/tOnzSRs6sksSn5bhG2go47gFcgdjSW2mSTN8sMrDsQtXbXw7dSN+7hmVucHHIrCo7o2wcZxqpyPpD4vwXHwG+CHhm+3x6lrXiFxPaavFuNrcoUDyRyPkL5qMSmwYbChsHNea6T+0p4o1GzE0GlaDLbrhTKtrMy7vQtvHP4c+1e4fseWv/CYfC//AIRm+tY7i3sXdbjSdRj+06VqySk5lfPz29wgOFkiZThRnI4r7H+Gn7KWh2PhHT9L0W48A6Db6dGUjtNW0u7ugASTkyRcO3PUk8Hsa8yULvU/TsDjqcYJSZ8A+Efid8RNV0ZtQh8LWsNjG3lG5lt5IYTKcYUMz/NwQePUVU1f9p34leGbhlfQdM8tTwzWksint2fkcda/Qr4l/wDBPvxB8ZLW1hvvjB8K9N02zJY29loWpnGejYLAbh0+72HNQ+Hf+CYDeH40Wb49+GvLT5SIfC11I34b2o9jfRHXLMcPbc/P22/b5+J2lLI9vomhozDBP9lz8f8AkSofD37Z/wAULG4aSz0vw7B5hLbTpcuFJ5JGZO9fpVa/8E39Mml+b46RSBe0fg1s/q5/lV5/+CaOjNHuHxi11x32eDItp/FnA/MVSw7I/tDD9z877P8A4KFfGyxX5LPwu2B3tSv6F6d/w8p+PUAby7XRFTBz5dkrDH/fdfoM/wDwS/8ADNyP3vxK8YTnuYvClkoP55psX/BLzwLatum8bfE6Yjn9xoulwD9YzT9ic9bNKC2sfAtn/wAFQ/jxHF8un6PN67rDj/0Kq9z/AMFW/jrA3z6bpSf9c7If1av0If8A4Jb/AA+1KMsPEHxQkxzudtPh/wDQYgR+FOtP+CUvw3zmRfHmpf8AXXVolz78AVfsTk/tOB+fth/wVr+OhfdDbo/1skp/jD/gp58afiDpkFtrWj2txBbnfEfsgVlOMZBwea/Qq2/4JZ/DGIfLoPiH/gesyf0rS07/AIJnfDPT5Vb/AIRrUJNv/PTVnap+qhTzSC3Pzc0X/gor8UrWNY4LXVrXjb+5ZF/nHWxYf8FEPi5BexzXF14mRF/u3cO0/UbK/Sqz/YI+G9ofl8IxSH/pveu/6ZxWjafsTfD2MbP+EN0Qc9ckn+eKz+q63N/9YoJcq2Pzq8F/toeL21j+0LyLWdZkkJLw6jqEQgfoMdF2+2f619HfDb4x6b8Q9HtZI/JtdQkBMmnfboZ54MfM2Ap+ZQO4xz2r6k0v9kDwPZSLJH4S8LnHVJ7MTA/Xdwax/jR8E/C3gDwZJd6Z4c8L6bfSTIGnstMhhl2k8gFVyMgYOO1bU6NSL0Z5mKzKjU2R454w1608G+ErjU5Y/PdVXyIg2/zS/CA46e/NfIv7bngaZda0vxQ0Kx3GtR+VqJQBVjmXjG3/AHe/tXv/AMdNej8T+INF0azkYWq3IeVRxwpOBxgYyBWP+174XfxL8DNQkGGax/0lcDlcfe/TNVWptxuzHAVk6lkfCWg6i+j+I7zTm2tGsg8sN2yCeK19T0hdYtnhmj3x4IIPqRzWH4zC6V4rjuFI2yOmD6gNj+VelRx27Rqvy/vsMD9a85Sdz6RbHmnwO8KXGjeObzT7JZDDNEHZW5xx2r6//ZG8cQ/Dv4gQ3Fy21SpjfJ55ryv9nDw7a3Pxukj+VlktcfjXY/HjwY/gHxdb6pbqVsbp/m28BG/wrZRciYS96zPbf+ClvhTQfhrosnxQ0v7PHDqloIL+PcMS3YX92eB829vpmvzr+E3xmuvEGsLaXX2e2uXHnW3kKUVm/uck1+lvwv8Ahncfte/ADXPA+qfZNUsPF1sLJGLD7Rpl2G/czIpzjDMvQdM/Wvy61P4Ir4a8TXGnXd3qmm6tod3LZT+XDv8AInjkZWOMZ6KK6aeFlP3UGa4xYV8y2P1F/Yx+Nc1potvcXGr2trePbJK2YPOW+y+4xy4YbVOQMNngkdqufH34eaP8MPiPajybeO38SacuuWaIy5hR3MckeVA+USKwQdl29a+PPgVr+qeHYo/J8SN5x2l3l0/y2f5ycHtjn0r2rxf421n4m67b3Wqap9pa3tVtYtiqqxRgltqjHA3EnFfR5bhZ05WPj89zOjiKaUDudD1K1tZpI7O+aaOYfNHLIXC/Tniue+OXgK1+JXgHU9J1C3hvNPvIW86Bk8wNtGVdR1DqeQw6VY+HXhy00q6Mm0ylucsc13lyscVurxxKD7ivq/ZrlsfBxvGdz8Y/jD8LofA3iSSwaSaSZXJUyPltgZwMjAyeDXCXFq1tIerckDIxtxX6lftj/s+6P8X/AARL5tpaW+t2rNPYXohwVfqY2K4+Vjjr37jnP5yfEjwLfeDvFF/p1+sK3VnKUdUBHy/wOMk5DDn8K8zEUOp6VGpc4+Hk/NUkjBDTZl8uRh6GoJ5d4rzJwOwS4kzmod1OLZFNrMC1anzBzVi3kLN81V7XCirEYyad2RdmhZIGarUUf77G0dar2S7Av0q9Zrvlz70XZHMya3BjbaOlbWkPhc96zYogXrQs1CAda1jsVzOxpwPukq3HLtFZ8Bw/XtVgPgVMlqO7LRmyKI5MOP61WEvPOcfWlE2G4qoxQ3J2Ok0G1t5Z4/ML8nkA9a9g8L6qLOKFY/8AVoPlX+FfpXgum6ysNwuT909q9E8OeNYyI13VpCKuYNSkfQfhXxRFNGFuV85GxlCODXQxfDjwX48tWg1Dw5pNzHdHMnnQ8sfqCDXkHhHxPHO64k5xxXf+HvFQjaMMa7oxhy2aMJVKkD3D4aeGbL4WeFX0vRNDt7TQ94lcWZZwuOnJYlfpViPRf7R8UXWv+D7q3tru+TF3ZHP2csv/AC02DDJLx977uc9a4DRvEl9autxo95JbzA5ZC3yufp0NdHL440/W7i3XxEs+g68SottVsjsMuO0mOCh/umr0S5VsTDHVYy1PefifLZ/tZfsuat4K8VeHtFPii+h36JqMm0J9sPkuJfOyTE2+CEM33XK9PvZ/LK98Lax4Q1i507VI5LHVNPna1u4HjCtazocOsikZBBPI9c1+iGgSy6deySXT2E7TgNOYmPktuB2yxpnC7lKttOdp6Yrk/wBqv9l6f496VN460i5sz4h0G1EHiKBFxLqlsjAQ36jqzrF53nHni13YGefIx+DTV0j3sPilNHxXZTXltOH8whuv3QM/kK6Tw/461TS7tfLuZF6Zx3r0yH9mC8ExLFtzneP3R6NyOeh4I6dOlatj+y3fMd0cLM3HVNtfMSi4yselBpoyvD3x01iwhUCZXxjG5f8A69emeBf2jdQmwt1JEq7T0U9fzrE0/wDZf1EL81rk8dK6DR/2ctQtpATZsRjHBp8zCUVY9Z8IfF2G+Zd1xt4H8OP616L4Q8S2N5fW9xFdLb3FrIJIpVcYTjaVYd0IyGXuM9OteG6b8F9UgdVjtypPHU1or8DvEHmkr50fy9s0czZn7OJ+x3/BLC4trn9nrV3t4vs8h8Qz/aIQ25YZfs9tkL/skbW7/eorgf8AghN4P1DwR+yT4ks9SmuLiZvGFzKjTklthsrEAc9sg0V7FD+GjzakbSaP5jf+CpMch/4Kd/tGnbJ/yVDxNzj/AKitzXhsUE0n/LGQj/d/+tX2h/wUk0WGX/gov8fWNvGxb4j+ITkr1/4mdxXj0OkQp2jX22dK8qWMtJor+zm9TxuLwxc3eP8AR5Pm5HFX7f4fXjkfupB/wH/69etJpI3cL+S1YTTmA+6W+vFX9Y8io5d3PMrf4WzTAFmlX2wP8avQfCMMRueX8h/jXoYsdvVdv0qaOyVuv4ZNH1nyOhZbGxwsPwmhC7GkkCyfKTxx39favSPiL4V0/Vf2evCVvcSK0sVw0H2dvmEyqrEsQfcA/hVT+zgEPyq/tnrWd8U9Wg0LwrourTMHt9BvpLORCeAJomdSfoRj8al4h30OzCYOlCf7y1jiNb8PyS3ckTqJoZ0C+WUAXIUKvTHQADPtXrcOhaL8Rvgf4Uvpo49SvNFVtKuiXYNFIpzyBjnH1HvXA33iHS597C4hZGGSmecEZra+EGu26+HfEZgkwo16GMIB8oEsX/xQI+lSq03qz2sRg8I4J07Fg/D7SYJvlsYeD7n+tXrbwlpsIytlAp/3a0pxmf8AGnL8o6GsZYhs8uWFhEqxaNbRfdt41+gqZLOGMr+7X8ql3CmTt+7PtRGq+5n7GC2R6h+ynqDaZ8SGWJvLSWNdwHfn9Pwr7u8IXOWVsJuweQoFfnx+ztf/AGTx3ub7qopP13V96eCb0Swxt/eXNa0mpS1M6/wnv3gYRz2a7lVtw5yOtdZbWEO8ZT5SM4ycH8K4b4fXf+jx/Su9tW3RrXTGKTPPd27En9m24YfulH0GKux2Fuzq3krvXo3cVDEuHq8BtStEHLIabWMD7v5E1BJFH/d57HJqyHyaHiBFae6Z2kyqjtH0b9KVmZ+rN+dSbM0eQPes+ZGlqhES79v0poikQ5PT0KirQ3RfdO78KFkLtyP0qYth7OZEkPnKMquPoKlh0xc52j8qkQRhsbod3od2f5Vagjz93p6KGP8AStrIwdOVyOO029F/2c47mvnr9qvX5JvFmo2sNxus7GNVVBjAcZPP519E6xcyaPod1f7f3dmjS7W3DcVXI/hr4b+K/jFtXnu7j5vMvj5rZboWzQHKzyvTLGW++IdrNMpbc5JOPcn+teifEHSU1L4e67atHvWbTrgBfX921ZfhLQDLqUExXBX/AOtXbXOnLdxSxMTtaNoz7gjms60bwsenlvutybPzB8f+HGaxjkZG+WAXOcdAef8A2U13H/CFsCij7R8kEMinHQOgYD9RXsHxD/Yu1DX7yHTYdQh+w3mIpLoR820QfJBXPzHaSOo+ldd8W/gbf6Brs0+i2LXVhdWcERVRzbGGFYh/vblXd25zXlxw7ufYLFUuRO54P+zk0+mfF7T2+bdMSnI+9xX03+0TZabZ/ALxFqmsRw+TptsZFWSUKJJWIEaAjnLbgeOeK439m74Bag/iqz8RapbrpdnpLs1rbO4kmu5sfxnACp7Yz71x3/BVP4mxaJbeB/A8MFvNLNB/wl2p4+UPESbeygZcdSQ0mc/wDiuyjh3c8nGZhGmuaJ5t8Ef28fF/w1NjN4XtTZyRqHhlfcSjg7QfmUZ+bnnvUtrfXXiLxHqGrXiSSalqlzJeXc8g+aaV2LOx4HUknA4rxPRdOhvLaP7XdCOOL7qeYWPTHb8/rXpvhGyjs1jMMzyblyf3xb+Yr3sLh7a2Pmswzd4qnyTO9gaRpNzMWPeug8O3Uke4b2xXJ2Vyd3zbh+FdRoe0x7huP6V7lGKPnJJqOp6Z4I1J1ZR5h/OvUNOnF7YKp+Y4rxjwpcbCtem+FNV2Fa9KPwnLLcp/ELwvDreiXMLwmTzI2QgE85I9/UD8q/O39szwW2nfFOe1lt2juEjURMV+ZocHaM9wPU881+nl2FePdXzz+3Z8KtL8SfDa61iRDDqGnxl0ukjDNjB+Vv8AZ6dMdq5qyvE6KErNH5beKbb+ztWmhPysvIz3rEkkZScHrXQeOLWRfEl75jebtlZVbGMrng4z+lYEqc14FSL5mj1oSTEibPWpkwRUC8CpUXmseVgy1FD8/wAtXoI9gplrtQbvvVYtw9221VxUnPcltp97KprWsIOKZpnh3b8zMateetpLsC7ucUASxIQ9W4F5qC3DSfNgDNXYNoxureOxoSoGB4qZiQg+vNNjljDU55VI+WmAkhBFNDEUxPlbFOrOWmxMhUfY+410Gjz+WisnWueDBTzyK09L1NTKI8Y7VPMxXa2O00fxTcWrKysq7eTXb+F/iOzLGsky7vQn/wCtXj93C9sPMSQ/N71HaeIXtJ13feX+LNbU6surIlFtH1z4J8WSP5brIM8d+lep+H/EFrq0Ah1C3huo2P8AHkfqK+Ofh38V3sWVZPmGeu6vdPAvjZdWtY2R87sY+bpXVTqHM42Z654s8H+JvCUOm6t4Hv7ibR2czahp7RxzR2pDL0ZzvGVJPBONvFR/sz/tI63/AGp400XxFdRL498B6lPb6dKI1R9esGjZk3xKpjKvCsgO37wkbPak8G+M7rTUWLd+7ZlLAng4ryr9orRm8Bftl/Cv4gab5n2O+/0DWLaM7Y38rEcZY+6XCr9Ix3zW1X3omtGTjI/UTwh8GfDvjLRdO1LTrVf7D1K3hNiYCW8lSgyEJ5Owjb8wJ455rqrf4A+HYUUm3XceVGSfl6AnnqcH0+gr5R/Y7/a+/wCFQeOdX+HusLHNoen30unJPLdG3jtnjkuPJkEu1hGjNhSSCuZEyQOa+9vDc0fizSoby1jkKSRIzrKAkkblcsGUZAwcgEEhgNw4IA+TxtOzufRYWd0ee/8ACjfD3/PAfqP60/8A4U5otqMwwAt0x7V6ifCzyqMrt+jD/Ck/4RFoxuMg9PWvOex1y2PM4PhdpEMis1qu715/xrZtPDWl2if8e8e5RxkV2g8Khh/rB9dvSg+Co3HzXH5LUXIPoz9gmzhsvhBqawxrGrazKxA9fJgorQ/Yt05dL+F+oRozMDq0jEn/AK4w/wCFFe9h/wCGjy63xs/mY/4KJWjH/gof8eD5fX4ieID83T/kJXFeTfYY/wCKJVPcgV7j/wAFHNPeb9vz44FdsefiBr3zDv8A8TG4rx6O0+z23zMGOOrd641g7yudUcZZWKH2JcfdHtxVOdPLkxVua8MTHldtYXirxNFpKxyKwfP3wOwrSGD5dzH6wxNevfsOnPMZvL2dPeuX0jxhJqOqQL9oZlaQLjNYPxB8e3NwscawyR/anxErNtWQccj86PBnhee0v47i+vo7SONxJ5a/Mx/GrqYa6uVHFansy2v2W4jYMCecDHsawPFPg3/hMPDOt6a3Md9a28yg/wDPWKZVJ+u0kZ9Kn/4Tqzu5ljHmTNglWjXbj1rSXXI9JRZmXMZXYQfc5wfxwa4FQ5Z3OqNTnR8z6JN9o0+GXqwQZPc8lea9Q/ZyuPtk3jCzk+60VnqqL2DRyAZ/8frzTV9Nfw1NJaqrDyyRgdvm3Cu0+At01lrtxKrN/pUPkSDP3kyCFPqAQDj2Fb1djSm+VntNwcc92AaofPb+9+tOif7RF+GKPsleZPc65yukN84+tODblo+yUPbsqnZ99V3KOxOelRa5jPY91/Z+/Z0uPFHwP1bx9puoGa403WIdKvdPWPJhheKSQXG/+HBTGO9Z/hv9vXxZ4BaS3ktNJ1K3tyYonuImjkcDjJx+ntivov8AYQ+J/hfwh8Kdc0W80eO60PxxbfYdX2YaezcIU86BP4JgG+WQYYZbB5NWPCv/AAQ18K/GlJJdE+PbWFrDgCLUtCPnKOgDMOGI9ep6nmu+jG2pzVfhPEbD/gsj4y8Ox4t/BXh+6/h3G4mAX8q1H/4LsfEC1slji8CeEUl/vvcXMufy/lX0FpP/AAbNaZqEX779oiMIx4Fr4dLce+TitzRP+DY7wbAJP7Y+P9/JCABH9j8PojZ9yzDn8MV0ROeifKN5/wAF2vi0VXyvDPgOA/3jb3LY/DI/nWLqf/Bbv47X75t28GaevYJo4k/9GMf5V9vL/wAG0HwjtnVrz44eMpI89ItNswf1J/lWrpX/AAbr/s26eMX/AMS/iZq8g7xm1gH5KBVHQfnVqn/BY39oW937fE+hW+4Y/d6BAMfjXNap/wAFWPj9qDfvPiFPB/17WNugr9V7H/ggD+yja7fO1D4mX23qG1pI9/tgf0rodB/4Ij/sf+Gs7vCPi/Vmb/n88QTt+WOKAPxm1b/go98cr6XbN8WvEkG7k+VcwW+B+VZN1+3d8Z70f8lk8ft/1y1ph/6AlfuZa/8ABJb9kHQ1Mknwghuxjg32p3MpH45A/MgVoWH7BP7IHhrHl/BXwONvH+kzl/5y0Fe0PwhsP2wfjVqJVU+K/wAWLlpBkCLX77n/AL9mtaz/AGifjtcTCNfHnxuZm4wut6xJn8N1fupJ8Iv2S/A9xCIfhN8GtPKgj98kH/szGtpPEf7Mukuslv4F+BsRT7rfYrQ/qcg/WgmJ+HOh/EH9pnXGWOx8TftCXIHRYtU1vnP+yJK7LQvDn7X+pKot7j9pGZm5Gb/WOfzkzX7U2P7VnwD8LP8A6LoPwYs9v8UVrYZ/QVPqP/BSj4P+HiDHdfDyHC7h9ntLd9v4Kv8AWqp7g4zvofmB+zT4O/aF8Fa22rfFbUPixY6C0UkEEPiHUr2SC4kbbtzHLIc/L5uMjqprqdXs2udZkB3KrN90/pn8K+rf2uP2u/Df7TnhTTtP0O502SGG4jux9mtBCGVPNDds4+evni90NZLjzOGbC5OOc4HeqMXTd9SLQLXyXVa3Vi+VqoaXask3I7da1fK4pam1KNtCgtqqH7q/lU7MTtXJ+bFSNFtboKNuf4RSjudDlZWIp7ONIPlRB9BX5bftx+JtQ8Y/txfEeW8mvGgsrq1tLNJGO2K2jiVY1UdowVkOB3J9a/U65jPkd6/NH/goZ4fj0z9sjxJJax/Z4r7T9PeRVwxEgzu3e5yc565rojuedi5XieTaM8EEm4ACvR/AmrLNNGD9MV5avyfd4+ldJ4G8RtaXCb8iu+nJqx5U/hR79o4Sfb+Fd14e0uNlIx2rzDwlr0LxrulXoOp969F0HW4w7bZMjA5z7V7VGZw1NjutH8PK4XZxXR6bGbEqPSsjwnqMc8ac1uXMiwj8M13wldHJLc1o9Zby9pJNVtX0a18c6bcaTeQx3FvqcTWjI6hly4Kjg+hIP1FZUWrKGxWpoeoYvY5IxmSM7092HK/+PAUT1iODsz8mf2s/hb/wqn9ofxjoXlqsVrqkjw4HSNsMB9BurzOXT1f+Ffyr6o/4Kp+GDpX7Xt1c+WVGtaPZXrYHy+aYlEn47lPNfNy6dufpXm1KZ6FOoYD6XjpUbWMgrom0s7ulMfSfYVl7E19uYlnOYu5rWtNcW2bO1fyqB9GI7Y/CkfSWFZfUg9sjqdG1C31gKouoYZD1UvXSaH4GMsnmeU1wOu4civKjA1rJuRpEbPVTit/w78Qtb0Hb5N9JIoAG2UbwPzrH6jMPaLc7/U9FWxmVPLCcdMdKz7jSti7qzbX423iTbr/TtP1AgjO9GjbHsV611B8V6R4y0mRtLt3huoU33EDjHl/7pPUd6mrh501cqEznzHsqaJctQSpVW3K24/d29KdGd+cetYKb6jk9RyQ7nqxNY+THmlghyV+tP1+9FpGvalJ3JM24DL3P50ulT+ZOuOuagmuftH3e/atLTdOFoiyN9elSBp3V3vtArdVFZk8uRUtzceZ0qApmgroTWNw0P3GYfQ16N8I/H0+l6gkXnyYV1JG48A15rFGRXV/DTTGvdRfb/reuPYV1UZWMVG7Psfw3e/a7OK4jmMgIB5PtVX4h6hJdtZQXbLJa3IOPNG7yWDDDLnoQwU5HdRXO/CzxIbawsY7hh5cxCjP5V0nxH0eaa60lWX9zHKw3j7u1mTr+v512SqJRJhG0j9LP+Cbn7MHgDxD+y74a1/xB4X03XPFE9oP7RvLyPzhcTmWZWbn6EH1r6q0TwjY+GdNWz03T7HT7WPhYbO3EMK8AcAYHQAfgK8R/4JlRXUn7KWjySQyR2V1EkloXXG4edcFj+ZFfRTr+6P5D2r5HMK15Hv4b4DLGnrn5lH4imTWcKn7isfTFaKWrSetNew/edK83nudBmm3jx/q1/Ko/sin/AJZr+VbDafx0pBYc9Kks9r/ZLj8r4c3g/wCoix/8gw0VY/Zei8rwBeD/AKiD/wDouKivosP/AA0eXV+Nn83v/BR7Rov+G5fjXNbrI8reOtcLBk4z/aE+a+abjTrq7uGMkb4UngV7D/wVD+OUng79vD45QrG0ix+PteT5VPbUbgV8oXn7UN6ZP3W0KexTmtjjPRrnwnql8221iX7O3EjN9wH/AGq6TwN8KPDOhGSbVr6HUNScbisn+pi6cL7cfrXhz/tQ6g3Bm2j02dKrS/tGzXEm6SQM2MfcNBcql1Y6v9rH4Z3fjbxLpTaFafbLW1t8/uf9XuOMqPrj9K1/2fvBsOh6cP7esZo9jDCn+HGcr+HH51xlr+0VPGqtFISy9lyv51fX9pK8ni2yWccm7qd9Ao7HuWqfEPw/4fKz6f4ZjupI+CT1YHt/X8K51NI/4S4TT/ZEs1uH+0CINjy8/wAOa8lk+PM2/wCa1RI/bPX8qv2vx4Voxlpk/wB3JFRKHMawqcp0+r/CmGa8Zmt/MK88jf8ArUuj/D+LTH3R2rRtn+BK56y+Mi3jfLdyL+YIrasPjRNZJldRXjn96hauaWFOuOKOsstGdIgPJZs8ZbtVuz8NXDSFl+br8nrWBY/tHXEPl+YbG4XIz+525/HtXZeC/wBp6xk1K3t7rRVa0kOJXhzI31CqCf0rjqYax1RxN0VT4QnkRWZWXcc7VTp7VYtvCbRSrlWPA27hg5r2iz8ceFJ7aORlVY5gGTzbZ8kHn0zUzfETwNbR7ZNu9eojtm/wrl9nyu4/ac2h+fXjLxN408B/FfVmsdQ1TS7mSUmOS2m8sEYGMV3/AIM/bw+NXhOGGOH4i+K7WNM741ZZ2YYwAM8scgnHYc19IfFm8+EvxC0prfVrTVDKq/uriC2O+A56j/DrXzD4E8H+Cb34vTaZ408UXXhnw7Css6XywO1xIMkRfIBjnPJB3DnjDZrqjK2pL10PdvDP7ePxk1+Y6bN8SvHC6hakCS0vbAWc8eQGGUH3eGBHr1rpB8fvjFro/eeNvGvzcHZdNH/Kpvhl4Im+NGq+EbHSP7Q8R+G/hr4nmk0TX7yELMNG8tXS3NwvyTB5iW8tGcxjAYjoPqbTfhhZ29uI1sV+QnkITuzznn69v55q/bLqJRsfJV140+K1xFh/G3xAZfbVZP6c1nXFn481nm88SeLbjd187VZ+a+0l+GUTHixB/wC2dWbb4SNLjbpvXv5dY1K8ehpHc+Gm+FniDUDmS61ibd1330z5qWD9nXUNQX95ZyTk/wDPRnevu6z+C0zMuNLbr18quh0j4E3EgGdPI/7Z4rm9vM2PgXS/2Wrwgf8AErtf+/dakH7Kt/8A8+Nqn/bCv0HsPgFMF/48Xq7H8BZv+fKT8qPbzND4G0v9kvUpB8vkf9+K6TSP2VdVsyjeXG+AOPLr7r074ASTjnT/AC/xFa1p8Ap7crss84HqKr24Hxb4e/Z81OFP3lmNnsMV23hz4HwqVE8PllTz7V9XRfBq+jwFsWb2GOP1ovPgFrF2P3OmuN3T5lH9aqNTUiex4lB4GtNG0tvL+6q8VkCAIvy17Rqn7Lfi653eXZssbdF8xf8AGuB8efBrxB8MwkmqafNHbSso81h8u5iQBnpn5eldlOoc7ic/awZq4F52+1R6fvkdlXlhwAO4rN1/xxb+H4GdsPIuQEHLNjrj3ro1epElZl6aI9jg/wC7u/Sue8dfEjRfhvoV9qmrXf2ez0u3ku7nygZpIY41LuzgcgBQTxXkXjj4t+JvEl/cWthM2nQyAwKkTFZCX4HTndk9enqQMmvuH9iD9g/UtN/Ye8ReF/iVYxzeMPGGnaho7XFy8U9xPbXBuDAkjAnHNxJxnA9aHca2Pyk/aS/4KzSeMY5dB+FtvdadbXkIE2r6hB5U+w/fW3jfoR3avlK3lmupJLm6eSeaT555n/1lw/8At1q+Nv2ZNU/Zs8T3vh3xfYvD4q0/yjPE7KVSJ181GUqT2K8+tZslwIymytqJx1h8k3lVDb3TxXFMuOF+8f8AY46Ux/nC7efpXTB2ZyVI3R3fhrxB5gX5/T+dexeAL9pYBzkY61846PfiGVc8dOv1r3T4a6n5Gmi4b/V4xntXr0qmhx1IHtPhzV5tN2MrfexkV6H4e8SWPjW4Nms0cdwjbDEfvH5Tg/mf0rzHwzPDq+nJdQtuC4X5Rxn615b8avE+rfCz4h2euWc00cTFQ8SEFZMEnn3rq9pocNSJ9EGObTbnybhiZVUZHoOR/Q1paPrw0+7hYnbmREB9MsB/WuR8H/HfRfjx4ZXVNLaH7fZbUvI0+8oZVbJHoDu57VY1rWpdB0mS+jgW6a3KSqmA3IIPTvkAj8a1hUXUzjHmdj57/wCCmmkXXib4+aakfypa+H7dc/8APTzJHl/9mr5tk8A3CPhutfsF+z5/wSY8P/8ABRr4fL8SZPiNdaHqNxKun3WnLo/mnTnhTZ5RPmr8rBdw464rvrb/AINn/D7Sr5vxX1CRO4Xw8Cfb/lviuKrmOHpSamd9PB1Ps7H4gp4Dmx0zTv8AhApv7lfuRb/8GzvheSVRN8VNWUdivh+MEfj5xrQh/wCDaT4fwD/SfiV4uuD6w6TAv83NEM+wsTX6hUPwh/4QVv7lQ/8ACvbn/nnX75Wn/BtN8KV+9488cyf7LW9oo/VK6DT/APg3h+COnKDNq3jy+5+61xBD/wCgR5o/t/CkfUa5/Pb/AMKymbnY/P8AsUf8Kenk+aRjGrcj5K/ows/+CBX7PtsA0ml+Lrv1EuuPg/gBXjv7fP8AwTI+CP7LHwah1Lwz4NlbV55tsU95qUlyyZPzcNx/Ss/7coSL+o1z8N7f4P7fvTIF/vFK3tA8Af2JFI1q4uJAD+7Axmv2S/4Jf/sTfD/45L4mk8VeENI1ay0uzSeCOeIFRMz+3pX3Fp37C3wc8PxRnTfhh4LtmhTBB05XLuuD1PJzzXLis2oSVjangakdT+XNUEly68hgTkenNTR2pOcenNfv7/wU5/4JC+EP2gP2ddUj+FPgvwn4Z+IUOpxarZTRQLZpfHLrLbSSDhVkSVuWIUMEJIAzX4UftFfD7W/2YvHGp+GPGOi3vhvxJpbtHPp16ircIxydwCkh1K4+dCVYAHNebDExm7RNJYeSV2cWfFFhbXy2u7bMxxXPePdQe11dbeDg8Yh+tYmkaZca1q63m07fMLJn+I4zx9ODXaaN4PZtRfUNQ/eXTDCY5210HOWPB+ltb2iPcLtmUZIrUnlabIHSokLQsxY7i/BPpUMk37z3zQAgjxNn3qaprWDzBu6Y5olU7ulBUSGvRv2b7M3vi+Vf4WhKmvPd1evfsj6U2q+OTDg/6pmrajuTUPUzonleG44V/wBZHwv0BGK9X8O6B/wtDTPCOlQr591qWoRadLF6gzQj/wBBY151dRG01BrVv+WeAPevo3/gm7d6Xa/tm+BbXWLcT215dYgDcCKUQzEPn13GPj/YHrW9afLAmGrP168O+DLbwFoNnoNnH5Nno9vHbRJ/c2qAR+YNXI03E+1W5g0s0jSE+czs0mRjkknP40yOLk18fiJXk2e9h42hcjWLFDoVHFT7NtAGT3rmNCtlv+Wf40MRj/a71aKsP9WMH34oCE/wtu78UGh7B+zV/wAiLd/9f7/+i46Km/Z6/wCRKuf+v1//AECOivosP/DR5dX42fyi/wDBYu0W7/b5+NjR/u2X4geIMgfxH+0bivi24XbJj0OK/SD9vD9ljx3+0p/wUK+PVv4N8L6przQ/ELX1eSOH7PDG39pXHDTOVjUe7HHvXE/D3/ggB8ePH2oCbW7Dwx4Rt5JNrfbNXhv2Rc/eAt2ZT+BrXmRHsT4Qa3DDNItoCM+9frh4O/4Np7fdG3iL4qfaF4LDTdL8llGOQC/v0J7V7V4F/wCDer4C+HrVW1SPxl4mmGAzXWoCAHGD0Tsfz5rL28DX2J+E8W2InMix/XvVq2vgvSZZP90jiv6NPAP/AASm/Z9+H0Uf2L4S+E7nyv49Tja7dvrur0nw9+yp8M/CLB9N+HHw/smTlRB4fthj6EgmoeKgiXRP5i47qSf5Yre6um67IY/MYD1xzx7+9WrPR9VnG6PQNcf3WxOf/Qa/qb07wN4d0u8mNloeg2fmBSTDpcEecZ7qla0WnW8KhYorBfZbWL/4il9dgtA9iz+ViLQdStwZJNH1iM9f3tkR+u2on1W4gfbJa3kKjruiwB9eK/q2XToGi/eWumuO++0iP/slQyeB/DfiSZV1Pw54dvI9w/1mmQtn8NlaQxkJKwfV+p/K9pniFYXXy5NxzyGYYr2/4K/FHWYLS3s7fUp4LYoy+XEVK447kZr6d/4OU/hHpvgT4+fC3XdJs9P0Cx8S6PPbXMWnW6wBXjk/1nlrgnA5zjHHWvir4ReD9B1u9hhbxDqWq3EaNK9uqvbuEGM5J42j1HHNW4qaug+HQ/YL/gnf+ylo/wAY/wBmTTdb1iO3vG1DUJrYMY87ShIO49z617xZf8E7PA8NyVk0nT2QHqsfBr4B/ZN/aC+MHwd8PaTo/gGze18LabP9tj0eaNJ7WZWIMjk5zuOfv+p5r9Qv2WPjrcfHHwPay6zp7aB4nt7QS31g43Iw3EG5jI+Vo24GM5XOMcVwToO50U53ONb9gL4ZwHa3h6xmcdSbdWzVzT/2KfAelR+Xb+GtJEfU77FGx7DI/GvdlsC7H93t5xtz93HGB7Dp9KmXSo2HzD5vauSb5Topx5meQaN8FtD0OJbaz0e1tYV5EcUAjVfoAK6Gx+FWmoONPi/79/8A1q9Cj02GI9Du+lWIoYz8vzK30rJyujZUrHDQfCvTS/OnxL7+X/8AWq3B8MtPQ7VtowP+uYrtF0xnPy5b2xirVvpTJ95ePrWMiuQ5G2+HNjGB+5X/AL4FaFr4ItYR/qV/74FdXDYoBVqGzG3+CgDmIPCNqw4tx/3xU6eDrX/nj/47XSpZ4Gfl454FLsb0P5UAYMPhW3j/AOXeH/virC+HreMf6mL/AL5rZii/usfypywybvuKff1pamnKZtvo1vj/AFMW7/dqZtMVR8scY/4DV5w6DonuPSkjnwPmbbTDkM7+zWZ/4Of9mue+L3wutfiZ8O9T0m6jTzLiEm3lC8xyDlT/AD/Ouzku13ld67vrzUe9nk+Vfujdn19q6KM7Eygfk78eNfuvhdolzFAf9P8APFtE3TB3EE46/wANcbaRy31kslxIZJWO5iexPWvtD/gqZ8DNLi0HQ/EqyQ28eq340O6AO1vtNwJXiwTxksrj8fcV8SnVF0Kb7Jcysnklid7Atnq2ffj9DXrUamljmkrOxwHi3da+J7lY2ZSuWyvU4BOB9en41+uenftOaP8AB79iXR/iVqkMckekeERqPl+cizXMkFs8zRhmYDcTG2D1yelfj34k1mO91a+uraNn5IIHDYIx0xkjB6Y5HSrX/BZX4i+LPAOjfA/4e32o3un6RofwtsdVbT/tBj869ujK0kku07WaMKEC+jEetPEESPkT9qv9qDxF+1j8W73x14vuft3iHXI4GnkKLHEEhQW8ahV/u+WHPruNeXxS+ZIlY154r/4SfWBJ5jtJIMPuUrwRt7+1bZgNoelOjscdQlb97JUCy+VJUlv+9GaiEWa76ZySLFkm+SP6ivpz4X+D47r4Qy3QOZC6jp0+bFfMdhJ5UkS57ivtX9n3To9Q+DCwttXzJt7HPXBrvo7nFUOA/ZX8dvJ4rv8AR7hjJH5oK5PTnH9K6b9p/wAMLqPgjUNyrvtw0qHbyME/414nrV4fhB8aY7xpvKt/tZVjjquelfS3iy3j8T+DbXU49k1ndR+YG/iwB6de9bGJ8f8AwQ8f3Hwf+I1nLFv+w3RCXUW7CyIxwfy4r6y1jx/FpPhH+3LRd0Mlol0sbsGUhhjHpwTXyz8YPhg3hcCeM4hkdpS6csoJ5GOpJXt7VqeHfiysf7PWraRNLI0mmnZEHUjZbuc7z6bSDnPTPNBUdz9fv+DfT41x+NNS+Iuj/Zf3c8VtqajeCkLg+W5A/wBrcK/TJSp+VVAHtX4S/wDBs38S5NL/AGyNS0rzmkt/E2gXccZByjeVJDIMHv8AdOPpX7uI+DkV8hmn8Vn02H/hIPL9qPL9qd59Hn15R0Eflf5xR5Tf3Vp2/wD3qKAG+V/nFfDf/BaDWpIfCHhnThxDNI7k+p3V9zV+d3/BZrWV1T4j+H9Ljk3eRaq7r6Ehv8R+ddVEiex3n/BH/QGsvg34m1BVXde3Edr06Kqg19eRWqSRKyfdI/8A1187f8EtfDjaH+yxayMNv268ZhnuBkZ/SvpC3jKwqv8AdGKyrbsqOxGtgrkhsYIIwe/Ffm3/AMHMXwl8J6p+xfpvijUNP8Ot4yj1i3tdNkvIVGqTW4kUPGrZDMCvPCnG30r9GfFPirTvBvhjUtY1OdYdO0e1kvLuQLvMUKKWkYKOSQoOMAnOK/mu/wCCmP7cOoft1ftMaz4xE1w3hq1Y2Hh2zlyBaWSfdbB6PLwzfQVvl/xmWI+A+adH02OC0RVI24yu0Dk85De4GBx6VZjuThl9KWzZQpZW+9ztqndT7ZDX0B4T3JpZMxL9ajt4N9zmmR/vSK0YVCyA/wBaBAp8uo55OKbJJkN9ajxQVEIzk/jXt/7FMufift/6YH+VeJQJl69o/Yrgx8Wxx/yxatqO4p7HtHiC2H/CXt9R/WvUP2bvEJ8HftP/AA3v15+y61byEZ6rvUMPxGa8w8VyeR4z5O3kYz3rufB8E3/CZeF7qNSwj1K16D/pulbV/gMafxI/du7k827mP/TV/wD0I02N9jc85qK28zzgZPr9KkaJpbg7a+PxG59DS+EupEsicUx4fLOaEhZF6r+dOIYJ1Xr61zmhHToupoJ4/hoTo30oA9e/Z4/5Ei4/6/X/APQEop37Pn/ImXX/AF+v/wCgR0V9Fh/4aPPq/Gz4e+Juu6c/xe8XNbrb2yzeINVWeFERVklivJY/MYjnczA8nqc1mL4ljQfNNHz3LjmvjTxV8fvE3ij9o345Wej2a6gnhn4qeKNNYvIUYBdWuWC9+AeBU8Xi/wAfamiltHghBA5M7k/yrzpT1Z3xirH2Ivjazgb5rqHj/bHFSn4j6aU+a7h/OvkWBvG16qr9njUkY5VuPxzVmPwP44ued9qufZ/8a53Jlcp9US/EjTRnbcQv689KbH8U9JRfmmhXHvXzRafCHxvej/j6tY/+2Dt/7OKtr+zl421AY/taNf8Adtj/APF1HvMOQ+kE+MGhjpcQ7qt23xc0Hq91CB35r5qi/ZC8YXC/Nrzr/u2/+LGsHX/2H/GlyzND4pvkbsFgX/Gly9w5T6+tvjJ4Xmba2oW69uXH+NWF+MPhWA/8h7S4f9+dFP6mvzT+J/7L/wAU/C9xKkd9eXsa5IZdwY/ka8p1z4MfFSNvms9am5zlC5q4e6xct0VP+DlbxnH4/wD2hfhfJZ3VvdaPH4UeK3aF9yxXHnfPkg43Y5x6V8RfAXxDb+APGWh6re7ZbSO4W0uuf9ZE5ww/X9K+mPiz+w58U/jtHaww+E/Fl5qNo2LS4Ee4RE/wjcehP0r0D9lD/g31+M3jvxDpupeL00/wroe5mmeeQyXbAYwzRLxk5PAb+GvQhiEkc8qDZfH7VMHh+ymg0XENnCSqyFwqpDsGBmvp7/gjn8X9S+MP7UOpSSXst5Y2+gTwbY38yNfmyqkjjOcnFW9A/wCDbbwTq1p9n8XfFPxxqlk0oYw6RDDpoaMdImZxMWTHHRTivt39jL9ir4d/sK/ClfCXgGxntbFm8ye6vXE97dSZJLSSBVzkk/dCjGBg9aVTEq2hEaTTPQ7GGRMKwYnucdTWpBZblBp5ihDEqzNnnJ9atWgXylrgrST1PRpbEMdgueRUq2cat0qwNop6Qq7/AHvwrmlsbESQKT8tTLavt45NWIokVs8VYjCn0qAKaWsntUkdswPWrggyOtOS2yf1qgIY4CP4qdsqcqq0oRG/iFUFyCCHFToMGmu3l0LOpHWgzI9T1C302ykuLy4gtbW3G6SaaUpHEPftXm8v7UXhPUtfaz8NTP4klIwWs7kR7WHBySp7+/SvSrjyrmNo32yKT91wGX8qsWdzLaxbIJBCoGAI41QD/vkCg0Ob0W+1bXvLaWxe1WQZJe83Y/EAV0Vvp+HVepBGcEt+poDSN80rGR88t61btxsTdnpz+lawC58ef8FvdKX/AIYOkmkaaOO38a6PMzx5Dqm+YMVPqA3Hvivys1nxXq3izwDo95daeyanY3UsN6bdi6tb5URMSP4tgOR/vV+rP/Bcste/8E99UCbg1n4h0q6YjGAomYfj1/lXyl/wQZK6v+0b4yW/8vULe1kIit7qNZI0bGMjI4712052V0ctb4ih+wZ/wTR8efHrxP4X8ZeINIOkeBdPv4b28N+jRTalArlwIImAZfuKOR1YHpXjX/B3N4GXRP2jvhHq9qbm3ttZ8KXFh+9Oeba4yASOCwFyRxxgCv3cutbbjdg7j8o7IOBtA5x07V+Un/B1Z8IJvih+zl8JvE1lbLJqGg+I7qwkY8YtpoGkcdDzut1xnArSNbmlZmXQ/Cn4U+H5NRu2uI38yOPqx6H8a7LUzul4q1o3go/Dzw6tv8qyMTkg5yS3GKzzI0pLHtXqUVpc4qj1JYYfKgqCM4WpPPbd221XAy2a3W5zy12JYDmeNvcV9n/smaobv4czRlS3kuAOPUk18Vs3lSL9a+xf2Mb9bn4e3ioP33mD+dd+HkrnPU2PMP2wfCLJqkd/t2r5m/gV6Z+zd8Ql+IfwUm099v2nTW2bM/MEIXnHXHvWX+0don9q2EkdxIMxc8evNeY/s1eN7n4b/EXyy3+g3rCKaJjgPnjP1rqlsYSkmtDpPj3bxyeGuF3PbucqOpABwcfnXj/gcNe6tqVpGWWPUbKSB0AyWOGIGPqBX05+0L4Bh0mwSaH98t5uz6DJyK+cNJH9j+PLndDtjhdtwU84Cktg+pAIHua4amiNaWrsfYP/AAbvWZg/4KRaDbFW36XbamjYUjy0ERHzemCw6+o9a/oMh+U8/wB0f1r8+f8Aggv+xf4Q+F/wHt/jFa3t1qnib4mW8sPl3UKqui28M/MUZBJZ3b5mckcYXbxk/oQ6cKf4j1r5THSfOe5R0ikh1FKUKLTVbcehriOoWinJGzLkrt/3qb3xjNACbhnGRn0r8yP+CnuonxR+1zHp8fJt4Y4mX3wBX6aRpvvVHQMwViRwPSvyr/aG1GT4jf8ABQzVo1+WL+1ltVYc5G/AP6V1U4pakT2Puz9izw83hj9mLwnAVZWkjaQgjHU8V68T5dyq/wB7J/U1z/wj8OL4e+FHhuzVmb7Np8RJPdioJ/nXQOhZlb+JazluI4P9o3w5Jr37PfxAsod3nXnh++hjAPJZoWAA9znpX8qK2stloUEEqyLJbxqkgY8hh8pyPUba/rouII7q1mhm2tDdRPFIGGQQynNfyh/tCWUPhv4keI7C3bdHa6teQpx1CzMK6cHpO7OetU05ThraQKvUZzVa4JkvTTYZN4HqKkH+t3GvZPJlF3JoU2DNSvNgfrUCSipB84oHESB/MRj71IB8lRKhjjOCvrR5+BtqojBH8uWvbP2LQ0vxRDf3oyK8Pjl3zEH+GvoH9iW2U/EdenEfNbU9zOZ6v48sGPxEjT/aFeufCW2W413w/CVZpP7WtgAByf30Zrzfx1z8SUYL8qsB/OvoD9iL4eL8Uv2mfAenyLJ9jGqrLclf7q5cHof+eZ61tXT5App3P2DvnVr2QKPlUjn14qJQC4z/ADrQntI2upMZHI47U0Ww3D5V/CvjsRue1T2RTn2js350tsRt+6R+NXJLVX/hFLDaqOMflXMbXK9OQ9atG1XFNFsRS1C56x+z5/yJl1/1+v8A+gR0Uv7Py7fBdx/1+P8A+gJRX0eH/hx9Dz6vxs/Db9kbXLXXv27f21dDvh582n/F7XL223oF8uN9UuYztx1ww6nt+VfS1hpduk2GiRhngletfFvwv8RXXhv/AILZftEWdnC0dprXi3xT9tiVRiRU1O4YOe+d+Tx2r7OgvN0a/MvQcr3ry5ayPQhFtHSW1nYJGv8Ao6jAFXLZNPD48sZ+tcvDqUu8L5h29MVrWkuQG/irC5oddbQ24jXy41H4ZrQtZlhP3V/75rl7XVJAuN2MVetdQYt8zZpcyA6m31AP8uFHf7tWoyjjOE/75rnIrrng1ag1GRRjdx9KOdAbRsrKY/vYIJD/ALtA0nTs8WqK3b5RwayhqT5/+tUi6m2aOdDsdJY2cNrGGjDKT6HH9Kv2kuxw37ssOhKZb881zVvqzMgXcKl/tWSPo1S59i4x0OtS58xyS3J5NTrdqi43Vx0esSZ+81WYtZl2Dv8AVsVMpk+z1Op+3L/eNTQajhfvGuS/ttx6/hzTk11gO9TzXNkrI7Aah71JHqG5uDXIw6+zN1q4mpPIMqwFSwOpj1AsfvVagu2U7t2fYVx/9qSJ8xZaltvEMin744qQO0F+Qv8AFTk1ORetcr/wkjAD5v0qRfEG/wDjoA6R9ULd6VdUVe61zD67j+I1G2t4/j/StDM6S41Rj3qOO83t97mudbXtv/16i/4SdoWJHr6UAdfDeqnPf3qxDq+TXDjxsu/EkgU98irFv47topBmZWXucUGh2kmoHy6b/aDtE30P8jXNv480xo932pVPp6Vla98dfDfhvT5JLjVLdPLHzZ4x+tVFk8p5B/wV/tItZ/4J6eP/ADl3/Zzp06c42sLxBn8ifzr41/4IkXv9nftU+MI1b5WuUyenG3n+Yr3n/gpF+2R4H+In7GPxC8N6bfNcapqFpb+QM/KWS8hP8s18vf8ABIXW/wCyP2nfEUnmfu7q6VVbvnC8fz/Kuyn8JhU0Z+w9xMZGI+b5QTwcHvXxh/wXe+O+lfBf9iK5tb/TLfVpvF15NottFIgZ7eSTT7rEyEkYxuHI5B7V9h2U22JRuYu3yqf8a/KD/g5l8eMdW+FHheS6SSFbLUPEa2+zpKHjhhckc9BIME45PFRTkua5hJ3R+Uviq7UafD5cTRRlwwjc5O4GudWPZG3vWh4kv5NQtY2kb50bIwMVn3cpJVVxzXv0PhucMxoTLYqCfhgB3qwjASc0lxECFYdq05lc5ytJzivqv9gbU9+g6uh/5ZMufU5NfK2zc1fRH7AviFbHxjf6bI+2O7h3gEDqvNdlF+8c9XY7X4wwebqM8TgyeYMjHbOa8B1qxl0TXUmZWVoZA6fga+jvjbYGw8UXEUmfMjOAR6dq8d8baM12yt5LE92JPArvkcsNUex674qT4h/CSObcpmsdjMO5BQV86atZ+b4xvkG5WkY8k46j/AGvTPgNqwkubvS5G/d3MYQq30IrmfjL4bTwv43Yx/euGDKc9q4K0kdFFao/aj/gg54mkP7AmiW9xIzx6drWoW6FmzsTIOB+NfbEfii3X/lpz24r84f+CEPin7X+xFq1r5jeZZeJ7hF/2cxox/U19fXd5eO2Vmkx9a+Wx2sj3qT91HsUnjK1Ax5h/Ko18Z2kZ+aT9K8TmTUXO5Zpl991VZrDVJv+Xmb864jqPcbr4jafBGd1zuxWNqfxx0TQ/mmuI1H+8P8AGvHR8JdW8Skj7VdIp9XIqb/hjm1147dQuLiRfa5kX+tAHUeLf+CgXw58FG4F7qUslxbxvII0XcGKg8DB61+d/wCyZ4th/ah/bssNas90em6rqrXMaTERucEttIJ6194J/wAE7/h3cMGvtJuLxmGGY3twpORg/dcVD8K/+CaPwT+C/iy31jw34R1DS9Stb06hHKniLVXUzf3mje5MZHP3Su32rSMmiJan0NZWS6Zptvap0toli+hUAH+VKVwKZFKqQoqrtVVCgY7AY/ye9SBt60CMvxlcvYeE9Uuo22taWU84PusTkfriv5Ofi7q82t+ONQuLht0lxczXEh9XeV2b+lf1efFISD4aeIfJ+aX+zLrao53HyXwPzr+Tnx7EU8SXivuDCZ8Z9Nx/UZwa6sNucdZdTn1jw/FPK4FCjJp20CvZjscMtxqfeqVWwKYCM0jNg0ybjy/FRb90lDMQp+lRB2BU8UEtksKZum/2iK+hv2KE8rx7JIP4Yi1fP1nFvuPxr339jaZdP8bM0rfLJEVFdFKSM5K59AeKbRZPEjSY3NuVOPUgfpzX6Ef8EcvghHqSax4ylj/d2NwlraSEfxLDKGI/4FKK+BzZ/wBq655i7v8AWDIHfIGK/ab9jr4U23wQ/Zt8NaHaw/Z2mtkv7sZ3ebNKBISc+mVGBgcVjisVaPKb0NXY9LkUs2cfLgYPqMUix/KaakpIx2HSnsTXy9aV2euoq10QENuqdU+SkHvgfWnKoI+8KxATaKWnbP8AaFNPXilYqMWeqfAH/kTLj/r8f/0BKKPgF/yJtx/1+P8A+gJRX0eH/hr0OGr8bP5cf2o/iPffszf8Fcvjx450GabVPEUPxE8SxW0V65W3t431S5LoApGRzjmvsL9hr9vWx/apW50bU9PbRPFWnxCeWGIGS2mi7SI3b02nmvi3/gotYabb/wDBRX49S3E8bMfiN4hbDY+XOp3GRXO/Cr4+6f8ABTWrTVtISGHU7PywtzFIY3SMuA6ZBHyleq9D3BrGvhVbmNqdRn7BWokMmGVY2zyud20+me/1retBtjFcL4X8Qf8ACQ6PZ6nEix2+oQpdRKnQI6hhj8CK6CDUJMjrj2ryHozuSZ1EQ4qaG5KOM1hx6mwQfN+dOXVGDDcc/Ss5blcrOqt73Bq5b32TzXJw62oHJx9asRa+AOGFIOVnWrc7h3zUsQZxyxrkf+EhYDg89qmtvEE394/nQVGLOujnER6059RFcw2rFsNvb160x9dX+8al2LR1kOoknrVmK/bH/wBauIj1oA/65qtW+vj/AJ6n86Qzs1u8inrdHHWuQfxEsUf+sbP1pkfi9QuNx/OhFcrOwS/2v83WrcesYT/CuCk8XLH3P50knjTMfysw+ho0DlZ3surMUotdUO7npXnM3jaQL/rH/OiDxlMx/wBY+360g5WepnUxtHFI+tLEudprzF/HEyr/AKyTj/aqvceOZ5UZRNJ8wI+9QHKz06XxPHj/AOtVG48Wqn/6jXl8viadfvXEn/fVQvrsk3SWT/vqr5jPkZ6VcePwnr+VZt78Q9qsdzfhXn8j307cM236mhNBurtv3hk2tzwTRzByM3td+JewN+8k+mK5TV/ijeNAy28ki+mT0rd0v4cQXG53Vmb/AGjnNdBpPw+s4HVmtYW9ygqeZFHi99q/ijxDLttb6a3Ln5WEg/lWLqn7MPjHxo5+1a9NMs+AR5igY/KvqCy0WwtpVRbS3Xb3CCum01o7YKEG0deOKdOSuB8FftY/8E7LjwB+yr4u8Uzar5jaTaLPsGOfnQ+leZ/8EavDkfjf9pGSKaeW3SOM6iTH/G6JwDnPBz+lffv7fM0uufsMfFSBCzuugySKDzgq6N/Svg3/AIIZ6jDH+1RLHuz52kucH12gf0rvh8Jz1tT9dEYAkqxZQT1HQ5IFfh7/AMHC/j//AISD9vuTSEklMXhfwtY6Zh+Ruk8y5OPqJlyfYV+4TSYDNgt+7L4B6kgnH51/Pv8A8FpPEMWvf8FLfis6/vo7fUba0UHnyzFZQR/oVIqKNNtnN9k+Q9VXCqtUUXzpyF/h9ava+Nro36VBGixOWX+KvoKOkLHDU3K7R7npWfZFVhIVYbqhkiBWqW5gVwcV6F+z54rXw34yhY7ld0fDKP8AZNcF5A96n0Ytb6ssgdo/LBKspweRiuqhJcxjUg2j7W+Oq/2rNb3i/emt1Yn3FeU6jbyTRSwls7hwT16Zrv7jWP8AhJPhRol9u3t5IhlOelceT9ojWZf9YrHcO3p/IV6UtUccVy6MxPAZ8i/jm2qkiuASvcUfH6Hz5tNvBztUAk1tTaUlkP3S7d/Jx2qt8UrZZvhhLMV8x7JPM3MM4wCefxwPxrz8QrbnVS1aR+lP/BA/w88/7FOrXQIAuvFl2w57LHGv+NfemleEmnjG7BX6181/8EQ/hu3hX/gm14Fmmhjjk8RXF/rJIXG5XnKr/wCO4619l6OkcIVdi/lXzOK1ke1RWiRiaf4KiBX92v41sWfgq3A+aKP8q1wE2/KBn6VEZW3VwnYRw2McK7dqr9BTZLJYx1/SpCAWxTWAiI2rQBDFIEJA3dfWoRLIl5nzGK54A9KuSRrInzVVO0PwMY9Kq5PKywWaU7vWnB9iVHBMWXtxUUt0c9qfMHKyW5mzbSb13R7f3i/3k/iB/DNfzK/8FWfgYv7NX7enxF8HRxxw2tvqT6hZJGwZRb3DPMg6DBG7GPQD05/piml22szZIAifOD22nNfzo/8ABdW7bUv+CpPxSdmOyOe0ijHTaq2kWBj8Tyeea68LuclaLsfH5XbzSGTApWb5WqPO/wCXmvZjseZLRjvPpDJmop/3cu3JxTRJz1pkMlL8URsHYCmA7gadDB82cmgLGjpy7rn9a9j/AGYyR40sxk/M5BryHSIQ0469K9i/Zqg8vx3YqvTfnmtqcXcUlY+3f2bfhdcfE79oHwz4fhZY11bVYocsRjYG3HPvjP6V+08CrsWO3VVt4R5MYx0VPlH8q+H/APgkB8BLLXLTxJ8QbyKNpNDulttPLqG2P5Mqu68ZDbpRyD/CvpX3NbR+Sirt27eCPfvXk5lKy07nfhYJ6ocI2jHPel3t7VLncaazbHHAP1rxW7ncovYTyfN+92pRbq3ynI+lWFdQvaq5m2ynKgjFSPkYhtkU/eanI3zYpDKrfwikSPDjk9aEjSKserfAQY8HXH/X4/8A6AlFL8BuPB1x/wBfj/8AoCUV9Fh/4aPNrfGz+RP/AIKe6kyf8FLP2hlaRcf8LK8SkYHQDVbkda4X9mv4d3n7SXxTh8J6HbzXTXMbPLdKMQ2yDAJc9B0yOec1+qX7UP8AwTo8A+Iv24Pi54m1zT49budW8Z6zeeXdrvjiMt/NIdqgAdW75rqvhz8IPCnws0yOz8PeH9F0eLBDizso4d59W2gZ+prlxWItGzOqnR0PQvAVoNA8C6Tpm7/kF2MNqPfZGq/0ra0/UfOHJxx6VzY1jdEvz7TjnHc0DXlC/eHX+9ivJ5kz0FTdjrvtxI6imHUtvpXJ3HihnIxgY9DUX/CRkdTn6ms5SVw5GdgdSLelKNVaMVx3/CS01vEzKv3qnmQcjO0j1tt69OvpV1PEe0Y/pXng8VNn79OPitsfeNTKXYpRZ6MPFGB1Wmt4oz/d/KvOD4skA+8aRfF7E/eb86XN3K5WekL4lUH/AOtQPEClt3Fec/8ACWt/eb86afEjSPu3Pt+tPmRUYu56NdeIFYfKy1Vi8QbX+8tcOmvbl+8351EfEJ3Y5p8xXIz0V/ECvH95aiGvbfSuEg1/j+L86tRas8vT5aOYORnYNrYcYpq6ywPbFcut45P3jWlYEyYzRzByM1m1ZmqWC+Z1/CobaFMDOK0bRYwR8nejmDkYWtjLe44/Staw8OyA8im2twsH3Tiri6uy/db9aZJqafo+yPDVce2WFB3K+9Yia4395vzqVdXMn8TfnQBtafeCLd7/AKVqWOoLMFWuRh1fEmM81qafeZcc1mTynTRQf6RurWgYIo4rn7O6YlfmNa1vceZgbv1q6e5Jyv7VcKzfsmfE6P72/wAN3YA/4CK/NX/giDfNb/td6ePvCbSm/D5c/wBa/TX9oWFbj9nfx1Ex3LJoN4G/79Mf6V+X3/BFO5MH7XPh9Rj95Zypz/uZ/pXox+FsxqH7X6ePOng7bjGMflX82H/BQDxE3iT9tH4qajNzNc+KNTDY4GFuGVf0Ff0naazvrVgVztV4ywVck4xxj3r+aP8AbPsZrD9p34iw3SGG7bxHfGaKQ5eFzcSllJ9cnH/ATXRhUmzllseK+IBmJWqJm21Z1eIyWbFuPL6YqrJz0r2Oljz6m45X2x0xo9w+9St8oxSbvYUGZCzbaliX5N2cEj+tQyUCTgf7PFaUnaRMtj6d+DupNq3wBuoQAz2Do3H8QOKytP1FY9Vmt+2etRfsY6rHqk2qaJO37u7g3dehHTFJdac2m+LLqPHzwuVIP1r2OiPPqaM3secfoK0bLw//AMJZoN9pWCftyJAMdTuljFUbTlc45PWuu+DgWf4p+F7XteazZRHPobiMn+VcWLi7XNsPrJWP20/Yd8C/8K+/Yy+FWiqGRdP8LWbYbkgyLub9TXq8D+SwPpWD8M7b7D8L/CcKqBHBoVinB9IFH5VsytmM4r5XES9496gjTgnyM/pQ0mHqnpMm8/vMjHTFXJkA+7k1xHUL5i+Z1pJeTmobklZOQPwFLJHJjtQLmHuf3dU/nLHI2irSyKi/N+NQzNjn+Ht9KA5h0D7Ae9Vbh/3lTwtuPtUFyh8ymlcTkkNl/fW8qf3kK+5yMcV/Pj/wXn8FXOh/8FQfiR5y7RcJY3nA3YD2qAc9P4Dz3/Cv6EFj3ZDDKspDfQg/oeh9jX5k/wDBxv8AssafqHgXwf8AFrTbVY9VtbhvD2tSxgIs0B3NbvKAPmKEbAx5AbHrntw2jOWq7o/EmdjGWXHXofWo0k2tmpvEkyi6ZlRfw/g5qjA5c5r2Iu6PLqbli4OX3fpUImy5X0ou5dsIqG0LSy5qjMu243DNWYBTLZMCrsMOV4ppFJljSBiavbP2Xrf7b4/s1HGz5vrXiumoUkyfWvdP2OmX/hZttu5VlY/4VvTK3P6C/wDgm74Uh8A/sZaFDBuMniKSfUbkN/CWkyMfgK9rC5+b1OfrXmH7EuLj9lb4bM3Hmaewmx2+dlA/ICvVYnEiLwBwM47V87mFRuVj0sLC0bkcbZanSLjn1pwTBPtTXJY49K806kJvwKTG+ldMAUsXDUF8w0Rc9KcPlf8AGn7vpSbctRYXMeqfAhdvg+f3u2P/AI4lFJ8CG3eD7j2u3H/jiUV9Fh/4aPNqfEz8mv2qNVWH9pn4iKZPu+JtSGPT/Spa4aDxD5DRnIPXFUP2wfE0kX7WnxQj8w4j8XasoHpi8lrzkeKyp+8eK+arVnKTue5TpaJnqR1xZPm3AbuajfV/7sgry1/FkgPDfpUZ8VTP/F7VhzG3KeoSawR/y0zUMmuHP3q8vfxNIx+Zs+mKafEBP9786OYVmeoDXcdWpsniBcH5q8xHiDH96pItd3t3/Op9or2EeiN4iVT979ab/wAJP/tV5+dUaSlGoMD95vzrRO4HoP8AwkvvTk8R15//AGmT/FUsN+x/iNJq4He/8JHTj4hDJ97B9K4yKfcByfzq7YyL8uetJIqG51VnrMjN97irovj/AHq5q3uQrcVfhut9Ua2N+xvvNkxurYtpip5IrkYZtr/LWhbXhA60C0Orgmw/JzWna6lHGneuJGoN/eq5aakw43cVPMGh2kerqf4quW2ps+Pm71xtvf5ZfrWpaahtp8waHWQXLH+Kr1rcEnrXMadfozjcG61sQalGP4Wq+Yz5TcgVm/u1ZgbY9YsWsKKmTV8jrS9oiTWeZRJx1q5p+okSc4rnYLwzyfKee9aFhdt523PT2qeYDtdPvQ8C/jWlZS+ZIvzYzWBpw3FfetqxXEy46CtaZmL8W9LGqfBbxlb+Yw8zQb7qfS3c/wBK/K7/AIIx3It/2xfCgbHzJIv/AJDf/Cv1c8UR/wBoeAvEEHXztKvI/wADbyZr8iP+CSNw9j+2V4O28jz3jb6bGBrvp6waMah+58c/2ebCbmyydOvb0r+dX/gpz4cTQf8AgoT8ZLeKPy4/+EsvZ8YLK3mP5oPPOfnb86/oqtrZizMg3NtDLz3HT+Qr8Lf+C8vw5t/AP/BSPxhNbyedD4ktLLWgyReWI2kt1Qp7/PG5z71vhZJM5ZbHw/rKA2Ev0rLt13LnrWtq6GS3dV+6ao2NuI7Vm7rXsRd9Tz6m5Vk+9Ubvtp0knLe1QFi1UZjygK02BMu1OzxQg2hqcb30D1PSf2XNfbQvihbkNjzBs9v8817H8TNF/sr4iXcm3C3WJF9DkV85+A5pNP1iG5ibYynrX0z4kuW8W/C2w1mNt91p/wC7mPqmBj+derTldI48RHS5jxfLESPauj+F1vLP8RfD3kDdcDVLRoh/tieMj+VcnoU3n27HG0MMj8q9o/YI8Kf8Jx+178O9NlXch8RW0xHqqNvJ/Ss8X8A8Huftp8G45v8AhSnglpkZJv7AsTLuPWTyBurpokEiHNNitxZpHZpt8myjWFeOgVcAfhzU1qFD4bha+RxEffPfo6Ipu7W8q+5rQtrnMfaqeoRbpNv3mXoar22oMlysJXBY9a5eU2UrmrcNsZS38VStJmLdTVMb4zuqO4ZVIRdzdzUmfMPeLzBTHtgo5zThehR91tqjP4VG+oJcxqQDhufwoDmFjARuKZdR5II/Gl8xROq/dQjJPpSGU54bIqoysOWqI7jKwjb/AHlyPbIz+lfEn/Bwh4mTQ/8Agm3qEMhLNqXiPTrcD6MZTj/vkZ9q+3WYKrMzBRgjnvnj+tfm3/wc+TahafsafD+G3kK2994ycXGQMO0Vm+zb34zXXh5XZhUVkfhBrbi5vt0eVXccj+8OMZqW1fbbjNU7lWgudo6L8pzU6Rlk/wBnrivXhojzKi1JbwB4PpRpUeUVvemyRs1grD+I4q/psSxQKv8AFjmtDIsxoFQVfsYgUFVLaE3DfL91eMVoW0RiFUmOxYW3AFexfseRNJ8ULRB/dJ4ryKNsgV7V+xNA1z8WFZescRNaRLjE/oT/AGGr9m/ZQ8G/d/d2pA9sOTXr1srbvxrx/wDYT08J+yh4N8z5TNBK4HqN5xXsKyN9DXzuOi+c9jDx9wlkbio1b5qbmnIK4LGtiQr5gGaaY9lKGxSE5pCCgdaKB1oSA9S+A4x4PuP+vx//AEBKKX4Ef8ifcf8AX23/AKAlFfRYf+Gjz6vxs/DT9sueMftf/Fb/ALHHV/8A0tmrzXepr0L9sz/k8T4r/wDY5ax/6WzV5vmvlKnxv1Poqfwoc02M/MtRtP8A5FNfvUdQbezHCbJPWl8360iCm7dxoFotCQSE/dqSOSRajSMipUQ461nLcWhZt71gNpHtTnmOeM1XhQ76sRru/KtIy0FoOieQmrUDPnpTIIvlq1axZIquYNCe2d+Kv2p6VWiXaRVq1fDUcwaGhbybVWrMM5z1NVI+1TRIS1HMPQ0befLd6urKSOCazbdDurWsbfzKOYHYcjtu6mrls7cU1bTDD/Crdta8VJJLBIw28nr61pQTnYOTVWC0xjgVeht9yYwPyoAmg1NoD/rP1rSstbz/AB/rWbBYJIy7uxyR61YgskLllWTatVzE8xsQaiKspfc/xVStLZT/AAtVoW1HKTHUvWOoCCTdz81bGm3QM6t/ernY4uVrX0wkMv0o5TT2Z2NpqwQL1re0vUw7rXFxStsxk5rZ0OVlRcs2fc1tTMJbnWz3f2jR7+Ef8trSdPzibP6V+Q//AAS3uf7M/a98IgD5lvpUJHf5n/wr9ZIbhmtZlBO6SKRRz/sNX5K/8E55Vs/2uPDrdDHq0qcf9dT/AJ/GvQpbGFQ/diy1eNmVfu7hg+wr8lf+DkXwUYf2gfh74o85WXXPDklg655BtZgQPptuBj6V+p1pcbG3HcQy9vxHFfBv/BxJ4E/4Sn9nfwL4ntbWz87w54iezlmd/n+zT2jyuo+n2VTjpk0qMnzHLLY/FvWXK3BUEgYHAqMfutPqbx1ZNo+urb8/IwVjnrld39Kq3ZxbY7V7lH4Tzqr1M0/feo6a0bqeGY/jQiMe5rUzTuTVNbRbqjQZqWN8LgVUdxmxotvtf5flxnpX0X+znMviLwteaPNueO8j2887SK8C0OwaWyEg/P1r139nvXH07V1WNtqqwzg4r0qOpjVp3ia1pYNpVw1rNtzDKyhV6kDj+lfTX/BInSl1z9vvwkrKdtnb310AeoKQnafwJyPQ14b8V9BXTNUjurddv2oODgYweWz+Wa+jP+CJ+nteft0ae3X7PoF/M7nquVA6/ganGO0TPCq0j9hF4uZmy3zNg7jyTT2+7TF2xysobd1bJ79qYrsG2typ7mvkK9T3z3aPwkt1IsmGX7w/Wqk8DO++NV8wdD3qwRxSW33Grm5i4uxJHefJE+5cSVYUeW/Oaz7S3YySR/8API7ox7VahdmjOST9akkfLdrhkxjdxx6VDEBENvtx7VLJEjqv97HNRyjymoAq6neCCzaNUlluJG4APQVZRfLtox7c1XmkjW5ViuTT1vTNJt24WgrmJ2OFz0xz1x/njNfk7/wdR+Po/CXgn4G6G0xaCbUtX1W5gDZ2gwxQxuR3GST9SK/WcQiVWXaCdpxnp6V+Kf8AwdYeZqHxw+C/2qRv7HuvCt+kaHjy5BeRqzn3x39BXXht7mNXU/KeeRLyZSu0tkq5x1IA5H51bstOL24LdOlcYLu68MeImsbqYyfZ5MbxyJUx8rA+4616HpNv9ptwqtuVhvUivVUzz6kdRIdMUOI+NtvyR2NH2fEnmKq7elSRO3kyzLyZW8s5/hxTYXk8n5tu3PNbRMJFy0szFHtHH8XFWEjJqK1ucr+lSrL89WhxLEfG2vcP2I2+y/EsyFjt8s5xXiCHJr3D9jVf+KvY458o8/jXRBGkT+g79hbW7PxZ+yf4Hksty/YbWSzk3DAMgY8/+PD8q9dUsR83Le1fM/8AwSs8RrqX7Ml1brNEZNH1GVBEG+YbmyOPp/KvphPmjAJXd3xXg5gve0PWw8rwsFOjpHZWXavWmocceleZKOhvLYlooHSnJyazIG0VJikI4oVgPUvgaMeEJv8Ar6b/ANASin/BEY8JTf8AX03/AKAlFfRYf+Gjz6vxs/CL9tB8ftifFjn/AJnLWP8A0tmrzZJMn73616N+2j/yeL8Wf+xy1j/0umrzWOvlKnxv1PoqfwoeW5pKBzRg1B1K1h0YzSxxsW9KWE4zUi8mp5jOS1JIoh3x+NSbNg3U1E3HpVgRAwqP0o3BQIo8Z7VPGuMcU7ylDjjtSjr96nsDjYniB/SrFuG/2qhg6VMkuw07k8pajjardnaszZzVK2lMhq9ZTbHwKnmDlNK3ttuM1ahg+bt+FVop9wq/p43jNV0DQmt4NpFaVoxjO7a2PpVWMYer0TfuvxoB2LUUm9vSrdgwZ+orPi5NS2YUFuWoJNqNhj+lWreXaM7T8vPSsWA4PLtWhYNh/vHr1NAFibURFf20fy7mPVVLDPuQMD8a3ki23G2NpFVh8wGCp/Wsm3m8tv8Alm3uRWla3jbP4enrVcocqNC3lx2qwJB6VnwS1YSXJo5jOOhchcM+3yZGbbuDBRt+nWtCy4f7pX2PastJ2jHFT29827nrRzF8x0+mxidwMrW5a2flR/eX865fRZWyGztznrW1FfNswTW1MwlI3tK/eOq71Bz3PbHP6Zr8lP2H2XRf2vNNUrlrfXpQ20cczmv1f0Zi1/Dno8iofYMQp/nX5QfshDb+2kVH8HiOcH2xdOP5CvQpbHPJ3P2v0+9+SPdk9ev1NeR/t/8A7Ot9+1X+yr4h8K6fNYx39tBc6hZrcx7kknFnNGmMAkOTKBkDPB9K9Qt5AEjww3Y459zWha6iYVWZVVinzFW6Nj19qmjK0rGMY30P5iPiZBcXmtiSaH7NcMVeSJ+GQgBQCO3y8/Q+9YF5P+7xX2h/wXJ+B+l/BD9tjVP7DtktdH1/SrG9t4ox8sZSPypMfUxf+PD1r4tuY8GvcofCeXiNJWKsTD1psaknoajlHlipLecZxkZ+tbGUGSopHY06NxC+W5z2p4Ut05/CmPHuags7rw0vnaVuX06V1/wpu/7N1sH1PbvXL+C4M6WBW5o4bTNSjkCsB64r08OZzlofQXjBU8S+C1mRj5loyEY5Yhtqn+f6mvrP/gh18Omh+InjTxlIsaQ6baQ6NCW/1nnSZkfHHClAvfJy3FfInwi1ddUgWCZQ8crxoc9uBX6Hf8Et9Bk0D4NeLjGybbjxOZDgdB9mTZz7An86zx2kWRh1eR9o22s5uV+bqCcZ4HPSt9X8+yVht7Zx1ryu01KSMMHbcc5HParcPjeeC3cJvBXv1r46s7yZ7cNIno7c5+lRQMRGR3ri9M+IszWyq8i4Pc9anfxzDP8AemZW9h0rEDqPPktm8wso4xVizu/tCHbgjvgVyP8AwmH2lNvnLirWheL0tZ/LaZPm96AOmIbOQy4+lK7bywbOQOpFV4tajYH94u37wpzawjw7laNmbjqM0AQmeHzdu5jIO+OKlhyG3fKVHv0oSYFQyqGZueBmmTalFbW8lxdSx2trbDfNPMNsUCdyx6D8aqMHLYqKT3LZuvLRmZti4PIGee3HTrjrX4m/8HSnxA0f4s/HTwH4I066aHW/BOmXFtqUsiA26S3LQypEXznhV3NgcFz15NfqT8Qv2+vhb8PNJuL9fEw1drOTBgsowXbBOSD0xx16c1+CX7YHjq4/aM8feLPEF40jXviDVrm8SSVsuqbj5YPuEKrxxxXVTXJuV7NPY+Rr7w9PBcf2ZqUcZvrVfLgmDlgQBk4OPmX0z0zUng/xNP4fuWsrzzNoOFK+n412V3p0lzFCt5GoubdSgkxyfrXOeINDTf5ilfNJHevRjboeXiItG1Hk2zqrKFd9wwetLHaMRgH8Ki0uCSO3jWQg+laUabZD7Cui5y8pHb2EiDqtSLA+/wDiqaOTNSoeauMg2FiyK+gP2IdHk1TxLcMn3ljwBjk814PCqkdK9y/Y11ltC8bFl3KGUcetdFOV3YqMu5+0X/BJC2fTfDHi6z2/dvo7lnI5AaJ+M/VCK+uml8iRlHzbTgn1Pr+Nfnb+wB8Wbrwj8Z9BjS8kh03XJY7e7jZgqlmjlQdfRpM1+iF8GgvZlfO5ZGBz14JxXi5lFxkeph5Ll0HIGU7vXsKcjFpevzN271Bb3G+XHpVmNfKmZu/QV5MpaHV0JkcFetORxnqKjiRVOM/e5ontm3bV44zWZJY3AjrTXkVerL+dVl3RQ8+tPdlf+HJ28UlYD1z4JceE5va6b/0BKKPgoc+Gbr/r8b/0BKK+jw/8NHn1fjZ+D/7aKn/hsX4sf9jlrH/pdNXm8cTHtXpf7aH/ACeJ8WP+xy1j/wBLZq86i4UV8pU+N+p9FT+FELWYlRlO5Vb72G5/DirdtbqsCrztUYGTk496YB8zfWpEb5awc2airag09LbaaaoL96cPk71PMxk0cW2nquTUInwOtOSbJo52h3JWhG37xpqW7Fh9aN5aMleafbE/xUNthcnijKLy1SxIzGohuq1arnH1osxE1vEyLyKsW24NTRwKkthhqXK2NW6l6JytW7O6aNulUBMoY/MPlGTVq2kU9GB4zxzit405Cjy31Lp1J15/h7nHA/GrMeqsdvYnpnjP09a8z+Kf7TngP4K2bTeIvEFnbSqMiCIefcMPRVXODwfvYFfMvxL/AOCxFrCzR+C/DczLn5brU3wz/wC0Y1yPTvXTTw8pGdSpCKPvOHUZEO5lO0deKtWmp+Z/DlfUDpX5dat/wVv+Jl3GggXQ4SDyUs8k/ma6z4Of8FZPFTaksXirTbDWLeRsedFGLeSIf7ODjP1pywskYxrRbsfpEdQiYcFT6jdyPwrQstQjKr7HJ5rxv4MftAeG/jnosV1oeoFyysWtbrCXKFcbuOCQM/jXcJqXlJhW+bA2nquSMjNc8o8r1NlZ7HeQ6hHJ0K/nWlYXFvn5mj/OvOY/EhSLZO8YPT5FPNTWGuW8E+/zmPtg1RWh6lA0YP3hViAb3+XmvMLjxhJA/wAkm6tTSPiMU2hpCOBnmszE9FZMQ+/eq8N2EmG719K5ofE1I41G5T7k1PZ+PLWV97sn51XKB3FtfGALnGK3NPuRLtLMo/HtXA2/xF03I3tH9c1taV4y0u5dduoRjJ6YramZyVz0bRpITeW48wczRg/Tetfk3+zwx8O/tsaqvAkt/EtyGGc4P2k/0Ir9TtA1vTku4Wa+gZdw4Lgc9R+uK/L2G2h0P/goJ4oWyX9xH4jMhK8j5mVic/XNehR10MZxsfsVZXam0Vs/MpBxj1xVuz1DZDlztXa2TjpzWLbyGKGFW/ugNznBAFaVuglgK9mGDxU0175z3cVc/Kz/AIOMLy3uvjl8NoltVi1AaFdSzTBPmkTz12gnPGNp7d6/N+7t/wB7X21/wX18SSar/wAFDbq1l2iHSPDthaxx7MiMyebKe/fcT/wGvi2+hZ7QsgzJHEWUf3iOte1Rl7p5eI1dzFaFp4m2jODis+SQwXNbVsqmGbbzF5ytEP7qnOD+hrJvYdt59a3TOe/LsbFmhZfwoSLc+P4qs6bDmD8KikbbPimVGTbPQPBIRbONWbvXZaboi6pOEUlvlJAFef8AgeSO42xtJhs/4V6p4E0r+z/Elswm/wBHkUgk+pr0qDsjGtJp2Rt/CHW20bXoYmGdzquD2HGce+K/RH/gmL8TPtt94l8JzCTbIn9rWjggbiu1HUjucbT9Aa/O280ebw9rVvcY+7ISMema+gP2TfidN4E+Jvh3WVmaNIrlEmCtjfE4KMD7DdnHtVY6mnTbQqNSzP1GZpCWbI2qoAIHv/8AWNR/a/JjZV+8wPaneCtTh8TeFbHUIZlkh1GAXKnPUNg/ocio9StHMu2MfrXxVaPLNo92lJSgrmfdt51zBtUKVHJ3dKa0l1Azl2hZCOMHn+dXItFkcZI/M1DdaTIxx8tc+ptyxKLahOq4DKp+tVbvxDdWs6tHJlver0mlrbRfM3zVl31krrleT9KZmW2+KuqWkJX9yxUd8/41nH4/3tgWE3lr/u5/xqqNNMkjbs81i6z4I+2OzfLigDoX/atXR4/MkmZSucDNfM/7aH/BRCbWvElt4XW+ki0VbdLu4t48q17KzbVEnTKBccAivTfG/wAO7Kx8MXV9dqJlsopLjZnGcD/61fjr+3p4z1S88dx6xbTSWzyRYUqeEVT8o/SuzCvUHqfQn7Uv7QWm2HgaG003BvL/AFe2sSF+VVV5NrY//XXgPxC+TxDdW6qoWORwuOw3EH+Qr5xt/iVrGu+KtDN5fedH/acM5DNnLBsjj619J+Noxc63cTFlbzGLHaM4Jwf61pipLc7sFT5nY8q8WWR+0vt4yM9a492F3K275WjPHvXfeMY1guGbcMhfWvN7rVI4L5xkdecU8PUm9Ax2DXKbEcjGIfd+WrEUmXz26Vn2MyToGXr2q/APu/WvV5UfMy912RZTbtpyNxSKFAp8ahj3/KqIuWIJtv5V7R+zFGBqzXJbHlAV41aQhpFznnpXsf7P3+gSXH0FaUviIlfofa3wG8evpeoWN0pPmWsyyxsuRhlyf6Cv1t+Evjdfit8NNH8QRZP2yAGXPUOpKN+qmvxW+D/iD/So4c43Nx+Iav1E/wCCbniu71L4XahpMn7y3sLlGVs/dDJvxj6g/nUZlh1ONztwsmnY+imtlglDL/wL2o3NI/A4qRxugz6s2fz5qJDtFfMVI2uj1YyvG5MrMJF9v/rVPJPktiqfmU6GXD9OtYkp3ZYUq8Jz601m+dSv3elJKBux04JpWm86VeNrAYxRdGnKet/A7/kVbr/r9f8A9ASik+Bpz4Uuj63jn/xxKK+iw/8ADR5tX42fhP8AtnjP7YnxY/7HLWP/AEtmrzuJdwAr0T9s3/k8X4sf9jlrH/pdNXntvwa+UqfG/U+ip/CgMZFIUb2qUrk00jFcstzYjJaP/wCtSozPTyu6liG3NIBFBqRf3aK1I3PFPkU+QtAD7eZSm3nrVmPaPXiqNuMSfjVxgkkEnmSLDHsJeRjhUXHJP0FaU0x6Wuywm6STYqnzP7p4/XpUN1rVvpO/7TdWts0ZwwkmQY/Wvlf9qv8AaTu/FlvPo/h2xtPsVuGS6urwsxUKDlkCHn6V8j6vrmjWWrXF1fTX11qG4nZbw+TCT9Xya7KeHlPYwniIxP0+n/aB8H22tNp0nijRxeKdvli5U8+mRwPxNV/G37T/AID+G0ET6v4t02Npk3rDbyieTpkZC5xkfzr8r/Evxbk1yzNvHaxxQhdiksWbA4GTx/Kudt5ZNROH2qucjaOf516FHLr6s8+rmDWx9+/FX/gqxpWnq1v4P0qS825/f3Y25bsQmTx9etfOPjf9tH4q/E2RlvfFl1Ba7iyxWcaWqrzwP3Soxx/tMf6V5lpekSTov3VX65resdOFsu1mau+jhIwd2efVx85aGHc2NzrF7JPezSXE0jbjK7b2J75LAn9TTn8Owq2cN+ddBLEET5TmqjDDZb5e1dPLFbHP7eTe5mR6NGrj5a0rC0FpIrR4QKcknsPX/PPpzVhYg/Rh+damgaNPfXcSxo2Gbbk8DmsaiVjanJ3ueufsm+NL/wAHfFbwzdW8jR3c92kD7UDNsZsEEEd1Hpnmv0r8daJeeEYbKWOPNvdCRZCp/wBTIpAK/wDfJr4m/wCCfv7POtXXjzRPHDJ5fg3wxK9zDcuNkuo3iMMW8eeCC8hGe+xsGv0F8e2RtP2fLuS4dY10mQXM7dlBcMfyyBxzzXj1qMWevQqyPNxqbBfnOd3apYXST/Dcarw2H2mdQTtaNsMPcY/xFaaaGyHdu/CuGSaO7mZWZ5IfuuzfWmtdXBXggfhW1aaOzjkmtC30HcR8xrMyOMnl1GRjsbKj2qld61q1sSqqx2/7NelR+EpGIZWOD7Vo2fhrAHzP+VPmA8Wk8Tax/F5i/wDbOqs/i3XIgVjupE7/AHP/AK1fQVvoYXHL1oWukokin95x6kU1NoXKfLt74+177MySX10NxGWXI24IPp7V8QTfHDx94b/ar1JdL86+MmsRYC6a00kqtIo4IU9ByScDiv2as7OMSAKJPm4JLDj9K7Xw3qk1jbwrtQqp5G3t067vQ56V3YetpqZVPI7zw/rPm6RbtKWVmjVgpAU5I5yOvWuj0bVIjcQqxPzOo/WvNNNn+zwqgxt4DZ69B0/HP5V0GmXI8+Hp94dfrWyet0YcvNufjL/wWK1mTxH+334ummYtNHbaauD12rZxkf8Aow/rXzDPdOVUrgSJ8wb1I+7+HrX1J/wWb0ptK/4KB+Ll+ZjJp+lyKccMDbBePxWvlef9396vWw7vE8vExSloZNvdra+JYbVWzHdRSKq/3GQAj/2b86bqFt/psY9aj8QWq6Vquh3xbcGvAmMdNy7f51euI917IeynH411ROKRqaaypByG6VWd0lk4Vvxq0V8uOq0S5eqCO5ueGj5Mgb0r2b4ReII7y9iiuoVkUH5Cexrx3w6QzDmvWvhdpElxN5ijITk16VDYyra6s9X8R2UeqW8S7B8pycelWfCZ/sdWCbgwH7o/3eKr21x5NtiQbOmKvWJ+0Wx2fNyD+orpqLmVmZwaufoH/wAE4/jDdeO/hTNo15NuuPDsgiTfjJifkYwOcEd6+k1ih25k65xkV+f3/BNPxbH4f+Od1p8gX/ieWDQxsTjDodwH47TX3z9sWS1h29xnn8q+QzGjy1Ls9nDyutCxHDCsgw3Wn3VhG0eVFULnVVgTnb+dNl8Uxxp939a83mZ1XIdQ02F4iSwWQf3jWLqV3BpdqzSFN1V9X8VRQM7tj6CvNfif46hXTyx2rtHepAt+M/ihDpkjfv449ueuK8o+IP7UbaRbyLb3iMyk4wFOa8j+N3xQiu7/AMmONW3ZGRmvH9WuPNlaQ7RnPFBryI9I+K37V+v+JG/s6O7ZbW6zFIAFBIYYxXyr+094JsNR8AXE92Aj2cyrnJ3NnjFdT8SNfXR7G3mxuP2qMsP7q5HNZv7R8LXPw21S4g/eBWhd/TacHI/A11Yd2Zkz4m8WfD7/AIQWWDVUjYJbXiO+G3ZUEtwD9K3vFf7VcmsTzLp1hIVc5Xcfbvg1paxpEEpuPLuN7TsQRtPygnNcCng5dN1Oab7QrIz/AC+prt5VP4jaNZwjoTJ481zXUaSb7PBF0KbPm/Os25uGeRmdtzfStCaxzIzbhnsMdagNntDZaumNOK2PPrYicnuR6b4oazkCNyv+yK6ex1fzIlY7hn1FcyBHbyKxfle2K39Mv3vFVVjDfQ9a3jqcNTc27DUY5T8zd/TNalrNDK2Fk/76G3H54rU+HH7MuvfGDK6X5ZnfhI24LMeg/Gt65/Yf+LXh+9lto/APiLUIrNDK9zY2pu4wgGSxCfNgd89K6XSVrmZg6Za+ZcR/NuUtxivTvAlu2kFvKbdJKRkDJrzfQraa2uYUuo2tJVILLcL5Df8AfL4P4V7X8HtEudUvfMg8uYfMgWNt7n0+Ucn8Kx9tCEtTSMGei/DLWZItRh2pIW343BTjvX6R/wDBNS+8VL4122cMx0RnjGokp8oHkS4AOOvft1H4fK37Jn7F3xA+K5sXs/DOuW9s86q13PZvHbqME7stjjA6+4r9Wvgz8IV+Cfw1s/C8F4155T+bNcSLgbiQxAA9DkVpiMRDkujqp02dqgZyw+b5VXk9Dx2/rSRRZcg1N5w2tnjnNVy2/dt56V8xiLXujuhZRH7FC7qbKVj28jDdaJELv/s+tEdqxDcquemTiuQa3EmeN7pdrHYBnn17U0N5sx2/wjrTZYvIs3VmU/xHHPSmaZJ/ozYB5PcdqLo1uezfAc58GS/9fTZ/74Sik+Apz4Mm9rtgf++Eor6LD/w0ebV+Nn4X/tlRZ/bD+LH/AGOWr/8ApbNXnaKFHSvS/wBshc/tgfFb/scdX/8AS2avOhDmvj6knzv1Poqfwoj259aAmf8A69WBDxR5WK5+ZnQokK2xYdqd5PlH5h+VWkiwKGRT+FHMx8pTCb349KfIuIR7VI6bRuAqKWRSpGSeM8KT/StIRbJbihsRw/1rz/8Aav8AFH/CP/CKazjuDb3uryBMK2GaM8Ngjtiuw1nxLY+G9OmvL68hs4LdSzSO44xzx/ePsK+Tf2jPjrH8YfGls1pF9j0nSgYrbH/LwT1ZvT8K9LCUV1OepWSjY4Z3+yFk+8G469fXPrWJ4i8MWOuxuJrO2lLjligBH0wK0rmbzG3Dn6VGkmete1SoxijxJVHc8s8WfByHSC1xazM1v3j7rWJp2gRwk/XqRXr+rSqZNpUYbgjsRWLfaXZnO2PazegruWxyOTuc9YRJDEo3L8tWhcqB1FXrfSoIm+78tWk0yzK8rUy2KUE9TBurxWbbu+bGasado0mpp90+WDy5BAz6fjW5baXZxkyeWjeXy2RyB9a6r4Z+BtY+MHiOPRfC+l3N1dMBNPIfltrOJf8AltK5wEUc9fvYxUaIpU0cnYeEoIy7SMqqozneD/LOPxr6g/ZT/Y1XxRbWfinxZp95ZeFwyyWGmOPLm1yQHo3OVhPcnquRg5xXVfAD9inw/o3jmPUdU1yy+Ik2n4ltbCxtxDbQNz+9uSPvIp24Xu2K+q9F0d7e8uNQvbiO81CQLmZV2xwRj/llGnRUA7D0rKckb06SLvgPwpDb6VZqdPtdNjtW/wBGsrWPy7KxXPyrFEPlXGeoXJye5qx+054kXw7+yT4wMjL5uoW1tp1qh+9PPdXMcSBfVvvH2CMa2NHMl9MsdrC0kzMCIEbEkgJHQHoDnr2rwT4z/GGz+Pvxi0bwroV0t94a8CzHUNUvLfJh1DVceXDAh6bYAzOxHG7NefWUTuo6M7jwiGuneRi3zkhF7DG3J/Su103TldkLAZxWF4K0L7Jp0a/3UKgnqRuDc11EDLCy+1efUt0PQL8GlwxDlVqxb20If7o/Kss6wfO/ixV6HUVaPpyRWHKg5Ua1tNGo2qqle1Whcw7MbVB+tYMN/g9/wqX7fh9wH50cpmayFc/eIrRs4UYZOG56muaOsNjG3mrdhq0hxngZqAOqgaGNvur+FadlfbcfexXLQ3S/eZsVoWuph1ABqotXA7K0uwVB3j6ZrY0q6OV+ZSdwxu+7+PtXE2bZKsW4rYg1FYIMHlcV20pLYylCyuj87f8AguD8N7iL45eFfFzeY1vr2kvauZAAyywMQM4yM7ZMjntX5+pOZdYaNjuVeor9bP8AgsL4Kk8Z/syWurqNh8K6ilwWKZYxyJJE2P8Av5k5x9wV+S+n2gOq3Eh+8tezhZX0PIxcdblfxrGs/g+8wP8Aj1CzQk9VIbNX4o1cxSbflkj3n61S8WRH+wbiP/noMfhWlEmy2hP92Laa79meZG7epIy5XFV3iaMHpzU8jLEeQaUqJEGKpbj2DTNQNhKu5uPY19C/su63b6jLcQyPGWZcKG65wK+dLlPujArtPhNrc2ga9DNbthlOcetdtGVjnr/Dc+vrnw+tzB/qx09Kowaf9kmaMblXBBxWl4E8Wf8ACS6VvfaG2qMfUA1Y1C1+dmCnOetelCz1OOLdzQ+EPiV/BfxK8P6gsjxi1vYt7KcHYZAG/wDHSa/Ro+PoTbCSO5EiSY2bTwB14r8yZf8AR0LfdZeRmvqD4UfFSO6+HunSPIzNHGI2J9q8TO6CceY9rA1Pss+gNW8f4Pyy/rWLffElx0kPT1rzHUPiCs6/L09a57VPG7FvlYdK+Sloeoeg+IfiYzxv++x9WryP4vfEJp9LdVuD93s1Yfijx4phcmTH415f4t8Y/b1+Vtwxjmg25EYes61JNetIzGRsnG45rB1zU5Hi3biG9quzSeYcmsrXPuEfjQUcz4tH9p6XIGG5pleF/YEfKR7g0fB/VYvFPw7k0rVpI7y4s3NjfxyfNhT/AKpjn2K4NGoD7y/Ntbk/WuH/ALci+F3jldcm8xdL1BBp+rDHyohP7ub6qxAPoMda3ovUzlFGf8Qv2TZfD+i315Y3L/aICzLFuJz1+UDFfO2sNtmDbVw2Qcj+IcH8RX3raanJdlYbjy2jYANIp3bsd/xx+tfIv7Q/w+Hgj4k6pbLG0drduby3/ugPy2PxxXfTkzlqHl9xdyRNtXo1NF638XPtU1z8n1Wq6Is0ldkdjjlGxNCRPIq+Wvze1dp4H8Mf6dFtZlLHoRx2rmdAs2nOQMkMP517P8PvDK3F1b5UKc8knA7V0Uo3ZlJH0z+y34ZGkafA3yfvMbsdx37V9hfCHxNqfgiWzvNG1K6068t13pJBIYzt4ypK7cg9CCOa+SP2X/GnhvxNqE2mabrFpfX2n/LLFE+SpBwfyr6l8Lo0NtDtK/6rbXoWsrGV9dT7++CMPw7/AGkvAcF14h8IeDdY8QWO1bv7Xo9vdSMcct86HqcmvSNE+B3gnwo4bSfBfhLS8dDZ6LZ25/8AHIQf1r4L+Bnxqvvgx42ttat42uFjIiurZTt8yJv4uOpAr9EvAPifT/iF4L0/WdLkEljfIPKJbLA4BKn3HQ187iaMlNs7qM09CxbRNZ25ihPkxY4ReIx/wHpUb6f8u5R/n8qnkAVzxSlML97A9K8qUmnud3Lpcz/NMZK/Kv1FRrOwdgNrcZ4FTSIpf+99aamy2Dsw2qykZqJPQBhuGC5pGtVvYwG5VuetNuoisa7eNwzk0Q4CqhrK4D4rNrEeWgyG/GmNHLI3+s2jPI9aka7Q3aw7GywPzdqjO22TdsZ/mA4PIppmh6/8BBjwdcf9fjf+gJRR8Azu8GTH1u2P/jiUV9Fh/wCGjz6vxs/D79sVM/tffFX/ALHDV/8A0tmrzscV6R+2JA3/AA138VDjr4v1b/0tmrzsWxIr42r8b9T6SmlyL0GhMinKNtGNvFFc5rdji+RUZ43fTPHWiaZYIpHkZY44o2ld3O1FVeuSeleLfFv9tDw/4e0kw+F7pda1KQlCCjRRwsP4vmX58c425Hv0ranRlLVESqpHrWsa5aaHYfaby6tbW3zgySuVUHsOR1+leCfFv9tZdPtp7Hwhb213MjgLqF1H5kOQwyFXILcZHUY614H8Sfi14w+Kusx3Gta5cahDbrtjt9u2OM/3sDv16+tctJd6oupL5enwtbsP3k5mVCDjoF+vpXqYfCy5TgrYhXN3xJ4r1HxVqUmqa5f3GqX+S7yS8gL12qvQAdsVi6DqkPimykvFRoo2kKR7wcnHXApviDxLaeHrJZruZYWY4xgtz+ANWLXU45bC38qQvGFLJ8m3APXj+tepRw7iefUrXYlw7W33W4qpLrL2/wDDu/Gq+qeIvs+qra/Zbh0kX/XKOB+FQXynytwzg+vFdkjDToLdeJDIT+59vv8A/wBaqM+rKzdNrfWopf60xLdZmPGSBk0c7RPKiUasCeTUv9p28ab5ZDGnQkLk/wD1/wAK3fAnwP8AEXxL0PUNT0XTfO0/SyBc3VxMltbxcZ++5Ab6Lk+1fUv7PP7MNh8O9GstWgsrHxRrWow+Yl3q0ZXTtNU5DJHA37yR25G/AXBzUSq6G9ODTuzw/wCH/wCyH4q+JmmWGpK39i6VfMRa3Eylbm6BAyYojyR7nHQ19y/BD4J2Hwl8B6PpMrR3Q09fMWEjKtIesknUF+APYAVp6Bp0dgq3cssmp6wx/e3skZWRRjHlxJjEaDsBnqeaw/it+0H4N+C728PiXxDZaZdX0gSOAI89xz/0yiV5B37fjUKpfRm/L2PTP7UaZ18ybzTn5Vclufbk8np+NO8Z/ETw/wDDLwfea54j1KLSNK09Q8txOSjM+4ARRLjLyliAFHGT1rxXW/2qdHtdJmk8H6PrXjXWFAEdnLZy6XChPRnlnCjb7LknHvXA+GPgh4u+MPxBh8YfFK4XVdQPNppMcp/s/SEwQFjjyQzD++e9c9SpHuaRiy/qXxp8b/tX6RJ4e0+zvPCHwp1WYyXVv/q9W1pQSWMr8GJZcrlRnAQevHuPwx8C23hfT7OGK3htYbWMRxQxR7URR0AHoOv155qTwl4YttHIxCi7VIUHnHT866yPyyi+1efXqpnVSp23Nyxvl8kKPlwMVM18FrDF2sQ4ppuWfpXGdRsLLubNSC6Zf/11nreKtH2xai7Hdmgl46nrUn26T1rOjvo6lF9GT1qOZmTL8F8/m9a1La8WTG7r9a55L6MN96rMGoRr/wAtP0qgOliuViIZfx5rUtdSWTgfKa5KLWo1/wCWgqzFrkef9Z+lUorcDtra7dQp5I9jV5tZWLKtvHHGB1rjbfxOqQ8SdAcVJZ6+sqL58x8zG4d62ptJg9i18bfBlv8AFn4T+JPC91uaPXNPltvvbWywwDn2PP8AhX4hvp11Y6vcQyJ5bW5ZZR/cdW2sv4NxX7Yf8JWmY1Wbc2/585OF+tfl/wDtvfD21+Hn7Sviu1sDCtlfzR3sIRs7PN+d0I7ENz717WClroebi4+7dHg+px+YrK38VaTDbZr/ALKfnVXUI/mzircv/HqB/eXbXrPc8PW+pDcjc/40LLgfdpJ5MtTaqJbSsLId59K3fBWt/wBn6vDxxnmsGnW1y1tdKQcZ6VrGVmYVqfNGyPrH4Pa19svUVG7r+or1e6maCzyx6Y/GvnX9mPxbDc+IIopJAZCyAL68V9IX0H2u2DYXaQvGfbrXq4ezR5sbqWpz+p3ZaEso3MwP4V1Hwg8d/wBnRyWUzlY9u/p/FXJ63Lb6S3724jjD9M5z+mazbAeXdyTW8jSxsPvYK4Ppg1nmEVKnZnoYKSdQ9g1b4mWihlWQ7u1cjrvxFkd/3cnauHubmRpTuY592pqzsf8Aar8/3ckfTyglG5pal4imvnYNxu96y55FBzt/WmyybWyxxVed+KBlg3AKVn6hJ5hNBn+XFV7pspQBmakVTNcj4h0iPVYpUkCSRMrL5bfdbIxz+Zrq9QIdtuOTWHqCbsrtFVGTWwWueS+EF139nrxLYalcas+oeHPOXTpLUx7fslu/CsXyd23CDoM57V237XPhldQ8A2eoq3mTabMIWfHWJs4P05H5VJ4u8LR+IfDd5Y3C77e8jMbgDufun8H2n8K1vA9pJ8T/AIITeHb5ll1qztjY3G4YJkT7j56HcOevGOtd2HqX3MalO+x8g3UJSX94MHGSPT/PWsnUra6imHkxGRWPY4rstf8AD8mk6vd2d5E0N3azMrA85HAH8v1rJ0+58m5w5+UMBXpRfY4KlOS3On+G2jvNZIZo9jZBIr3v4eaRHZywvJLHFu4QlwDk4xXk/gfxHpNz4nbSY7yL+0EBzCVPGB69OnvXYePP2bb34qGGaz8QXOk8J+7jQv8AdzzkOvr+ldNO6ehyS5rn058Dvgf4d8P+PLnxRa6Slrrl4m2adJCPNyQckZx25r6J07X7fRtLhmu5oreJcIWdwoJPAAzXiHwy3aP4X021k+aSzt0haUZLykDGT7mqP7Q3g3wt8aPBreEtc8XP4f1K4EdxatDdKs0JBJjJj3A9z3Br0Lp6mLj3PWPjL8ENC+Po0d7+81fS9S0G6W5sdQ0u4Mc9sQeVPTKseD/Wvrz9ib9o7/hTfi1tOurqa40HWdkF3M5DAMOFk+pPXp1r44+EnhXUPhr4J0TR5NYk1/UNJtEtn1C5jINwwHDYyfl/PI5pP2ZdU+J1lrmtaL46sdFn0u3kM2l6pYyCNrlCSVR4j86sOPm5GayrU1KOppCTT0P2yRmvFZy0bSH5gFOQ4POQabOFbnJ/KvIP2L/jVb/EP4QWGi3V6r+KtHX7N5bRnNzFt+Rt/TO1X4yfu+4r19IsQKsjbpEG1j6kcV8ni6ai7o9mlJuNmNlkQxrtT8c1Wlg+2IY2+76VaZFCdelQs+zlfxriuW0Q3W5git0jGBVSZsjHI96tvNumKmoJod2fY0iuVWuRpcN5e3c2c9c9Kkgfyn+9kHqPWoYB5su0buOvFWDGEb8fSi4HsHwFOfBs3/X23/oCUUfAT/kTJv8Ar7b/ANASivosP/DR59X42fiX+2F/ydv8Uv8Asb9W/wDS2avOa9G/bC/5O3+KX/Y36t/6WzV5zXxtX436n0tP4F6EbKN1NRGf7oyT0p0h2DJ6VyfxX+KGn/DXwbcXl1KyNMskUYUEszBCeOP85FTTjzMmU7HhP7ZPx9k1KebwnpUwjs7dwb2YSbfPftHx2HzZ+tfObxQRFpolUyOcFkO7b7AnoPpVzxjcyeIpLoySfvrpXLlh83Jzu/AEdKwtKig8NRx6eJl8zYDtZjlv9rnnmvawtKysePiqz59w1fSri9dWi1D7Ft6kDP6dKlsr1bix+yi6kvDGctJs27j+BqDxBoEXiKDy5PuggkcjP5VhWmraT4KlXT47iOFlJO3YzH8yCf1r1oRsrGUnc6a5ihaEtOsbLGM5kGQuO5qhpPi3T9almjs7iOZouCqggKB1xUlzqUd1Cy/fjkUDOOoNZWnaHZ6OztZ2/kmTJYqTz+tVz2M3G+xsXl95jZz2x+FZ91PvHU0Z56bvbOM1FNGzJuijMhkcIFUj5WJxgdz+AqZVEio0myM8hi25Vxy2PlX/APXXqv7OP7NV58YpV1jUpBpHg20Ypd6g4Ie6cMcQQp1Zmx94cDpXcfst/sg6hH4kt9c8cWUcViwWbT9KkfdNfHqrMEb92vT/AFmAfSvqqPRobKS0k+ww6bZ6cgjtLMKGS1C9WO3K89ecnJOec1zyxCRtGhrqUPC3hG1srGxh/syOz0XTRssNKKjCEDPnz7s7mPJwcjnpVqbWNI8Iafc6prmp2mnaaHG+a9kWGKMtwqqDwx5A46D2rC+L3x68MfCNYhrN6zXl4VktdOjV57i7OdwUKuSqkEfMcAZxXz7cfDjxZ+1D8Rm1vxlZNY+GbXzP7N0a5kS4VAxO1iI8LuAPVsntXLKpdnZCjodr4u/a+1/4w3E+h/CHTpIbcMY5fE+oxlYok6b4FbPPpnNX/g7+yVpfhDVP7a1drnxH4ouvmudRvcyO7nnK54C/hXpXgLwDb+EtNhtobSO3WMD5B0AwMd8Gu2sbWNI+mGb3rnqYmysjWNJXMPSvD7afcbtsabuhVBmuo0+zEaZ+bceT70RWqo2cCrkRwPauGVaUmbRp2ZNbggj/AAq9Ef3dU4pACKspMoSqck9zX5CmTPrU8EtVvNB//XTonArO5RZ836Ueb9KiooMyX7VsNIbgls7v0qtLG7N8tMW1lY8igzLRuWLf6z9KcJ8feaqb2sqdFNNMErA7g2asDRW6/wBqporzHV/zNYhSSM8q1OV2bja1SwOhGq7U4kX86nh1s9TJ94bTx2rm0yzY2tTpkcQOF3KdpwfSrp/EDkkjoFv9lu0zcIx2k/3fevzP/aZ8bN48+PPiy88y1uFj1GWKOSHLIyRttH5ivtj9qf8Aab0f4IeALy32yNretQyQWFjEwaSLhR9ockEKisf4uue+K/KvUPGM3hD4hqrNI1rJteVFbO/JyffrXvYFanm4ufu2O41ANszVgjdb/SsebxNb6qLY20mVk3bgR1wuR1960vtI8r71et1PF5XuQuctQ0204xVd7r5vvUNdDP3qBSuiwsm4fdpH5ZT/AHelQfaVP8VNa6weDQJM7b4NeOh4G8bWd3NG00KyLuUegPP6Zr7Mt7yXxx4P0+403EUN/EkskhP3I2UHA9wTivz/AIr7y/m+b5Tnjv1H9a+tP2Kvi/Z6p4Dbw7dXLR6lYuWgjkXPmRM24gHHuevIr0sHU0scs6N9T1HS/hta2MkcrSNeTKN584naT3x9Kf4q09YLDzIY8yN8zbRhVFWta8Vw2DMjOVORgEYwoHP5mqUPxBs9Qt7lvLk2tGY1JHt6VtjP4ZngotVjkJSJJT/u5znqaIbsQxKduSTzQgEKLG33lBb8DTR8sXK7gOlfn9TRS9T7KnrDUhuLnzHxiluCuKYiP5n3f0pspKj5qCSJziq9zu8s1Yd1x0qGU7h7YoAybhf3uT96szUYsHdWzexckiqF3D5kHSgDIkO5Tzzg49jg1T+Gs8mh/Fa7t1+WPWrVJE/66JjP581dMO3du6NxWTrl+vh/WNN1aRW26fdKzMvUIcqePxrooyswZwH7V/hOTTviB/aUUf8Ao+qQCR8DhWHH6k140sXkXCsqjdu78ivs74o+DIfiB4QuLONY2mkRmgkYkDaSHjH6Y/nXx7relT6LePZ3cLQ3Vu5ilQnvng/SvWpTVzhqtvc9K+FGgaZf6l/aUdpH/aW0rJIB8xPc+le9fD+UvPCkbRySZwwVs4HGa+Z/hp4iWw8OeIolEn9oXun+RYsDtCTBhk56fdz1r1n9knwHqngfSZP7Xuo7yeZ5Qg8zzMhtnHp2brXdfscM9z1XwZ8ctVufj/8A8ImvhPXodKik2rq0ieSu9cHcMggrXXfEr9grwH8W/Gi+Ltaj8QLrEjRtLNbX4CybegZew9cY6VNJ8S7H4d6XHqmtawunaZaYgZ5X4Vm6ALnJ/AV2nwx+MXhr4p2i3Wg6zb6wsZZXEYaNgVxnIIHTcPzranJmMmzuNH08RWsVvBuaO3iVIs5O0BdqfgODXK/s1eD/AIqeBPil4ptfHGpWOveH72QyaTd2zKrx5YnY8YAAwMDgdq8i1b4W/GDRv21IPFWk3q33gm6kiM0Z1GKH7HEq7XUwvy3PTaK+vNGhQrG+V38fN/F+dbSu0RzWaPY/2YPFk3hP49+Dngm229xqSRyqg+V8/L35x81ff2qQtY388P8AzzkYfhmvz7/Zc8G3njr9onwdbWcMk8VvqcU08iqcQAYbJ/79sa/R7xno7W+vXmNuPMJ+vevl8yjZnt4VpnOyM2zgVVhdmm2t0rSKttaquNsvSvLN5AVjVAzHDHvUM5WN8o33hzUd2218Y4ojkjkXp8woNY7AJWHp+VRyuTUjFc1Vu7pYZxGThuufUelF2Fke1fATjwdcDst44H/fCUUz4AP5ng25P/T6/wD6AlFfRYf+Gjyavxs/FL9sSH/jLL4pN/1N2rf+lkteZtJtFeqftjDH7VnxQ/7G3Vf/AEslrye56n618bV+N+p9MvgXoNadZo5N38JA/DNeP/th+AL7WfhnoeqW1nc3Vnbalded5QyIkCIQze2Fb8jXqN9dLbHbuG2QHcAemOWJPUYBzxXpf7JHjbRfixofibwjdw2r6n4VYPdRSxh4ri0nTdDMR1YMBIuSedrVdGPK7mFZ3Wh+WOpWMZRWRtw+8CR83JP6f4VzVz4RtYNc/tLa0lxj7zOxx+BOK/RL9pX/AIJt2Otpf6t4Na30fWCfNOmXDhbGbsDEcZjBwflJIyeMc5+OviB8C/Fnga5aPVPDOrQ3S/6wQ27Txn3Vo1Ix+A/GvZo10keVUw7buzzu4kL/ADD5e3FYOraFZ3l0ZpLeN5T/ABHrXayeA9au2EcOh695h5wNNmbj/vitTSP2YvH3iobbPwrq+OomuoDbqPz/AMK6frSQvq7POY8IeARxt6dBUjbjE3y7eDkg4Qj6n+L68V9DeD/+CfOtM0b+IdUs7SN1yUs286ZP9kn7gPsRn3r03wF+yN4P+H0xm+yw6q7/ACltTZboZ/3fuL9NuazniE9hxpNM+UvhD8CPE/xpu4W0u1WHS5G2z6hc5ijgUH5tndnAyR2Jr6Z+Ev7IXh/4d6rp97Gsmsa9aDc9zd/8e4b1C98cY4716xY6PHYCOOCFFRMCGJAFhU9gFxgVx/xY+Pfh/wCDFtdT65fQwyQAH7LCwe4kc52qqrhuSOoOPaspVObY6Ixsj0LRbMafqLSEfbNQ1BSzyYHz9yF3dAvp2ry39o39qBfhjd/2D4dhTXvHV5GY4NPgbdDYrn78+Pl3DOQOhGM15dp3j/x5+1TbyYmuPBvhm5l3RLYybdRuFJz+8n6ICDyqBc16v8Gf2cNF+G8H2hFkvNUnIee9uX866nPffIRub8T2rKc1BXkaQTb0OH+CfwDmfW5fE3iq6k1fxRqYXzprhdot++yPbgKBwOAOle66Lo0dhKcA8Z4YZX8jxWnb6WinHlqvfG0VeisABmuKpiE9jsjGy1I7dVJ3bsj69PpV6CRXcbR+tVBFiSrltBhN3vXJKo2y47l23Hz8mrBk+WqcZw1OaYuv0pczLLBvvLOKt2kqyD71ZXkGQZyaF8yE0czA2DMobrTZLvH3az0jMgyWYH2NORCh6mtgL0ur+XRDq++qMkfnU5V2DHpQBpRawAwGPxq4mpxqOawacWOygzOij1u3Jw2KSTWbb0X865wBfxpHChc5NaAdVZ3Frcv8yjp61bjsrVuVYfTNcT/aX2VMqx9Khk8XvAPvH8zQUkegLpsXVdp9s06PSfPmVQqncwGPWvNz8RpITw3T3NOX4tzW5zuUFecnPH61cJJMzlC58c/8FF9RuLz9qfWIbgn/AEPTbG3jAUKGXa8ueMdS7A+u0Z7V85634D/4SPXLW42hX2hc+w6V9Uft1QR+LfFem+KFXbeXUf2O6/uuV/1fvn6+leK+B/CNx8R/Fcel6fJ9naNt11eNzDpqfxNIP7w7Dp7V9Lg5R5Lnh4qL5rHA6hp0OkapFaq254AQ7IpxGSMHd+FaST5gzXv3xe/Zp0PQ/BLXGk3kjW+lWs8ks0r7rrUH3bi0m0AYI4UY+UdK8Mj0j93XZzXOOUbGFLcsH71Is7M5rROhsW6D8qtRaQsaHcq5+lVDcw6mNCktzPtX+VbmmeANS1tvLghJk7Z9K1PD/hlSVl/i3cDtXs3gTwdca/NYwJLHay3OYo9owWwMn+ddFOnzOwpbHlOm/A+9tVDXcqx9K7z4T+Ev+FfaqdQt28y4MboGOfkDYJI/KvZ/DH7Pen30qteXWoTLGeRuGCfyrvdE+GWi6HbLAtqrBcbd6gtjpzxXoUcPZnPKTPI9G1WS6uFvLqaS6wGPlHtzXbaO8et6V5ywLCOgWrHjjT9P0XxLDb28Cws0QfKqO/4VueCfDo1C4ClVZV7tXDm0nCFjTL0nU1ORTSyszbg3pkDtUkGmuDiOORh7ivZIvhhCsauwXB9AKsJ8M7YrxlfoB/hXx59PT2PFm0Z1PGfypk3h5nHIavcE+FMJ/hb9KmPwttSn3W/T/CsxHgF14c2RcMwP0rK1HTXt4cjcT64r6IvfhTbmI/L+g/wrJvfhFE1sf3f6D/CgD53lVyrblb8qoSBvN29vpXtviD4Wx2zN+7/DA/wrzvxD4aWwuWwNu2oLOMntt4+73zWTrunrf2Mlu/Sb5Ppmuqmtvlasy+sN4xu8vjlvSqjKzFLYk+E2unXPCEUM3FxpM8lpNnqcECM15p+1N8HZC/8Awk1lDuDfuryNcnYQRh/zxVT4sTa34Hvv7f8ADt5Na3CoHuLdnP2e5YEKN6AjIwT16da9e/Z4+MmlftB+BgzQ2y6hEPK1Gwdc+Wem4Z/gPbPfFdkK9kcdSm5ao+N7GWbSpdwkOzquP4gTyMV7T8L/AIwQNaW9nKzRhSe+OT7/AImvZ/EX7C+h+LVluNNnlsZmY4iwpjz7ADgVyo/4J1eL4Sr6fcaPNJuG0zS+SBz3POB71vTxlnZnP9VbVzqLXw9oPxS0CTSfEVrHqGm3zLI2W2srD7rKwwVI7Y716B8D/hR4N+BNlJH4dsZ7Vbh3dvNuTLuL7c8tk/wjp6U34T/8E5Piitksjav4Hs7fGd8usl9v0Gz9BXunwy/YNv7E2/8AwlPxI8M2kS/6xbCKW6kA4xgblB716EcYjP6q1uZth4uhvUU+Wmc9fX/Guq8DWt54s8RWOj6XBNfanfSBLa1tl82WYntsHKgd2PFfQvwc/wCCZ3gHxo1tcWVx8SvFMisp3CaDTdNnI652xvKF9vMBxX278D/gH4J+BdlbtbaV4b0HWFXYv9hWv+lEAYInupN00g/4GF9ABxXbHFJpHPKjZjf2Ef2Vj+zp8Lkh1a1DeLNccT6tcBt4sd24Rwo3TKo5UkdzXYeMPEcet+KtZjt5I8WM32ZiDnDqAD+I6fhXhv7VX/BVfwz8Abibwf4Xh/4SDxveAxQQoxNtps5ZUUT4IOfvMACBwPU1p/BLS7zwp8OtPj1G6urzVLxTdatPctmSS6kYvJ+TNgDsAB2ryMfZ6s9DB+7I9JkPMhVl24GMfTmqskqhFZf4jjNQ218v3WUqwHIzwaJB5GlmZWZVDYwOlfP3d2d3LfUkuYVnU7dpbHc1QcmC3jJRdxyCQetaISMyqxdm3LmoZFXauOnNFwRVj2yDO2mzaUt/tLfwnI571cdBt4A/KoUUhupouaHrn7P8Rh8F3AY5P2xz/wCOJRR8BmkPhe+Dbdq3pC7RjH7mIsPwfcPpiivpcL/Cj6Hj1fjZ+LP7XrLP+1b8Ul9PF2rD/wAnJa8mvombco7DAr1v9rgrL+1j8UlKlceLtW5Pf/TJa8v1aBpISqnpxXxVb436s+pp/AvQ5HUFZDuP8BrwH9pTQdY0fxrpfjDwzq19pGs6bJtaWyb9/sRhKu1P+WnzLkr6hB/FX0TeWTBWDOK4jxv4T/tGMMq7jyD+tdVHUwqHX/s2/wDBR3QfjhZx6H44aPwv4qt4xG1xNtSy1IjPzqx/1Ltx8nY5r3F9MsLy1in837y7keKTzFI/316n6+tfnL8WPgrpurpMGtQtw3zB2UsGI9AQRXl9vrfxI+CvmN4f1zxBYwpgr9kumCjr/ASVH4D+ldsaSbsc0oa3P1cu5fsafuryfr0+b+tc7rV213ujkaeRG69Ofzr8wm/bQ+Oi/L/wmHidT1yoiLfm0f8AWsTxJ+0h8ZvGMv8ApnjDxLdN2WSfy8f98ACt/qouQ/Qnx98RPD3w7jnn1jUrHS4owXJnmQNgDJ+Xv9O9fL3xb/4KU6fHfyxeGdFk1G3jJ/f3p2RyEdx/s/0r5ttvhF4o+IWsfaLiO6ubiZgXeQMzMfq3WvcvhR+wjDqPkza9FcS7gP3ZJUD/AL5xR7GEFeRUYGfpX7Y/xS+Ndm2n6BY2OlQ3B8l7iH5plDcHae3XrXafCX9jE+INXi8Q+LribVdXmcyyic7+eMZ+nP517x8L/gjofgOyih02wjtY48cZ+Yn8a9CsdHWNf9XXLUxkU7RNI02ZOgeC7HR9NigtYYwEUYwMADHataDTfLVfl247DtWhFaLEB/KpBCT/AAmuKrPmNIQadyrDDgVIU8o59asJbnP3TUn2cN97oOlYG2pVii8v5vWrVvC2fZuafFbiQ7W4xUm1Y2xigNRywq1EFttb5/wpVZc/KvNC3Jlb5uMetAEhiTFLGm3mkzSNJlT16elACpIhkpz7Kht4lZ87cc8VPJGo710XNBE6U9IsmkJ2nnikNx5S5oAdInl81E0ihCxqpcamWJGRVKe5cqcHii5Mo3LUt9jOKo3N5n5t22qclxJk81VuJGkPLdqLmJcuNUxF97PNZV5qhzxTJCydWqneS72qosqJFc3bsSapS3DO+09DwasS96o3zYNEn7twlroc18VPA1n8RPD/ANhuriTY06T+an8Wz+CobO1ttGtvJs7aC1hj+4iJ5dbdx+8HzVk6hPW1OtJxsjkqUNbnmX7UHiiTQfhHqTq/lvcTwp/4/XjUd15tvvrrf25NeMPh3SrGNl/0uYtIO7AdT+FcB4VuRfeH7d8hiYUDY/hPvX0mB5nDU8LHfFY1oZeanEvNUFkjihXdJGv1bFWrGezdv3l1BGuOCGDZrt2OOLsejfA/wTYePdaktLy7W1dQJo1PWbZyQvuM5r1HWPDb+BdV8G6lpV751nZ3U8MgdcuwkA6/jxXjXgHxFo3hzUre6+3eHre6glEqz3moKoKj+HAOV716Mf2p/Avhix8rVvE2kvE0pngSwb7Y0DHqDgn06mvRw9P7Ry1m2z2zR/GkdwdkkMizrwDtxmtaPWJPszyFWC+p7V893/8AwUg8BaR5TaXDrWtXCnCxQ2QgGegJJAr6u/Zh0ex/aS+C1n4seOTTYNTeRfsryM05wwBzj5eOhHXNdjqezXNIxjFt2ONvtIg1u6t5vL8yYrwf7tdl8OdCmgvCrR7V9a9S0v4F6No8MaxxvMFX+PPBrc0fwLaWU8ax26omflXByK+fzCtCqm0exhaNtTHt/DnnoufQVoQ+Ek8xa7q18Io7Ltj28VcTwbgd6+ZkepA4y38JQ+ZV8+D4ZY/uV2Vl4ZVh91cfWtOHQYQv3aDY8wvPAEMsNU5PAO22wF4AwK9iPhYTQj93xjioZ/BW62xtGcdKAPA9f+HymBsp96vIfi18Llh06SRU5619gal4C3K26P8AnXH+NPhfDqVk0RhLLjoM1AHwHfaFJaqSFx82M1i6hYfvOetfX3jX9nW3bQ5GjtXV1OQcN6Gvn3xl8ObjS7iSN4nVl5GVI4pFRPIPEemJqEE1vIpaOZCrAehr5y1S41z9l34o2+taPcMnzFgEGUljIIKt9QSPxr65k0GQs26Ennn5TXKfED4T2PjDSWgvrQTw7vlzlSnvmtKersOWx237O/8AwUJ+HXi+NrbXPtXhrUGUOzbd9szHqA38P+RX0TovxV8EajaRz2vi7w/cRSchftO1j9a/Mvxh+zBdaHJ52lK0lvnGzaWbH86wZ/htqlhGfNtmAUfMCp6V2Rw63OZysfsT4W+KXgPTYfM1Cbw/eQjksdVRQB9K7Lwh+3p8G/hld5t28GW9xb5Jdn+0uOn59K/FPQfBt5MVWOwml3EDakZJNd14P+DXifXbuG10zwvq001wdu77K20euTtqrJMmVQ/Yq/8A+C8Xg/RrdrPT7jUtYjj3bLewi+ywN+PpXhvxG/4K3/Er41apLpvhnPhOzuTsgWAfaLp8/KF3dia8X/Zh/wCCTXjjxvLDda0U0uxMgLptZWKHn/OK/Sz9lv8A4J5/D74B2tne2ujxXOtbQXvJmZ2HHbJwK3+sWVjn1kzjf2Ff2E5PCp03xj8QkurrxbdTC8t7SY7ktsq2GuB/z0Yvu+oFfbmnQNIY45DkEDkjBPrkeuRz75qvo2g28FgkkcZAwMfStB/3RWOD5JmGd/p/nmuWtV5lY6qUbEhGJy21mGccU1/F9vb6h9jnaSPGNo25yadJeMqqqALs4yeopvktcrllVmB4OASa8uXxHV9ktC4OWZtvthcZFCpJcru7VVkikeQKjGNl9xzVuS+WDaN2WA+bJ6mmZib2Y7akSPAPy1Gb1cBm2rzwc9TTjOGwWY/NyM96DQ9e+Bf/ACKl1/1+v/6AlFR/AL/kTLj/AK/H/wDQEor6TC/wY+h49X42fjX+1rozy/tVfE5v73izVT/5OS15pdaM+xq9r/avs2b9p34jt6+KNTP/AJNy153NprFen618fV+N+p9LT+Beh5zq2hyEN+NYd94ekkTHtXq02hCRf9X+tZ9x4bQNtMXv1rMrU+ffF/w/muiZFbGw88dc1ymufDaa/sWUqP8AvivqC88ARXsLfuM/8CNc9L8O4reUqbf/AMeNdFOpKOqMqkb6ny1N8EJJWAG3d/1zFW9J/Z6MsjGTbjv+7H+FfS//AAgMLSf6hendqt2fg+OJNvkp9Aa2+tTMfZnivg74Q2uizJnbuXBHyL/hXqGm+HFtoI9qjgegrcHhWMTZFvznjmtJdDZIFAjrGriG9GaU4R6mDbW3lseFq5aItXX0GXP+r+tPh0Voz/q64zthFJaFWZcsNq06Eso5WrZsGFMNowkqojkN27vaoZxh6t7XTjmkYFuv41RJXhKgc1MApFLHb45xTxuJ4oFLYaiKW4oIRY29al+fFNkQuhFBBAM549adUbDyj9KU7XGR17UATxsopJ5lqjJdPHH143VWMkkiNtoAtPe4f5qhn1ISgrVfEgZt1R/xrQArnLUyaTC06QHfUFz92gCCQ5eqk/3/AMKloKbhQBRuF3L+NUZk2tWtLF8tULqLP51UQKEves6//wBZWrLFwazbyPG76GtIkyM+f/VNXPXEnm3G2uhuP9VXP6jH5VxWtP4kY1JWifKX7bHiAS+OrGx72kG88/368a1fx3NdaFb2MWYVt/vSoxG/9a3P2ivEreKvi1rl55u+P7RIiHGMRp8mK87r7rBUrUkz5vESvIHuJP8An4uG/wCB0kdzKjHbNP8ATfS1NbQLIeVzXU6PNoc/Py6kKJNqEwXMjN05auk8P/DS91OZSoGPTOaPC1lFJfpujHWvcfh9pkEdt9zHPr7CvZwOEV1c5amION8M/Cie2ulM0W3gKrcfKa/XH/gmBooH7FejQRziX7HqV1FLx9xjIxA/IGvzzt7SF2RcL8xwc+nFfpP/AMEoLe3uP2cL60twshj1aRmQdjgc/rXPn1OMKT5ScJ71RHull4bzao27c3pWpZeGfNUMQBt9q6HStDAHMe2tG00Nd/3f1r89qSmfQQhoZFhpYG3HO32rSg0ppB92rS6WI5m+X071tWViOOO/rWJtAybOxW0ufOaPj+5gVcks/OkHlxptHWtCPTovtrsyNu/u5NWNOtbeORsL82OKDYz109go+XtR/ZOa3oLbzAPlq1DoolH+roA4+90Ey5wv6Vl3fheR1wEX8RXqEOhII1Xyv1qQeGIpOsP60AeNXngd7iBlaMEH+6oNecfEf4Ip4gjZTBGNvfylz/KvqxvCMKDmHH41m6l4UtW+9FuH+8azle5UT8+vEv7I9xNds0e1YyD0Rf8ACsTR/wBiK+1S0mWSQrk8HYD/AEr9CJfCWn4b9yob1yaNK8GWguFaOOPYDz81EZWkOWx+fUf/AATj1LVJEVbrarHq0Qx/Ktqz/wCCUt9dQfNNbuCOSYk/wr9E08LRRJuW1WRQB061qaVZ2M+1ZLVlZenXg/nXVKoYctz4w+EP/BMi08GxrJ5lu0rAFw1rGR+BC19AfDD9mnT/AAYkKm3tmaPPzfZk749q9ng0yEj5FUe5NQXFlfR3arC0BhyON1ZyqFxpXKWjeEIdNjCxxx7ieAEAzW1aaZ9iiZ5Bt+YjHpUlsha7aMIqsoycetXDbxzwbZV8zncQaiVQfsbElhCHj8sM2O1SRMocqrZePgimWcKq3yj5ew9KW3G2c/LtLnniocr7By2LJiklQsV2/wBalVsRKF+9QHaZvJ3blA6elMikwvyfezipdwGJKUn+brQh86Vmxkd6klsNo+Yc9etRiIqmF2/Q96kB8FtHKz5YtHgjjsaZYTTakl1FJA1vDasDDI//AC1HcU5opILXcq7DkbsdAO5P0qYxzC3ldyDIpCgL/dPU0Gh7D8BBt8H3X/X6/wD6AlFJ8A/+RPuv+v1//QEor6TC/wAGPoePV+Nn5VftRaS8n7SvxCbb97xLqR/8mpK4Y6DmP7lewftH2Qb9oXx42373iLUD/wCTMlcW1ioT7v6V8fV+N+p9LT+Behxv9jLiqU+jR+Z93Ndx9hVuBHn8KiFrCX2sq7h221mWcgdDVoRtXbVJ9BzJ/nmvQpNFWWP5Y1/SqbaErSY2Ln6UEvc4Wfw1GOfK59aj/wCEeQfwV3kmgKpwyqP+A0o8PxsNu1cntigk4L+wF/551MNB/d/drtm8PKn/ACzGfpUZ0fA+6tTIqJxMmg4NRyaNXanTEkbhfrxTJNGQD7o/KiJpGVjhbjRuKqvoTM33c16BJoqhM+WuPXAqH+y4/wC6B+FUVz3PP5NBk3/coXQyo5Tmu+/smNj/AKsH8Ka+hRk/6sflQFzzq4snjbCjC1A9ptTdXoVx4eRzjYOnpVWbwirIdqqvtigmT0OBMmTj1oa02Dd612h8IhSPkT64FNuvCmFyqqfwoJucUYc+tVnSSObC9K7X/hHGJ+4v5CqVz4aZZMmMflQBxpDNcEetOuI/LSuqk8Pbmz5f5pVW98MmWBlyyk/3eKXMgOVl70Rx5FbsHg57eRvlaTP97mmXXhyXb/q/Lx6CjmQGCwwabN9ytObSXRtu3OPaoGsGQ42mjmQGS/eon+7WrdWm2MnbWRLDuf8ASjmQEU9Vbldwq1LHsX8aryyLt61rCSsBnTxVRuYuG+laUqHOaqXCkg1oTIx7yLMdcT8UNZ/4Rzwff37fcs4Heu+v/wDVZ9K+d/28fFkmi/DK10+GRom1W8AfY20FEGWVgOoLdQetdmBo+0qo58R8J8Za7fvf3k1zL964d3qn5v1qze/PKcfdX7tMSDFfeUotRsfKVPiZWqxYx7mrQg09SB8vXpUlrbpFMq/xNnAx1x1ropwbkZSvY1/C/wAl2v0r1XwPcfaYIYP7wzXl+kHZMvuSo+td18O7tvttuyt2Za+jwcUkcdTY9Q0hv3yt/dIT86/R3/gjPf58CeMrf+5eQyf+Okf1r8zNFu2i+8fl3ZP5YH86/QL/AIIl6z9s+IXi7SXkI+1aYlxGh/jKMpP4hSa4OJNcNZG2BkuZH6Fpp24b/wDY3/nxT0tmEa+XgtngGrlhZHcqjcV5TH0P+IrUtLJIY5S4ICjJwPSvzGpK59JT2uZsumzSLH5aR/7ValtYpZ225Uj8zrU2kaazgTKxkik+YRt0Aq9LZ3m/dawxS4/5ZMxAJ/HisQM/7B999n+sqzaaR5ij5O9dQ2kbEXKrx14pNJs2MxfA246kYoOgo2uk+SBmPa3Y+tXYtKZxtZfl+8a0VRXJ3ttVem0dTRs3KCW+Vv4qAKLwrAVC/u1X5vriiVGadnxiNkywqfUtJivViVpGbyzvUjOVNSXNuyqDu+bvWZBXCyyxKG+7jIqu9nuY/d/Grbw7l4bmo1g3qx3HC8UGsdijcaVAE3SQqwGCSKi/suCO0/dtvjZzIq+hq/NZeZG22Rv908Zpv9nqq8L8uzGcd6Ci1pd0rWCj/WSNw3tVuGHyp/L2+9Z1jbLY3C7W2q6gFOw/pWj9rkgZ1bdtjBY456c9qDOe5Zii+Y54btTvJ8n52eP5qq6RcTXmmeZuH2li2Nx/LNSQW83kt9u+zzc5C4zj0oHTLVrD5b56/SrDlC4qjBMzzssPyqcYA4zWlkq27DHn1qZFgjNFJuVvlqW0tVSCR1DHJJ3dqijjKzNNub5T9yrSIYLZt28seUGeBmpJkDXrPaqCytgdu1Qxo8itt+pq9ZWEEcKzJHHFPtw7Iu0nNUoomsDKpZpFJyN3agksw3+6Isf4eKS8AhiWQ/xc1FFznbx64p89wdyoy7lUcluTQBXj1GTW4GjXZtj5Pl+n+17VPBeJPBuj25X5DtqRnRk2xrtBUkhR96qNrJDe2hmjhkhZX24Kbc0Ae4fAP/kT7r/r9f8A9ASim/s//wDIo3n/AF/v/wCi46K+kwv8GPoeXV+Nn56ftBad5vx58bHZ11++P1/0iSuKudPAh+WM/lXqHx5s4h8a/GUrD5jrl9/6UPXF/ZFj+Y/MGNfH1fjfqfSU/gXoc/FpTvbMQuGxxUNv4dwm5xljya6ho/LUqEzn3qH+z2AztrM0OcfS2Z8bWA7cdaa2lFD905rqYdOVuadJookbd6UEnLw6SZJPmUrx1Ip03h8hgytz6CuqTTAqfMu78ajex2qQq0EnNyaSzQncPujP1qqmkecdqqfyrrE093bG2pv7C3Dp83aixSOG/wCEakW46Nj6UXGjfZlyytge1dmdBkSTdTpNF81cMuarlZSOJh0uO5gOB+lQy+HwP4a7pPD3lR7VH6dKa+isExt/SjlYHBJoZDYUfpU48PsyD5W/KuwXQ2Vvuipf7LYDpRysDhn8OSZ/1f5rUUvhwsvK/kMV3p0hpR6VG+g/PyuTSsDPPW8MFv4W/Kkm8MYXhGJ9MV6GdDOPu1E2g5b7lIjlZ5sPDLBuYn/KobrwuXbiOT8q9Kk0BQCNrZ7UR+HWPUUBZnlreE2Uf6s/rULeFGPVf0r1abw4VPAqFtAZv735VPKhe0Z5r/wjf0/Kqd74VLhvr6V6xJoOT8ysaqXHhYMD+7PWjlRd0eOXvg1gC23J+lZN74Udcny2/KvbLnwz8m3bj2xWfN4RZv4M/hRyoLo8J1Lw07bvkbP0rm7/AEJoZG+V/wDvmvou88Dbw37que1P4Zi4Zvl7elHKgujwWTTJB/C2Kpz6ewP3G/Kvar74TKE+VcnPpWDqXw7a2B/dnrVJWGeUz2+2Nvl/SqM0P7kcV32reD2gWRgjfKPSuWvrXjbjb1FaQasBy9+mLZq+MP28vGK+IfH1ro0cZRdHgV5G/vyMMkflX2zrNuYrduN1fBX7V8B/4aQ8Qbvu74gffKLx+p/KvosgpqdXU4Mwk40uZHjK2RbqtPGmAj6+1dJPpm5sDFEdmvlr/s+1feexV/dPjvbX1ZnW9iR5fy/e6VNaWQVoWK8+a4/StGNVQxj/AJ5/rU9vaArCAf8Alq56eozWlOm0yXVKsenNPdEIpCrPjP4V0PgSKSGa07bZHTr3plhaGKSQj/n4z09qvaBGwaJcf8vDEV6VE5qlS52Ph+5Rp423BlEwVvyr7T/4JBePIfDv7Ynh+2mkWGLWI7izQtwrMU+UE++D1r4d8JwFdPjkHVrg5H0Uf417D8BvGFz4N8eeHdYtysc2l6hHMpPs65/TNLMqSqU3bsGEkozVz9+49Llt724ZkyryHDr8y4OWGCKsW+lSTysrKzRuMdKwf2bvGEnxG+CHg/WZGDSaho9vKxHTIXaf1r0S3+UYP8q/KcTHknJeZ9bRvKGhV0nw4unQqoUggYGewq/awoEdlZf3fLe1SxzqjfNwDxknpTpbiGDUET+9j5QM5rlujX2chiybl3IwkHtzSKWMRLL9AO9OuxJJHthZY/oKGjQJja1F0bcrGkDbj7vquM5/HpSMjPbrtHQ5xntSlgZN2O2MU0ybRTDlYZxKvsPmOelKird8tIu7sM9ajGZnZc8YzjHWpYhHBJGqptA984rMVyGdmKY2Hj0pts+G2rGxVxgt2U+9aUgWSJ1Zt24cYGMGqNrbyRj96csnKnGMD6UFR2Hvbhh+8KrKo+Tn71Uri5ksXi+Vm85gHXacoM9cVoxz4+7jnrmlL4kjk7w5K8d+lBRRvYVlZ4Pm2sSAy9cEcH86uaNEyWSAMzSQqUIPOe2f1qqbuOISL03MXzjo3+e1LLcyW0C3EYbOMMdvbuaCZI1TLa6ZbNPO8MK45ZjjP0FJbXMOpxCa3Mc0J53CmaTeC4cxyAt8hfZ/ep1zN++VVtpNuRx2qZDiSac/+lz7V548sDv9K02dAuNrbs9AahkmR4ETasbjhCD92gSeW0gZ1/d4CjPWpGJJBPJfmRWZY8DC7TVxJndNrN07kYrnLax1KPxjNJ5m6zdgRz0GD/8AWrcaAyruVD9c9aAGz3Mkci7ZVPPQGoNe1aazgWZbWa5GCMRj+dXLbacKW+ZvbpUzpHFJ5fJZehoAi8PXM6aeu+Hy/M5Abgj60y9ulJbfIqqp+Y9/y61amG+32uv1INVoUWMbY/lZejdcCgBBqG3ULdY43MDKcTAcKe1TXEzFkUyKAoJIPc1GbqKJvLkXc0nDEjg1StB9kg8mGRVhViSoOdxNAHun7PrB/B94R0N8/wD6LjoqP9nL/kRrn/r9f/0XHRX0mF/gx9Dx63xs+Jfjjpn2z4z+Lh0/4nd6f/I71yWo2YgWNPL3dsiu++NNv5nxg8W7dwb+2bzp/wBd3rAtLJWi/eLluvNfH1fjfqfS0/gXoY0Wj5VS3y06bTvNO1fT0rYnt2Y8DiplgWOEfL82azDmRzseitCfmwPWpmtI5E6/drZktyzbWX5W745pktgqL8qfKOpoEZMNguPlINPXSfNP8NXi8Nmu58DJxV3TbMXsRZV/EVSi2K5hrpHlM3yn2xQluQ20hsnjpXTJY7ZFVuxqreWYNyeu2rjBjWpmR6TuXnb+dOTRUbrxWjFBhgAvenTW7qwCr19qvlsUkZc2ihB8q5qE6U5H3eldHHpjytt5xipf7JMUXIPtQPY5MaTuPK019Fy33a3p4Wgu408v/WdeOlX00nefutSYcxyUeg4apv7D5+7XTPpWx/utT007k5VumelQ4sV0cs2igL92kTQstkLXWrpKyo3UYGRUcOnqJvLOd2M1PIwujmW8O71OV/Smr4fXpt612MWmbv8A9VP/ALF/2ePpT5GBxT+G9h+6rfjSL4fZv4V/Ou2/shf7n6VJHoq4+4avlRnyM4WTww3otMHhWRv7td+2jKw+5+lNXSFRvlU0tCjzyfwgwf5lXntSR+DFc/Mq16RJoKyFdy8mozpW1GCqfl9qNCeZHnc/gGKYH5VrNm+G8bZ+Vfzr1hdD+Xcy8/Smv4ejkUt5ftRoHOjxu/8AhjGI8gKa5XW/hxs3fu16/WvoGXRIvumNh9KyNX8Kr5Zby2xn0o0KjJWPmfXPh2whl/dLjae1fO/jnTZbHXZoVUfKxr7g8ZaTHb2lyoU7thFfHfxKtpLbX7hXX7jEgkcn60ra6FXR5rrEUqptxnNfFf7bXgu40X4sWOtO0bW2tQhML94SRKwYn8x+Vfb2tvh91fPn7c3geLxD8L/7Qh3CXR7j7QCq5wh6/gfavYyfEKnXS7nJjo81Jo+TYJIS2W3CrdtYpLHxiuTmv5s7e59K2tL1U/YOGWv1CKTipI+KqU3FEy2e5+1TuP7PZd3zBXz+a4qCzOZOWNWNZKyMq5+Xr+lVEx8zf0aA3sMjKvWYNT7VvIu7deh89j9aveBfL+xMvXc2efYCob1Ps+oKyjd5chcZ7k11U9DnkWvC2pf6KyD/AJZzFj+QFejeApmuFt/4R5yufpvXI/p+NeXeHz5N7IuMCQ7vzr03wDiNIW7RkH9aqs/3bKoxfMmfvL+wVOr/ALJnw6aNgqto8cagnnjOf15r22AAyY7gZ4714N/wTql+1fsj/DlnTP8AxK94J7clf6179GUMv3QM1+U5hFqtJeZ9lg9KaK6Xxm15tPhjZriOIT7iP3ePTP8AeHpVwQtdSiaS48uaPooX+tNzIshK8Bhg470+2t/LVvmbmvPOwI4AOmaklLBf4adGtOdVcdFoJ50U8b4Gm/hVyp+tNYbqmkthgqu7BOSO2aBaHHequHOhsahIhuPfPSgKu1vlbLHI9qlaL/RwvdahgffJtY7WboBUgopjxNtx8u30JpHZrlvlZfQ0txFlPmz8vIpunJiM8fxbqCrWGtbsG3chR1GM1LBCz/dO761Ko+RyuWVuSKbp53dG+cnlR2FAEMsAgG6SMNSQNHfSNHtuI8A/eGIz+P8A9arM7YjZm+7uwPenWUUl0vln/VryCe1TICHTJPNjkXn7QpwHI2gL6VatfMQtvkY9cEHNZ92jxXJCt8y9R2NXre2d7VJhu3Hr6VIDovNYKFVWBPzFuuauS2wC9FJ6dKic7EyOD29zUsMLRW0bFi0kzEsD/CfagBYxIHWNdvB596nazmdGw20nqAeKYsvlPkN8w6Cm3wuLxlaN2UN1xQBBZz+RM0TxzMWP3j7VemRozuVuB270yWCTyvmY/L0IpVfeispyB370AEz+dB8rbJO4PemxWz3qKVHzR8HBqG9vLez2tNIse7uTyasm9WOGMxBWjYZDetADW00CT943y4PGevtVZrEo+I9qLnJzkmrn2/zFC++ajuJpEHyn73GMUAey/s5H/ih7rHa+cf8AkOOik/Zwj8vwRedcNfuRnt+7jor6TC/wY+h49X42fJfxgssfF7xQ3ZtXuyf+/wA9c/JY+ew8v+Vdl8WNOZvip4oO1iG1W5P5zPWWuki3g/2sFieyivkakHzv1PpKduVGCtg0LY3bvbFVbi1me44X5V71uabEmoq0iNu2tjI6D61FqV5Bp+oNFI6qN21WP8XSsWrE8pTW2Moxu+b3HSrDabttyMgk+gq7BpjebJuXbtUEZ/iznGK0U07ZHGxXarDk+hoDY5i38NC5m/fJuQDj61om3itIvLiVl+grbFkY+Mbh6ioY7H9991tx6GtIvQlmKtizsWY/T1qO0ia71GO38l9rAlpcfKK3b7TzLbHy8q3Qn1qvaLKo8uMYx1B6VrGRUZJbjE0PZsVY/MeTO0KOeOtLdaM/kjI8tv8AaFdT4Pi/s7xRpd5NhorOYyOh+7IG4YH2xmut+Ius6P4jjb7LbwwytjgDGOtNlcyPMNJ0jJbLKzY5qx/ZawszM27HbFbY0ZbKJmz82OeKrR26tKTnr2xUhzJmDND5t/G3l7tvHTFaDaUzN8uMn2rUOnx7Nyr83rirP2XEa9d1AGAmjSg4yu489O1TNojY+YrnHp0roDpe6H+Ld1zQlggXBJz70Acre6J5VnJuZVXHJ9Ktab4cjuLKNlKn5f8AWf3vwren0aG7iaNuVbrxTJNJ+w6eywDlVwg96AMoeF/LUneucU6LRfLGWPStSw0W6/c+e0e4gM7JnaPpU1zpbBmG7P0HWgDJXTVboB+VQz2Jj/8A1VuW9iYEztb5RnmrMumeYE+X71BV0crFayfwruHrUv2Bs52sp+lbU+jssnyvs9hU0Njjhm3e9TysOVnPi333AVo5N3cgVNFobFGYcc91roItPBkIUbii5JJqSDTw4b5T83fJqTnlFo59tFDNuYNu7nHFKNGVvQ/St24sWW2dl5CgnbUNnol5JaQXCvarHJgspB3dfrQSZL6DtHPl46dKo3+hROfLZo+feuye0jA2le/UCs668LQy3PmF/wAAKB3PLPFvw/jdJisXmMRx718XftKfCbU9I8Ry3hhUW0u7AXnGBk1+j2oaHH9nY7m+XoNteP8AxW+DsmuW8jOFnWQO2APu5Bp2HqfmZqulNNEzbdu0gEGuA8e6Ub/Tbi3mjSaGUbGVzkFPTp+tfXXxn/ZzuNBWaaFD5e0fLjnp9K+fPFnhTy1dWX5h1pxnKElKO4paqzPz4+MP7Ld/4fnvL/S2h+wr0hLN5ifpg/nXjyXcloWX5l2tgiv0h8YeGIbnTJIXj3Qt1XHWvkj4yfs1tbajNd6f8sbncUr7PK84k9KjPExmD0bR5roV19oj+Zu1TanPl1A7e9Q2Ghvplw0c8nlbeOaj1OIG53LPGw9AK+qpVud3i9DwHTktGjrvBl40IG7+dacsqz3J+vNcppmqGzttyfMQKZF42MN4QyKd3XJxXfTqW3OdwbZ3unaJJLN5ka7sV2nhB5rE7dnzBScZ9BXH/D/x9He3i2rQxr5mAp3dOOp9hj9a9O8Jaavi7UodP0+NrnUNQkW0to05M0jMFKqvU9c59Aa0qSTgzWlTfMj9rP8AglN4mbxT+xP4LaTcGso5bT5lA+6x4GCa+mra1Undn8MV8/8A/BN34K3XwU/ZK8I6bfwyW99Na/bponPMZlOQD6HB6da+hrb7lfmOZK2IZ9Zh9KaRI0Hlw7uoqOMbz/dq0s6yWyrUZhXyyyls15Z1p3GTQsnpUTMwqYDHcn60km3FBgMiuFzwvzd6fln5Wow8Z6D5qkiLKfb+dADGGWqrdWbXOtW0yttWEfMuOtXJJFd/und6CmsyxLubdGO+etBpHmRJJtuW2qD1zgDrVfTnW7dxH91G2t7VNHIdysrL8vI29abBEsPmNGu3zDlvc0rmg3zfLZ0XIwDg4/WqtvHHpE32p32/al8veT8pPtVzy/kJ/M+3eo5NPg1ezjjYkwRnKgjoRzRzAWrVPPZtysVVfuHqPei8jlS0McYaPeNoI7Zp0HkiTbGzLNjAZvuvV21m2N5cw3beSRUsDIuLNoRGZGUnGKfa3MttKFY5j9qsQyDUTJviZQG2qO+PWql9O1tJ5axn5CMH1FIDVV47p9rc7RwAOhqe2gMzqyx7o0zuYuBg1VtpRK6+VGzMy5YqelWrdJJ7bzNyrjjBHNAFawuZLrWpYWa22RthNjkswwfbrxUsi5MgQTJg/wAfBFNtpbOLUdpC/aWbOMYYmpLktJM2QysetACJN+5CDO7HJzmk3+TEPl+X0X5sU1ojHt24z047/WhInivY/LdehLhuh6UAF3psGoLtuI0bZyM89akkkh0+OOHafu5UDoBVfU2vDLG1isbcnf5gznp6YrTVxK37yNX24B9QcfyoAobvKO49G6cVM7KsOWbb6U3UbyKKNmljZo1OAIvvZqO+01WWNmkfaoDcEcHsDQB7X+zzcC58IXzBdp+3uG56kRx8+1FN/ZzTy/Bd5jP/AB/v1/65x0V9Jhf4MfQ8er8bPnT4pQ5+JfiI7j82qXP/AKNasO4hlMOUQMsjlHJ9PWur+JkO74j698v/ADErg/8AkVq5S+uLpNX8pYm8rZkHIwTXy1T436n0VP4UVotCh0BJIrdmdZWyQfyqRdCs7yYtLHHIeuH/AID7Vcsla8tWaaMrKpwv+z0rQtrFVmkLKrK3IwKiSTKKk9qq2UbDc2Gwdw7UQREI0czDbI2QB2FaDhRBtboD09apWarLeSyE/NGcDPYVl7NktCy2cwuFaFVMAGDkc5qyltE7L/eoaVU+8fvccGljtGt49yqZCeVUdadrEleW2SZV2cbicmnR2MbDaq4b1HerNvp2IG+UgMD8ueQTVSzu5k8RrprwyLxvExHyfSqiBIsLW525YnNSW+ktLcCZi/XOKkikWWSQKpLI2Cau2ULMp3ZxziqArX7tHb/LuOT0x0qnEzLLGCsn7z26Voz2Nx5SnYzBmwKWSwuBB5asFmOCuR0FBUdyQWG+Ej5vl7461ItqojUMG4706GFo7dY2bkdfrSJM7XDL5cjRx8E+veh6FPQn8lTFj5vxqN4nz8q8VMeNrAHa3QelKV80napXbxU8xPMVvKkP3vlHrQ0Bx96rD2kyru7CoVn/AHyx7TubjpRzBzDTEzJtVtoPHHamXmo/Y13FmdARHkDpnircqshKleQMk0W9mI7xpDH+7kTDA8g1RRT1C4+xWqzZba3P1p0MNxdSRyNJsVuVX1q+bFbmBvlBRegPas6yMlzdGHYy7ejHoKCuU0jZLM3X8qjl0zA4Y1HbXm68kt/mVourEcP9KvpG1ztxkY+8CKA0ILaH7KilfmZztbPpV0Q+Xt44akMKwjdGuOT19QKLeSS4soS53NyTx71PKZyjfYaLUFDsH7zpj1+tNitVQ7GXDRtwM8etWZ2jKbcdDng4pD5Tyb84bvRyMz5WBj39gv0pktupGcU+WTI+Vsn6VGWZh/8AWp8jDlK95Zqw28/N71k654XXy1WPlSDmtxhuOT2pyDApqLGjx3xt8HYNYgfzE3bhg5FfLvx2/ZHt5DcXFpGys38K4x/Kvv6+to51wyKciuA8VfDxtTdhGnDdQVP+NVZj06n5FfED4aXWk6hLG0MmF7Fa818T/DCO8tGZ4WXd7V+onxe/ZjXU7iSb7LHGx6nYx/rXz/8AE/8AZQ1CKzZrWz/eD+AKx/XNZuMlqmOKi1Y/N3xV+zvY6lcSZtcnJ+YY9PpXlvif9mBtKdpLWZ33NwrEcfpX6EXP7MHiSOY79PUuT13VTu/2J/EWrSFm02I7ucc16mHzPEQVkzkq4SD6H5uTfBzXLfdthG1eg9awF+GmsPcyeZbrGqHLEjqPav1Gsv2BPEd5KqDTYeT0wf8AGvVvgt/wTAml16G41TR7KWNSP3To7ZPr1/SvVpZ3VtZs5JZfTfQ/MH9l39ifxn+0L44t9K0Sxmt5JHT/AEiaMiJAf4ifTH86/X7/AIJwf8EitM/Zm1XTPGHiqdtc8WW6h7bhfslgxxkxrjcW9SSfpX1X8GP2ctP+FsKtbaXp9mzKqkRQhCwCgc+tepWemLEBtVFwMbcdPp6UqmcV2rXI+oU46oqW8LPGF27Y1+bA4y3TP5celWlQpEcVYa2Yj6UJEyN7V5tSo5+9Lc6lG0bIr2m6OHDD71TRJ5S85qVkDDp0oZd4wa57FR0IJf3fvUbDd61PsFIIlXtQL2bIUg8w8Lj1NWUWOJOX6djUT65FbP8AZzG/mNwDjiiS181l3N74xQHIxY7mN7hgPlPY+tMul+0HcQZFXgj+9TzEsW0ddvQ1Zjh8yOg1WxREDR/MY1jU+lLu5qeaPYv7x9q5wM+tQqPKuJFkU7V5B7YqJbgELYdckKueSabp89wJLpZFiVFb5Nv8Qp1un2gM38PQA02K0YSBR90dKQFpZcRKxVWZs7Qf4eKczMWhQSR4JBOep9qPsbMyljjjrRfwwx2qyIy+YMD60ANcs7N8xXaeCO49KiaZ4pCxTcuMZNWRa70VSM+XguPSmzoHG0/d9KAF8MutpcNgN8ykEHua0Ybfy1XdtWP+8x6e1YMGorNfSRKJImsxuYngMPapPE8P9raTb7ZvLVpQ+7cfnHUdKANJb+zl10WrQn7ZkBZSv1xg1PNd/Ymkbbu2n86WCBY4FIA3bR8x6/nSko/ysM7aAEcm5tVk2IityxHVaq3kcsS5t087djk9qtOGnG1eBUbSvbyjDYZeKAJoZSpCFY1ZQKbK5Wf92F3dW2nrUQchs96UFgvy9SeeKCeYdtaEt8q5k657U2PdcW80jKF8n5cf3vc1YtoPO/1nOPfFPu1AXHZuo9aCj1v9nobPCeoL/c1Bxn1/dxn+tFH7PYx4Nu/e+c/+Q46K+kwv8GPoePV+NnifxDt1b4ga4dv/ADELjv8A9NGrn7rSUnn8zb90Z6mum+IMez4h6srf8tr+4x/38as+NPMTDdK+WqfG/U+ip/CjB+2RjUYbXa26bpVy4+z2oxuK7e1alhpNsjNM65kU5WmtFFekmRfmY1BRRsFivpNx+bjIzUs+kxpqOPL2qwycdzV6TRoZLYKn7sjnNLFbb5FVju/hz60AQnSYfIZvL4XGGIouYGtbeR7bajAqEY849etWNQG6dV/hjH86e7/aI1Sp5SeUisoljtH3o7zbgSazr27uG1NYdn7nglyvI/GtS15LJ7HmpxEkKfvPmzwD6VUYjUTMSzSE7vLb5uMjvUqXixlYo7aaQ+ynAqS286Sdkmb5c5T6VYx5dNqwpRsQ311NaIZMFYVXnPaq9hOmoI00bFixxn6cf0q7Kdy/N8w9KYgHmoqjAbtTiEXYFi2r8y81JAxhf7vymgJvmzUeq2jy+Sy/wkjpRKNwlK4JE0rTchd3C+xog/coqsWZ14JIq5NbZXcv3u/5U1U2gVPsyQRGkBHzflTo7WNWyV+bpkdqQPmnxLufG7b70ezAheyYp5b79w5D+tSR2nl/KxbbjvUy6aZf9JeT94vFRiIGN/my3YVXKVzDXXyYFCr5ivnj1qhZwXtu8n2hY1jb7vOCKu3moGK7jjVf3eOfrVfTrT7RHOH+8w+X86OUrnLU2nl8FZFXjAJXnNVdMtNRiib7Vc+Y2/hkQdMnrgemKvaZFIG2zNWhNbCJNyndjtUk8xBJb7wMhvXnimJEsa7QOnFS2tx9vWQMu3YwX68UkM5lkmJTAzsAoDmIMKkxLD5fpTZI97/u2Xb+tWWJeTnqn9KbdFhEXH1quYkiCZG3DbvWkaLAqJXYpu/Ony3jKyhVAXHeqQAyHFKseFqGyv5LiORZo135wjY6CnvJ5SFmxtUZNABKu6omtFeTaY/m/wB81LbatFefL9z8BTaBNXKU+hQzuY5Yw+eoOayNU8B6TPbeTJZr5Z6jJ/xrpKq3MXmF45f3i1MgT5TkW+DehucnTbY/if8AGnL8ItBj/wCXCMN7E/411C6nDDclF3dcdRVgQRGQNu2nryaI7ilK5ytv8NNItJA8dnHx65q+mnW+mMHWFY0Ax1wM/WtW+n+1OWZ/MB71CkqyttXt27VtGRJBG9vKrOZIiq9cSZxSxzwn/Vsu31BJ/nRehmRlZY/unoPcVmyXU1verGu3y2C9B9apSZDjoa6yKw+9SMAVOGx79aqNGQu4dWHNLGGeH6Kzc98AmtOYjlLE8jRxx7F8zd1b/wCtTgf3fX5vSqWkXl1qEe3KwrjIUDp2q+1utgm1m3M3NSSQ0U1OlSWVwrS7WTrQaDWcKu7hmXoCMfrTbO+kuJcSQtGoPB3ZzWtHYwtP8ycYovbRYUjZV4XpQBAtpHMu7aze/NVLiRrd8KCK0mSOW185i26McLmqK3izoGG5WbqM0AV54/t0LKyj5fmGfWpWVsMG67QMHpUhCgfLuz71FccWch/iUZT61NgAxqkQG1t+OMdKihZ0k56UumMzWO6Vd0jAg5FR6exkhl+ZGZPlYelSBdkl3pioLi3SeLa65Uc8VDYpNayN5jK6t7dKmdWRGZfQ4oAr28cOm69Im2bzLlAxc7sEjoMdBV154vM2s3zemaWxt1uFXzmKnP3u4qSa0htHaTy1nC/xn71ADLiH7UoDjcAMD6VHZaTGEkt+Btw0eedvtT9ElfWZJbhVK20JMflyDJJHGRUepXclleRqo/duMhvQ0AFxrctmlxDDJbahfRjCWYkEcrH03dPXjHbFaEUjyQxyeXtdkBdf7jY5H4HI/Co49Ei1hlmPFwMZl96tXFotjCu1u360AOZ1EX91qpyLg5zuzTp52trZpPvNtwvt601JleKNdp+Ze3rQA6p7MgN83pVa3u42ungZ28xcbuR36VYRVWRtu75eMmgnlLQnVBxTJm8zbUdxF50TITtDjaSO2aibSYPs9sqmQNbnIJP3qCj2b9n8Y8G3X/X63/oEdFP+Aj+Z4OuD/wBPjf8AoCUV9Jhf4UfQ8er8bPGPiCnn/ELVHf8A5Y39xj8ZGrOEMiDJ+6ea1/HcQPjfWuNzfb58H0/eNWTaRyQxy+c3mNyyV8tU+N+p9FT+FDXZo8bvu9qc4GAw796bZMbuB/fqKsLF5USN7YqCireiWWwZY2K543Z6VLYwNZ2cKFzIwzlifypXmUsFZseYdo/GpL218mCSH7wIC/SgBs/7ptpOWbnmkU+W1UpdE86SFom8l4wV3ex5rXtYWiHzZlmUcyD+KgCJQsMhZsYYcmrFtFCp8st54I3HdzgVnzzxz3fkrI7SRnDL6ZrQs7fyxVJjFkWOV9yrnaOCT0phGassmxg3900rzeZRuRIqbQOwpfs//LX+7xUhi570+JNw200rEkEfys350plU2n7yVo0Ddc9KspY5dqhmiFnBuZfNDHhf7tNgOgaXUJ3iRfLhVAyS/wDPU1Lb6cxUbpBkj5l7g1FZQtdhGDeXz92tARRlsr/rF4NTzAZ9z4b8xP3V7NDIv3SRuB+oqTTNNktLPF0wmlz97G39K0Np2N/e2nb9cVV08ySaYn2j/WKx/KjmAktbVS+yTPXOPWmNp0ZmWULIrx5G3+E++KHuWinO2q322efdt7nFHMBDJIoxvGTk9auW9uluised3TPaq82mSXTLvIHPU9BVmzhy+NyPs/u0cwC/Zlu/nWSpEVohjJI6Uv8Au0g+9UgOV1HAVRzngd6HuFibDNt3HP406iBkaZhtyy0ARyDy3/56M/50TMqDyydxx92nSurtk8VQknt01Ha7bWPIoAtrLFCjHaFwM4xUS3MWr2jLCsfm54yKlltlYZ3ZWkjcQt8vWqiBB5M0FviaJAy8bhVdpuauXVwj8NVW9toZWU1QCIuT8vyn24pamgMNrDTPm9qAM/7TN9s/6Y1M/G3Hz56+9T1BeWv2XyX3/JSauTIiie3KK3lW+712jNUdc0ybWr+NoLxbdY15jH8dR2lpNBM0i/6hun0o1C2lMLfZ/wDW5/ShKxJY3fuhth27flIUcE0xJE5HzRN9ODUTQSLYxebLJDJ/EU+8x9KjEeyTOc/zH1qkBItopk+8oz3Ln+VE1miMrBtzZxkdBRK+9R822liGQB5neqUtRS2JrSDzgy+1PiRbOA+bz1xVi3tytoyqdrMOG9DVO00m7Ft/pUnnshz9BWjehC1QzabVGuI13+YMKtJDqEmtKqyW5hkQ4yD171eZNwA3YwDxVWKKS3BZvu0ou5PKRznA3J+VO06VppPlj5pfK+tT2knltVFGlA7lP9XlgMUzUbm6MdrHFEHDM3mEj7op+nTNEG/ebtxzj0qSWb7PG7f3iBQBRW3kczANIcHlQeKhFvulXarK2Pm960pJEKPIWx5Ee8istr4XckFxGf3TA8/zoApukl0zJDNIko5QMeGPp/P8qkkk2XC/NmPbj/gVWb+3SG2kltxulUbtv972oP720hl27WYfMP7p9KAGCMGNnU8gZ571m2URgEzLHFbzSHcVx/rOa0XztOOtQRhmk/ede1TICK4nZZEVlEe7qAetW0JP3emKaYo/NXP3qmhjUTmpAjeGR5Bj0p6RSR1aix5vzcLjk+lVpdQt4r37Ky7vMOVegCxEsk6cSbV2lRjjBqsQ0unLBcHzZFUHefWr4h49ff1qCYYJ2+tAEej332WEJ5hUDt/eqUzyXF6zcHbjCMMgjHpWffArJubtVzSrmG8t3H8XSgC5AIWjby/3qnrnnFRmSON1VTsOfwFSWO62T2ptwokfcO/WgBzxQwXLzfZ4XkcDdKB8xx0zU0AzH97cG5+lVPK+lPhTa34UAWHGc4/D2qaCffGFk+Y1VpU++PrVcoHsfwBGPBlx/wBfj/8AoCUU74C/8iZN/wBfbf8AoCUV9Jh9KUUePW+NmHqv7NQ1LxHqeoDWmjOpTvPs+yZ8vcxbGd/OM+gqlY/sqNbajJcSeIGmZiCF+xYAA7f6yiisXl+Hbu4/i/8AM2WMrJWT/BF3/hmlRu26zjP/AE6dP/H6P+GbPk2/21/5J/8A2dFFL+z8P/L+L/zD67W7/ghq/syKGVv7aztYMM2fTH/A6W4/Zp+0Tl21rqc4Fn/9nRRR/Z+H/l/F/wCYfXa3f8EC/szqD/yGT/4Cf/Z0+P8AZxkj1Mz/ANu/u9m0R/Y+h9c7/wClFFH9n4f+X8X/AJh9drd/wRMP2d1G8/2qu6TqwtOT/wCP00fs7Y/5jH/kp/8AZ0UUf2fh/wCX8X/mH12t3/BC/wDDO5/6DH/kp/8AZ0n/AAzt/wBRj/yU/wDs6KKf9n4f+X8X/mH1yt3/AAQ0/s5ZP/IZ/wDJT/7OnJ+zrtX/AJDH/kp/9nRRR/Z9D+X8X/mL65V7/kSr+z9t/wCYv/5K/wD2dRXP7PMkwbbrW3cAP+PPOMf8Dooo/s/D/wAv4v8AzD65V7/kC/s75aNpNY3tGcg/ZMdv9+rEfwFMbN/xNuGIP/Hr0x/wOiil/Z+H/l/F/wCYfXKvf8iG4/Z4WZfl1dlOCM/Zv/s6lT4CMkOz+2P4QufsnYf8Dooo/s/D/wAv4v8AzD65V7/kIfgBkf8AIW/8lf8A7Oo4f2evKz/xOM5/6df/ALOiij+z8P8Ay/i/8w+uVe/5DZ/2cxcHa2sExtwyfZeo7/x0sH7OUNrAsMeoxrbr/ALT+u+iij+z8P8Ay/i/8w+uVe/5Ey/AMr/zFv8AyV/+zpX+AheVW/tbAXt9l6/+P0UUf2fh/wCX8X/mH1yr3/II/gJsY/8AE275/wCPX/7Om237P/2dZB/a27zG3f8AHr0/8fooo/s/D/y/i/8AMPrlXv8AkO/4UCpIzqnT/p1/+zqGT9naOWbzG1TnOf8Aj1/+zooo/s/D/wAv4v8AzD65V7/kSP8AAAuB/wATfp/06/8A2dRt+z1u/wCYx/5Kf/Z0UU/7Pw/8v4v/ADD65V7/AJAf2d8j/kL/APkp/wDZ1Gf2c8n/AJDH/kp/9nRRR/Z9D+X8X/mH1yr3/IX/AIZ0P/QZ/wDJT/7Ok/4Zy/6jP/kp/wDZ0UUf2fQ/l/F/5h9cq9/yD/hnL/qM/wDkp/8AZ1X1D9mMX80Lf22V8noPsmc/+P0UUf2fQ/l/F/5i+t1e/wCQ8/s0Bv8AmNf+Sf8A9nUbfsxbv+Y5/wCSf/2dFFH9n0P5fxf+YfWqvf8AIR/2YN6Y/tz/AMkv/tlVpv2T/NP/ACH8f9uP/wBsooo/s+h/L+L/AMw+tVe/5D4/2VPLP/Ie/wDJL/7ZQf2Vcybv7e/8kv8A7ZRRR9Qofy/i/wDMPrVXv+RK37MEhjCjxBhV7fYv/tlPh/ZlaMHOvbt3X/Q8f+1KKKr6jQ/l/Fi+s1F1I5v2WlllV/7cOV/6c+v/AI/RL+y55hyNc2/9uX/2yiiksDQW0fxf+YfWancVf2Xtv/Mc/wDJL/7ZSn9l/wD6jn/kl/8AbKKKf1Kj2/Fh9Zqdye2/ZuaBcf25u/7c/wD7On/8M4qVG7WN2CTzaev/AAOiij6lR7fiw+s1O45P2dtsRX+2F69rPt6ffqqv7MrRptXXFVcnj7D7/wDXSiij6lR7fiw+s1O4x/2XjIpVtd4/68v/ALZR/wAMvt8v/E++6Mf8eX/2yiij6lR7fiw+s1O4v/DMB/6Dn/kl/wDbKb/wy3z/AMh3/wAkv/tlFFH1Gh/L+LD6zU7jT+yyC4b+3On/AE5f/bKkX9mDa+7+3P8AyT/+zoopfUaH8v4v/MPrNTuTJ+zVsKf8Tr7n/Tn1/wDH6db/ALNMK3yzS6r5i7gWC2u1iO+DuOD74P0ooo+o0P5fxYfWanc1/wDhQGj7SPtWqc/9NE/+IqFv2ctDZs/atV/7+x//ABFFFX9Uo/yi9vU7iS/s4aHMm1rnVDxj/WR//EU2x/Zp0GwDeXcap8xzzLH/APEUUUfVKP8AKHt6nctf8KC0fy9v2rU8f9dE/wDiKjX9njRVP/Hzqn/fxP8A4iiij6pR/lD29TuH/DPWi/8APzqn/fxP/iKP+GedF/5+tU/7+J/8RRRR9Vo/yh7ep3D/AIZ50X/n61T/AL+R/wDxFA/Z60UH/j61T/v5H/8AEUUUfVaX8ovb1O51HhHwjb+C9Me1tZJ5I5JTKTKQWBIAxwBxxRRRW8YpKyM223dn/9k=;" vertex="1" parent="1">
          <mxGeometry x="531" y="6" width="306.74" height="468" as="geometry" />
        </mxCell>
      </root>
    </mxGraphModel>
  </diagram>
</mxfile>
